<svg width="12" height="12" viewBox="0 0 12 12" fill="none" xmlns="http://www.w3.org/2000/svg">
  <mask id="mask0_664_2779" style="mask-type:alpha" maskUnits="userSpaceOnUse" x="0" y="0" width="12" height="12">
    <rect width="12" height="12" fill="#D9D9D9" />
  </mask>
  <g mask="url(#mask0_664_2779)">
    <path
      d="M3 11C2.725 11 2.48958 10.9067 2.29375 10.7202C2.09792 10.5337 2 10.3095 2 10.0476V5.28571C2 5.02381 2.09792 4.7996 2.29375 4.6131C2.48958 4.42659 2.725 4.33333 3 4.33333H3.5V3.38095C3.5 2.72222 3.74375 2.16071 4.23125 1.69643C4.71875 1.23214 5.30833 1 6 1C6.69167 1 7.28125 1.23214 7.76875 1.69643C8.25625 2.16071 8.5 2.72222 8.5 3.38095V4.33333H9C9.275 4.33333 9.51042 4.42659 9.70625 4.6131C9.90208 4.7996 10 5.02381 10 5.28571V10.0476C10 10.3095 9.90208 10.5337 9.70625 10.7202C9.51042 10.9067 9.275 11 9 11H3ZM3 10.0476H9V5.28571H3V10.0476ZM6 8.61905C6.275 8.61905 6.51042 8.52579 6.70625 8.33929C6.90208 8.15278 7 7.92857 7 7.66667C7 7.40476 6.90208 7.18056 6.70625 6.99405C6.51042 6.80754 6.275 6.71429 6 6.71429C5.725 6.71429 5.48958 6.80754 5.29375 6.99405C5.09792 7.18056 5 7.40476 5 7.66667C5 7.92857 5.09792 8.15278 5.29375 8.33929C5.48958 8.52579 5.725 8.61905 6 8.61905ZM4.5 4.33333H7.5V3.38095C7.5 2.98413 7.35417 2.64683 7.0625 2.36905C6.77083 2.09127 6.41667 1.95238 6 1.95238C5.58333 1.95238 5.22917 2.09127 4.9375 2.36905C4.64583 2.64683 4.5 2.98413 4.5 3.38095V4.33333Z"
      fill="#F5F7F7" />
  </g>
</svg>
