<svg width="28" height="16" viewBox="0 0 28 16" fill="none" xmlns="http://www.w3.org/2000/svg">
<rect width="28" height="16" rx="8" fill="#FF599F"/>
<path d="M12.0048 6.8024H9.6112V7.656H12.0048V6.8024ZM12.0048 5.9752V5.1304H9.6112V5.9752H12.0048ZM12.0048 10.076C12.3685 10.4163 12.7557 10.6744 13.1664 10.8504C13.4421 11.0088 13.5243 11.2405 13.4128 11.5456C13.2544 11.8272 13.0285 11.9035 12.7352 11.7744C11.7203 11.2229 10.9224 10.4339 10.3416 9.4072C10.2301 9.16667 10.2917 8.9672 10.5264 8.8088C10.7669 8.69147 10.9693 8.756 11.1336 9.0024C11.2157 9.13733 11.3125 9.28107 11.424 9.4336L12.6648 8.8176C12.9229 8.712 13.1253 8.77947 13.272 9.02C13.3659 9.27813 13.2896 9.47467 13.0432 9.6096L12.0048 10.076ZM9.6112 8.536V10.8856L10.5264 10.6832C10.8021 10.6304 10.9899 10.7331 11.0896 10.9912C11.1365 11.1261 11.1307 11.2493 11.072 11.3608C11.0133 11.4781 10.9077 11.5544 10.7552 11.5896L9.4528 11.8888C9.224 11.9416 9.0392 11.9211 8.8984 11.8272C8.74587 11.7275 8.6696 11.5573 8.6696 11.3168V4.708C8.6696 4.5672 8.7136 4.4528 8.8016 4.3648C8.89547 4.27093 9.0128 4.224 9.1536 4.224H12.4536C12.5944 4.224 12.7088 4.27093 12.7968 4.3648C12.8907 4.4528 12.9376 4.5672 12.9376 4.708V8.052C12.9376 8.19867 12.8936 8.316 12.8056 8.404C12.7176 8.492 12.6003 8.536 12.4536 8.536H9.6112ZM6.5576 10.208V11.4576C6.55173 11.7685 6.39333 11.9269 6.0824 11.9328C5.77733 11.9269 5.61893 11.7685 5.6072 11.4576V4.7168C5.6072 4.53493 5.66 4.3912 5.7656 4.2856C5.8712 4.18 6.01493 4.1272 6.1968 4.1272H7.6928C7.85707 4.1272 7.99493 4.1712 8.1064 4.2592C8.23547 4.35893 8.3 4.50853 8.3 4.708C8.3 4.74907 8.28533 4.86347 8.256 5.0512L7.9128 6.8816C7.8952 6.96373 7.89227 7.02827 7.904 7.0752L8.2736 8.756C8.47307 9.71813 8.15627 10.2021 7.3232 10.208H6.5576ZM6.5576 9.3104H7.288C7.38187 9.3104 7.41413 9.24293 7.3848 9.108L7.024 7.3216C6.98293 7.13973 6.97413 6.97547 6.9976 6.8288L7.2968 5.0248H6.5576V9.3104ZM17.4696 11.088C17.4696 11.2405 17.4168 11.3637 17.3112 11.4576C17.2115 11.5573 17.0853 11.6072 16.9328 11.6072H14.856C14.7035 11.6072 14.5773 11.5573 14.4776 11.4576C14.3779 11.3579 14.328 11.2347 14.328 11.088V4.9808C14.328 4.82827 14.3779 4.70213 14.4776 4.6024C14.5773 4.50267 14.7035 4.4528 14.856 4.4528H16.9328C17.0912 4.4528 17.2203 4.50267 17.32 4.6024C17.4197 4.70213 17.4696 4.82827 17.4696 4.9808V11.088ZM18.7016 9.1696C18.5608 8.8 18.3408 8.2808 18.0416 7.612C17.9477 7.34213 18.024 7.1368 18.2704 6.996C18.3819 6.9432 18.5021 6.93733 18.6312 6.9784C18.7603 7.01947 18.8512 7.09573 18.904 7.2072C19.1269 7.72933 19.3469 8.24853 19.564 8.7648C19.6755 9.05227 19.5963 9.27813 19.3264 9.4424C19.0331 9.548 18.8248 9.45707 18.7016 9.1696ZM21.4384 6.468V10.3664C21.4384 10.8123 21.3005 11.1819 21.0248 11.4752C20.7315 11.7861 20.3531 11.9416 19.8896 11.9416H19.0184C18.8776 11.9416 18.7603 11.8947 18.6664 11.8008C18.5725 11.7069 18.5256 11.5925 18.5256 11.4576C18.5256 11.3227 18.5725 11.2083 18.6664 11.1144C18.7603 11.0205 18.8776 10.9736 19.0184 10.9736H19.74C20.1741 10.9619 20.3941 10.7507 20.4 10.34V6.468H18.288C18.1472 6.468 18.0299 6.424 17.936 6.336C17.848 6.24213 17.804 6.1248 17.804 5.984C17.804 5.8432 17.8509 5.72587 17.9448 5.632C18.0387 5.53813 18.156 5.4912 18.2968 5.4912H20.4V4.3736C20.4 4.2328 20.4469 4.11547 20.5408 4.0216C20.6347 3.92773 20.7579 3.8808 20.9104 3.8808C21.0688 3.8808 21.1949 3.92773 21.2888 4.0216C21.3885 4.1096 21.4384 4.22693 21.4384 4.3736V5.4912H21.8696C22.0104 5.4912 22.1277 5.53813 22.2216 5.632C22.3155 5.72587 22.3624 5.8432 22.3624 5.984C22.3624 6.1248 22.3155 6.24213 22.2216 6.336C22.1336 6.424 22.0192 6.468 21.8784 6.468H21.4384ZM16.5016 8.4128H15.2872V10.6656H16.5016V8.4128ZM16.5016 7.48V5.3944H15.2872V7.48H16.5016Z" fill="white"/>
</svg>
