<svg width="28" height="16" viewBox="0 0 28 16" fill="none" xmlns="http://www.w3.org/2000/svg">
<rect width="28" height="16" rx="8" fill="#00BFFF"/>
<path d="M6.4256 5.6144C6.31413 5.456 6.1176 5.18907 5.836 4.8136C5.67173 4.5496 5.70693 4.31493 5.9416 4.1096C6.19973 3.94533 6.43733 3.97467 6.6544 4.1976C6.92427 4.5496 7.13253 4.8136 7.2792 4.9896C7.46107 5.2712 7.42587 5.52347 7.1736 5.7464C6.88613 5.92827 6.6368 5.88427 6.4256 5.6144ZM7.0064 11.4752C6.75413 11.6629 6.52827 11.7128 6.3288 11.6248C6.1352 11.5368 6.03253 11.3579 6.0208 11.088V7.6296H5.6952C5.5544 7.6296 5.44 7.5856 5.352 7.4976C5.264 7.4096 5.22 7.2952 5.22 7.1544C5.22 7.0136 5.264 6.8992 5.352 6.8112C5.44587 6.71733 5.5632 6.6704 5.704 6.6704H6.54C6.6808 6.6704 6.7952 6.71733 6.8832 6.8112C6.97707 6.8992 7.024 7.0136 7.024 7.1544V10.2608C7.14133 10.1552 7.25867 10.0496 7.376 9.944C7.61653 9.76213 7.83947 9.77973 8.0448 9.9968C8.2208 10.2315 8.20027 10.4515 7.9832 10.6568C7.66053 10.9325 7.33493 11.2053 7.0064 11.4752ZM12.4976 11.792V11.8008H8.7664C8.6256 11.8008 8.50533 11.7509 8.4056 11.6512C8.31173 11.5573 8.2648 11.4371 8.2648 11.2904V8.8088C8.2648 8.668 8.3088 8.5536 8.3968 8.4656C8.49067 8.37173 8.608 8.3248 8.7488 8.3248H10.1216V7.1808H8.168C8.0448 7.1808 7.9392 7.1368 7.8512 7.0488C7.7632 6.9608 7.7192 6.8552 7.7192 6.732C7.7192 6.60293 7.7632 6.4944 7.8512 6.4064C7.9392 6.3184 8.04773 6.2744 8.1768 6.2744H10.1216V5.2008C9.57013 5.22427 9.01867 5.2448 8.4672 5.2624C8.33813 5.26827 8.2296 5.23013 8.1416 5.148C8.0536 5.06587 8.00667 4.95733 8.0008 4.8224C7.99493 4.68747 8.03307 4.576 8.1152 4.488C8.19733 4.4 8.30587 4.35307 8.4408 4.3472C9.9192 4.30027 11.3565 4.23573 12.7528 4.1536C12.8819 4.14187 12.9875 4.17707 13.0696 4.2592C13.1576 4.33547 13.2045 4.43813 13.2104 4.5672C13.2163 4.6904 13.1781 4.79893 13.096 4.8928C13.0139 4.98667 12.9141 5.03653 12.7968 5.0424C12.2512 5.0776 11.7056 5.1128 11.16 5.148V6.2744H13.0432C13.1723 6.2744 13.2808 6.3184 13.3688 6.4064C13.4568 6.4944 13.5008 6.60293 13.5008 6.732C13.5008 6.8552 13.4568 6.9608 13.3688 7.0488C13.2808 7.1368 13.1752 7.1808 13.052 7.1808H11.16V8.3248H12.524C12.6648 8.3248 12.7792 8.37173 12.8672 8.4656C12.9611 8.5536 13.008 8.668 13.008 8.8088V11.2816C13.008 11.4224 12.9581 11.5427 12.8584 11.6424C12.7587 11.7421 12.6384 11.792 12.4976 11.792ZM11.9872 10.9208V9.196H9.2768V10.9208H11.9872ZM17.8656 6.8288C17.8597 7.1456 17.6984 7.30693 17.3816 7.3128H14.9176C14.6008 7.30693 14.4395 7.1456 14.4336 6.8288V4.6376C14.4395 4.3208 14.6008 4.15947 14.9176 4.1536H17.3816C17.6984 4.15947 17.8597 4.3208 17.8656 4.6376V6.8288ZM20.444 8.4128C20.7491 8.95253 21.2243 9.44533 21.8696 9.8912C22.1453 10.0789 22.1805 10.296 21.9752 10.5424C21.7875 10.7712 21.5616 10.7947 21.2976 10.6128C20.8107 10.2784 20.3912 9.87947 20.0392 9.416C19.7928 9.82667 19.4056 10.2256 18.8776 10.6128C18.6253 10.8064 18.3965 10.7888 18.1912 10.56C17.9859 10.3253 18.024 10.1083 18.3056 9.9088C18.7573 9.58027 19.0917 9.2224 19.3088 8.8352C19.5435 8.40693 19.6608 7.90533 19.6608 7.3304V7.1016C19.6667 6.7848 19.8104 6.62347 20.092 6.6176C20.3795 6.62347 20.532 6.7848 20.5496 7.1016V7.3304C20.5496 7.7352 20.5144 8.096 20.444 8.4128ZM20.312 5.0072L20.2152 5.4736H21.4208C21.7376 5.47947 21.8989 5.6408 21.9048 5.9576V8.5272C21.8989 8.844 21.7552 9.00533 21.4736 9.0112C21.192 9.00533 21.0483 8.844 21.0424 8.5272V6.3008H19.1856V8.5272C19.1797 8.844 19.036 9.00533 18.7544 9.0112C18.4728 9.00533 18.3291 8.844 18.3232 8.5272V5.9576C18.3291 5.6408 18.4904 5.47947 18.8072 5.4736H19.3528L19.4496 5.0072H18.6928C18.376 5.00133 18.2147 4.86347 18.2088 4.5936C18.2147 4.32373 18.376 4.18587 18.6928 4.18H21.676C21.9928 4.18587 22.1541 4.32373 22.16 4.5936C22.1541 4.86347 21.9928 5.00133 21.676 5.0072H20.312ZM16.968 6.0984H15.3312V6.5208H16.968V6.0984ZM16.968 5.3416V4.9456H15.3312V5.3416H16.968ZM16.8536 10.8328C17.0707 10.8973 17.3493 10.9384 17.6896 10.956C17.9008 10.9677 18.2147 10.9736 18.6312 10.9736H21.7464C21.8989 10.9736 22.0192 11.0117 22.1072 11.088C22.2011 11.1701 22.248 11.2816 22.248 11.4224C22.248 11.5691 22.2011 11.6776 22.1072 11.748C22.0192 11.8243 21.8989 11.8624 21.7464 11.8624H18.6312C17.7512 11.8624 17.0472 11.7685 16.5192 11.5808C15.9267 11.3696 15.4925 11.0235 15.2168 10.5424C15.0643 11.0645 14.9264 11.4459 14.8032 11.6864C14.6565 11.9739 14.4453 12.0472 14.1696 11.9064C13.9173 11.7773 13.8645 11.5632 14.0112 11.264C14.24 10.7888 14.4189 10.208 14.548 9.5216C14.5832 9.35733 14.6301 9.24 14.6888 9.1696C14.7592 9.08747 14.8619 9.0464 14.9968 9.0464C15.2021 9.0464 15.3341 9.11093 15.3928 9.24C15.4163 9.28693 15.4368 9.33387 15.4544 9.3808C15.5776 9.73867 15.7448 10.0379 15.956 10.2784V8.5712H14.592C14.4453 8.5712 14.328 8.53307 14.24 8.4568C14.152 8.38053 14.108 8.272 14.108 8.1312C14.108 7.9904 14.152 7.88187 14.24 7.8056C14.328 7.72933 14.4453 7.6912 14.592 7.6912H17.6192C17.7659 7.6912 17.8832 7.72933 17.9712 7.8056C18.0592 7.88187 18.1032 7.9904 18.1032 8.1312C18.1032 8.272 18.0592 8.38053 17.9712 8.4568C17.8832 8.53307 17.7659 8.5712 17.6192 8.5712H16.8536V9.0992H17.6192C17.9419 9.0992 18.1032 9.24 18.1032 9.5216C18.1032 9.8032 17.9419 9.944 17.6192 9.944H16.8536V10.8328Z" fill="white"/>
</svg>
