<svg width="28" height="16" viewBox="0 0 28 16" fill="none" xmlns="http://www.w3.org/2000/svg">
<rect width="28" height="16" rx="8" fill="#5D57F8"/>
<path d="M6.5576 11.5896C6.44027 11.9005 6.22027 12.0208 5.8976 11.9504C5.75093 11.9093 5.64533 11.8243 5.5808 11.6952C5.51627 11.5661 5.50747 11.4283 5.5544 11.2816C5.7832 10.5659 6.00027 9.82667 6.2056 9.064C6.24667 8.91733 6.32587 8.81173 6.4432 8.7472C6.5664 8.6768 6.70133 8.66213 6.848 8.7032C6.99467 8.74427 7.10027 8.8264 7.1648 8.9496C7.2352 9.06693 7.24693 9.196 7.2 9.3368C7.1648 9.44827 6.95067 10.1992 6.5576 11.5896ZM6.188 7.7528C5.97093 7.55333 5.75093 7.35093 5.528 7.1456C5.3168 6.9344 5.30213 6.70853 5.484 6.468C5.70107 6.2568 5.9328 6.23333 6.1792 6.3976C6.4256 6.59707 6.6544 6.78773 6.8656 6.9696C7.10027 7.21013 7.1208 7.4624 6.9272 7.7264C6.69253 7.9552 6.44613 7.964 6.188 7.7528ZM6.4256 5.5528C6.37867 5.50587 6.15573 5.30053 5.7568 4.9368C5.55147 4.73147 5.5368 4.50853 5.7128 4.268C5.924 4.06267 6.14693 4.04213 6.3816 4.2064C6.61627 4.39413 6.85093 4.58187 7.0856 4.7696C7.20293 4.86347 7.26747 4.98373 7.2792 5.1304C7.29093 5.2712 7.24693 5.40027 7.1472 5.5176C6.9184 5.7464 6.67787 5.75813 6.4256 5.5528ZM12.4272 11.792H8.5552C8.5376 11.7979 8.50533 11.8008 8.4584 11.8008C8.31173 11.8008 8.18853 11.7509 8.0888 11.6512C7.98907 11.5515 7.9392 11.4283 7.9392 11.2816V8.8352C7.9392 8.6944 7.9832 8.58 8.0712 8.492C8.16507 8.39813 8.2824 8.3512 8.4232 8.3512H9.9632V7.2072H8.0184C7.8952 7.2072 7.7896 7.1632 7.7016 7.0752C7.6136 6.9872 7.5696 6.8816 7.5696 6.7584C7.5696 6.62933 7.6136 6.5208 7.7016 6.4328C7.7896 6.3448 7.89813 6.3008 8.0272 6.3008H9.9632V5.2008C9.58187 5.2184 9.02453 5.23893 8.2912 5.2624C8.168 5.26827 8.0624 5.23307 7.9744 5.1568C7.89227 5.07467 7.84827 4.96907 7.8424 4.84C7.83653 4.71093 7.87173 4.60533 7.948 4.5232C8.02427 4.44107 8.12693 4.39707 8.256 4.3912C9.95147 4.3384 11.4357 4.268 12.7088 4.18C12.8437 4.16827 12.9523 4.20053 13.0344 4.2768C13.1165 4.35307 13.1605 4.45573 13.1664 4.5848C13.1781 4.71387 13.1429 4.8224 13.0608 4.9104C12.9845 4.99253 12.8848 5.03947 12.7616 5.0512C11.9872 5.09813 11.4035 5.13333 11.0104 5.1568V6.3008H13.008C13.1371 6.3008 13.2456 6.3448 13.3336 6.4328C13.4216 6.5208 13.4656 6.62933 13.4656 6.7584C13.4656 6.8816 13.4216 6.9872 13.3336 7.0752C13.2456 7.1632 13.14 7.2072 13.0168 7.2072H11.0104V8.3512H12.5592C12.7 8.3512 12.8144 8.39813 12.9024 8.492C12.9963 8.58 13.0432 8.6944 13.0432 8.8352V11.2904C13.0432 11.4312 12.9933 11.5515 12.8936 11.6512C12.7939 11.7509 12.6736 11.8008 12.5328 11.8008C12.4859 11.8008 12.4507 11.7979 12.4272 11.792ZM12.0136 10.8856V9.24H8.9688V10.8856H12.0136ZM14.9 5.3504C14.7709 5.3504 14.6624 5.3064 14.5744 5.2184C14.4864 5.1304 14.4424 5.02187 14.4424 4.8928C14.4424 4.76373 14.4864 4.6552 14.5744 4.5672C14.6624 4.4792 14.7709 4.4352 14.9 4.4352H17.2848C17.4139 4.4352 17.5224 4.4792 17.6104 4.5672C17.6984 4.6552 17.7424 4.76373 17.7424 4.8928C17.7424 5.02187 17.6984 5.1304 17.6104 5.2184C17.5224 5.3064 17.4139 5.3504 17.2848 5.3504H14.9ZM19.9248 5.5176H21.5176C21.6584 5.5176 21.7728 5.5616 21.8608 5.6496C21.9488 5.7376 21.9928 5.852 21.9928 5.9928L21.9752 10.3752C21.9752 10.8445 21.8285 11.22 21.5352 11.5016C21.2477 11.7891 20.884 11.9328 20.444 11.9328H19.8808C19.74 11.9328 19.6227 11.8859 19.5288 11.792C19.4349 11.6981 19.388 11.5808 19.388 11.44C19.388 11.2992 19.4349 11.1819 19.5288 11.088C19.6227 10.9941 19.74 10.9472 19.8808 10.9472H20.3736C20.5379 10.9472 20.6787 10.8885 20.796 10.7712C20.9133 10.6539 20.972 10.5043 20.972 10.3224L20.9808 6.4504H19.9072L19.8984 6.7144C19.8749 7.81733 19.7781 8.73253 19.608 9.46C19.4203 10.2755 19.0976 11.0528 18.64 11.792C18.5637 11.9269 18.4552 12.0091 18.3144 12.0384C18.1736 12.0677 18.0357 12.0413 17.9008 11.9592C17.6309 11.748 17.5899 11.4987 17.7776 11.2112C18.1824 10.6421 18.4728 9.99093 18.6488 9.2576C18.8013 8.6064 18.8952 7.74693 18.9304 6.6792C18.9363 6.60293 18.9392 6.52667 18.9392 6.4504H18.5344C18.3995 6.4504 18.288 6.4064 18.2 6.3184C18.112 6.2304 18.068 6.11893 18.068 5.984C18.068 5.84907 18.112 5.7376 18.2 5.6496C18.288 5.5616 18.3995 5.5176 18.5344 5.5176H18.9568C18.9685 5.01307 18.9744 4.61413 18.9744 4.3208C18.9803 4.18587 19.0301 4.07147 19.124 3.9776C19.2179 3.88373 19.3352 3.83973 19.476 3.8456C19.6168 3.85147 19.7312 3.90133 19.8192 3.9952C19.9131 4.0832 19.9571 4.1976 19.9512 4.3384L19.9248 5.5176ZM17.8832 10.2696C17.9184 10.3517 17.936 10.4221 17.936 10.4808C17.936 10.6157 17.8949 10.7272 17.8128 10.8152C17.7365 10.8973 17.628 10.9384 17.4872 10.9384H14.7152C14.6859 10.9384 14.6419 10.9325 14.5832 10.9208C14.5187 10.9208 14.4512 10.9003 14.3808 10.8592C14.1813 10.6832 14.152 10.4515 14.2928 10.164C14.6917 9.3192 15.0291 8.4656 15.3048 7.6032H14.4952C14.372 7.6032 14.2664 7.5592 14.1784 7.4712C14.0904 7.3832 14.0464 7.2776 14.0464 7.1544C14.0464 7.02533 14.0904 6.9168 14.1784 6.8288C14.2664 6.7408 14.3749 6.6968 14.504 6.6968H17.584C17.7131 6.6968 17.8216 6.7408 17.9096 6.8288C17.9976 6.9168 18.0416 7.02533 18.0416 7.1544C18.0416 7.2776 17.9976 7.3832 17.9096 7.4712C17.8216 7.5592 17.716 7.6032 17.5928 7.6032H16.308C16.0616 8.37173 15.736 9.18427 15.3312 10.0408L16.8096 10.032L16.5456 9.328C16.4928 9.19307 16.484 9.064 16.5192 8.9408C16.5544 8.81173 16.6307 8.71787 16.748 8.6592C16.8712 8.5888 16.9915 8.5712 17.1088 8.6064C17.232 8.6416 17.3171 8.72667 17.364 8.8616L17.8568 10.208C17.8685 10.2315 17.8773 10.252 17.8832 10.2696Z" fill="white"/>
</svg>
