<svg xmlns="http://www.w3.org/2000/svg" width="20" height="20" viewBox="0 0 20 20" fill="none">
  <defs>
    <mask id="icon-image-front-mask" maskUnits="userSpaceOnUse" maskContentUnits="userSpaceOnUse" x="0" y="0" width="20" height="20">
      <rect width="20" height="20" fill="white"/>
      <rect x="0.978638" y="4.91113" width="12.83" height="12.6415" rx="2.70105" transform="rotate(-8.53825 0.978638 4.91113)" fill="black" stroke="black" stroke-width="4" stroke-linecap="round"/>
    </mask>
    <clipPath id="clip0_39_370">
      <rect width="20" height="20" fill="white"/>
    </clipPath>
  </defs>
  <g clip-path="url(#clip0_39_370)">
    <g mask="url(#icon-image-front-mask)">
      <rect x="6.68933" y="2.41455" width="12.83" height="12.7215" rx="2.70105" transform="rotate(8.13632 6.68933 2.41455)" stroke="white" stroke-width="1.8" stroke-linecap="round"/>
    </g>
    <rect x="0.993652" y="5.0083" width="12.83" height="12.83" rx="2.70105" transform="rotate(-8.53825 0.993652 5.0083)" stroke="white" stroke-width="1.8" stroke-linecap="round"/>
    <path d="M6.84139 11.2607C7.04703 11.0141 7.39784 10.9464 7.68044 11.0988L8.84002 11.724C9.09908 11.8637 9.41876 11.8195 9.6302 11.6148L11.2536 10.0429C11.6482 9.6608 12.3096 9.88457 12.3911 10.4277L12.7979 13.1368C12.8532 13.5056 12.5991 13.8494 12.2303 13.9048L5.3056 14.9445C4.69156 15.0366 4.28907 14.321 4.68676 13.8442L6.84139 11.2607Z" fill="white"/>
    <circle cx="5.98602" cy="8.69803" r="1.35053" transform="rotate(-8.53825 5.98602 8.69803)" fill="white"/>
  </g>
</svg>
