<svg width="18" height="18" viewBox="0 0 18 18" fill="none" xmlns="http://www.w3.org/2000/svg">
  <path
    d="M2.56299 10.778C2.56299 5.87346 5.52159 6.88539 6.13053 1.7373C9.52229 2.74731 10.7206 5.88262 11.015 6.88539C11.015 6.88539 12.2814 6.14916 12.6642 4.32329C18.6114 11.5231 13.8752 15.4285 10.6967 16.057C7.92569 16.605 2.56299 15.6825 2.56299 10.778Z"
    fill="#FFCA9A" stroke="#FF6E2F" stroke-width="2.16973" stroke-linejoin="round" />
  <path
    d="M6.17817 10.9435C6.00531 9.03019 7.19649 9.22012 7.4373 7.18433C8.77856 7.58373 9.25241 8.82358 9.36887 9.22012C9.36887 9.22012 9.86963 8.92898 10.021 8.20695C12.3399 10.9435 10.021 12.3553 9.25241 12.609C8.66197 12.804 6.35104 12.8568 6.17817 10.9435Z"
    fill="white" />
</svg>
