<svg xmlns="http://www.w3.org/2000/svg" width="12" height="12" viewBox="0 0 12 12" fill="none">
  <path d="M7.07288 2.16016C7.36577 1.86727 7.84053 1.86727 8.13342 2.16016L9.97913 4.00586C10.2718 4.29877 10.272 4.77358 9.97913 5.06641L8.13342 6.91211C7.84057 7.20462 7.36568 7.2047 7.07288 6.91211C6.7801 6.61932 6.7803 6.14448 7.07288 5.85156L7.63831 5.28613H4.55139C3.86109 5.2862 3.30139 5.84582 3.30139 6.53613V9.31055L3.29749 9.3877C3.25881 9.76561 2.93952 10.0605 2.55139 10.0605C2.16331 10.0605 1.84396 9.76558 1.8053 9.3877L1.80139 9.31055V6.53613C1.80139 5.01739 3.03266 3.7862 4.55139 3.78613H7.63831L7.07288 3.2207C6.78003 2.92785 6.7801 2.45306 7.07288 2.16016Z" fill="white" fill-opacity="0.6"/>
</svg>
