<svg width="10" height="10" viewBox="0 0 10 10" fill="none" xmlns="http://www.w3.org/2000/svg">
<g clip-path="url(#clip0_17206_27243)">
<path d="M1.66666 3.33325H8.74999" stroke="#FF599F" stroke-width="1.4" stroke-linecap="round"/>
<path d="M4.0625 1.25L2.1875 8.75" stroke="#FF599F" stroke-width="1.4" stroke-linecap="round"/>
<path d="M8.53991 1.42096C8.63433 1.04607 8.40696 0.665614 8.03207 0.571197C7.65718 0.47678 7.27673 0.70415 7.18231 1.07904L8.53991 1.42096ZM5.29342 8.57904C5.199 8.95394 5.42637 9.33439 5.80126 9.4288C6.17616 9.52322 6.55661 9.29585 6.65103 8.92096L5.29342 8.57904ZM4.55556 7.575C4.94216 7.575 5.25556 7.2616 5.25556 6.875C5.25556 6.4884 4.94216 6.175 4.55556 6.175V7.575ZM8.33333 7.575C8.71993 7.575 9.03333 7.2616 9.03333 6.875C9.03333 6.4884 8.71993 6.175 8.33333 6.175V7.575ZM1.25 6.175C0.863401 6.175 0.55 6.4884 0.55 6.875C0.55 7.2616 0.863401 7.575 1.25 7.575V6.175ZM7.18231 1.07904L5.76564 6.70404L7.12325 7.04596L8.53991 1.42096L7.18231 1.07904ZM6.44445 7.575H8.33333V6.175H6.44445V7.575ZM1.25 7.575H4.55556V6.175H1.25V7.575ZM5.76564 6.70404L5.52953 7.64154L6.88714 7.98346L7.12325 7.04596L5.76564 6.70404ZM5.52953 7.64154L5.29342 8.57904L6.65103 8.92096L6.88714 7.98346L5.52953 7.64154Z" fill="#FF599F"/>
</g>
<defs>
<clipPath id="clip0_17206_27243">
<rect width="10" height="10" fill="white"/>
</clipPath>
</defs>
</svg>
