<svg xmlns="http://www.w3.org/2000/svg" width="20" height="20" viewBox="0 0 20 20" fill="none">
  <path d="M15.3391 15.5962C15.8912 15.5963 16.3391 16.044 16.3391 16.5962C16.3391 17.1484 15.8912 17.5961 15.3391 17.5962H4.66132C4.10912 17.5961 3.66132 17.1484 3.66132 16.5962C3.66132 16.044 4.10912 15.5963 4.66132 15.5962H15.3391ZM9.99921 2.40283C10.5515 2.40283 10.9992 2.85055 10.9992 3.40283V10.2544L14.0432 7.89795C14.4796 7.55977 15.1072 7.63934 15.4455 8.07568C15.7837 8.51222 15.7042 9.13975 15.2678 9.47803L10.6125 13.0854C10.252 13.3646 9.74737 13.3647 9.3869 13.0854L4.73163 9.47803C4.29536 9.13984 4.21508 8.51218 4.55292 8.07568C4.89112 7.63916 5.51966 7.55986 5.95624 7.89795L8.99921 10.2534V3.40283C8.99921 2.85064 9.44705 2.40299 9.99921 2.40283Z" fill="black"/>
</svg>