<svg xmlns="http://www.w3.org/2000/svg" width="6" height="6" viewBox="0 0 6 6" fill="none">
  <g clip-path="url(#clip0_30735_14327)">
    <path d="M4.5363 3.49954C4.43952 3.67846 4.24576 3.83912 3.85823 4.16043L3.85823 4.16043C3.22308 4.68705 2.9055 4.95036 2.64657 5.00267C2.19289 5.09431 1.7327 4.87807 1.51368 4.47033C1.38867 4.23762 1.38867 3.82508 1.38867 3C1.38867 2.17492 1.38867 1.76238 1.51368 1.52967C1.7327 1.12193 2.19289 0.905689 2.64657 0.997333C2.9055 1.04964 3.22308 1.31295 3.85823 1.83957L3.85823 1.83957C4.24576 2.16088 4.43952 2.32154 4.5363 2.50046C4.70489 2.81215 4.70489 3.18785 4.5363 3.49954Z" fill="#FF4D98"/>
  </g>
  <defs>
    <clipPath id="clip0_30735_14327">
      <rect width="6" height="6" fill="white" transform="matrix(-1 0 0 1 6 0)"/>
    </clipPath>
  </defs>
</svg>
