<svg width="28" height="28" viewBox="0 0 28 28" fill="none" xmlns="http://www.w3.org/2000/svg">
  <rect width="28" height="28" rx="14" fill="white" fill-opacity="0.1" />
  <g clip-path="url(#clip0_36591_24530)">
    <path
      d="M12.6933 10.6025C12.9628 9.87416 13.993 9.87416 14.2626 10.6025L14.6142 11.5529C14.897 12.317 15.4994 12.9194 16.2635 13.2022L17.2139 13.5538C17.9423 13.8234 17.9423 14.8536 17.2139 15.1231L16.2635 15.4748C15.4994 15.7575 14.897 16.36 14.6142 17.1241L14.2626 18.0744C13.993 18.8028 12.9628 18.8028 12.6933 18.0744L12.3417 17.1241C12.0589 16.36 11.4565 15.7575 10.6923 15.4748L9.74201 15.1231C9.01363 14.8536 9.01363 13.8234 9.74201 13.5538L10.6923 13.2022C11.4565 12.9194 12.0589 12.317 12.3417 11.5529L12.6933 10.6025Z"
      fill="white" />
    <path
      d="M17.7035 8.58142C17.8098 8.29427 18.2159 8.29427 18.3222 8.58142L18.4608 8.95606C18.5723 9.2573 18.8098 9.49481 19.111 9.60628L19.4857 9.74491C19.7728 9.85116 19.7728 10.2573 19.4857 10.3636L19.111 10.5022C18.8098 10.6137 18.5723 10.8512 18.4608 11.1524L18.3222 11.527C18.2159 11.8142 17.8098 11.8142 17.7035 11.527L17.5649 11.1524C17.4534 10.8512 17.2159 10.6137 16.9147 10.5022L16.54 10.3636C16.2529 10.2573 16.2529 9.85116 16.54 9.74491L16.9147 9.60628C17.2159 9.49481 17.4534 9.2573 17.5649 8.95606L17.7035 8.58142Z"
      fill="white" />
  </g>
  <defs>
    <clipPath id="clip0_36591_24530">
      <rect width="12" height="12" fill="white" transform="translate(8 8)" />
    </clipPath>
  </defs>
</svg>
