<svg width="30" height="16" viewBox="0 0 30 16" fill="none" xmlns="http://www.w3.org/2000/svg">
  <g clip-path="url(#clip0_2420_2581)">
    <rect width="30" height="16" rx="8" fill="#274AFE" />
    <path
      d="M8.718 6.64H11.184V5.515C10.554 5.569 9.879 5.596 9.168 5.596L8.88 4.75C10.824 4.75 12.462 4.534 13.803 4.111L14.271 4.903C13.659 5.119 12.948 5.29 12.138 5.407V6.64H14.622V7.54H12.138V8.611H14.1V12.436H13.173V12.013H10.221V12.436H9.294V8.611H11.184V7.54H8.718V6.64ZM10.221 11.131H13.173V9.493H10.221V11.131ZM7.242 4.183C7.836 4.57 8.349 4.966 8.772 5.362L8.133 5.992C7.773 5.623 7.269 5.218 6.603 4.786L7.242 4.183ZM7.035 6.325C7.647 6.766 8.169 7.207 8.583 7.648L7.935 8.296C7.566 7.882 7.044 7.441 6.378 6.964L7.035 6.325ZM7.836 8.755L8.691 9.097C8.322 10.24 7.917 11.32 7.467 12.328L6.522 11.914C7.026 10.888 7.467 9.835 7.836 8.755ZM15.747 4.642H19.131V5.533H15.747V4.642ZM15.414 7.063H19.455V7.981H17.439C17.142 9.151 16.881 10.015 16.656 10.591C17.223 10.465 17.781 10.294 18.33 10.096C18.132 9.664 17.934 9.268 17.736 8.89L18.519 8.512C18.915 9.25 19.311 10.069 19.689 10.969C20.292 9.925 20.598 8.539 20.616 6.829V6.757H19.509V5.857H20.616V4.129H21.552V5.857H23.487C23.487 8.827 23.442 10.663 23.361 11.365C23.253 12.031 22.785 12.364 21.957 12.364C21.813 12.364 21.57 12.346 21.21 12.319L20.994 11.5C21.309 11.518 21.579 11.536 21.813 11.536C22.191 11.536 22.407 11.338 22.479 10.942C22.533 10.537 22.56 9.142 22.578 6.757H21.552V6.829C21.525 9.412 20.904 11.302 19.68 12.499L18.969 11.878C19.23 11.626 19.455 11.338 19.653 11.023L18.879 11.419C18.807 11.221 18.735 11.041 18.663 10.87C17.718 11.194 16.701 11.446 15.621 11.644L15.405 10.762C15.495 10.735 15.558 10.708 15.594 10.681C15.828 10.339 16.143 9.439 16.53 7.981H15.414V7.063Z"
      fill="white" />
  </g>
  <defs>
    <clipPath id="clip0_2420_2581">
      <rect width="30" height="16" fill="white" />
    </clipPath>
  </defs>
</svg>
