<svg width="16" height="16" viewBox="0 0 16 16" fill="none" xmlns="http://www.w3.org/2000/svg">
<circle cx="8" cy="8" r="7.5" fill="#7059FD" stroke="white"/>
<path d="M6.98575 6.22373C6.98575 6.22373 5.43342 6.22167 5.36882 7.62021C5.31173 8.85619 6.92753 8.30894 6.92753 8.30894" stroke="white" stroke-width="0.8" stroke-linecap="round" stroke-linejoin="round"/>
<path d="M5.38833 7.4211C5.38833 7.4211 4.79986 7.78398 4.85358 8.42546C4.94896 9.56456 6.0167 10.0313 6.34017 10.163C6.66358 10.2947 7.45562 10.4548 8.15208 9.79871" stroke="white" stroke-width="0.8" stroke-linecap="round" stroke-linejoin="round"/>
<path d="M5.8981 6.57087C5.8981 6.57087 5.23757 7.29448 4.78481 6.74185C4.41623 6.29198 4.83489 5.66889 5.13012 5.36079C5.69349 4.64428 6.70768 4.33503 7.65143 4.783C9.28882 5.56022 9.42408 7.0542 9.49855 7.87079C10.0208 8.07959 10.8902 8.42271 11.4983 8.65136" stroke="white" stroke-width="0.8" stroke-linecap="round" stroke-linejoin="round"/>
<path d="M8.08499 10.1099L9.7866 11.513" stroke="white" stroke-width="0.8" stroke-linecap="round" stroke-linejoin="round"/>
</svg>
