<svg width="30" height="18" viewBox="0 0 30 18" fill="none" xmlns="http://www.w3.org/2000/svg">
<rect width="30" height="18" rx="9" fill="#FF599F"/>
<path d="M6.1365 6.832H9.7275C9.7465 6.699 9.756 6.566 9.7655 6.433H6.7255V4.495H13.7745V6.433H10.782L10.725 6.832H14.3635V7.5635H10.6015L10.516 7.953H13.2045V12.076H14.5345V12.836H5.9655V12.076H7.2955V7.953H9.5375L9.6135 7.5635H6.1365V6.832ZM8.274 12.076H12.2355V11.6295H8.274V12.076ZM8.274 11.05H12.2355V10.6225H8.274V11.05ZM8.274 10.0335H12.2355V9.606H8.274V10.0335ZM8.274 9.0265H12.2355V8.6085H8.274V9.0265ZM12.8435 5.7585V5.2075H11.732V5.7585H12.8435ZM10.8485 5.7585V5.2075H9.6515V5.7585H10.8485ZM8.768 5.7585V5.2075H7.6565V5.7585H8.768ZM19.123 4.495H24.006V5.464H22.0205C21.992 5.711 21.9635 5.958 21.9255 6.186H23.778V10.8315H22.809V7.098H20.2725V10.8315H19.3035V6.186H20.9185C20.9565 5.9485 20.985 5.711 21.0135 5.464H19.123V4.495ZM22.429 10.7555C23.094 11.2495 23.664 11.753 24.12 12.247L23.398 12.9785C23.0085 12.494 22.467 11.962 21.764 11.392L22.429 10.7555ZM21.0135 7.5255H21.992V9.1975C21.9445 10.2235 21.6785 11.031 21.194 11.639C20.719 12.209 19.9495 12.646 18.8855 12.95L18.363 12.1045C19.3795 11.81 20.0635 11.449 20.415 11.0215C20.776 10.556 20.9755 9.948 21.0135 9.1975V7.5255ZM16.862 12.8455H15.8455L15.6175 11.905C15.9405 11.943 16.235 11.962 16.52 11.962C16.729 11.962 16.8335 11.829 16.8335 11.5725V5.464H15.4845V4.495H18.8665V5.464H17.8405V11.8195C17.8405 12.5035 17.508 12.8455 16.862 12.8455Z" fill="white"/>
</svg>
