<svg width="26" height="26" viewBox="0 0 26 26" fill="none" xmlns="http://www.w3.org/2000/svg">
  <path d="M4.33325 8.66675H22.7499" stroke="#222222" stroke-width="2.81667" stroke-linecap="round" />
  <path d="M10.5625 3.25L5.6875 22.75" stroke="#222222" stroke-width="2.81667" stroke-linecap="round" />
  <path
    d="M21.8046 3.59395C21.9945 2.8397 21.5371 2.07427 20.7828 1.88431C20.0286 1.69435 19.2632 2.1518 19.0732 2.90605L21.8046 3.59395ZM14.1621 22.406C13.9721 23.1603 14.4296 23.9257 15.1838 24.1157C15.9381 24.3056 16.7035 23.8482 16.8935 23.094L14.1621 22.406ZM11.8444 19.2833C12.6222 19.2833 13.2528 18.6528 13.2528 17.875C13.2528 17.0972 12.6222 16.4667 11.8444 16.4667V19.2833ZM21.6667 19.2833C22.4445 19.2833 23.075 18.6528 23.075 17.875C23.075 17.0972 22.4445 16.4667 21.6667 16.4667V19.2833ZM3.25 16.4667C2.4722 16.4667 1.84167 17.0972 1.84167 17.875C1.84167 18.6528 2.4722 19.2833 3.25 19.2833V16.4667ZM19.0732 2.90605L15.3899 17.5311L18.1212 18.219L21.8046 3.59395L19.0732 2.90605ZM16.7556 19.2833H21.6667V16.4667H16.7556V19.2833ZM3.25 19.2833H11.8444V16.4667H3.25V19.2833ZM15.3899 17.5311L14.776 19.9686L17.5074 20.6565L18.1212 18.219L15.3899 17.5311ZM14.776 19.9686L14.1621 22.406L16.8935 23.094L17.5074 20.6565L14.776 19.9686Z"
    fill="#222222" />
</svg>