<svg xmlns="http://www.w3.org/2000/svg" width="14" height="14" viewBox="0 0 14 14" fill="none">
  <path d="M2.5498 2.55029C2.93627 2.16383 3.56373 2.16286 3.9502 2.54932L11.4492 10.0493C11.8357 10.4358 11.8357 11.0632 11.4492 11.4497C11.0628 11.8359 10.4362 11.8359 10.0498 11.4497L7 8.3999L3.9502 11.4497C3.56375 11.8361 2.93626 11.8361 2.5498 11.4497C2.16357 11.0633 2.16348 10.4367 2.5498 10.0503L5.59961 6.99951L2.5498 3.94971C2.16343 3.56333 2.1636 2.93677 2.5498 2.55029ZM10.0498 2.55029C10.4362 2.1639 11.0627 2.16404 11.4492 2.55029C11.8355 2.93663 11.8363 3.56323 11.4502 3.94971L9.61133 5.78857C9.22484 6.17456 8.59822 6.17386 8.21191 5.7876C7.82572 5.40118 7.82569 4.77459 8.21191 4.38818L10.0498 2.55029Z" fill="white" fill-opacity="0.3"/>
</svg>
