<svg width="88" height="26" viewBox="0 0 88 26" fill="none" xmlns="http://www.w3.org/2000/svg">
<rect x="5" y="4" width="83" height="20" rx="10" fill="#FFDD00"/>
<mask id="path-2-outside-1_3129_5484" maskUnits="userSpaceOnUse" x="0.458509" y="0.949707" width="22" height="25" fill="black">
<rect fill="white" x="0.458509" y="0.949707" width="22" height="25"/>
<path d="M9.44191 21.2856L12.1763 21.9331C12.5573 22.0297 12.8039 22.4127 12.7046 22.7925C12.6213 23.1238 12.3428 23.3393 12.0132 23.3394C11.9653 23.3394 11.8981 23.3396 11.8501 23.3237L9.11574 22.6763C8.73471 22.5797 8.50417 22.1967 8.58742 21.8169C8.68354 21.434 9.06414 21.202 9.44191 21.2856ZM8.9966 19.187L12.9673 20.1304C13.3482 20.2109 13.5948 20.5939 13.4956 20.9897C13.4124 21.3211 13.1338 21.5365 12.8042 21.5366C12.7562 21.5366 12.6882 21.5371 12.6402 21.521L8.67042 20.5776C8.2894 20.4811 8.05885 20.0981 8.1421 19.7183C8.2382 19.3354 8.61889 19.1035 8.9966 19.187ZM11.3696 7.40967C14.1711 7.40981 16.46 9.69528 16.4761 12.5083C16.4761 14.2464 15.5896 15.8689 14.1392 16.812C14.1232 17.0599 14.0913 17.5426 14.0913 18.5015V18.8813C14.0913 19.097 13.9919 19.3129 13.8286 19.4448C13.6973 19.5446 13.5466 19.5933 13.3833 19.5933C13.3194 19.5933 13.2682 19.5927 13.2202 19.5767L8.75636 18.5503C8.37558 18.4537 8.14506 18.0705 8.22804 17.6909C8.3241 17.3079 8.70569 17.076 9.08351 17.1597L12.6724 17.9868C12.7076 16.101 12.839 15.9847 13.0855 15.8013C13.0855 15.8013 13.1017 15.8008 13.1177 15.7847C13.118 15.769 13.134 15.7684 13.1499 15.7524C14.3215 15.1055 15.0453 13.8668 15.0454 12.5249C15.0454 10.4875 13.3994 8.83252 11.3726 8.83252C9.34578 8.83253 7.69972 10.4875 7.69972 12.5249C7.69984 13.6835 8.22885 14.7619 9.15089 15.4731C9.46427 15.705 9.5121 16.152 9.28175 16.4673C9.05122 16.7827 8.60628 16.8309 8.29249 16.5991C7.0214 15.6239 6.28178 14.1339 6.28175 12.5278C6.28175 9.71467 8.55197 7.41357 11.3696 7.41357V7.40967ZM11.0132 9.55029C12.8088 9.55033 14.0581 10.7201 14.0581 12.4263C14.0581 12.826 13.7403 13.145 13.3423 13.145C12.9445 13.1448 12.6275 12.8259 12.6275 12.4263V12.4233C12.6275 11.0878 11.3789 10.9868 11.0132 10.9868C10.6152 10.9868 10.2984 10.6678 10.2984 10.2681C10.2985 9.86849 10.6153 9.55029 11.0132 9.55029ZM4.23781 11.3696C4.61959 11.3696 4.95265 11.6886 4.95265 12.0884C4.95263 12.4881 4.63576 12.8062 4.23781 12.8062H3.17335C2.7755 12.806 2.45853 12.488 2.45851 12.0884C2.45851 11.6887 2.77548 11.3697 3.17335 11.3696H4.23781ZM19.6001 11.3696C19.9819 11.3697 20.3155 11.6887 20.2993 12.0884C20.2993 12.4881 19.9815 12.8062 19.5835 12.8062H18.5191C18.1213 12.806 17.8042 12.488 17.8042 12.0884C17.8042 11.6888 18.1213 11.3698 18.5191 11.3696H19.6001ZM16.8042 5.62158C17.0889 5.33884 17.5393 5.33884 17.8208 5.62158C18.1018 5.90747 18.1018 6.35848 17.8208 6.64111L17.0542 7.41162C16.7695 7.69436 16.3191 7.69436 16.0376 7.41162C15.7563 7.12562 15.7562 6.6738 16.0376 6.39111L16.8042 5.62158ZM4.92042 5.60205C5.20515 5.31931 5.65554 5.31931 5.93703 5.60205L6.70363 6.37158C6.98505 6.65751 6.98493 7.12557 6.70363 7.39209C6.41891 7.67483 5.96851 7.67483 5.68703 7.39209L4.92042 6.62158C4.63943 6.3357 4.63943 5.88469 4.92042 5.60205ZM11.3784 2.94971C11.7762 2.94971 12.093 3.26796 12.0933 3.66748V4.73682C12.0933 5.13655 11.7764 5.45557 11.3784 5.45557C10.9806 5.45542 10.6636 5.13646 10.6636 4.73682V3.66748C10.6638 3.26805 10.9807 2.94985 11.3784 2.94971Z"/>
</mask>
<path d="M9.44191 21.2856L12.1763 21.9331C12.5573 22.0297 12.8039 22.4127 12.7046 22.7925C12.6213 23.1238 12.3428 23.3393 12.0132 23.3394C11.9653 23.3394 11.8981 23.3396 11.8501 23.3237L9.11574 22.6763C8.73471 22.5797 8.50417 22.1967 8.58742 21.8169C8.68354 21.434 9.06414 21.202 9.44191 21.2856ZM8.9966 19.187L12.9673 20.1304C13.3482 20.2109 13.5948 20.5939 13.4956 20.9897C13.4124 21.3211 13.1338 21.5365 12.8042 21.5366C12.7562 21.5366 12.6882 21.5371 12.6402 21.521L8.67042 20.5776C8.2894 20.4811 8.05885 20.0981 8.1421 19.7183C8.2382 19.3354 8.61889 19.1035 8.9966 19.187ZM11.3696 7.40967C14.1711 7.40981 16.46 9.69528 16.4761 12.5083C16.4761 14.2464 15.5896 15.8689 14.1392 16.812C14.1232 17.0599 14.0913 17.5426 14.0913 18.5015V18.8813C14.0913 19.097 13.9919 19.3129 13.8286 19.4448C13.6973 19.5446 13.5466 19.5933 13.3833 19.5933C13.3194 19.5933 13.2682 19.5927 13.2202 19.5767L8.75636 18.5503C8.37558 18.4537 8.14506 18.0705 8.22804 17.6909C8.3241 17.3079 8.70569 17.076 9.08351 17.1597L12.6724 17.9868C12.7076 16.101 12.839 15.9847 13.0855 15.8013C13.0855 15.8013 13.1017 15.8008 13.1177 15.7847C13.118 15.769 13.134 15.7684 13.1499 15.7524C14.3215 15.1055 15.0453 13.8668 15.0454 12.5249C15.0454 10.4875 13.3994 8.83252 11.3726 8.83252C9.34578 8.83253 7.69972 10.4875 7.69972 12.5249C7.69984 13.6835 8.22885 14.7619 9.15089 15.4731C9.46427 15.705 9.5121 16.152 9.28175 16.4673C9.05122 16.7827 8.60628 16.8309 8.29249 16.5991C7.0214 15.6239 6.28178 14.1339 6.28175 12.5278C6.28175 9.71467 8.55197 7.41357 11.3696 7.41357V7.40967ZM11.0132 9.55029C12.8088 9.55033 14.0581 10.7201 14.0581 12.4263C14.0581 12.826 13.7403 13.145 13.3423 13.145C12.9445 13.1448 12.6275 12.8259 12.6275 12.4263V12.4233C12.6275 11.0878 11.3789 10.9868 11.0132 10.9868C10.6152 10.9868 10.2984 10.6678 10.2984 10.2681C10.2985 9.86849 10.6153 9.55029 11.0132 9.55029ZM4.23781 11.3696C4.61959 11.3696 4.95265 11.6886 4.95265 12.0884C4.95263 12.4881 4.63576 12.8062 4.23781 12.8062H3.17335C2.7755 12.806 2.45853 12.488 2.45851 12.0884C2.45851 11.6887 2.77548 11.3697 3.17335 11.3696H4.23781ZM19.6001 11.3696C19.9819 11.3697 20.3155 11.6887 20.2993 12.0884C20.2993 12.4881 19.9815 12.8062 19.5835 12.8062H18.5191C18.1213 12.806 17.8042 12.488 17.8042 12.0884C17.8042 11.6888 18.1213 11.3698 18.5191 11.3696H19.6001ZM16.8042 5.62158C17.0889 5.33884 17.5393 5.33884 17.8208 5.62158C18.1018 5.90747 18.1018 6.35848 17.8208 6.64111L17.0542 7.41162C16.7695 7.69436 16.3191 7.69436 16.0376 7.41162C15.7563 7.12562 15.7562 6.6738 16.0376 6.39111L16.8042 5.62158ZM4.92042 5.60205C5.20515 5.31931 5.65554 5.31931 5.93703 5.60205L6.70363 6.37158C6.98505 6.65751 6.98493 7.12557 6.70363 7.39209C6.41891 7.67483 5.96851 7.67483 5.68703 7.39209L4.92042 6.62158C4.63943 6.3357 4.63943 5.88469 4.92042 5.60205ZM11.3784 2.94971C11.7762 2.94971 12.093 3.26796 12.0933 3.66748V4.73682C12.0933 5.13655 11.7764 5.45557 11.3784 5.45557C10.9806 5.45542 10.6636 5.13646 10.6636 4.73682V3.66748C10.6638 3.26805 10.9807 2.94985 11.3784 2.94971Z" fill="black"/>
<path d="M9.44191 21.2856L9.90274 19.3395L9.8886 19.3361L9.87442 19.333L9.44191 21.2856ZM12.1763 21.9331L12.6678 19.9945L12.6525 19.9906L12.6371 19.9869L12.1763 21.9331ZM12.7046 22.7925L10.7696 22.2868L10.7672 22.2958L10.765 22.3048L12.7046 22.7925ZM12.0132 23.3394V25.3394H12.0138L12.0132 23.3394ZM11.8501 23.3237L12.4797 21.4254L12.3964 21.3978L12.3109 21.3775L11.8501 23.3237ZM9.11574 22.6763L8.62442 24.615L8.63963 24.6188L8.65491 24.6225L9.11574 22.6763ZM8.58742 21.8169L6.6476 21.33L6.64025 21.3592L6.63379 21.3887L8.58742 21.8169ZM8.9966 19.187L9.45889 17.2412L9.44371 17.2376L9.42848 17.2342L8.9966 19.187ZM12.9673 20.1304L12.505 22.0762L12.5292 22.082L12.5536 22.0871L12.9673 20.1304ZM13.4956 20.9897L15.4354 21.4768L15.4356 21.476L13.4956 20.9897ZM12.8042 21.5366V23.5366H12.8052L12.8042 21.5366ZM12.6402 21.521L13.2756 19.6246L13.1902 19.596L13.1025 19.5752L12.6402 21.521ZM8.67042 20.5776L8.1791 22.5163L8.19354 22.52L8.20802 22.5234L8.67042 20.5776ZM8.1421 19.7183L6.20227 19.2314L6.19493 19.2606L6.18848 19.2901L8.1421 19.7183ZM11.3696 7.40967L11.3697 5.40967L9.36964 5.40957V7.40967H11.3696ZM16.4761 12.5083H18.4761L18.4761 12.4969L16.4761 12.5083ZM14.1392 16.812L13.049 15.1353L12.208 15.6821L12.1433 16.6831L14.1392 16.812ZM14.0913 18.5015L12.0913 18.5015V18.5015H14.0913ZM14.0913 18.8813H12.0913V18.8813H14.0913ZM13.8286 19.4448L15.0389 21.0371L15.0627 21.019L15.086 21.0002L13.8286 19.4448ZM13.3833 19.5933V21.5933V21.5933V19.5933ZM13.2202 19.5767L13.8547 17.68L13.7628 17.6492L13.6684 17.6275L13.2202 19.5767ZM8.75636 18.5503L8.26456 20.4889L8.28632 20.4944L8.3082 20.4994L8.75636 18.5503ZM8.22804 17.6909L6.28811 17.2044L6.28069 17.234L6.27418 17.2638L8.22804 17.6909ZM9.08351 17.1597L9.53269 15.2108L9.52436 15.2088L9.51602 15.207L9.08351 17.1597ZM12.6724 17.9868L12.2232 19.9357L14.626 20.4895L14.672 18.0242L12.6724 17.9868ZM13.0855 15.8013L14.9146 16.61L17.9875 9.66028L11.8915 14.1968L13.0855 15.8013ZM13.1177 15.7847L14.5356 17.1952L15.1036 16.6242L15.1174 15.8188L13.1177 15.7847ZM13.1499 15.7524L12.1831 14.0017L11.9333 14.1396L11.732 14.3419L13.1499 15.7524ZM15.0454 12.5249L17.0454 12.5251V12.5249H15.0454ZM11.3726 8.83252V6.83252H11.3726L11.3726 8.83252ZM7.69972 12.5249H5.69972V12.5251L7.69972 12.5249ZM9.15089 15.4731L7.92932 17.0567L7.9453 17.0691L7.96152 17.0811L9.15089 15.4731ZM9.28175 16.4673L10.8965 17.6474L10.8967 17.6471L9.28175 16.4673ZM8.29249 16.5991L7.07504 18.1859L7.08958 18.197L7.10431 18.2079L8.29249 16.5991ZM6.28175 12.5278H4.28175V12.5279L6.28175 12.5278ZM11.3696 7.41357V9.41357H13.3696V7.41357H11.3696ZM11.0132 9.55029L11.0132 7.55029H11.0132V9.55029ZM14.0581 12.4263H16.0581V12.4262L14.0581 12.4263ZM13.3423 13.145L13.3414 15.145H13.3423V13.145ZM11.0132 10.9868L11.0133 8.98682H11.0132V10.9868ZM10.2984 10.2681L8.29835 10.2672V10.2681H10.2984ZM4.95265 12.0884L6.95265 12.0885V12.0884H4.95265ZM3.17335 12.8062L3.17283 14.8062H3.17335V12.8062ZM2.45851 12.0884H0.458509V12.0885L2.45851 12.0884ZM3.17335 11.3696V9.36963H3.17283L3.17335 11.3696ZM19.6001 11.3696L19.6003 9.36963H19.6001V11.3696ZM20.2993 12.0884L18.301 12.0075L18.2993 12.0479L18.2993 12.0883L20.2993 12.0884ZM18.5191 12.8062L18.5181 14.8062H18.5191V12.8062ZM17.8042 12.0884H15.8042V12.0885L17.8042 12.0884ZM18.5191 11.3696V9.36963H18.5181L18.5191 11.3696ZM16.8042 5.62158L15.3949 4.20241L15.3873 4.21007L16.8042 5.62158ZM17.8208 5.62158L19.2472 4.21962L19.2382 4.21051L17.8208 5.62158ZM17.8208 6.64111L19.2386 8.05173L19.2391 8.05122L17.8208 6.64111ZM17.0542 7.41162L18.4635 8.83079L18.472 8.82224L17.0542 7.41162ZM16.0376 7.41162L14.6118 8.81416L14.6203 8.82269L16.0376 7.41162ZM16.0376 6.39111L14.6207 4.9796L14.6203 4.98004L16.0376 6.39111ZM4.92042 5.60205L3.51113 4.18287L3.5021 4.19196L4.92042 5.60205ZM5.93703 5.60205L4.51968 7.01312L4.52012 7.01356L5.93703 5.60205ZM6.70363 6.37158L8.12904 4.96861L8.12053 4.96007L6.70363 6.37158ZM6.70363 7.39209L5.32807 5.94025L5.31103 5.9564L5.29436 5.97294L6.70363 7.39209ZM5.68703 7.39209L4.26922 8.8027L4.26968 8.80316L5.68703 7.39209ZM4.92042 6.62158L3.49402 8.02356L3.50262 8.0322L4.92042 6.62158ZM11.3784 2.94971V0.949707L11.3777 0.949707L11.3784 2.94971ZM12.0933 3.66748H14.0933V3.6663L12.0933 3.66748ZM12.0933 4.73682L14.0933 4.73682V4.73682H12.0933ZM11.3784 5.45557L11.3777 7.45557H11.3784V5.45557ZM10.6636 3.66748L8.66359 3.6663V3.66748H10.6636ZM9.44191 21.2856L8.98108 23.2318L11.7155 23.8793L12.1763 21.9331L12.6371 19.9869L9.90274 19.3395L9.44191 21.2856ZM12.1763 21.9331L11.6847 23.8718C11.0796 23.7183 10.5652 23.069 10.7696 22.2868L12.7046 22.7925L14.6396 23.2982C15.0425 21.7564 14.0349 20.3411 12.6678 19.9945L12.1763 21.9331ZM12.7046 22.7925L10.765 22.3048C10.902 21.7596 11.413 21.3395 12.0126 21.3394L12.0132 23.3394L12.0138 25.3394C13.2726 25.339 14.3406 24.488 14.6442 23.2802L12.7046 22.7925ZM12.0132 23.3394V21.3394C11.9759 21.3394 12.0152 21.3386 12.0645 21.3419C12.0934 21.3439 12.1428 21.348 12.2055 21.3581C12.2659 21.3677 12.3627 21.3866 12.4797 21.4254L11.8501 23.3237L11.2205 25.222C11.4814 25.3086 11.7061 25.3269 11.7989 25.3331C11.9058 25.3402 12.0027 25.3394 12.0132 25.3394V23.3394ZM11.8501 23.3237L12.3109 21.3775L9.57656 20.7301L9.11574 22.6763L8.65491 24.6225L11.3893 25.2699L11.8501 23.3237ZM9.11574 22.6763L9.60705 20.7376C10.2905 20.9108 10.6848 21.5891 10.541 22.2451L8.58742 21.8169L6.63379 21.3887C6.3235 22.8043 7.17892 24.2487 8.62442 24.615L9.11574 22.6763ZM8.58742 21.8169L10.5272 22.3038C10.3598 22.9708 9.68912 23.3889 9.0094 23.2383L9.44191 21.2856L9.87442 19.333C8.43916 19.0151 7.00727 19.8971 6.6476 21.33L8.58742 21.8169ZM8.9966 19.187L8.5343 21.1329L12.505 22.0762L12.9673 20.1304L13.4296 18.1845L9.45889 17.2412L8.9966 19.187ZM12.9673 20.1304L12.5536 22.0871C11.8226 21.9326 11.3798 21.2048 11.5556 20.5035L13.4956 20.9897L15.4356 21.476C15.8098 19.9831 14.8738 18.4893 13.381 18.1736L12.9673 20.1304ZM13.4956 20.9897L11.5558 20.5027C11.6931 19.9562 12.2049 19.5369 12.8032 19.5366L12.8042 21.5366L12.8052 23.5366C14.0628 23.536 15.1317 22.6861 15.4354 21.4768L13.4956 20.9897ZM12.8042 21.5366V19.5366C12.7638 19.5366 12.8039 19.5359 12.8525 19.5391C12.8814 19.541 12.9314 19.5451 12.9951 19.5553C13.0562 19.5651 13.1555 19.5844 13.2756 19.6246L12.6402 21.521L12.0047 23.4174C12.2706 23.5065 12.4999 23.5246 12.5918 23.5306C12.6985 23.5376 12.7966 23.5366 12.8042 23.5366V21.5366ZM12.6402 21.521L13.1025 19.5752L9.13282 18.6318L8.67042 20.5776L8.20802 22.5234L12.1778 23.4668L12.6402 21.521ZM8.67042 20.5776L9.16174 18.6389C9.84519 18.8121 10.2395 19.4904 10.0957 20.1465L8.1421 19.7183L6.18848 19.2901C5.87819 20.7057 6.73361 22.15 8.1791 22.5163L8.67042 20.5776ZM8.1421 19.7183L10.0819 20.2051C9.91434 20.8729 9.2434 21.2899 8.56471 21.1398L8.9966 19.187L9.42848 17.2342C7.99438 16.917 6.56205 17.7979 6.20227 19.2314L8.1421 19.7183ZM11.3696 7.40967L11.3695 9.40967C13.0632 9.40975 14.4663 10.799 14.4761 12.5197L16.4761 12.5083L18.4761 12.4969C18.4537 8.59161 15.2791 5.40987 11.3697 5.40967L11.3696 7.40967ZM16.4761 12.5083H14.4761C14.4761 13.5664 13.9346 14.5595 13.049 15.1353L14.1392 16.812L15.2294 18.4887C17.2447 17.1784 18.4761 14.9263 18.4761 12.5083H16.4761ZM14.1392 16.812L12.1433 16.6831C12.1254 16.9613 12.0913 17.4886 12.0913 18.5015L14.0913 18.5015L16.0913 18.5015C16.0913 17.5966 16.121 17.1584 16.135 16.9409L14.1392 16.812ZM14.0913 18.5015H12.0913V18.8813H14.0913H16.0913V18.5015H14.0913ZM14.0913 18.8813H12.0913C12.0913 18.5243 12.241 18.1565 12.5713 17.8895L13.8286 19.4448L15.086 21.0002C15.7428 20.4692 16.0913 19.6696 16.0913 18.8813H14.0913ZM13.8286 19.4448L12.6184 17.8526C12.8476 17.6783 13.1254 17.5933 13.3833 17.5933V19.5933V21.5933C13.9678 21.5933 14.5471 21.4109 15.0389 21.0371L13.8286 19.4448ZM13.3833 19.5933V17.5933C13.3413 17.5933 13.3904 17.5922 13.4554 17.5974C13.5345 17.6037 13.6796 17.6214 13.8547 17.68L13.2202 19.5767L12.5858 21.4734C12.9946 21.6101 13.3787 21.5933 13.3833 21.5933V19.5933ZM13.2202 19.5767L13.6684 17.6275L9.20452 16.6012L8.75636 18.5503L8.3082 20.4994L12.7721 21.5258L13.2202 19.5767ZM8.75636 18.5503L9.24816 16.6117C9.93198 16.7852 10.3251 17.4631 10.1819 18.118L8.22804 17.6909L6.27418 17.2638C5.96505 18.678 6.81918 20.1222 8.26456 20.4889L8.75636 18.5503ZM8.22804 17.6909L10.168 18.1774C9.99988 18.8477 9.32765 19.2622 8.651 19.1123L9.08351 17.1597L9.51602 15.207C8.08372 14.8897 6.64831 15.7681 6.28811 17.2044L8.22804 17.6909ZM9.08351 17.1597L8.63433 19.1086L12.2232 19.9357L12.6724 17.9868L13.1216 16.0379L9.53269 15.2108L9.08351 17.1597ZM12.6724 17.9868L14.672 18.0242C14.6805 17.5707 14.6943 17.252 14.7114 17.0265C14.7292 16.7914 14.7468 16.7126 14.746 16.716C14.7425 16.7308 14.6996 16.9084 14.5462 17.1218C14.3945 17.333 14.2185 17.4511 14.2795 17.4057L13.0855 15.8013L11.8915 14.1968C11.8292 14.2431 11.5443 14.4446 11.2976 14.7881C11.0492 15.1339 10.925 15.4928 10.8534 15.7952C10.7289 16.3216 10.6899 17.0289 10.6727 17.9495L12.6724 17.9868ZM13.0855 15.8013C13.1481 17.8003 13.149 17.8003 13.15 17.8002C13.1503 17.8002 13.1512 17.8002 13.1518 17.8002C13.1531 17.8001 13.1544 17.8001 13.1556 17.8C13.1581 17.8 13.1607 17.7999 13.1632 17.7998C13.1683 17.7996 13.1734 17.7993 13.1786 17.7991C13.1889 17.7986 13.1994 17.798 13.2101 17.7974C13.2315 17.7961 13.2535 17.7943 13.2763 17.7922C13.3217 17.7878 13.3702 17.7816 13.4214 17.773C13.5233 17.7558 13.6385 17.7283 13.7616 17.6848C14.0134 17.5959 14.2895 17.4426 14.5356 17.1952L13.1177 15.7847L11.6998 14.3742C11.9299 14.1429 12.1899 13.9978 12.4295 13.9132C12.5466 13.8718 12.6567 13.8455 12.7551 13.8289C12.8045 13.8205 12.8516 13.8145 12.8961 13.8103C12.9184 13.8081 12.9401 13.8065 12.9612 13.8051C12.9717 13.8045 12.9822 13.8039 12.9924 13.8034C12.9976 13.8032 13.0027 13.803 13.0077 13.8028C13.0103 13.8027 13.0128 13.8026 13.0153 13.8025C13.0166 13.8025 13.0178 13.8024 13.0191 13.8024C13.0197 13.8024 13.0207 13.8023 13.021 13.8023C13.0219 13.8023 13.0228 13.8022 13.0855 15.8013ZM13.1177 15.7847L15.1174 15.8188C15.1109 16.1961 14.9953 16.5917 14.7478 16.9381C14.5394 17.2297 14.3035 17.3879 14.2515 17.4232C14.22 17.4446 14.1905 17.463 14.2017 17.456C14.203 17.4551 14.23 17.4382 14.262 17.4164C14.3337 17.3677 14.4466 17.2849 14.5678 17.1629L13.1499 15.7524L11.732 14.3419C11.8453 14.228 11.9503 14.1512 12.0144 14.1076C12.0296 14.0973 12.0422 14.089 12.0506 14.0836C12.0548 14.0809 12.0582 14.0787 12.0604 14.0773C12.0615 14.0766 12.0624 14.0761 12.063 14.0757C12.0636 14.0753 12.064 14.0751 12.064 14.0751C12.0717 14.0702 12.0389 14.0907 12.0044 14.1141C11.9463 14.1535 11.7053 14.3158 11.4934 14.6124C11.2423 14.9638 11.1246 15.3654 11.118 15.7505L13.1177 15.7847ZM13.1499 15.7524L14.1167 17.5032C15.9331 16.5002 17.0452 14.5865 17.0454 12.5251L15.0454 12.5249L13.0454 12.5247C13.0454 13.1471 12.7098 13.7108 12.1831 14.0017L13.1499 15.7524ZM15.0454 12.5249H17.0454C17.0454 9.39294 14.514 6.83252 11.3726 6.83252V8.83252V10.8325C12.2848 10.8325 13.0454 11.582 13.0454 12.5249H15.0454ZM11.3726 8.83252L11.3726 6.83252C8.23118 6.83253 5.69972 9.39294 5.69972 12.5249H7.69972H9.69972C9.69972 11.582 10.4604 10.8325 11.3726 10.8325L11.3726 8.83252ZM7.69972 12.5249L5.69972 12.5251C5.6999 14.304 6.51672 15.9671 7.92932 17.0567L9.15089 15.4731L10.3725 13.8896C9.94098 13.5567 9.69978 13.063 9.69972 12.5247L7.69972 12.5249ZM9.15089 15.4731L7.96152 17.0811C7.30679 16.5968 7.31155 15.7737 7.66683 15.2874L9.28175 16.4673L10.8967 17.6471C11.7127 16.5303 11.6218 14.8132 10.3403 13.8652L9.15089 15.4731ZM9.28175 16.4673L7.66703 15.2872C8.14981 14.6266 8.98576 14.6248 9.48068 14.9903L8.29249 16.5991L7.10431 18.2079C8.2268 19.0369 9.95262 18.9388 10.8965 17.6474L9.28175 16.4673ZM8.29249 16.5991L9.50994 15.0124C8.72957 14.4136 8.28177 13.5088 8.28175 12.5278L6.28175 12.5278L4.28175 12.5279C4.28179 14.759 5.31323 16.8341 7.07504 18.1859L8.29249 16.5991ZM6.28175 12.5278H8.28175C8.28175 10.8046 9.67113 9.41357 11.3696 9.41357V7.41357V5.41357C7.43282 5.41357 4.28175 8.62474 4.28175 12.5278H6.28175ZM11.3696 7.41357H13.3696V7.40967H11.3696H9.36964V7.41357H11.3696ZM11.0132 9.55029L11.0132 11.5503C11.4735 11.5503 11.7213 11.6947 11.8375 11.8042C11.9441 11.9046 12.0581 12.0831 12.0581 12.4263L14.0581 12.4263L16.0581 12.4262C16.0581 11.0634 15.5475 9.80384 14.5805 8.89281C13.6231 7.99085 12.3485 7.55032 11.0132 7.55029L11.0132 9.55029ZM14.0581 12.4263H12.0581C12.0581 11.7289 12.6283 11.145 13.3423 11.145V13.145V15.145C14.8523 15.145 16.0581 13.9231 16.0581 12.4263H14.0581ZM13.3423 13.145L13.3432 11.145C14.0593 11.1453 14.6275 11.7314 14.6275 12.4263H12.6275H10.6275C10.6275 13.9204 11.8297 15.1443 13.3414 15.145L13.3423 13.145ZM12.6275 12.4263H14.6275V12.4233H12.6275H10.6275V12.4263H12.6275ZM12.6275 12.4233H14.6275C14.6275 11.7659 14.4697 11.1331 14.1247 10.5788C13.7837 10.0307 13.3292 9.67076 12.9037 9.44226C12.1121 9.01711 11.3132 8.98683 11.0133 8.98682L11.0132 10.9868L11.0131 12.9868C11.0131 12.9868 11.0151 12.9868 11.0187 12.9869C11.0223 12.9871 11.0271 12.9873 11.0327 12.9878C11.0446 12.9887 11.056 12.9901 11.0653 12.9918C11.0928 12.9968 11.0685 12.997 11.0112 12.9662C10.9436 12.9299 10.8241 12.8456 10.7286 12.6921C10.6292 12.5324 10.6275 12.413 10.6275 12.4233H12.6275ZM11.0132 10.9868V8.98682C11.7308 8.98682 12.2984 9.57426 12.2984 10.2681H10.2984H8.29835C8.29835 11.7613 9.49967 12.9868 11.0132 12.9868V10.9868ZM10.2984 10.2681L12.2984 10.269C12.298 10.9649 11.7283 11.5503 11.0132 11.5503V9.55029V7.55029C9.50241 7.55029 8.29903 8.77211 8.29835 10.2672L10.2984 10.2681ZM4.23781 11.3696V13.3696C3.53339 13.3696 2.95265 12.8115 2.95265 12.0884H4.95265H6.95265C6.95265 10.5658 5.70579 9.36963 4.23781 9.36963V11.3696ZM4.95265 12.0884L2.95265 12.0883C2.95269 11.3911 3.52362 10.8062 4.23781 10.8062V12.8062V14.8062C5.74789 14.8062 6.95256 13.5851 6.95265 12.0885L4.95265 12.0884ZM4.23781 12.8062V10.8062H3.17335V12.8062V14.8062H4.23781V12.8062ZM3.17335 12.8062L3.17388 10.8062C3.88722 10.8063 4.45847 11.3905 4.45851 12.0883L2.45851 12.0884L0.458509 12.0885C0.458596 13.5856 1.66377 14.8058 3.17283 14.8062L3.17335 12.8062ZM2.45851 12.0884H4.45851C4.45851 12.7828 3.89063 13.3694 3.17388 13.3696L3.17335 11.3696L3.17283 9.36963C1.66033 9.37003 0.458509 10.5946 0.458509 12.0884H2.45851ZM3.17335 11.3696V13.3696H4.23781V11.3696V9.36963H3.17335V11.3696ZM19.6001 11.3696L19.5999 13.3696C18.915 13.3696 18.2684 12.8114 18.301 12.0075L20.2993 12.0884L22.2977 12.1693C22.3626 10.566 21.0488 9.36977 19.6003 9.36963L19.6001 11.3696ZM20.2993 12.0884L18.2993 12.0883C18.2994 11.3875 18.8729 10.8062 19.5835 10.8062V12.8062V14.8062C21.09 14.8062 22.2992 13.5887 22.2993 12.0885L20.2993 12.0884ZM19.5835 12.8062V10.8062H18.5191V12.8062V14.8062H19.5835V12.8062ZM18.5191 12.8062L18.52 10.8062C19.2327 10.8065 19.8042 11.39 19.8042 12.0883L17.8042 12.0884L15.8042 12.0885C15.8043 13.5859 17.0098 14.8055 18.5181 14.8062L18.5191 12.8062ZM17.8042 12.0884H19.8042C19.8042 12.7832 19.2361 13.3693 18.52 13.3696L18.5191 11.3696L18.5181 9.36963C17.0064 9.37032 15.8042 10.5943 15.8042 12.0884H17.8042ZM18.5191 11.3696V13.3696H19.6001V11.3696V9.36963H18.5191V11.3696ZM16.8042 5.62158L18.2135 7.04073C17.7228 7.52801 16.9082 7.53961 16.4035 7.03265L17.8208 5.62158L19.2382 4.21051C18.1705 3.13808 16.4551 3.14968 15.3949 4.20243L16.8042 5.62158ZM17.8208 5.62158L16.3944 7.02352C15.915 6.53577 15.9035 5.73294 16.4025 5.23101L17.8208 6.64111L19.2391 8.05122C20.3002 6.98401 20.2886 5.27917 19.2472 4.21964L17.8208 5.62158ZM17.8208 6.64111L16.403 5.2305L15.6364 6.00101L17.0542 7.41162L18.472 8.82224L19.2386 8.05173L17.8208 6.64111ZM17.0542 7.41162L15.6449 5.99247C16.1356 5.5052 16.9502 5.49359 17.455 6.00055L16.0376 7.41162L14.6203 8.82269C15.6879 9.89513 17.4033 9.88352 18.4635 8.83077L17.0542 7.41162ZM16.0376 7.41162L17.4634 6.00911C17.9428 6.49649 17.9552 7.29968 17.455 7.80218L16.0376 6.39111L14.6203 4.98004C13.5571 6.04791 13.5697 7.75476 14.6118 8.81413L16.0376 7.41162ZM16.0376 6.39111L17.4545 7.80263L18.2211 7.0331L16.8042 5.62158L15.3873 4.21007L14.6207 4.9796L16.0376 6.39111ZM4.92042 5.60205L6.32969 7.0212C5.83899 7.50847 5.02439 7.52008 4.51968 7.01312L5.93703 5.60205L7.35437 4.19098C6.28669 3.11855 4.5713 3.13015 3.51116 4.1829L4.92042 5.60205ZM5.93703 5.60205L4.52012 7.01356L5.28672 7.7831L6.70363 6.37158L8.12053 4.96007L7.35393 4.19054L5.93703 5.60205ZM6.70363 6.37158L5.27824 7.77453C4.82117 7.31015 4.74912 6.48878 5.32807 5.94025L6.70363 7.39209L8.07918 8.84393C9.22073 7.76236 9.14893 6.00486 8.12902 4.96863L6.70363 6.37158ZM6.70363 7.39209L5.29436 5.97294C5.78506 5.48567 6.59966 5.47406 7.10437 5.98102L5.68703 7.39209L4.26968 8.80316C5.33736 9.87559 7.05275 9.86399 8.11289 8.81124L6.70363 7.39209ZM5.68703 7.39209L7.10483 5.98147L6.33823 5.21097L4.92042 6.62158L3.50262 8.0322L4.26922 8.8027L5.68703 7.39209ZM4.92042 6.62158L6.3468 5.21964C6.82622 5.70741 6.83774 6.51023 6.33875 7.01214L4.92042 5.60205L3.5021 4.19196C2.44111 5.25914 2.45265 6.96398 3.49405 8.02353L4.92042 6.62158ZM11.3784 2.94971V4.94971C10.663 4.94971 10.0937 4.36412 10.0933 3.66866L12.0933 3.66748L14.0933 3.6663C14.0924 2.17179 12.8895 0.949707 11.3784 0.949707V2.94971ZM12.0933 3.66748H10.0933V4.73682H12.0933H14.0933V3.66748H12.0933ZM12.0933 4.73682L10.0933 4.73682C10.0933 4.04301 10.6608 3.45557 11.3784 3.45557V5.45557V7.45557C12.892 7.45557 14.0933 6.23009 14.0933 4.73682L12.0933 4.73682ZM11.3784 5.45557L11.3792 3.45557C12.0956 3.45583 12.6636 4.04216 12.6636 4.73682H10.6636H8.66359C8.66359 6.23075 9.86562 7.455 11.3777 7.45557L11.3784 5.45557ZM10.6636 4.73682H12.6636V3.66748H10.6636H8.66359V4.73682H10.6636ZM10.6636 3.66748L12.6636 3.66866C12.6632 4.36497 12.0934 4.94944 11.3792 4.94971L11.3784 2.94971L11.3777 0.949707C9.86812 0.950269 8.66447 2.17113 8.66359 3.6663L10.6636 3.66748Z" fill="#FFDD00" mask="url(#path-2-outside-1_3129_5484)"/>
<path d="M27.994 14.392H27.092V13.325H30.029V14.392H29.116V16.988C29.545 16.9 29.963 16.79 30.381 16.68V17.747C29.424 18.011 28.401 18.242 27.323 18.429L27.037 17.329L27.994 17.197V14.392ZM32.339 19.078C31.921 19.078 31.558 18.781 31.25 18.198C30.887 17.494 30.623 16.581 30.469 15.459C30.337 14.502 30.249 13.325 30.205 11.939H26.839V10.817H30.172C30.15 10.201 30.15 9.574 30.15 8.925H31.272C31.272 9.596 31.272 10.223 31.294 10.817H33.351V11.939H31.316C31.36 13.545 31.459 14.843 31.602 15.844C31.822 17.098 32.064 17.758 32.339 17.824C32.493 17.791 32.658 17.164 32.834 15.932L33.736 16.658C33.34 18.264 32.867 19.078 32.339 19.078ZM32.185 8.914C32.636 9.42 32.988 9.86 33.241 10.234L32.449 10.784C32.185 10.366 31.844 9.915 31.404 9.409L32.185 8.914ZM24.958 9.035C25.618 9.574 26.179 10.113 26.641 10.641L25.86 11.444C25.453 10.938 24.881 10.399 24.144 9.827L24.958 9.035ZM23.396 12.214H25.937V16.636C26.157 16.394 26.399 16.141 26.652 15.877L26.949 17.087C26.333 17.747 25.673 18.33 24.98 18.847L24.54 17.813C24.738 17.659 24.837 17.461 24.837 17.241V13.314H23.396V12.214ZM38.994 14.392H38.092V13.325H41.029V14.392H40.116V16.988C40.545 16.9 40.963 16.79 41.381 16.68V17.747C40.424 18.011 39.401 18.242 38.323 18.429L38.037 17.329L38.994 17.197V14.392ZM43.339 19.078C42.921 19.078 42.558 18.781 42.25 18.198C41.887 17.494 41.623 16.581 41.469 15.459C41.337 14.502 41.249 13.325 41.205 11.939H37.839V10.817H41.172C41.15 10.201 41.15 9.574 41.15 8.925H42.272C42.272 9.596 42.272 10.223 42.294 10.817H44.351V11.939H42.316C42.36 13.545 42.459 14.843 42.602 15.844C42.822 17.098 43.064 17.758 43.339 17.824C43.493 17.791 43.658 17.164 43.834 15.932L44.736 16.658C44.34 18.264 43.867 19.078 43.339 19.078ZM43.185 8.914C43.636 9.42 43.988 9.86 44.241 10.234L43.449 10.784C43.185 10.366 42.844 9.915 42.404 9.409L43.185 8.914ZM35.958 9.035C36.618 9.574 37.179 10.113 37.641 10.641L36.86 11.444C36.453 10.938 35.881 10.399 35.144 9.827L35.958 9.035ZM34.396 12.214H36.937V16.636C37.157 16.394 37.399 16.141 37.652 15.877L37.949 17.087C37.333 17.747 36.673 18.33 35.98 18.847L35.54 17.813C35.738 17.659 35.837 17.461 35.837 17.241V13.314H34.396V12.214ZM54.812 9.035L55.373 10.069C54.438 10.377 53.404 10.564 52.271 10.63V12.335H55.604V13.424H54.592V19.155H53.459V13.424H52.271V14.469C52.216 16.416 51.787 17.967 50.984 19.133L50.159 18.264C50.775 17.351 51.116 16.086 51.16 14.469V9.695C52.524 9.673 53.734 9.453 54.812 9.035ZM45.627 9.805H47.53C47.398 9.53 47.255 9.277 47.101 9.046L48.289 8.848C48.421 9.134 48.542 9.453 48.674 9.805H50.676V10.861H45.627V9.805ZM45.517 12.302H46.639C46.507 11.939 46.353 11.598 46.177 11.29L47.189 10.905C47.354 11.301 47.508 11.763 47.662 12.302H48.63C48.795 11.851 48.938 11.389 49.059 10.905L50.082 11.268C49.95 11.642 49.818 11.983 49.675 12.302H50.742V13.347H48.751V14.238H50.555V15.283H48.751V18.165C48.751 18.847 48.366 19.188 47.607 19.188H47.035L46.782 18.132C46.947 18.176 47.101 18.209 47.233 18.209C47.475 18.209 47.607 18.099 47.607 17.89V15.283H45.693V14.238H47.607V13.347H45.517V12.302ZM46.309 15.712L47.343 15.932C47.09 17.054 46.738 18.022 46.276 18.847L45.319 18.242C45.792 17.45 46.122 16.603 46.309 15.712ZM49.873 15.646C50.137 16.328 50.357 16.955 50.511 17.527L49.543 17.901C49.378 17.219 49.169 16.548 48.927 15.899L49.873 15.646ZM57.969 11.048H64.107V10.322H57.672V9.288H65.251V13.765H57.496V12.731H64.107V12.027H57.969V11.048ZM58.695 14.348L59.685 14.832C59.322 15.646 58.904 16.339 58.42 16.922L57.518 16.273C57.98 15.734 58.365 15.096 58.695 14.348ZM62.116 13.974C62.116 14.436 62.083 14.865 62.017 15.239C62.666 16.669 64.217 17.626 66.67 18.11L66.197 19.177C63.821 18.638 62.27 17.747 61.566 16.515C60.84 17.703 59.377 18.594 57.177 19.177L56.704 18.11C58.992 17.582 60.356 16.691 60.796 15.437C60.906 15.085 60.961 14.601 60.972 13.974H62.116ZM64.646 14.293L65.647 14.777C65.251 15.558 64.8 16.229 64.272 16.801L63.359 16.141C63.854 15.635 64.283 15.019 64.646 14.293ZM69.761 11.477H73.424V12.401H69.761V11.477ZM69.948 12.896H73.226V15.305H69.948V12.896ZM72.159 14.447V13.765H71.015V14.447H72.159ZM77.12 9.827V10.861H74.744C74.788 11.499 74.865 12.016 74.964 12.434C75.008 12.676 75.063 12.885 75.118 13.072C75.404 12.533 75.657 11.928 75.877 11.246L76.746 11.708C76.427 12.72 76.042 13.556 75.58 14.238C75.789 14.568 75.976 14.744 76.152 14.744C76.317 14.744 76.504 14.326 76.702 13.512L77.615 14.051C77.252 15.217 76.801 15.811 76.262 15.811C75.822 15.811 75.404 15.58 75.008 15.129C74.975 15.096 74.953 15.074 74.942 15.052C74.612 15.382 74.271 15.657 73.919 15.877L73.336 14.986C73.721 14.766 74.073 14.469 74.392 14.117C74.238 13.787 74.095 13.413 73.985 13.006C73.831 12.434 73.721 11.719 73.666 10.861H69.431V12.082C69.387 13.589 69.002 14.799 68.265 15.712L67.407 14.942C67.979 14.26 68.287 13.303 68.309 12.082V9.827H73.611C73.6 9.541 73.6 9.233 73.6 8.925H74.689C74.689 9.233 74.689 9.541 74.7 9.827H75.492C75.426 9.574 75.349 9.332 75.272 9.112L76.284 8.936C76.35 9.2 76.405 9.497 76.471 9.827H77.12ZM68.562 15.833L69.607 16.064C69.332 17.12 68.947 18.033 68.452 18.803L67.484 18.176C67.99 17.439 68.342 16.658 68.562 15.833ZM74.018 18.968H71.246C70.476 18.968 70.102 18.55 70.102 17.714V15.734H71.268V17.472C71.268 17.758 71.367 17.901 71.587 17.901H73.798C73.952 17.901 74.062 17.846 74.128 17.736C74.205 17.626 74.26 17.285 74.293 16.724L75.393 17.076C75.305 18 75.151 18.55 74.942 18.726C74.733 18.88 74.425 18.968 74.018 18.968ZM76.229 16.009C76.823 16.735 77.285 17.373 77.604 17.923L76.691 18.561C76.35 17.967 75.888 17.307 75.294 16.581L76.229 16.009ZM72.687 15.514C73.16 16.064 73.523 16.537 73.787 16.944L72.929 17.538C72.665 17.098 72.291 16.592 71.829 16.042L72.687 15.514Z" fill="black"/>
</svg>
