<svg xmlns="http://www.w3.org/2000/svg" width="18" height="18" viewBox="0 0 18 18" fill="none">
  <path fill-rule="evenodd" clip-rule="evenodd" d="M11.2363 1.16565C11.9314 1.15371 12.6003 1.43204 13.082 1.93323L14.4189 3.32386C14.8752 3.79872 15.125 4.43494 15.1152 5.09339L14.9854 13.8698C14.9611 15.509 13.6257 16.8256 11.9863 16.8258H5.93359C4.27689 16.8258 2.93383 15.4825 2.93359 13.8258V4.25745C2.93366 2.62082 4.24546 1.28666 5.88184 1.25843L11.2363 1.16565ZM9.61719 6.54261C9.39073 5.93089 8.54536 5.91147 8.28027 6.48499L8.25684 6.54261L7.89062 7.53186C7.75835 7.88911 7.4764 8.1711 7.11914 8.30335L6.12988 8.66956C5.49846 8.90331 5.49846 9.79616 6.12988 10.0299L7.11914 10.3961C7.47642 10.5284 7.75841 10.8103 7.89062 11.1676L8.25684 12.1569C8.49069 12.788 9.38338 12.7881 9.61719 12.1569L9.9834 11.1676C10.1156 10.8102 10.3975 10.5284 10.7549 10.3961L11.7441 10.0299C12.3755 9.79615 12.3754 8.90339 11.7441 8.66956L10.7549 8.30335C10.3976 8.17113 10.1157 7.88912 9.9834 7.53186L9.61719 6.54261ZM12.1006 2.7262C11.7335 2.31533 11.0527 2.57562 11.0527 3.12659V4.73792C11.0527 5.06918 11.3211 5.33833 11.6523 5.3385H13.0928C13.6111 5.33845 13.8854 4.7251 13.54 4.3385L12.1006 2.7262Z" fill="url(#paint0_linear_2633_1214)"/>
  <defs>
    <linearGradient id="paint0_linear_2633_1214" x1="9.02455" y1="1.16528" x2="9.02455" y2="16.8258" gradientUnits="userSpaceOnUse">
      <stop stop-color="white"/>
      <stop offset="1" stop-color="white" stop-opacity="0.8"/>
    </linearGradient>
  </defs>
</svg>
