<svg width="150" height="150" viewBox="0 0 150 150" fill="none" xmlns="http://www.w3.org/2000/svg">
<path fill-rule="evenodd" clip-rule="evenodd" d="M112.669 97.6046C133.604 97.5377 144.655 125.919 115.543 125.919C82.5414 125.919 91.7336 97.6715 112.669 97.6046Z" fill="#FFEAAB"/>
<path fill-rule="evenodd" clip-rule="evenodd" d="M112.669 97.6047C102.085 97.0235 88.5748 108.607 96.2706 119.155C103.467 128.296 135.868 129.105 132.735 112.271C130.834 103.344 121.472 97.5225 112.669 97.6047ZM112.669 97.6047C121.56 97.4804 131 103.155 133.223 112.169C135.924 128.684 111.344 128.273 101.187 123.732C84.5677 115.282 98.1178 96.8304 112.669 97.6047Z" fill="#8A694D"/>
<path d="M120.053 112.765C116.915 112.231 115.809 108.851 118.07 107.111C120.219 105.461 122.828 107.14 121.791 109.371C121.143 110.765 119.475 110.968 118.945 109.937C118.308 108.692 120.106 108.346 120.106 108.346" stroke="#FFCF93" stroke-width="0.955934" stroke-linecap="round"/>
<path d="M103.397 111.814C106.534 111.28 107.64 107.9 105.379 106.16C103.231 104.51 100.621 106.189 101.658 108.42C102.306 109.814 103.974 110.016 104.504 108.986C105.141 107.741 103.343 107.395 103.343 107.395" stroke="#FFCF93" stroke-width="0.955934" stroke-linecap="round"/>
<path d="M126.832 106.448C127.995 107.314 128.851 108.165 129.398 109.004" stroke="white" stroke-width="0.955934" stroke-linecap="round"/>
<mask id="mask0_2112_4205" style="mask-type:luminance" maskUnits="userSpaceOnUse" x="123" y="102" width="3" height="4">
<path fill-rule="evenodd" clip-rule="evenodd" d="M124.399 103C123.707 103.134 123.255 103.807 123.39 104.501C123.524 105.195 124.193 105.648 124.887 105.515C125.577 105.379 126.03 104.708 125.895 104.012C125.777 103.4 125.241 102.978 124.643 102.978C124.563 102.978 124.481 102.985 124.399 103Z" fill="white"/>
</mask>
<g mask="url(#mask0_2112_4205)">
<path fill-rule="evenodd" clip-rule="evenodd" d="M126.257 101.854L122.247 102.636L123.026 106.659L127.037 105.877L126.257 101.854Z" fill="white"/>
</g>
<mask id="mask1_2112_4205" style="mask-type:luminance" maskUnits="userSpaceOnUse" x="103" y="100" width="5" height="7">
<path fill-rule="evenodd" clip-rule="evenodd" d="M103.999 102.524V104.987C103.999 106.096 104.893 106.992 105.997 106.992C107.101 106.992 107.997 106.096 107.997 104.987V104.708L106.447 103.652L107.997 102.935V102.524C107.997 101.419 107.101 100.522 105.997 100.522C104.893 100.522 103.999 101.419 103.999 102.524Z" fill="white"/>
</mask>
<g mask="url(#mask1_2112_4205)">
<path fill-rule="evenodd" clip-rule="evenodd" d="M103.79 107.203H108.206V100.311H103.79V107.203Z" fill="#8A694D"/>
</g>
<mask id="mask2_2112_4205" style="mask-type:luminance" maskUnits="userSpaceOnUse" x="104" y="101" width="2" height="2">
<path fill-rule="evenodd" clip-rule="evenodd" d="M104.601 102.105C104.601 102.453 104.882 102.736 105.23 102.736C105.577 102.736 105.86 102.453 105.86 102.105C105.86 101.755 105.577 101.474 105.23 101.474C104.882 101.474 104.601 101.755 104.601 102.105Z" fill="white"/>
</mask>
<g mask="url(#mask2_2112_4205)">
<path fill-rule="evenodd" clip-rule="evenodd" d="M104.39 102.947H106.069V101.262H104.39V102.947Z" fill="white"/>
</g>
<mask id="mask3_2112_4205" style="mask-type:luminance" maskUnits="userSpaceOnUse" x="114" y="101" width="5" height="7">
<path fill-rule="evenodd" clip-rule="evenodd" d="M114.394 103.545V105.996C114.394 107.099 115.286 107.992 116.384 107.992C117.484 107.992 118.374 107.099 118.374 105.996V105.715L116.832 104.665L118.374 103.952V103.545C118.374 102.442 117.484 101.549 116.384 101.549C115.286 101.549 114.394 102.442 114.394 103.545Z" fill="white"/>
</mask>
<g mask="url(#mask3_2112_4205)">
<path fill-rule="evenodd" clip-rule="evenodd" d="M114.186 108.203H118.584V101.341H114.186V108.203Z" fill="#8A694D"/>
</g>
<mask id="mask4_2112_4205" style="mask-type:luminance" maskUnits="userSpaceOnUse" x="115" y="102" width="2" height="2">
<path fill-rule="evenodd" clip-rule="evenodd" d="M115.084 103.126C115.084 103.472 115.365 103.753 115.71 103.753C116.056 103.753 116.339 103.472 116.339 103.126C116.339 102.778 116.056 102.497 115.71 102.497C115.365 102.497 115.084 102.778 115.084 103.126Z" fill="white"/>
</mask>
<g mask="url(#mask4_2112_4205)">
<path fill-rule="evenodd" clip-rule="evenodd" d="M114.875 103.963H116.546V102.287H114.875V103.963Z" fill="white"/>
</g>
<mask id="mask5_2112_4205" style="mask-type:luminance" maskUnits="userSpaceOnUse" x="9" y="124" width="101" height="21">
<path fill-rule="evenodd" clip-rule="evenodd" d="M9.65771 124.263H109.362V145H9.65771V124.263Z" fill="white"/>
</mask>
<g mask="url(#mask5_2112_4205)">
<path fill-rule="evenodd" clip-rule="evenodd" d="M78.804 128.828C82.4336 129.042 85.9508 129.463 89.3574 130.09C91.7574 130.534 94.3252 131.694 97.0436 131.616C98.5134 131.574 99.9832 131.593 101.449 131.677C102.303 131.725 103.63 131.545 104.757 131.841C104.86 131.868 104.961 131.868 105.06 131.841L105.654 131.667C105.83 131.618 105.879 131.675 105.801 131.841C105.628 132.212 105.332 132.409 104.917 132.432C104.793 132.438 104.717 132.503 104.69 132.625C104.657 132.763 104.57 132.858 104.427 132.912C104.103 133.036 104.105 133.103 104.434 133.117C105.132 133.145 105.775 132.944 106.36 132.516C106.453 132.449 106.518 132.468 106.556 132.577L106.777 133.227C106.823 133.363 106.915 133.453 107.054 133.497C107.725 133.707 108.287 133.572 108.737 133.09C108.859 132.962 109.059 132.948 109.194 133.059C109.41 133.233 109.417 133.39 109.221 133.53C109.095 133.619 109.09 133.715 109.204 133.82C109.334 133.941 109.351 134.097 109.255 134.29C109.214 134.373 109.153 134.432 109.069 134.464C109.002 134.493 108.958 134.549 108.939 134.633C85.804 137.642 62.7071 140.907 39.6465 144.429C35.1666 145.112 32.1775 145.307 28.2219 144.316C28.1133 144.291 28.0466 144.182 28.0732 144.073C28.0847 144.02 28.1209 143.972 28.1705 143.945L32.1242 141.686C32.2252 141.626 32.2595 141.498 32.2004 141.397C32.1737 141.351 32.1318 141.317 32.0803 141.299C31.3044 141.066 30.4943 140.879 29.6498 140.741C25.4559 140.051 21.262 139.355 17.0681 138.651C15.2075 138.338 11.2786 137.682 10.7849 136.338C10.7487 136.241 10.7582 136.147 10.8116 136.059L11.2844 135.304C11.3415 135.212 11.3206 135.141 11.2234 135.093C10.9241 134.942 10.6572 134.761 10.4208 134.547C9.41427 133.637 9.40283 132.512 10.3903 131.172C10.3655 129.767 11.0537 128.605 12.4586 127.685C12.5521 127.624 12.6512 127.61 12.7579 127.645C17.375 129.081 23.1187 129.01 27.2593 129.385C31.2968 129.754 35.4564 130.151 39.7418 130.58C39.8333 130.585 39.9134 130.516 39.921 130.425C39.9248 130.377 39.9076 130.331 39.8752 130.295L39.799 130.22C39.7666 130.186 39.7685 130.159 39.8104 130.138L40.0582 130.006C40.1936 129.933 40.2126 129.838 40.1135 129.719C39.7151 129.243 39.494 128.691 39.4501 128.06C39.4406 127.928 39.3701 127.805 39.2595 127.733C38.5275 127.243 37.927 126.624 37.4523 125.872C37.3913 125.775 37.3894 125.677 37.4447 125.58C37.6277 125.268 37.4637 124.829 36.9548 124.263" fill="#D9BEA8"/>
</g>
<path fill-rule="evenodd" clip-rule="evenodd" d="M100.024 83.3157C100.101 83.4591 100.059 83.5298 99.8949 83.5298L100.024 83.3157Z" fill="#0B0808"/>
<path fill-rule="evenodd" clip-rule="evenodd" d="M31.8463 113.276L28.4321 122.901C28.291 122.935 28.1861 123.059 28.1747 123.205C28.1614 123.392 28.3024 123.553 28.4873 123.566L36.9552 124.264L78.8044 128.829C82.4341 129.042 85.9512 129.464 89.3578 130.091C91.7578 130.535 94.3256 131.695 97.044 131.617C98.5138 131.573 99.9817 131.594 101.45 131.678C102.304 131.726 103.63 131.544 104.757 131.843C104.86 131.869 104.961 131.869 105.06 131.843L105.655 131.667C105.83 131.617 105.878 131.676 105.802 131.843C105.626 132.212 105.333 132.408 104.917 132.431C104.793 132.439 104.717 132.504 104.688 132.626C104.658 132.762 104.57 132.858 104.427 132.913C104.103 133.036 104.105 133.104 104.435 133.118C105.133 133.144 105.775 132.946 106.36 132.517C106.454 132.449 106.518 132.47 106.557 132.579L106.778 133.227C106.823 133.364 106.915 133.454 107.054 133.496C107.725 133.708 108.287 133.573 108.737 133.091C108.859 132.961 109.06 132.948 109.193 133.06C109.408 133.232 109.418 133.389 109.222 133.531C109.096 133.619 109.09 133.716 109.204 133.821C109.334 133.942 109.351 134.099 109.256 134.292C109.214 134.374 109.151 134.431 109.067 134.466C109.002 134.492 108.958 134.548 108.939 134.632C118.658 133.326 128.374 132.011 138.091 130.682C139.128 130.541 140.201 130.196 141.305 129.652C143.087 128.774 143.772 126.942 142.023 125.531C141.823 125.371 141.816 125.201 141.999 125.021C145.02 122.059 137.854 120.19 136.253 119.673C136.186 119.649 136.137 119.589 136.127 119.519C136.11 119.413 136.184 119.314 136.289 119.299C138.117 119.085 139.98 118.945 141.877 118.882C143.608 118.827 144.742 118.364 144.65 116.452C142.908 116.309 141.152 116.2 139.387 116.125C126.235 115.58 113.088 114.989 99.9435 114.347C98.6263 114.282 31.8463 113.276 31.8463 113.276Z" fill="#DDC5AD"/>
<mask id="mask6_2112_4205" style="mask-type:luminance" maskUnits="userSpaceOnUse" x="2" y="111" width="39" height="21">
<path fill-rule="evenodd" clip-rule="evenodd" d="M2 111.881H40.1762V131.172H2V111.881Z" fill="white"/>
</mask>
<g mask="url(#mask6_2112_4205)">
<path fill-rule="evenodd" clip-rule="evenodd" d="M15.2691 111.975C16.27 111.88 17.3394 111.857 18.4775 111.906C22.7171 112.092 26.8652 112.01 31.103 112.449C31.7664 112.522 32.1381 112.614 32.4469 113.268C33.6651 115.862 34.9918 119.223 37.1765 121.045L36.8295 121.08C36.8105 121.08 36.7971 121.097 36.7971 121.118C36.7971 121.12 36.799 121.123 36.799 121.127C36.8086 121.156 36.8181 121.187 36.8295 121.215C36.8448 121.261 36.8314 121.292 36.7895 121.307C36.3701 121.483 35.9698 121.464 35.5885 121.25C35.4951 121.198 35.396 121.185 35.2911 121.211L28.4322 122.902C28.2511 122.945 28.1406 123.127 28.1844 123.309C28.2187 123.452 28.3407 123.555 28.4875 123.567L36.9553 124.263C37.4643 124.829 37.6264 125.268 37.4453 125.58C37.3881 125.678 37.3919 125.775 37.4529 125.873C37.9257 126.624 38.5281 127.243 39.2582 127.733C39.3706 127.805 39.4412 127.928 39.4488 128.06C39.4946 128.691 39.7157 129.243 40.1122 129.719C40.2132 129.838 40.1942 129.933 40.0588 130.006L39.811 130.138C39.7691 130.159 39.7653 130.186 39.7996 130.22L39.8739 130.295C39.9387 130.362 39.9368 130.467 39.872 130.532C39.8377 130.566 39.79 130.583 39.7424 130.58C35.457 130.151 31.2955 129.754 27.2598 129.385C23.1174 129.01 17.3756 129.081 12.7585 127.645C12.6518 127.61 12.5526 127.624 12.4592 127.685C11.0543 128.605 10.3661 129.767 10.3909 131.172C8.30538 130.851 5.25909 128.677 5.96443 126.19C6.04831 125.888 5.87293 125.572 5.57173 125.488C5.55076 125.483 5.5317 125.477 5.51073 125.475C4.34025 125.28 2.58835 124.563 3.21171 122.97C3.25556 122.859 3.24412 122.733 3.18121 122.632C2.24521 121.114 3.66351 120.219 4.97315 119.628C5.11231 119.567 5.11803 119.493 4.99412 119.407C4.22206 118.879 3.4481 118.384 2.67032 117.923C1.40072 117.168 2.13655 115.981 3.2079 115.65C7.13872 114.434 11.1591 113.208 15.2691 111.975Z" fill="#CDAD98"/>
</g>
<path fill-rule="evenodd" clip-rule="evenodd" d="M99.9427 114.346C113.087 114.989 126.235 115.58 139.386 116.124C141.153 116.199 142.907 116.308 144.65 116.451C145.071 116.22 145 115.931 144.438 115.585C143.645 115.104 141.798 114.712 140.877 114.668C127.937 114.044 114.993 113.494 102.045 113.02C101.851 113.012 100.987 113.171 100.926 113.085L32.4821 111.502C32.139 111.503 32.0589 111.515 32.24 111.534C32.118 111.534 32.0513 111.551 32.0418 111.582C25.4307 111.215 18.7967 110.765 12.1418 110.238C12.0179 110.226 11.9397 110.282 11.9111 110.406C11.486 112.155 14.1911 111.754 15.2681 111.976C16.269 111.88 17.3384 111.857 18.4765 111.907C19.5516 111.953 25.5965 113.102 33.5954 113.345C57.1727 114.058 99.9427 114.346 99.9427 114.346Z" fill="#0B0808"/>
<path fill-rule="evenodd" clip-rule="evenodd" d="M54.1472 101.698C52.8547 102.121 49.1851 103.398 49.0021 105.577C48.8171 107.757 49.9991 117.571 49.9991 117.571C49.9991 117.571 52.7842 119.039 52.8547 119.079C52.9252 119.117 67.8135 116.833 67.8135 116.833L81.0453 105.837C81.0453 105.837 84 98.9165 69.4587 96.8479C61.1529 95.6663 55.2567 99.1861 54.1472 101.698Z" fill="#515148"/>
<path fill-rule="evenodd" clip-rule="evenodd" d="M69.165 95.993L73.8584 98.5836C73.8584 98.5836 65.728 104.139 61.8543 104.616C57.9807 105.093 50.5823 110.353 50.975 113.72C51.3677 117.085 48.4987 115.186 48.4987 115.186L47.0347 103.189L52.0921 95.0352L69.165 95.993Z" fill="#1C1B1B"/>
<mask id="mask7_2112_4205" style="mask-type:luminance" maskUnits="userSpaceOnUse" x="47" y="95" width="27" height="21">
<path fill-rule="evenodd" clip-rule="evenodd" d="M47.0327 103.189L48.4987 115.186C48.4987 115.186 51.3696 117.085 50.975 113.72C50.5823 110.353 57.9807 105.092 61.8524 104.616C65.7279 104.139 73.8602 98.5836 73.8602 98.5836L69.165 95.993L52.0902 95.0352" fill="white"/>
</mask>
<g mask="url(#mask7_2112_4205)">
<path fill-rule="evenodd" clip-rule="evenodd" d="M54.1472 101.698C52.8547 102.121 49.1851 103.398 49.0021 105.577C48.8171 107.757 49.9991 117.571 49.9991 117.571C49.9991 117.571 52.7842 119.039 52.8547 119.079C52.9252 119.117 67.8135 116.833 67.8135 116.833L81.0453 105.837C81.0453 105.837 84 98.9165 69.4587 96.8479C61.1529 95.6663 55.2567 99.1861 54.1472 101.698Z" fill="#1C1B1B"/>
</g>
<path fill-rule="evenodd" clip-rule="evenodd" d="M68.5532 93.9445C68.5131 94.0152 68.4865 94.0879 68.475 94.1624C68.4655 94.2294 68.4826 94.3039 68.5246 94.3823C68.9173 95.1222 69.0869 95.8545 69.0336 96.581C69.0164 96.8352 68.8563 97.0589 68.6199 97.1564C65.8824 98.2711 62.7999 99.64 59.8318 99.7317C59.7193 99.7336 59.6621 99.6801 59.6602 99.5692C59.6145 98.0818 58.8329 96.2712 57.0981 96.7607C57.2983 96.5963 57.4546 96.5045 57.569 96.4835C61.1529 95.8392 64.6815 94.9712 68.1567 93.8814C68.2329 93.8566 68.2996 93.8527 68.3587 93.8699C68.4178 93.8852 68.4826 93.9101 68.5532 93.9445Z" fill="#BA8F87"/>
<path fill-rule="evenodd" clip-rule="evenodd" d="M37.817 106.33C37.3099 108.22 36.0174 108.796 35.1329 110.325C34.6925 111.084 34.0425 111.612 33.625 112.442C35.07 111.708 36.4082 110.851 37.6397 109.872C38.7301 109.021 39.5117 111.109 40.89 110.792C41.4885 110.652 43.5359 107.393 43.7933 106.888C43.7933 106.888 46.4183 101.317 46.3477 101.328C45.1525 101.517 43.2881 101.37 42.3178 102.074C41.4828 102.68 41.2827 103.741 41.0825 104.693C41.0634 104.787 41.0787 104.873 41.1263 104.955C41.1263 104.955 38.1639 105.031 37.817 106.33Z" fill="#DD87A6"/>
<path fill-rule="evenodd" clip-rule="evenodd" d="M37.8171 106.33C38.3357 105.111 39.9789 105.042 41.1246 104.906L41.0846 104.981C40.9911 103.99 41.441 102.512 42.3351 101.893C43.3683 101.254 44.5655 101.295 45.6464 101.151C45.7626 101.151 46.1344 101.08 46.2488 101.067C46.3689 101.067 46.2011 101.002 46.508 101.111C46.7253 101.369 46.5785 101.444 46.5557 101.578C46.0086 102.987 44.8076 105.55 44.1804 106.956C43.2025 108.46 42.459 110.171 40.9435 111.133C40.2077 111.288 39.5748 110.867 39.1458 110.535C38.6959 110.191 38.2823 109.86 37.9754 110.018C36.5666 111.024 34.9062 112.049 33.2935 112.758C34.3591 110.621 37.2071 108.393 37.8171 106.33ZM37.8171 106.33C37.3444 108.2 35.6363 109.317 34.7804 110.986C34.4086 111.489 34.0026 111.961 33.7548 112.508L33.5603 112.315C35.1025 111.494 36.3188 110.542 37.7199 109.472C38.063 109.284 38.5168 109.363 38.7951 109.514C39.4508 109.844 40.1047 110.628 40.7986 110.456C42.5829 108.755 43.8887 105.82 44.9525 103.616C45.2003 103.082 45.837 101.805 46.0753 101.281C46.1325 101.203 45.9704 101.335 46.1878 101.558C46.4356 101.652 46.3955 101.574 46.3841 101.6L46.3288 101.606L46.1134 101.627C43.3721 101.679 41.3133 101.69 41.1665 105.004C40.0189 105.105 38.37 105.124 37.8171 106.33Z" fill="#231815"/>
<path fill-rule="evenodd" clip-rule="evenodd" d="M49.5835 111.427C48.495 116.096 45.3401 120.001 45.2505 119.98C45.2505 119.98 47.01 120.782 48.2167 120.449C48.6132 120.34 49.4882 118.774 49.513 118.78C49.513 118.78 49.7475 111.656 49.5835 111.427Z" fill="#DD87A6"/>
<path fill-rule="evenodd" clip-rule="evenodd" d="M52.6773 122.342L53.051 122.333L53.2244 123.103C53.2549 123.245 53.2073 123.281 53.0796 123.206C52.0444 122.612 49.1716 121.715 49.8198 118.666C50.4679 115.618 54.0175 115.725 53.9183 116.109C53.8211 116.494 51.3906 120.633 52.5896 122.514C52.6106 122.543 52.6506 122.552 52.6811 122.533L52.7707 122.478C52.8184 122.449 52.8184 122.421 52.7707 122.394L52.6773 122.342Z" fill="#F7E6DC"/>
<path fill-rule="evenodd" clip-rule="evenodd" d="M52.6771 122.342C52.8391 122.405 52.8506 122.456 52.7019 122.539C52.5532 122.621 52.5284 122.41 52.475 122.355C51.5505 120.277 52.8582 117.977 53.6627 116.063C53.6646 116.279 53.7694 116.227 53.6398 116.21C52.9554 116.101 52.1033 116.325 51.4761 116.725C50.1608 117.476 49.6156 119.382 50.2427 120.761C50.6983 121.825 51.987 122.477 52.9649 123.043C53.0412 123.093 53.1861 123.173 53.1727 123.173C53.1575 123.147 53.0584 122.47 53.0298 122.338C53.1308 122.38 52.6637 122.33 52.6771 122.342ZM52.6771 122.342C52.6885 122.363 53.0927 122.279 53.0698 122.328L53.2414 122.929C53.2356 123.043 53.3767 123.089 53.2375 123.303C51.9698 122.9 50.5668 122.24 49.8367 120.967C48.4489 118.355 51.112 114.885 53.9905 115.797C54.1202 115.839 54.2136 116.12 54.1545 116.208C53.3595 118.097 51.8822 120.21 52.536 122.323C52.5837 122.399 52.5932 122.569 52.6847 122.51C52.841 122.445 52.7991 122.41 52.6771 122.342Z" fill="#21181F"/>
<path fill-rule="evenodd" clip-rule="evenodd" d="M85.8856 110.267C81.8595 105.234 72.652 105.642 72.652 105.642C68.5668 106.852 67.585 113.524 59.3383 113.528C56.7457 113.528 55.9889 112.945 54.7193 114.792C53.3563 116.774 51.4214 119.78 52.3079 122.147C52.3079 122.147 53.0075 123.164 53.6804 123.852C55.2245 125.433 63.5475 127.16 66.6204 125.55C69.9069 123.825 72.8998 122.042 76.6553 119.96C80.4107 117.878 84.4616 118.566 86.1926 116.658C88.4706 114.148 86.1697 110.622 85.8856 110.267Z" fill="#F9B9CA"/>
<path fill-rule="evenodd" clip-rule="evenodd" d="M85.8855 110.266C88.4933 114.067 87.1837 117.763 82.4198 118.254C78.6739 118.713 75.5533 120.696 72.3678 122.569L67.5678 125.324C64.2851 127.362 60.1103 126.424 56.5874 125.596C55.2835 125.208 53.6726 124.691 52.8911 123.472L51.997 122.363C50.9695 119.185 53.3143 116.021 55.2168 113.704C56.8219 112.499 58.9493 113.515 60.7393 113.172C63.1318 112.962 65.3602 111.928 67.0797 110.236C68.8679 108.634 70.2271 106.288 72.6481 105.548C77.3529 105.621 82.6867 106.481 85.8855 110.266ZM85.8855 110.266C82.6657 106.542 77.33 105.678 72.6557 105.735C70.4444 106.496 69.0699 108.85 67.339 110.507C65.6138 112.301 63.2728 113.455 60.7984 113.733C59.1094 114.113 57.083 113.255 55.6514 114.211C53.9548 116.168 51.8941 119.606 52.6204 121.931C53.1332 122.458 53.7356 123.537 54.3379 123.892C56.6694 125.179 59.4983 125.638 62.1424 125.837C65.8959 126.468 68.8755 123.793 72.1848 122.227C75.4027 120.43 78.6682 118.526 82.3989 118.143C87.1036 117.715 88.4495 114.069 85.8855 110.266Z" fill="#231815"/>
<path fill-rule="evenodd" clip-rule="evenodd" d="M70.5723 106.979C73.2678 104.337 77.2977 99.6947 81.2286 100.551C81.322 100.572 81.402 100.616 81.4687 100.681C83.9145 103.065 86.5548 110.42 86.5548 110.42C86.5548 110.42 79.2936 104.442 70.5723 106.979Z" fill="#E9EBEA"/>
<path fill-rule="evenodd" clip-rule="evenodd" d="M70.5723 106.979C76.0968 105.159 82.176 106.729 86.8102 110.107L86.1754 110.556C84.8429 107.251 83.5161 103.769 81.1733 101.049C76.9718 100.28 73.6567 104.599 70.5723 106.979ZM70.5723 106.979C73.2678 104.014 75.99 100.181 80.4393 100.001C80.8988 100.056 81.4897 100.005 81.8271 100.381C84.3301 103.186 85.5807 106.84 86.9341 110.283C87.079 110.648 86.6063 110.99 86.3089 110.738C81.9682 107.327 76.0148 105.626 70.5723 106.979Z" fill="#231815"/>
<path fill-rule="evenodd" clip-rule="evenodd" d="M62.3927 114.157C61.9028 106.281 69.6577 101.042 76.1906 98.5547L73.72 99.7936C68.3023 102.702 62.3813 107.435 62.3927 114.157Z" fill="#231815"/>
<path fill-rule="evenodd" clip-rule="evenodd" d="M73.0903 107.933C76.272 109.856 79.1619 113.316 78.916 117.24C78.6091 113.37 75.9498 110.303 73.0903 107.933Z" fill="#764669"/>
<path fill-rule="evenodd" clip-rule="evenodd" d="M62.9328 123.969C63.5771 124.575 64.4521 125.539 64.1909 125.617C63.64 125.783 62.1226 125.741 62.1226 125.741C61.8099 123.963 59.8312 122.252 58.817 120.94C58.7751 120.887 58.756 120.835 58.7579 120.78C58.7598 120.684 58.7961 120.669 58.8647 120.738C60.1286 121.977 62.2884 123.363 62.9328 123.969Z" fill="#764669"/>
<path fill-rule="evenodd" clip-rule="evenodd" d="M32.3271 78.0952C31.8543 68.3428 27.2582 53.6348 27.2582 53.6348C27.2582 53.6348 21.4973 64.8804 21.2495 65.1308C21.4192 71.1437 22.9862 83.4198 28.1084 88.3562C27.9083 84.9129 28.4477 80.9993 29.6049 77.9136L32.3271 78.0952Z" fill="#D868B9"/>
<path fill-rule="evenodd" clip-rule="evenodd" d="M31.3826 40.9956L26.9009 58.7033C26.9009 58.7033 30.7402 67.4712 30.8069 71.6237C30.8717 75.7744 31.4722 81.9516 32.7437 83.9687C34.0152 85.9838 43.4229 96.3232 50.3009 97.1911C57.1769 98.061 74.0421 91.9086 77.3114 89.9318C80.5807 87.9549 87.5902 68.0524 87.5902 68.0524L78.5009 38.3936L31.3826 40.9956Z" fill="#F7E6DC"/>
<path fill-rule="evenodd" clip-rule="evenodd" d="M31.3827 40.9947L78.4991 38.3467C78.5925 38.3028 87.6151 67.996 87.6627 68.0285C85.1216 74.9361 82.6682 82.0233 78.846 88.3535C78.2589 89.2196 77.5078 90.078 76.5051 90.4662C72.6868 92.2614 68.6949 93.6265 64.6726 94.852C60.6389 96.0182 56.5365 97.1252 52.314 97.3145C47.9905 97.5802 44.2217 94.9227 40.9733 92.3742C37.8356 89.6421 34.4099 86.8642 32.3339 83.2259C30.9785 79.2014 30.9156 74.9055 30.7117 70.7185C30.0845 66.543 28.4717 62.5873 26.8838 58.6986L31.3827 40.9947ZM31.3827 40.9947L26.9181 58.7062C28.5137 62.5319 30.1321 66.5449 30.7708 70.7127C30.9824 74.9036 31.0567 79.1995 32.4121 83.1934C34.4823 86.8011 37.9156 89.5791 41.0401 92.2901C44.2751 94.8157 48.021 97.454 52.3102 97.1826C56.506 96.9856 60.6045 95.8729 64.6269 94.7029C68.6396 93.4697 72.6315 92.097 76.425 90.3036C77.4258 89.9079 78.095 89.1145 78.6897 88.2484C82.4966 82.0234 84.9767 74.6933 87.5179 68.0725C87.5331 68.1126 78.3599 38.232 78.5029 38.4385L31.3827 40.9947Z" fill="#21181F"/>
<path fill-rule="evenodd" clip-rule="evenodd" d="M29.0336 70.8447C29.7962 71.7089 30.614 72.4105 31.4871 72.9497L33.0903 73.7144C33.5859 73.6169 34.0415 73.7221 34.4533 74.0318C35.6447 74.5059 36.6703 74.6264 37.532 74.397C39.0475 73.9993 40.4086 73.4544 41.6153 72.7623C44.5929 71.9842 45.0123 75.6014 44.3203 77.6184C42.3607 83.3349 32.6823 83.9907 30.8237 78.496C27.6935 74.7889 26.5916 70.5885 25.0742 66.2275C26.3724 67.9406 27.2074 69.6001 29.0336 70.8447Z" fill="#FBD4C9"/>
<path fill-rule="evenodd" clip-rule="evenodd" d="M62.0469 53.9773C59.9652 59.8161 56.3146 65.8596 56.3146 65.8596C58.2533 66.2113 60.682 66.0909 62.2699 65.2631C73.7517 59.277 74.3941 43.5959 74.5123 43.592C74.539 43.5882 74.5904 43.6188 74.6648 43.68L92.4392 76.1741C92.4392 76.1741 94.0672 85.9973 96.6407 84.1083C108.595 75.3252 110.753 60.254 110.831 54.7076C110.841 54.1455 110.877 53.6485 110.94 53.2145C110.984 52.9181 111.256 52.7059 111.552 52.7499C123.32 54.4591 127.651 47.2284 128.932 43.8941C130.213 40.5617 132.117 32.2451 128.078 24.8806C121.981 13.7688 102.705 15.5927 98.5699 24.46C91.8063 15.935 78.5212 13.6082 77.9131 13.3998C77.101 13.1207 76.3137 12.7574 73.073 12.6733C69.8304 12.5892 60.2855 12.7039 54.0404 14.7209C54.0404 14.7209 24.5021 18.7951 20.4073 57.5563C19.9117 69.3239 21.8485 69.559 21.8485 69.559L23.6271 58.5371L32.9432 40.3132C32.9432 40.3132 38.4715 37.0286 37.1676 42.9057C36.7768 56.044 37.4326 60.2826 37.7643 59.8831C44.7662 51.4364 42.3852 62.1123 48.3176 64.0643C48.4816 64.1178 49.0306 61.7663 49.0992 61.1583C49.0992 61.1583 49.429 62.0148 50.7939 63.2594C52.1589 64.504 54.3206 64.4926 55.1594 64.3779C55.1594 64.3779 60.7449 56.3652 62.0469 53.9773Z" fill="#5A4E75"/>
<path fill-rule="evenodd" clip-rule="evenodd" d="M92.5356 48.0534C91.2374 41.1133 85.7015 31.8599 83.7857 29.4127C81.8679 26.9636 77.8437 23.1819 77.8437 23.1819C74.1321 20.3466 70.3767 19.2855 65.6852 18.8037L65.6071 18.8592C65.5518 18.8974 65.5365 18.9471 65.5613 19.0083L65.6032 19.1211C68.7525 21.0253 70.1956 24.113 71.7683 27.453C73.5183 31.1735 74.4752 35.1674 74.6354 39.4385L74.6125 43.853C74.744 44.8854 75.0242 45.849 75.4532 46.7399C76.8028 49.8964 77.9867 53.7928 78.9055 56.4235C80.1598 60.0178 82.1043 68.8755 80.909 76.8327C79.7157 84.788 72.8396 88.9807 72.8396 88.9807C72.8263 89.0343 80.7737 86.2334 80.7737 86.2334C80.8957 86.1818 76.6751 97.4694 68.9069 100.961C97.4044 94.9114 94.9223 60.8113 92.5356 48.0534Z" fill="#D6B6FC"/>
<path fill-rule="evenodd" clip-rule="evenodd" d="M80.4675 14.0582C80.4675 14.0582 78.5059 13.6567 77.8978 13.4464C77.0857 13.1672 72.9547 12.5669 73.0558 12.7199C73.2083 13.0411 73.0729 13.2533 72.6516 13.3584C70.406 13.911 68.8028 15.0447 66.3989 14.5189C66.3398 14.5017 66.2769 14.5304 66.2502 14.5859C66.2197 14.6489 66.2464 14.7235 66.3093 14.7541L68.3281 15.8897C68.3796 15.9203 68.3777 15.9452 68.3205 15.9681L64.22 17.5282C64.1437 17.5569 64.0885 17.6238 64.0713 17.7041C64.0465 17.8322 64.1285 17.9584 64.2581 17.9852C64.8396 18.1018 65.3257 18.3312 65.7203 18.6773C70.4136 19.159 74.169 20.2201 77.8806 23.0554L78.035 23.0975C78.138 23.1243 78.2466 23.0841 78.3096 22.9981C78.3934 22.8815 78.3667 22.7209 78.2524 22.6367C75.9629 20.9256 73.5705 19.7689 71.1418 18.3121C71.0103 18.2337 71.0179 18.1725 71.1647 18.1324C72.6287 17.7156 74.1138 17.5607 75.6255 17.664C75.6426 17.664 75.6598 17.6544 75.6674 17.6391C75.6827 17.6143 75.6731 17.5837 75.6483 17.5684C74.8458 17.2223 74.0089 17.0407 73.1339 17.0197C73.0596 17.0197 72.9909 16.9719 72.9623 16.903C72.9242 16.8055 72.9719 16.6966 73.0672 16.6583C73.7744 16.3601 76.4013 15.7253 76.0944 14.6489C76.083 14.6107 76.0792 14.5706 76.0792 14.5304C76.0868 14.3201 76.2622 14.1538 76.4719 14.1595L80.4675 14.0582Z" fill="#302C40"/>
<path fill-rule="evenodd" clip-rule="evenodd" d="M49.1808 14.9066C48.5765 12.4307 45.2137 8.69684 42.9433 7.52678C36.2007 4.04909 27.7805 4.86737 21.9968 10.2933C19.5319 12.7519 16.5752 17.1549 16.6877 20.7301C16.7201 21.7855 16.9622 22.8676 17.4159 23.9746C18.1289 25.7201 18.7313 29.5783 18.8151 29.735C19.856 31.6546 22.5629 33.9985 24.6065 34.9755C25.4415 35.3731 26.7282 35.4114 26.8655 35.3062C30.8726 32.2472 49.928 17.9675 49.1808 14.9066Z" fill="#5A4E75"/>
<path fill-rule="evenodd" clip-rule="evenodd" d="M37.9621 26.0029C28.5907 30.8227 11.3881 57.0937 19.9093 78.2696C26.7892 95.3674 37.0585 94.8493 38.7875 94.1323C35.6555 94.205 30.1596 90.5629 28.0016 85.2861C18.1803 61.2673 29.6277 33.6791 37.9621 26.0029Z" fill="#E27BBF"/>
<path fill-rule="evenodd" clip-rule="evenodd" d="M37.962 26.0029C24.4901 40.3458 19.1181 72.6888 30.7924 89.2628C32.8398 91.5246 35.6649 93.706 38.7817 93.8532C38.9438 93.836 39.0925 93.9641 39.0906 94.1285C39.0887 94.2528 39.0067 94.356 38.8942 94.3904C35.2265 95.3445 31.5359 93.6831 28.6897 91.4997C14.1064 78.9024 15.1683 57.6558 24.0479 41.9995C27.5498 35.8701 31.7665 29.6297 37.962 26.0029ZM37.962 26.0029C31.8256 29.7024 27.7061 35.9791 24.2957 42.1314C15.5972 57.6616 14.5506 78.6749 29.0157 91.0772C31.6598 93.1363 35.3618 94.7021 38.6807 93.8742L38.7951 94.4115C35.4038 94.226 32.5996 91.9968 30.4168 89.5936C18.6892 72.6621 24.0688 40.4624 37.962 26.0029Z" fill="#21181F"/>
<path fill-rule="evenodd" clip-rule="evenodd" d="M37.6043 26.1804C20.3254 43.5899 19.4352 72.6752 32.3276 81.2614C29.1193 76.5257 28.2767 64.8308 28.9915 58.8772C29.7045 52.9256 34.5332 44.0927 36.8417 42.9112C38.5136 31.6159 46.8442 20.4372 63.2175 18.6591C56.5644 15.4682 41.9392 21.8118 37.6043 26.1804Z" fill="#FDB4E1"/>
<path fill-rule="evenodd" clip-rule="evenodd" d="M37.6039 26.1806C43.5211 21.0434 55.5385 15.7112 63.2591 18.5714L63.5774 18.7167L63.2267 18.7568C56.8634 19.4967 50.5631 21.8541 45.8163 26.2265C41.022 30.5645 37.968 36.6691 37.0568 43.0471C34.3842 45.0087 32.9087 48.5227 31.4885 51.4861C28.5089 57.7303 28.6786 64.7774 29.5593 71.49C30.0874 75.1665 30.8861 78.9099 33.0078 81.9708L32.2148 81.4317C27.8646 78.4759 25.4131 73.5127 24.2903 68.54C21.1296 53.4094 26.9172 37.0477 37.6039 26.1806ZM37.6039 26.1806C27.0106 37.0974 21.3488 53.4247 24.5857 68.4711C25.7314 73.3904 28.1925 78.2503 32.4397 81.0914L32.1595 81.3762C30.2856 78.3995 29.6279 74.9294 29.0923 71.5569C28.1677 64.785 27.9084 57.5448 30.9986 51.2701C32.5198 48.1767 33.8809 44.8615 36.7366 42.703C37.1521 37.2675 40.9152 30.0311 45.5952 25.9818C50.4334 21.5883 56.8081 19.2616 63.2057 18.5637L63.1752 18.7473C61.084 17.7837 58.6878 17.7665 56.4173 18.0131C49.6518 19.0245 42.8158 21.6667 37.6039 26.1806Z" fill="#21181F"/>
<path fill-rule="evenodd" clip-rule="evenodd" d="M69.7733 20.0624C73.1551 21.7793 75.4103 24.3622 77.0173 27.8934C77.0287 27.9183 77.0211 27.9336 76.9925 27.9374C76.9868 27.9393 76.9792 27.9431 76.9734 27.945C76.9582 27.947 76.9487 27.9431 76.9429 27.9317C75.2387 24.7255 72.8253 22.198 69.7028 20.3454C69.6437 20.311 69.6227 20.2612 69.6437 20.1924C69.6551 20.1599 69.6646 20.1293 69.6742 20.1006C69.6913 20.049 69.7237 20.0376 69.7733 20.0624Z" fill="#685A80"/>
<path fill-rule="evenodd" clip-rule="evenodd" d="M76.5521 77.7099C75.7896 78.5741 74.9718 79.2758 74.0987 79.8149L72.4955 80.5796C71.9998 80.4821 71.5442 80.5873 71.1325 80.897C69.941 81.3712 68.9154 81.4916 68.0538 81.2622C66.5383 80.8645 65.1772 80.3196 63.9705 79.6275C63.0459 79.3866 61.3436 77.0121 60.8365 77.4537C59.7099 78.4326 60.6306 81.9715 61.254 83.3021C64.4509 90.116 72.0704 88.0933 74.7621 85.3612C77.8923 81.6541 78.9941 77.4537 80.5115 73.0928C79.2133 74.8058 78.3784 76.4653 76.5521 77.7099Z" fill="#FBD4C9"/>
<path fill-rule="evenodd" clip-rule="evenodd" d="M46.9709 27.1225L48.6485 25.2451L50.0744 24.4172C50.2136 24.335 50.2517 24.3675 50.1831 24.5147C49.2909 26.44 47.4914 27.784 46.094 29.3479C45.1199 30.4358 45.1809 32.5216 45.3315 33.8657C45.3448 34.0014 45.2629 34.1276 45.1332 34.1697C44.9541 34.2309 44.8492 34.1372 44.8206 33.8886C44.5213 31.3305 45.4973 29.2007 46.9709 27.1225Z" fill="#F2CCDE"/>
<path fill-rule="evenodd" clip-rule="evenodd" d="M81.0666 27.1035L84.1701 30.629C84.0995 30.8374 83.9966 31.0056 83.8593 31.1337C83.7869 31.2045 83.7774 31.2829 83.8288 31.3689C84.7305 32.8276 85.4282 34.3801 85.9258 36.0262C85.9525 36.1199 85.901 36.2193 85.8076 36.248C85.7504 36.2652 85.6875 36.2518 85.6436 36.2136C84.456 35.2079 82.5669 35.1812 82.5135 37.2249C82.4753 38.5078 82.544 39.7849 82.7136 41.0563C82.7537 41.3718 82.6755 41.5917 82.4753 41.7121C82.3591 41.7809 82.2885 41.7503 82.2599 41.6165C81.5699 38.005 80.3517 34.5904 78.6074 31.3689C78.5922 31.344 78.6017 31.3134 78.6265 31.3001C78.6284 31.2982 78.6284 31.2982 78.6303 31.2962C80.0162 30.6481 80.59 29.761 80.3479 28.633C80.1821 27.8472 80.3346 27.3903 81.0666 27.1035Z" fill="#FAD1FF"/>
<path fill-rule="evenodd" clip-rule="evenodd" d="M74.3767 32.848C74.31 32.8117 74.2852 32.7256 74.3214 32.6587C74.3214 32.6568 74.3214 32.6568 74.3214 32.6568L74.35 32.609C74.5273 32.2897 74.8361 32.1234 75.0382 32.2362L75.0401 32.2381L75.0878 32.2649C75.2898 32.3777 75.3089 32.7256 75.1316 33.0449C75.1297 33.0468 75.1297 33.0488 75.1278 33.0488L75.0973 33.0966C75.0611 33.1654 74.9753 33.1902 74.9086 33.152H74.9067L74.3767 32.848Z" fill="#FEFEFE"/>
<path fill-rule="evenodd" clip-rule="evenodd" d="M45.6442 33.2304C45.6309 34.5381 46.4887 35.9184 46.8757 37.2223C46.9062 37.3294 47.0091 37.3657 47.1883 37.3294C47.3675 37.0426 47.4495 36.7692 47.4342 36.5092C48.1033 34.4654 48.8792 32.479 49.1251 30.3817C49.2605 29.2326 49.3634 28.0798 49.4301 26.9212C49.4397 26.7816 49.3901 26.7568 49.2814 26.8428C46.971 28.682 45.6823 30.0873 45.6442 33.2304Z" fill="white"/>
<path fill-rule="evenodd" clip-rule="evenodd" d="M61.447 35.8035C61.508 35.7079 61.4813 35.5818 61.386 35.5206C59.88 34.5608 58.3664 34.9432 57.2016 33.3468C56.5592 32.4635 56.0902 31.6337 54.9979 31.217C54.8836 31.1768 54.7844 31.1978 54.7005 31.282C53.5892 32.3985 52.779 36.1381 53.0707 37.5816C53.3166 38.788 53.9456 39.8012 54.956 40.6214C56.2599 41.6787 57.2359 39.2392 57.3522 38.3559C57.3713 38.2144 57.4361 38.0825 57.5352 37.9773C58.578 36.8971 59.84 36.2012 61.3193 35.8915C61.3707 35.8819 61.4184 35.8494 61.447 35.8035Z" fill="white"/>
<path fill-rule="evenodd" clip-rule="evenodd" d="M71.3861 33.8756C71.3804 33.8584 71.3709 33.8412 71.3594 33.8278C71.3079 33.7666 71.2183 33.759 71.1573 33.8106C70.1699 34.604 69.0299 35.082 67.7431 35.2407L66.6089 40.2842L66.7214 41.4466C66.7309 41.5422 66.7671 41.632 66.83 41.7028C66.9921 41.8901 67.2761 41.9112 67.4629 41.7467L68.5629 40.7927C68.6544 40.7124 68.7287 40.7277 68.784 40.8367C69.354 41.9551 71.0392 40.7277 71.5462 40.1618C72.6957 38.8675 71.8932 35.3917 71.3861 33.8756Z" fill="white"/>
<path fill-rule="evenodd" clip-rule="evenodd" d="M57.9194 38.5261C58.0356 39.6484 58.4093 41.2295 59.3186 41.9139C59.8752 42.3345 60.7464 42.3575 61.4613 42.8297C63.2647 40.6865 64.397 38.2068 64.8602 35.3906C63.1388 35.8304 58.985 36.8742 57.9975 38.2221C57.9327 38.3139 57.906 38.4152 57.9194 38.5261Z" fill="white"/>
<path fill-rule="evenodd" clip-rule="evenodd" d="M96.6034 74.9728C94.413 74.3246 92.6706 75.8216 92.5067 75.9153C92.5067 75.9153 91.6851 78.8921 91.6965 78.938C91.2828 80.2323 88.0173 87.6484 87.0527 89.2429C90.69 88.1799 95.1565 86.8971 97.3411 84.1516C99.8765 80.9626 99.2112 75.7432 96.6034 74.9728Z" fill="#F7E6DC"/>
<path fill-rule="evenodd" clip-rule="evenodd" d="M72.4509 89.2424C71.4463 89.9039 78.8142 85.9502 73.9626 97.2742C81.4449 92.0376 89.7164 74.5344 74.5116 43.5908C85.3319 73.9761 72.4509 89.2424 72.4509 89.2424Z" fill="#B081F2"/>
<path fill-rule="evenodd" clip-rule="evenodd" d="M74.5114 43.5908C78.5795 54.6338 80.6936 67.0399 77.5749 78.5876C76.4749 82.417 75.009 86.2771 72.485 89.4221C72.4964 89.4126 72.5079 89.3992 72.5136 89.3839C72.4984 89.3514 72.5594 89.4068 72.4926 89.2156C72.3134 89.1009 72.3687 89.1812 72.3668 89.1545L72.3783 89.1525L72.5327 89.1143C74.845 88.3974 76.0879 89.7414 75.6952 91.9936C75.4245 93.8538 74.704 95.5822 73.9643 97.2742C74.6391 95.5573 75.2892 93.7965 75.4836 91.9706C75.7581 89.8408 74.662 88.7644 72.6165 89.4336C72.5994 89.447 72.4183 89.4795 72.403 89.4852C72.3859 89.4642 72.4278 89.5464 72.2353 89.424C72.1476 89.2462 72.2219 89.2309 72.2753 89.1621C81.317 76.1136 79.2524 58.0904 74.5114 43.5908Z" fill="#21181F"/>
<path fill-rule="evenodd" clip-rule="evenodd" d="M26.8372 15.5436C26.7209 13.9778 27.0145 11.9034 26.9497 10.0699C26.9459 9.938 26.883 9.90167 26.7667 9.95712C23.4287 11.5306 20.4072 16.1611 21.3432 19.7879C22.2506 23.323 25.6534 25.6038 29.2125 26.0015C29.3021 26.013 29.3821 25.948 29.3936 25.8581C29.3955 25.839 29.3936 25.818 29.3898 25.7969L28.1983 21.4704C28.1678 21.3633 28.1125 21.2716 28.0306 21.1951C27.2757 20.4839 26.9154 16.6257 26.8372 15.5436ZM22.4984 10.2917C20.0355 12.7523 17.0788 17.1534 17.1913 20.7305C17.2237 21.7858 17.4658 22.868 17.9195 23.9749C18.6324 25.7205 19.4541 27.2308 20.3862 28.5061C21.6254 30.2 23.5126 31.0316 25.4323 31.8098C25.5333 31.8537 25.5962 31.9149 25.6191 31.9971C25.6458 32.1023 25.6076 32.1424 25.5009 32.1195C22.9407 31.5478 21.6444 30.4237 19.658 29.2173C19.5475 29.1485 19.4007 29.181 19.3282 29.2918C19.2367 29.4295 19.2348 29.5786 19.3187 29.7354C20.7847 32.4369 23.5412 34.9491 26.6466 35.2282C26.7667 35.2397 26.883 35.1785 26.9421 35.0752C28.4175 32.563 30.1408 30.1216 32.1139 27.749L33.1662 26.5349C33.2615 26.4221 33.2367 26.3724 33.0899 26.3839C31.237 26.5215 29.2964 26.7491 27.5349 26.2061C23.6518 25.0093 21.4481 22.7877 20.6417 18.5395C20.7885 18.421 20.8056 18.1648 20.6894 17.7709C20.1899 16.0789 21.7855 13.5208 22.9521 12.3948C24.2122 10.8653 25.6839 9.73343 27.3653 8.99927C27.4587 8.95912 27.5654 9.0031 27.6055 9.09678C27.6207 9.13119 27.6245 9.16943 27.6169 9.20767C26.9992 12.0869 26.9421 14.9872 27.4453 17.9086C27.5559 18.5299 27.8552 19.3042 27.9028 20.0747C27.9047 20.1225 27.9295 20.1474 27.9772 20.1474H28.1163C28.1983 20.1474 28.2364 20.1072 28.2288 20.0269C27.941 16.5072 28.3794 13.0888 29.5423 9.76976C30.0246 8.38556 30.6231 6.8121 32.4742 7.60934C39.1062 10.4599 39.4093 17.6734 35.448 22.9005C35.3641 23.0133 35.2555 23.0878 35.122 23.1184C34.9772 23.1567 34.9409 23.1108 35.0172 22.9789C38.0311 17.813 39.4017 11.4962 32.8974 8.16379C31.6411 7.51758 30.7604 7.81965 30.259 9.07001C28.2155 14.1823 27.8723 20.3749 30.0722 25.5924C30.4306 26.4451 32.5199 25.9002 33.128 25.7702C33.6561 25.6555 34.2223 25.3629 34.8228 24.8888C36.9159 23.2465 39.1539 21.8413 41.5349 20.6731C42.4213 20.2353 43.2353 19.8052 43.975 19.3788C45.5133 18.4955 49.1773 17.1515 48.7693 14.8859C48.3194 12.3775 45.3018 8.95148 43.0332 7.78141C36.2887 4.30372 28.2841 4.86581 22.4984 10.2917ZM48.6797 12.0487L49.3813 13.756L50.1362 15.601C55.1364 13.3488 46.9755 18.5433 44.4992 19.8128C42.3489 20.914 40.1032 21.9579 38.0692 23.2045C34.2413 25.5446 30.9853 29.7144 28.5491 33.4272C27.9429 34.3487 23.0036 44.3382 23.0036 44.3382C23.7833 40.9734 24.3361 39.1666 25.8135 36.1153C25.8555 36.0293 25.8307 35.97 25.7392 35.9394C21.755 34.6527 17.624 30.4925 17.0655 26.3609C16.6708 23.4224 16.3506 20.1741 17.3476 17.4344C19.1986 12.3336 22.8454 7.96113 28.2078 6.23471C35.795 3.79134 41.0831 4.95185 47.0918 9.91697C47.8219 10.5249 48.1974 11.2572 48.6797 12.0487Z" fill="#0B0808"/>
<path fill-rule="evenodd" clip-rule="evenodd" d="M59.2855 21.1688C52.8117 25.6215 49.3365 32.2347 47.8572 39.8401C46.9784 44.3521 47.3196 50.1565 49.0143 54.4353L49.6034 55.5786C50.3583 56.9035 51.3781 57.9455 52.6611 58.7026C52.7049 58.7332 52.7164 58.7925 52.6878 58.8364C52.6649 58.8708 52.6191 58.888 52.5791 58.8747C48.6559 57.4063 46.9288 52.7892 46.3531 48.8699C45.6459 44.0672 46.0328 39.408 47.514 34.8922C48.4348 31.6076 49.9789 28.6499 52.1483 26.0211C54.3253 23.3827 57.9073 19.4424 61.5273 19.7636C61.676 19.777 61.6837 19.819 61.554 19.8917L59.2855 21.1688Z" fill="#FDB4E1"/>
<path fill-rule="evenodd" clip-rule="evenodd" d="M65.9372 22.2361C67.1706 25.7578 67.4985 29.3349 66.9171 32.9675C66.0554 38.3589 64.7401 42.5153 59.8504 45.3411C58.4626 46.1421 54.1925 47.5627 52.9229 46.0408C53.0506 45.9299 53.0754 45.8898 52.9991 45.9165C58.4149 47.0369 62.1342 40.9323 63.8441 36.7931C64.2025 35.9289 64.5075 34.6461 64.7572 32.9445C65.2472 29.6179 65.2948 26.5895 64.9021 23.8574L64.2368 20.0279C64.2178 19.9266 64.2845 19.8291 64.3855 19.81C64.4656 19.7947 64.5437 19.8329 64.5838 19.9018L65.9372 22.2361Z" fill="#D6B6FC"/>
<path fill-rule="evenodd" clip-rule="evenodd" d="M98.4987 24.8408C98.5196 24.8542 98.8456 24.5291 99.2612 24.0512C98.7789 24.5368 98.4987 24.8408 98.4987 24.8408Z" fill="#0B0808"/>
<path fill-rule="evenodd" clip-rule="evenodd" d="M120.718 19.8225C120.754 19.8951 120.77 19.9754 120.762 20.0557C120.741 20.2928 120.531 20.4668 120.293 20.4457L117.083 20.1571C112.847 19.9544 109.103 21.1627 105.851 23.78C105.796 23.8259 105.721 23.8355 105.655 23.8087C105.559 23.7667 105.515 23.6539 105.557 23.5564C107.332 19.3445 111.202 16.9164 115.503 17.4518C116.496 17.576 120.312 19.0118 120.718 19.8225ZM125.303 21.9274C123.648 19.7441 121.446 18.2222 118.701 17.3619C116.824 16.601 115.384 16.3849 113.156 16.4977C112.233 16.5436 111.494 16.4977 109.326 16.7692C107.157 17.0407 102.675 19.6925 101.497 20.6981C100.317 21.7057 100.098 23.0918 99.2607 24.0515C100.683 22.6253 103.882 19.6256 107.023 18.1018C107.023 18.1018 110.935 17.4154 110.836 17.4976C108.011 19.8034 105.832 21.4151 104.684 25.0706C104.638 25.2216 104.677 25.2464 104.797 25.1451C108.981 21.6732 112.1 20.027 117.254 20.3788C119.782 20.5738 121.166 21.0155 122.655 21.4208C122.808 21.4629 122.827 21.4304 122.708 21.3233C121.742 20.4477 121.26 20.1857 120.682 18.9851C120.669 18.9602 120.671 18.9296 120.688 18.9067C120.711 18.8742 120.758 18.8665 120.791 18.8895C122.375 19.962 124.218 20.723 125.185 22.4513C125.678 23.3288 126.325 24.063 127.125 24.6538C127.196 24.7054 127.251 24.713 127.293 24.6748C127.331 24.6423 127.383 24.5888 127.447 24.518C126.881 23.5105 125.962 22.7954 125.303 21.9274Z" fill="#0B0808"/>
<path fill-rule="evenodd" clip-rule="evenodd" d="M119.087 23.4788C119.114 23.4845 119.14 23.475 119.159 23.4539C119.186 23.4234 119.182 23.3756 119.152 23.3488C119.015 23.2341 118.83 23.1557 118.595 23.1175C113.99 22.3068 110.053 23.041 105.792 25.5092C105.459 25.7004 104.996 26.0847 104.5 26.2567C104.397 26.2931 104.323 26.3638 104.277 26.4632C104.185 26.6735 104.193 26.8246 104.298 26.9182C104.283 26.9278 104.334 26.9546 104.452 26.9966C104.631 26.7538 104.811 26.5665 104.99 26.4326C109.231 23.3182 113.93 22.3336 119.087 23.4788Z" fill="#0B0808"/>
<path fill-rule="evenodd" clip-rule="evenodd" d="M120.408 23.7871C120.326 23.789 120.254 23.8426 120.227 23.9171C118.182 29.5973 115.725 34.312 111.62 38.7647C111.557 38.8316 111.573 38.8641 111.662 38.8603C111.849 38.8527 111.986 38.801 112.074 38.7054C115.946 34.4496 118.803 29.5858 120.649 24.1122C120.723 23.8923 120.643 23.7852 120.408 23.7871Z" fill="#0B0808"/>
<path fill-rule="evenodd" clip-rule="evenodd" d="M126.777 25.3768C126.169 24.981 125.531 24.7401 124.858 24.6541C124.713 24.6331 124.684 24.6828 124.77 24.8032C125.393 25.6712 126.042 26.5201 126.713 27.3556C127.054 27.7819 127.733 28.0687 127.944 28.6289C129.387 32.4431 130.39 35.4275 127.29 38.8C124.57 41.7634 125.369 29.0686 125.369 29.0686C124.902 33.4105 123.699 39.4023 120.473 43.681C120.285 43.9296 120.077 44.1456 119.848 44.333C119.758 44.4056 119.657 44.4438 119.545 44.4477C114.672 44.6465 108.406 41.9603 105.779 37.693C104.428 35.4925 103.393 32.8006 102.676 29.6192C102.552 29.6116 102.495 29.602 102.506 29.5886C103.072 32.4316 104.041 35.0891 105.412 37.5592C107.215 40.8037 112.036 45.7936 115.614 46.9732C115.656 46.9847 115.687 47.021 115.688 47.065C115.69 47.1186 115.648 47.1663 115.595 47.1683C115.05 47.2371 114.495 47.0516 114.022 47.0784C112.137 47.1893 110.025 47.4302 108.307 46.7477C106.59 46.0689 105.005 44.9199 103.553 43.3025C104.704 46.9025 106.853 50.8257 110.778 51.6114C118.641 53.183 121.991 50.7435 121.991 50.7435C121.991 50.7435 116.4 51.1029 116.462 51.0914C118.426 50.927 122.85 50.2502 124.526 48.6328C126.314 46.9044 127.431 44.5968 127.431 44.5968C127.431 44.5968 121.892 46.3079 119.246 46.5068C119.162 46.5125 119.084 46.4915 119.013 46.4437C119.013 46.4437 125.424 44.8453 128.099 42.6352C129.117 41.2491 129.599 39.4309 129.544 37.1826C129.542 37.0774 129.595 36.9799 129.683 36.9264C129.993 36.7428 130.138 36.9608 130.115 37.5783C130.377 33.6819 128.928 27.8068 126.777 25.3768Z" fill="#282537"/>
<path fill-rule="evenodd" clip-rule="evenodd" d="M96.8012 77.7332C96.1759 76.1941 93.3412 78.0104 92.1364 78.647C92.125 78.6031 92.003 78.6222 91.7685 78.7063L89.2217 86.6826C90.2072 84.5203 91.0041 82.3235 91.6122 80.0905C91.6579 79.9222 91.7666 79.7655 91.9401 79.6202C93.345 80.2721 94.0351 81.2606 94.7976 82.5071C95.0474 82.9105 95.0855 82.8895 94.9158 82.4497C94.3954 81.0923 93.4785 80.0484 92.1669 79.3124C93.0934 78.5381 95.3543 77.0544 96.662 77.8498C96.8298 77.9511 96.8755 77.9129 96.8012 77.7332Z" fill="#BA8F87"/>
<path fill-rule="evenodd" clip-rule="evenodd" d="M68.906 100.96C85.8645 97.6241 93.3411 81.6925 93.5908 65.6539C94.1513 53.9093 91.959 42.0155 85.3308 32.1388C82.0462 27.189 77.7894 22.2449 72.0304 20.2852C70.1622 19.5568 67.1083 19.1706 65.7282 18.966C67.1827 19.8073 69.3082 22.0881 70.2576 24.0631C72.4536 28.0704 74.1197 32.4256 74.5353 37.0083C75.0596 40.2509 73.9482 43.698 75.4523 46.7397C75.0081 45.8354 74.7221 44.8527 74.5868 43.8528C74.9738 36.9816 73.4811 30.1677 69.9792 24.2199C68.8831 22.2143 67.4114 20.3827 65.4422 19.2337C65.4346 19.098 65.3755 19.1496 65.3755 18.9068C65.467 18.6601 65.5528 18.7194 65.61 18.6143C67.8194 18.8322 70.0345 19.1955 72.1562 19.9086C78.0239 21.8683 82.3741 26.841 85.754 31.8731C88.8003 36.9013 91.6254 42.2316 92.813 48.0494C93.8501 53.8557 94.2904 59.7749 94.0388 65.6711C93.6575 81.8741 86.1676 97.8401 68.906 100.96Z" fill="#21181F"/>
<path fill-rule="evenodd" clip-rule="evenodd" d="M78.8394 18.8037C84.036 21.1706 89.7053 24.3653 92.1893 29.7797C89.2535 24.6483 83.8148 21.6505 78.8394 18.8037Z" fill="#020202"/>
<path fill-rule="evenodd" clip-rule="evenodd" d="M107.606 50.4258C103.549 54.4579 98.7377 58.7156 92.8491 59.4096C98.692 58.4767 103.364 54.2878 107.606 50.4258Z" fill="#020202"/>
<path fill-rule="evenodd" clip-rule="evenodd" d="M94.8628 27.9355C101.523 40.4487 103.407 55.8431 99.5809 69.5263L99.5428 69.5168C102.856 55.5869 101.142 40.7126 94.8628 27.9355Z" fill="#020202"/>
<path fill-rule="evenodd" clip-rule="evenodd" d="M74.6118 43.8535C81.812 58.0147 86.8751 76.1545 78.9792 91.0403C77.8068 93.0765 76.3694 94.9386 74.7796 96.6497C76.3237 94.8947 77.7058 93.0019 78.8171 90.9505C86.4786 76.0417 81.3544 58.1581 74.6118 43.8535Z" fill="black"/>
<path fill-rule="evenodd" clip-rule="evenodd" d="M76.3164 34.1875C84.586 43.1102 87.7333 55.7515 87.8115 67.6777C87.7848 69.4022 87.6609 71.1229 87.5903 72.8416C87.598 71.1191 87.659 69.3984 87.6247 67.6796C87.3387 55.784 84.1876 43.3683 76.3164 34.1875Z" fill="#9B69E0"/>
<path fill-rule="evenodd" clip-rule="evenodd" d="M51.3498 103.847L50.3756 108.445C49.4206 112.544 47.3827 118.807 44.996 120.094C44.6643 120.272 44.3689 119.908 44.0238 119.897C43.2155 119.866 39.0788 116.224 39.5344 112.551C39.5821 112.167 40.5848 110.794 40.846 110.462C43.5911 106.953 45.2114 103.472 47.1139 98.6254C47.1502 98.5374 47.1464 98.4514 47.1025 98.3653C45.9378 96.0329 42.88 93.9585 41.9802 93.1784C41.0805 92.3984 41.6771 92.0485 41.986 92.0351C43.0878 91.9912 44.691 93.4576 45.6137 94.1936C45.688 94.2548 45.7833 94.2854 45.8787 94.2816C48.1986 94.165 49.8991 96.6427 50.6463 97.1341C51.3936 97.6274 52.6442 97.245 53.3781 97.4859C53.6126 97.5624 53.7403 98.1359 53.664 98.3711C53.6583 98.3864 53.6526 98.4017 53.6469 98.4151C53.4486 98.849 53.2122 99.241 52.9415 99.5908C52.0094 100.793 51.4794 102.212 51.3498 103.847Z" fill="#F7E6DC"/>
<path fill-rule="evenodd" clip-rule="evenodd" d="M51.3495 103.846C51.4543 102.326 51.9652 100.822 52.8993 99.6059C53.2806 99.019 53.9611 98.2867 53.475 97.6042C52.8478 97.2696 52.0053 97.5507 51.2599 97.4054C50.4345 97.304 49.9941 96.5393 49.426 96.0728C48.4843 95.1857 47.3386 94.3349 45.9927 94.3636C45.1578 94.2584 44.4239 93.161 43.6213 92.7729C43.0952 92.4593 42.2183 91.8705 41.675 92.2873C41.4805 92.511 41.7951 92.8685 42.0505 93.0884C43.9663 94.6389 46.1319 96.1244 47.2738 98.3938C45.8746 102.868 43.5546 107.349 40.5903 111.068C40.2052 111.674 39.6047 112.243 39.6543 113.004C39.6771 115.729 41.6235 118.495 43.9702 119.782C44.1513 119.797 44.38 119.887 44.5325 119.969C44.8585 120.199 45.1311 119.876 45.4418 119.671C49.285 115.409 50.0494 109.251 51.3495 103.846ZM51.3495 103.846C50.0246 109.286 49.426 116.216 45.0777 120.149C44.8985 120.29 44.6126 120.231 44.4544 120.143C43.688 119.929 43.0399 119.568 42.4737 119.011C40.3958 117.077 38.011 113.473 40.3367 110.886C43.1619 107.33 45.1749 103.126 46.8334 98.9157C47.0755 98.4378 46.9573 98.4225 46.7343 98.0057C45.48 95.8357 43.1962 94.5605 41.5053 92.8054C41.0363 91.968 42.1725 91.7768 42.7005 92.0655C43.7814 92.4976 44.6469 93.3044 45.5333 94.0213C45.7659 94.3349 46.1872 94.1246 46.5723 94.2489C47.7275 94.44 48.6883 95.2029 49.508 95.9867C50.0799 96.4704 50.5069 97.218 51.277 97.3136C52.0053 97.4761 52.8116 97.1683 53.5303 97.5602C53.7514 97.8833 53.7896 98.3536 53.5551 98.671C52.4952 100.244 51.4086 101.866 51.3495 103.846Z" fill="#231815"/>
<path fill-rule="evenodd" clip-rule="evenodd" d="M49.4835 118.436C49.3157 120.757 45.6556 120.161 44.325 119.685C40.398 118.245 39.1532 113.563 40.3618 109.835C40.3828 109.773 40.3809 109.707 40.358 109.647C40.3008 109.504 40.1426 109.433 40.0015 109.489L37.6396 110.402C36.4081 111.381 35.0699 112.238 33.6249 112.974C28.8934 117.702 37.6243 127.359 41.5494 124.485C42.127 124.436 46.8509 123.078 46.8509 123.078C47.9623 122.738 48.7896 121.77 49.3367 120.174C49.5331 119.602 49.5597 118.367 49.4835 118.436Z" fill="#F9B9CA"/>
<path fill-rule="evenodd" clip-rule="evenodd" d="M49.4839 118.436C49.705 120.249 48.7957 122.434 47.0133 123.176C45.3815 123.694 42.909 124.489 41.6966 124.69C36.3646 127.737 28.6689 116.943 33.3622 112.71C34.7881 111.942 36.2026 111.118 37.4684 110.095C38.3491 109.774 39.0239 109.473 40.0572 109.135C40.5833 109.081 40.8311 109.722 40.65 110.041C40.4689 110.632 40.3298 111.282 40.2783 111.896C39.8608 115.253 41.6871 118.972 45.1604 119.776C46.6149 120.128 49.1998 120.453 49.4839 118.436ZM49.4839 118.436C49.3085 120.501 46.6054 120.335 45.0994 120.044C40.8693 119.31 38.8791 114.387 39.8398 110.5L40.0152 109.844C40.0762 109.628 40.0057 109.819 40.1067 109.806L37.7658 110.728C37.131 111.343 34.6661 112.932 33.8883 113.238C29.7726 117.014 36.8298 126.816 41.5269 124.235C43.052 123.963 45.3682 123.277 46.9199 122.902C48.6241 122.308 49.6421 120.184 49.4839 118.436Z" fill="#231815"/>
<path fill-rule="evenodd" clip-rule="evenodd" d="M126.832 116.793C124.25 116.793 122.157 116.292 122.157 114.676C122.157 113.062 124.25 111.523 126.832 111.523C129.413 111.523 131.506 113.062 131.506 114.676C131.506 116.292 129.413 116.793 126.832 116.793Z" fill="#FFEAAB"/>
<path fill-rule="evenodd" clip-rule="evenodd" d="M126.832 116.792C128.418 116.731 131.588 116.672 131.348 114.44C130.269 110.903 123.393 110.901 122.314 114.438C122.075 116.673 125.244 116.729 126.832 116.792ZM126.832 116.792C125.131 116.759 121.938 116.802 122.043 114.402C122.975 110.181 130.69 110.179 131.622 114.402C131.725 116.803 128.532 116.758 126.832 116.792Z" fill="#8A694D"/>
<path fill-rule="evenodd" clip-rule="evenodd" d="M94.8462 115.332C92.265 115.332 90.1719 114.831 90.1719 113.215C90.1719 111.602 92.265 110.062 94.8462 110.062C97.4273 110.062 99.5204 111.602 99.5204 113.215C99.5204 114.831 97.4273 115.332 94.8462 115.332Z" fill="#FFEAAB"/>
<path fill-rule="evenodd" clip-rule="evenodd" d="M94.8459 115.331C96.4319 115.27 99.6021 115.211 99.3619 112.979C98.2829 109.442 91.4069 109.441 90.3279 112.978C90.0896 115.212 93.2579 115.268 94.8459 115.331ZM94.8459 115.331C93.1454 115.299 89.9524 115.341 90.0572 112.941C90.9894 108.72 98.7042 108.718 99.6364 112.941C99.7394 115.342 96.5463 115.297 94.8459 115.331Z" fill="#8A694D"/>
<path fill-rule="evenodd" clip-rule="evenodd" d="M30.3951 65.7891C29.2303 70.6471 31.8934 75.4536 36.3428 76.5261C40.7902 77.5987 45.3405 74.5301 46.5053 69.6721L30.3951 65.7891Z" fill="white"/>
<path fill-rule="evenodd" clip-rule="evenodd" d="M33.3892 66.7021C32.6019 69.9886 34.453 73.2522 37.5221 73.9921C40.5932 74.732 43.7195 72.6691 44.5088 69.3826L33.3892 66.7021Z" fill="#D491F2"/>
<path fill-rule="evenodd" clip-rule="evenodd" d="M32.627 74.4941C32.627 74.4941 35.1452 77.4575 40.1626 76.5743L32.627 74.4941Z" fill="white"/>
<path d="M32.627 74.4941C32.627 74.4941 35.1452 77.4575 40.1626 76.5743" stroke="#231815" stroke-width="0.5" stroke-linecap="round"/>
<path fill-rule="evenodd" clip-rule="evenodd" d="M46.311 69.7017C45.9831 69.7667 40.9124 68.3481 36.6289 67.5164C33.9581 67.0002 31.457 67.0576 31.0186 66.7861C29.8767 66.0806 29.3124 63.6372 29.6937 63.4384C30.075 63.2396 31.5657 64.4115 34.5834 65.1342C39.4331 66.2966 46.3453 67.4495 46.4788 67.6541C46.6942 67.9886 46.8429 69.5965 46.311 69.7017Z" fill="#3E2520"/>
<mask id="mask8_2112_4205" style="mask-type:luminance" maskUnits="userSpaceOnUse" x="32" y="69" width="13" height="6">
<path fill-rule="evenodd" clip-rule="evenodd" d="M33.0464 70.0992C31.6891 71.0169 34.5772 73.7298 34.5772 73.7298L40.0216 74.8712L43.554 73.6075L44.4061 70.4223C44.4061 70.4223 39.0723 69.7627 35.6657 69.7627C34.4056 69.7627 33.4105 69.8526 33.0464 70.0992Z" fill="white"/>
</mask>
<g mask="url(#mask8_2112_4205)">
<path fill-rule="evenodd" clip-rule="evenodd" d="M33.3892 66.7031C32.6019 69.9896 34.453 73.2532 37.5221 73.9931C40.5932 74.733 43.7195 72.6701 44.5088 69.3836L33.3892 66.7031Z" fill="#BD7BBB"/>
</g>
<mask id="mask9_2112_4205" style="mask-type:luminance" maskUnits="userSpaceOnUse" x="32" y="69" width="13" height="6">
<path fill-rule="evenodd" clip-rule="evenodd" d="M33.0464 70.0992C31.6891 71.0169 34.5772 73.7298 34.5772 73.7298L40.0216 74.8712L43.554 73.6075L44.4061 70.4223C44.4061 70.4223 39.0723 69.7627 35.6657 69.7627C34.4056 69.7627 33.4105 69.8526 33.0464 70.0992Z" fill="white"/>
</mask>
<g mask="url(#mask9_2112_4205)">
<path fill-rule="evenodd" clip-rule="evenodd" d="M33.3892 66.7031C32.6019 69.9896 34.453 73.2532 37.5221 73.9931C40.5932 74.733 43.7195 72.6701 44.5088 69.3836L33.3892 66.7031Z" fill="#C9B0C6"/>
</g>
<path fill-rule="evenodd" clip-rule="evenodd" d="M35.7246 68.5399C35.7246 69.0141 35.3414 69.4003 34.8667 69.4003C34.394 69.4003 34.0089 69.0141 34.0089 68.5399C34.0089 68.0658 34.394 67.6796 34.8667 67.6796C35.3414 67.6796 35.7246 68.0658 35.7246 68.5399Z" fill="white"/>
<path fill-rule="evenodd" clip-rule="evenodd" d="M78.1376 74.0398C77.5981 79.0106 73.1164 82.6738 68.1276 82.2206C63.1388 81.7675 59.532 77.3683 60.0715 72.3975L78.1376 74.0398Z" fill="white"/>
<path fill-rule="evenodd" clip-rule="evenodd" d="M74.7104 73.916C74.3463 77.2789 71.258 79.7529 67.8152 79.4394C64.3724 79.1258 61.8752 76.1452 62.2412 72.7822L74.7104 73.916Z" fill="#D491F2"/>
<path fill-rule="evenodd" clip-rule="evenodd" d="M72.7022 81.5258C72.7022 81.5258 69.0307 83.495 64.1562 81.0077L72.7022 81.5258Z" fill="white"/>
<path d="M72.7022 81.5258C72.7022 81.5258 69.0307 83.495 64.1562 81.0077" stroke="#231815" stroke-width="0.5" stroke-linecap="round"/>
<path fill-rule="evenodd" clip-rule="evenodd" d="M60.2602 72.4898C60.5748 72.658 66.3337 72.9888 71.0652 73.6178C74.0143 74.0097 76.5821 74.8873 77.133 74.7764C78.5684 74.4858 80.0287 72.3636 79.7065 72.052C79.3843 71.7384 77.4208 72.3521 74.0371 72.0405C68.6022 71.5396 61.0342 70.3504 60.8226 70.5014C60.4775 70.7462 59.7493 72.2145 60.2602 72.4898Z" fill="#3E2520"/>
<mask id="mask10_2112_4205" style="mask-type:luminance" maskUnits="userSpaceOnUse" x="61" y="73" width="14" height="8">
<path fill-rule="evenodd" clip-rule="evenodd" d="M61.7114 77.0863L64.914 79.4436L70.957 80.1605C70.957 80.1605 74.9222 78.5488 73.847 77.2373C72.7738 75.9238 61.9726 73.7979 61.9726 73.7979L61.7114 77.0863Z" fill="white"/>
</mask>
<g mask="url(#mask10_2112_4205)">
<path fill-rule="evenodd" clip-rule="evenodd" d="M74.7104 73.916C74.3463 77.2789 71.258 79.7529 67.8152 79.4394C64.3724 79.1258 61.8752 76.1452 62.2412 72.7822L74.7104 73.916Z" fill="#BD7BBB"/>
</g>
<mask id="mask11_2112_4205" style="mask-type:luminance" maskUnits="userSpaceOnUse" x="61" y="73" width="14" height="8">
<path fill-rule="evenodd" clip-rule="evenodd" d="M61.7114 77.0863L64.914 79.4436L70.957 80.1605C70.957 80.1605 74.9222 78.5488 73.847 77.2373C72.7738 75.9238 61.9726 73.7979 61.9726 73.7979L61.7114 77.0863Z" fill="white"/>
</mask>
<g mask="url(#mask11_2112_4205)">
<path fill-rule="evenodd" clip-rule="evenodd" d="M74.7104 73.916C74.3463 77.2789 71.258 79.7529 67.8152 79.4394C64.3724 79.1258 61.8752 76.1452 62.2412 72.7822L74.7104 73.916Z" fill="#C9B0C6"/>
</g>
<path fill-rule="evenodd" clip-rule="evenodd" d="M71.6337 74.8824C71.4641 75.3317 71.7214 75.8212 72.2133 75.9779C72.7032 76.1328 73.2389 75.8957 73.4085 75.4483C73.5801 74.9991 73.3208 74.5096 72.8309 74.3528C72.3391 74.1961 71.8034 74.4331 71.6337 74.8824Z" fill="white"/>
<path d="M66.8379 83.4907V85.1712" stroke="#E29F8F" stroke-width="0.5" stroke-linecap="round" stroke-linejoin="round"/>
<path d="M68.9048 84.0532V85.7337" stroke="#E29F8F" stroke-width="0.5" stroke-linecap="round" stroke-linejoin="round"/>
<path d="M38.313 78.3452V80.0257" stroke="#E29F8F" stroke-width="0.5" stroke-linecap="round" stroke-linejoin="round"/>
<path d="M36.2456 78.9077V80.5882" stroke="#E29F8F" stroke-width="0.5" stroke-linecap="round" stroke-linejoin="round"/>
<path d="M39.1201 64.418L45.3557 65.7888" stroke="#21181F" stroke-width="0.5" stroke-linecap="round"/>
<path d="M62.2866 68.5611L72.0069 70.2512" stroke="#21181F" stroke-width="0.5" stroke-linecap="round"/>
<path fill-rule="evenodd" clip-rule="evenodd" d="M132.408 83.1984C132.32 83.1162 132.223 83.1295 132.113 83.2366C132.052 83.2978 132.052 83.3991 132.113 83.4603C132.141 83.4909 132.181 83.5062 132.223 83.5062L134.376 83.4488C134.494 83.4431 134.585 83.3437 134.581 83.2232C134.579 83.1888 134.57 83.1544 134.553 83.1257C134.172 82.4776 133.157 83.0626 132.408 83.1984ZM136.166 82.4202C136.057 82.4413 135.986 82.5464 136.009 82.6554C136.026 82.7491 136.108 82.816 136.204 82.816C136.261 82.8122 136.316 82.8103 136.373 82.8122C136.467 82.816 136.545 82.7434 136.549 82.6516C136.551 82.6095 136.535 82.5675 136.507 82.535C136.423 82.4413 136.309 82.4011 136.166 82.4202ZM134.883 82.7395C134.942 82.9881 135.079 83.1468 135.294 83.2137C135.39 83.2423 135.489 83.1888 135.519 83.0932C135.533 83.0435 135.527 82.9919 135.5 82.9479L135.224 82.4814C135.172 82.3935 135.058 82.3648 134.972 82.4183C134.965 82.4222 134.957 82.426 134.951 82.4317C134.785 82.5617 134.762 82.665 134.883 82.7395ZM136.32 82.1851L137.542 81.7262C137.578 81.7129 137.597 81.6708 137.584 81.6345L137.572 81.5962C137.468 81.3247 137.113 81.2062 136.776 81.3343L136.638 81.384C136.301 81.5102 136.11 81.8352 136.211 82.1086L136.223 82.143C136.238 82.1813 136.28 82.2004 136.316 82.1851C136.318 82.1851 136.318 82.1851 136.32 82.1851ZM135.889 80.7665C135.784 80.6384 135.637 80.5504 135.451 80.5007C135.336 80.4682 135.218 80.5351 135.186 80.6499C135.176 80.6766 135.174 80.7072 135.178 80.7359L135.243 81.2865C135.264 81.4739 135.369 81.5637 135.559 81.5523C135.805 81.537 135.988 81.4261 136.108 81.2177C136.164 81.1221 136.175 81.0322 136.139 80.9481C136.097 80.843 136.015 80.7818 135.889 80.7665ZM132.443 82.0532C130.978 81.8582 129.648 81.3171 128.454 80.4281C128.348 80.3516 128.199 80.3745 128.123 80.4778C128.071 80.5466 128.062 80.6365 128.098 80.7129C128.866 82.4585 131.236 82.512 132.797 82.6248C132.917 82.6344 133.022 82.5445 133.032 82.4222C133.039 82.3419 132.999 82.2635 132.931 82.2195C132.795 82.1316 132.633 82.078 132.443 82.0532ZM127.658 80.9615C127.745 80.8735 127.703 80.6862 127.562 80.5447C127.421 80.4032 127.234 80.3612 127.147 80.4491C127.059 80.539 127.101 80.7244 127.242 80.8659C127.383 81.0074 127.57 81.0494 127.658 80.9615ZM133.788 80.3248C133.67 80.3019 133.558 80.3784 133.537 80.495C133.525 80.5466 133.535 80.5982 133.562 80.6441L134.337 81.9996C134.417 82.1392 134.597 82.187 134.736 82.1048C134.844 82.0417 134.9 81.9155 134.875 81.7912L134.625 80.6671C134.597 80.5409 134.52 80.4644 134.395 80.4395L133.788 80.3248ZM138.89 80.2006L137.509 80.5084C137.471 80.5179 137.445 80.5581 137.452 80.5982L137.46 80.6326C137.525 80.929 137.898 81.1011 138.293 81.0131C138.293 81.0131 138.293 81.0131 138.295 81.0131L138.39 80.9902C138.785 80.9041 139.052 80.5944 138.989 80.2962L138.981 80.2617C138.974 80.2197 138.933 80.1929 138.892 80.2006H138.89ZM142.212 80.4587C142.786 79.6079 142.683 79.5161 141.905 80.1814C141.189 80.7971 140.358 81.1622 139.412 81.275C139.28 81.2903 139.166 81.34 139.067 81.4222L136.823 83.2366C136.734 83.3112 136.72 83.445 136.795 83.5349C136.829 83.5769 136.88 83.6037 136.934 83.6113C139.132 83.8427 141.025 82.2157 142.212 80.4587ZM133.411 81.5924C132.772 78.7781 131.232 80.1662 129.518 80.1164C129.408 80.1107 129.31 80.1967 129.305 80.3095C129.301 80.3898 129.345 80.4644 129.415 80.5007C130.624 81.1489 131.903 81.5676 133.253 81.7568C133.386 81.7779 133.44 81.7224 133.411 81.5924ZM135.481 83.9459C135.13 83.8389 134.795 83.814 134.471 83.8733C131.329 84.4354 128.363 82.3973 126.196 80.4625C126.104 80.3803 125.995 80.3325 125.873 80.3172C125.309 80.2465 124.794 80.0495 124.329 79.7226C124.23 79.6557 124.097 79.6805 124.03 79.78C123.99 79.8373 123.98 79.9119 124.005 79.9769C125.923 85.1255 130.841 85.7717 135.544 84.5902C135.798 84.5252 135.851 84.3703 135.708 84.1237C135.657 84.0377 135.576 83.9765 135.481 83.9459ZM133.771 79.6232L134.255 79.7608C134.442 79.8105 134.635 79.6977 134.682 79.5104C134.722 79.3613 134.658 79.2026 134.524 79.1223C134.29 78.9865 134.025 79.0248 133.733 79.2408C133.643 79.3077 133.624 79.3842 133.672 79.4721C133.72 79.562 133.764 79.6251 133.771 79.6232ZM137.929 84.7088C141.671 85.2364 145.087 82.4164 145.863 78.8527C145.88 78.782 145.838 78.7112 145.768 78.6921C145.718 78.6806 145.665 78.6978 145.632 78.7399C143.577 81.3305 140.998 83.2003 137.891 84.3551C137.795 84.3914 137.75 84.5004 137.788 84.594C137.811 84.6552 137.864 84.6992 137.929 84.7088ZM138.836 79.1299C138.642 79.2561 138.512 79.4205 138.451 79.6232C138.396 79.7991 138.459 79.8679 138.64 79.8278C139.324 79.6729 139.671 79.2485 139.685 78.5506C139.686 78.3384 139.603 78.2963 139.431 78.4244C139.29 78.5296 139.179 78.6653 139.101 78.8336C139.04 78.9559 138.951 79.0554 138.836 79.1299ZM139.862 80.344C139.788 80.3994 139.77 80.5046 139.824 80.5791C139.868 80.6422 139.948 80.6651 140.018 80.6365C141.187 80.1738 142.212 79.4626 143.093 78.5047C143.23 78.3518 143.301 78.2084 143.301 78.0784C143.301 77.9484 143.247 77.9216 143.143 77.9962L139.862 80.344ZM126.748 79.9042C126.897 80.0189 127.034 79.9998 127.16 79.843C127.248 79.7283 127.263 79.5773 127.202 79.4492L126.46 77.9044C126.424 77.8299 126.333 77.8012 126.26 77.8375C126.228 77.8547 126.201 77.8815 126.188 77.9159C125.871 78.7227 126.058 79.3842 126.748 79.9042ZM136.015 79.9807C137.729 79.8622 138.333 79.0248 138.531 77.3997C138.547 77.2926 138.47 77.1932 138.364 77.1779C138.323 77.1741 138.283 77.1798 138.247 77.1989L135.386 78.6711C135.268 78.7323 135.22 78.8795 135.281 78.998L135.689 79.7952C135.756 79.9291 135.864 79.9922 136.015 79.9807ZM138.954 77.5144C138.914 77.6272 138.914 77.7381 138.958 77.8432C139.002 77.9484 139.069 77.9656 139.158 77.8968C139.532 77.6195 139.667 77.2601 139.566 76.8185C139.528 76.6521 139.364 76.547 139.198 76.5833C139.054 76.6158 138.953 76.7496 138.958 76.8988C138.964 76.9791 138.974 77.088 138.989 77.2257C139.002 77.327 138.991 77.4226 138.954 77.5144ZM127.456 76.2239C126.834 76.4629 126.377 77.2486 127.017 77.784C127.072 77.8318 127.154 77.826 127.202 77.7706C127.215 77.7553 127.225 77.7381 127.229 77.719L127.625 76.3826C127.644 76.3118 127.606 76.2411 127.538 76.2201C127.511 76.2124 127.482 76.2143 127.456 76.2239ZM139.707 76.0709V76.3176C139.702 76.4151 139.776 76.4992 139.873 76.5049C139.955 76.5107 140.03 76.4571 140.054 76.3787C140.089 76.2831 140.104 76.178 140.1 76.0633C140.098 75.9543 140.009 75.8683 139.9 75.8702C139.791 75.8721 139.706 75.962 139.707 76.0709ZM137.611 75.5069L137.187 76.9064C137.163 76.9944 137.214 77.0861 137.302 77.111C137.349 77.1244 137.401 77.1167 137.441 77.088L138.232 76.5202C138.344 76.438 138.379 76.3329 138.333 76.2048L138.087 75.4955C138.041 75.3655 137.9 75.2947 137.769 75.3406C137.692 75.3655 137.633 75.4285 137.611 75.5069ZM142.927 75.3807C142.66 76.3711 142.228 77.2831 141.625 78.1166C141.57 78.1931 141.587 78.3021 141.665 78.3575C141.722 78.3996 141.799 78.4015 141.86 78.3633C142.836 77.7075 144.054 76.6598 143.169 75.3425C143.129 75.2794 143.045 75.2622 142.983 75.3043C142.956 75.3215 142.937 75.3482 142.927 75.3807ZM131.095 79.2026C129.812 78.3174 129.187 77.0747 129.223 75.4763C129.227 75.3578 129.133 75.2584 129.013 75.2565C128.946 75.2546 128.882 75.2852 128.84 75.3387C128.075 76.3061 126.811 78.7667 128.34 79.6499C128.943 79.996 130.285 79.6002 131.005 79.5333C131.106 79.5276 131.181 79.4416 131.175 79.3421C131.171 79.2848 131.14 79.2332 131.095 79.2026ZM135.367 77.6425C135.306 77.7668 135.359 77.9159 135.483 77.9771C135.559 78.0134 135.647 78.0096 135.719 77.9656L136.453 77.5106C136.581 77.4322 136.644 77.3156 136.642 77.1645C136.638 76.5164 137.248 75.5586 137.222 75.2527C137.212 75.1093 137.122 75.0232 136.953 74.9945C136.806 74.9678 136.659 75.0423 136.593 75.1762L135.367 77.6425ZM145.14 75.1226C145.068 76.4476 144.576 77.5851 143.665 78.5315C143.562 78.6367 143.499 78.7628 143.472 78.9062C143.387 79.3766 143.211 79.8067 142.95 80.1967C142.233 81.2789 142.386 81.3706 143.408 80.474C144.875 79.1949 146.662 77.2678 145.402 75.0615C145.245 74.7823 145.158 74.8034 145.14 75.1226ZM131.996 79.214C132.086 79.2752 132.208 79.2523 132.269 79.1624C132.324 79.084 132.313 78.977 132.242 78.9101C131.266 77.8356 130.813 76.5565 130.879 75.0729C130.885 74.9601 130.799 74.8626 130.685 74.8569C130.662 74.855 130.639 74.8588 130.618 74.8645L129.877 75.0729C129.722 75.115 129.652 75.2163 129.661 75.3731C129.779 77.0785 130.557 78.3594 131.996 79.214ZM135.931 74.66C134.947 74.4669 134.909 76.1895 134.894 76.721C134.892 76.8146 134.966 76.8911 135.06 76.893C135.125 76.8949 135.184 76.8586 135.212 76.8032L136.101 75.0098C136.16 74.8894 136.112 74.7403 135.992 74.681C135.973 74.6714 135.952 74.6638 135.931 74.66ZM133.729 74.7957C133.152 75.9046 132.951 77.1817 133.131 78.6252C133.152 78.7839 133.237 78.8393 133.392 78.7896L134.425 78.4512C134.589 78.3977 134.681 78.2237 134.633 78.0593C134.328 77.025 134.345 75.9964 134.682 74.9716C134.726 74.834 134.688 74.7212 134.572 74.637C134.2 74.3751 133.92 74.4267 133.729 74.7957ZM132.707 78.1816C132.515 76.8988 132.776 75.9505 133.134 74.7173C133.157 74.6389 133.114 74.5548 133.033 74.53C133.014 74.5242 132.993 74.5223 132.972 74.5242L131.632 74.6867C131.455 74.7097 131.364 74.811 131.36 74.9869C131.337 76.2162 131.67 77.3251 132.362 78.3174C132.423 78.4034 132.542 78.4264 132.629 78.3671C132.688 78.3269 132.721 78.2543 132.707 78.1816ZM142.447 74.2776C142.302 74.1705 142.17 74.0979 142.056 74.0596C141.926 74.0157 141.791 74.0635 141.648 74.2049C140.434 75.3769 140.043 77.6501 140.085 79.2752C140.089 79.5199 140.165 79.5448 140.312 79.3498C141.345 77.9446 142.108 76.4036 142.597 74.725C142.645 74.5606 142.586 74.3828 142.447 74.2776ZM130.879 74.0558C130.837 73.9296 130.628 73.8895 130.41 73.9641C130.193 74.0386 130.052 74.1992 130.094 74.3254C130.138 74.4497 130.347 74.4898 130.565 74.4153C130.782 74.3407 130.923 74.1801 130.879 74.0558ZM123.841 78.5239C123.91 79.2408 125.012 79.5849 125.585 79.7455C125.776 79.7991 125.839 79.7341 125.769 79.5448C125.431 78.6328 125.511 77.7763 126.007 76.9714C126.083 76.8491 126.1 76.698 126.054 76.5604C125.769 75.6828 125.812 74.8225 126.18 73.9774C126.211 73.9124 126.18 73.834 126.115 73.8054C126.066 73.7824 126.007 73.7939 125.969 73.8321C124.894 74.8454 123.694 77.0097 123.841 78.5239ZM140.796 73.8207L140.887 74.0979C140.929 74.2298 141.07 74.3025 141.2 74.2604C141.284 74.2336 141.347 74.1667 141.368 74.0826C141.488 73.6199 141.368 73.4173 141.006 73.4765C140.802 73.5109 140.731 73.6257 140.796 73.8207ZM136.558 74.2776C136.736 74.2738 136.877 74.1266 136.873 73.9488C136.873 73.9316 136.871 73.9163 136.869 73.901C136.797 73.4899 136.568 73.2528 136.181 73.1917C135.868 73.1419 135.575 73.3561 135.525 73.6677C135.483 73.9316 135.628 74.1897 135.874 74.2891C135.887 74.2948 136.114 74.291 136.558 74.2776ZM140.218 73.184C140.093 72.8494 139.721 72.6812 139.387 72.8055C139.265 72.8533 139.16 72.9336 139.086 73.0425L138.133 74.4095C138.047 74.5319 138.072 74.7039 138.19 74.8034L139.189 75.6044C139.315 75.7039 139.494 75.7039 139.616 75.6006C140.39 74.9659 140.59 74.161 140.218 73.184ZM143.457 73.01C143.35 74.1744 143.108 74.899 144.054 75.8817C144.189 76.0231 144.264 75.9945 144.275 75.7956C144.365 74.6064 145.179 73.6352 143.692 72.88C143.549 72.8074 143.471 72.8513 143.457 73.01ZM133.872 73.2299C133.956 73.1018 133.922 72.9297 133.794 72.8456C133.724 72.7978 133.634 72.7863 133.554 72.815L131.587 73.4498C131.386 73.5109 131.276 73.7232 131.337 73.922C131.381 74.0654 131.503 74.1686 131.651 74.1858C132.637 74.3254 133.378 74.0061 133.872 73.2299ZM134.77 72.6755C134.515 72.9297 134.301 73.2548 134.13 73.6505C134.027 73.8608 134.112 74.1151 134.324 74.2183C134.534 74.3216 134.787 74.2355 134.89 74.0233L135.5 72.8991C135.599 72.7213 135.498 72.5493 135.277 72.5129C135.102 72.4843 134.898 72.5512 134.77 72.6755ZM142.716 72.3982C142.512 72.7366 142.378 73.0942 142.317 73.4689C142.289 73.6333 142.397 73.7901 142.561 73.8188C142.723 73.8474 142.88 73.7365 142.908 73.574L143.097 72.5416C143.114 72.4269 143.036 72.3218 142.921 72.3046C142.841 72.2912 142.759 72.3294 142.716 72.3982ZM137.069 73.2834C137.122 73.3389 137.197 73.3599 137.296 73.3503C137.649 73.314 137.874 73.1572 137.967 72.88C138.009 72.7538 137.965 72.6774 137.837 72.6525L136.793 72.4365C136.69 72.4154 136.591 72.4804 136.568 72.5818C136.564 72.6009 136.564 72.6181 136.566 72.6372C136.583 72.8169 136.667 72.9489 136.816 73.033C136.85 73.054 136.936 73.1381 137.069 73.2834ZM141.917 72.0751C141.49 71.8878 141.067 71.8801 140.649 72.056C140.508 72.1153 140.443 72.2797 140.504 72.4193C140.527 72.4709 140.563 72.5149 140.611 72.5454L141.463 73.0808C141.619 73.1802 141.749 73.1534 141.852 72.9986L142.087 72.641C142.203 72.4632 142.153 72.2243 141.974 72.1057C141.955 72.0942 141.936 72.0828 141.917 72.0751ZM144.342 72.36L143.857 71.8667C143.791 71.796 143.678 71.7922 143.608 71.8591C143.547 71.9164 143.535 72.0082 143.577 72.079C143.737 72.3715 143.976 72.511 144.286 72.4977C144.332 72.4977 144.366 72.4594 144.365 72.4154C144.365 72.3944 144.357 72.3734 144.342 72.36ZM134.021 71.8667C133.199 71.7272 131.829 70.9223 131.783 72.5684C131.777 72.7175 131.846 72.773 131.989 72.7366C132.679 72.555 133.371 72.4231 134.065 72.3409C134.213 72.3218 134.267 72.2281 134.225 72.0598C134.2 71.9509 134.131 71.8878 134.021 71.8667ZM126.811 73.0655L126.388 75.9505C126.369 76.0614 126.445 76.1665 126.556 76.1856C126.611 76.1933 126.666 76.1799 126.71 76.1474L129.097 74.4095C129.194 74.3369 129.261 74.2317 129.282 74.1132C129.432 73.2184 129.816 72.4499 130.429 71.8056C130.506 71.7272 130.506 71.6029 130.429 71.5264C130.372 71.471 130.288 71.4538 130.214 71.4844L127.053 72.7558C126.922 72.8093 126.83 72.9259 126.811 73.0655ZM131.39 71.5111C130.891 71.8094 130.199 72.8533 130.014 73.3542C129.976 73.4536 130.025 73.5645 130.124 73.6027C130.182 73.6257 130.246 73.6199 130.3 73.5855C130.996 73.1381 131.413 72.4843 131.552 71.6239C131.577 71.4729 131.524 71.4347 131.39 71.5111ZM142.382 71.6125C142.462 71.5933 142.514 71.513 142.496 71.4327C142.481 71.3677 142.426 71.3199 142.359 71.3161L141.875 71.2645C141.795 71.2568 141.722 71.3161 141.715 71.3964C141.709 71.4519 141.736 71.5054 141.782 71.536C141.97 71.645 142.169 71.6717 142.382 71.6125ZM138.852 70.8764C138.787 70.8171 138.705 70.7789 138.606 70.7598C138.524 70.7483 138.442 70.7674 138.375 70.8152L137.103 71.7195C137.012 71.7883 136.993 71.9203 137.061 72.012C137.098 72.0579 137.151 72.0885 137.21 72.0942L138.651 72.1898C139.036 72.2147 139.38 71.9432 139.416 71.5838C139.425 71.4786 139.408 71.3735 139.366 71.276C139.345 71.2301 139.271 71.1765 139.143 71.1154C139.094 71.0924 138.996 71.0121 138.852 70.8764ZM143.911 71.3735C143.918 71.4786 143.991 71.5398 144.126 71.5551C144.183 71.5589 144.233 71.5188 144.239 71.4633C144.241 71.4538 144.239 71.4442 144.237 71.4347C144.176 71.1192 144.029 70.8477 143.796 70.6221C143.65 70.4806 143.566 70.5093 143.543 70.7101C143.511 71.0102 143.634 71.232 143.911 71.3735ZM142.273 70.8076C142.576 70.8248 142.75 70.6737 142.794 70.3564C142.813 70.2034 142.706 70.0638 142.555 70.0447C141.486 69.8994 140.436 69.9721 139.404 70.2589C139.294 70.2894 139.229 70.4042 139.259 70.515C139.269 70.5495 139.288 70.582 139.313 70.6068L139.957 71.2683C140.051 71.3639 140.152 71.3773 140.26 71.3085C140.882 70.9318 141.553 70.7655 142.273 70.8076ZM135.697 72.2663L138.032 70.3487C138.06 70.3258 138.064 70.2837 138.041 70.255L138.02 70.2321C137.784 69.9415 137.319 69.9262 136.983 70.2015L135.761 71.2071C135.428 71.4824 135.348 71.9413 135.586 72.2319L135.605 72.2587C135.628 72.2873 135.67 72.2912 135.697 72.2682C135.697 72.2663 135.697 72.2663 135.697 72.2663ZM136.469 69.5591C135.382 68.9913 133.539 69.844 132.673 70.538C132.572 70.6183 132.555 70.7655 132.635 70.8668C132.666 70.9051 132.706 70.9318 132.749 70.9452L134.728 71.5704C134.825 71.601 134.932 71.5627 134.986 71.4767C135.363 70.8783 135.861 70.4003 136.48 70.0409C136.612 69.9644 136.657 69.7981 136.583 69.6662C136.556 69.6203 136.516 69.5821 136.469 69.5591ZM141.288 68.953C140.163 68.6319 139.116 68.7561 138.152 69.3239C137.99 69.4176 137.98 69.5285 138.121 69.6509L138.497 69.9816C138.623 70.0944 138.758 70.1059 138.905 70.016C139.675 69.5362 140.514 69.3412 141.417 69.431C141.517 69.4387 141.604 69.3641 141.612 69.2647C141.614 69.2226 141.602 69.1806 141.579 69.1461C141.515 69.0563 141.417 68.9913 141.288 68.953ZM137.483 68.7886L136.957 68.911C136.844 68.9397 136.774 69.0525 136.8 69.1653C136.819 69.2494 136.888 69.3125 136.972 69.3239C137.201 69.3565 137.416 69.3392 137.618 69.2685C137.748 69.2245 137.818 69.0831 137.774 68.9511C137.733 68.8307 137.609 68.7599 137.483 68.7886ZM121.493 72.4021C120.564 74.5873 121.594 77.025 123.26 78.5602C123.3 78.5946 123.361 78.5927 123.397 78.5544C123.412 78.5372 123.422 78.5143 123.422 78.4894C123.487 76.1206 124.44 74.2183 126.285 72.7787C126.379 72.708 126.449 72.6162 126.491 72.5053C127.057 71.1058 127.869 69.8746 128.927 68.8116C128.967 68.7676 128.965 68.6988 128.922 68.6586C128.902 68.6414 128.88 68.6319 128.855 68.6299C126.157 68.5382 122.627 69.7426 121.493 72.4021ZM133.161 68.6682L130.311 68.4407C130.187 68.4311 130.067 68.4713 129.976 68.5535C128.914 69.5056 128.027 70.603 127.322 71.8438C127.282 71.9164 127.311 72.0082 127.383 72.0464C127.429 72.0713 127.484 72.0694 127.53 72.0445C128.352 71.5436 129.246 71.2033 130.21 71.0217C131.67 70.7559 132.544 70.1059 133.308 68.9722C133.432 68.7886 133.384 68.6873 133.161 68.6682ZM140.941 68.4101L142.182 68.9645C142.252 68.997 142.334 68.9664 142.365 68.8957C142.378 68.8689 142.382 68.8364 142.374 68.8077C142.209 68.1405 141.475 67.8097 140.922 68.1826C140.863 68.2227 140.847 68.3049 140.887 68.3642C140.901 68.3852 140.92 68.4005 140.941 68.4101ZM146.477 76.2545C148.029 73.1419 148.126 67.4847 142.931 68.0449C142.78 68.0602 142.729 68.1386 142.777 68.2839C143.457 70.2665 145.329 70.7712 145.16 73.3198C145.152 73.4459 145.186 73.5721 145.255 73.6773C145.775 74.4573 146.115 75.3081 146.273 76.2239C146.282 76.2831 146.338 76.3233 146.395 76.3157C146.431 76.3099 146.462 76.287 146.477 76.2545ZM140.714 67.8365C140.802 67.8537 140.872 67.8461 140.926 67.8136C141.065 67.7352 141.112 67.5574 141.034 67.4197C141.004 67.3643 140.956 67.3222 140.899 67.2974C138.777 66.3529 136.846 67.0278 135.001 68.1749C134.871 68.2552 134.831 68.4254 134.911 68.5573C134.966 68.6471 135.069 68.6988 135.174 68.6873C135.78 68.6261 136.343 68.5458 136.861 68.4483C137.971 68.2399 139.2 68.326 140.388 67.8595C140.495 67.8174 140.603 67.8097 140.714 67.8365ZM131.144 68.0258L133.849 68.2514C133.918 68.2571 133.989 68.2399 134.05 68.2017L136.034 66.9838C136.112 66.9399 136.137 66.8404 136.091 66.762C136.064 66.7181 136.019 66.6875 135.965 66.6837C134.204 66.5059 132.578 66.8672 131.087 67.7658C131.02 67.8059 130.998 67.89 131.036 67.957C131.059 67.9952 131.099 68.022 131.144 68.0258ZM142.317 67.5555C148.029 66.4982 149.087 72.5569 147.033 76.2927C146.694 76.9102 146.492 77.4991 146.431 78.0593C145.913 82.686 141.705 86.4696 136.957 84.8445C136.837 84.8024 136.715 84.7967 136.589 84.8235C133.119 85.6609 130.845 86.2612 127.517 84.724C125.248 83.6706 123.887 81.9136 123.433 79.4492C123.408 79.3211 123.344 79.216 123.241 79.1337C121.512 77.805 120.667 76.0939 120.705 73.9966C120.791 69.4616 125.824 68.0526 129.48 68.0373C129.606 68.0373 129.722 68.0009 129.831 67.9283C131.867 66.5766 134.414 65.3511 136.903 66.4714C137.044 66.5364 137.187 66.546 137.334 66.502C139.05 66.0011 140.6 66.3242 141.985 67.4694C142.079 67.5459 142.199 67.5765 142.317 67.5555Z" fill="black"/>
</svg>
