<svg width="18" height="18" viewBox="0 0 18 18" fill="none" xmlns="http://www.w3.org/2000/svg">
  <rect opacity="0.9" width="18" height="18" rx="9" fill="white" />
  <path fill-rule="evenodd" clip-rule="evenodd"
    d="M14.4261 6.66546C14.4705 6.22489 14.3183 5.79233 14.0082 5.47856C13.7032 5.16998 13.2808 5 12.819 5H8.10737L7.661 9.29159H14.1479L14.4261 6.66546ZM13.168 6.68669H9.18192L9.25677 6.05762H12.6338C13.0178 6.05762 13.1876 6.40465 13.168 6.68669ZM9.01521 8.25552H13.0066L13.0783 7.69238H9.08685L9.01521 8.25552ZM7.36847 8.72461L6.60981 8.23779L6.68388 7.50444H7.04402H7.39827L7.51393 6.35894H7.04402H6.79953L6.93707 5.00064H5.68931L5.55178 6.35894H4.20576L4.09011 7.50444H4.14857H5.43612L5.29897 8.86356C4.89943 9.03602 4.43246 9.13251 3.9298 9.09181L3.81479 10.2325C3.93582 10.2426 4.05493 10.2477 4.17173 10.2477C4.52599 10.2477 4.86015 10.203 5.17155 10.1258L5.10451 10.7903C5.08737 10.9586 4.968 11.8213 4.37694 11.8515H3.64886L3.5332 12.997H4.40304L4.41507 12.9965C5.18639 12.9691 5.80215 12.5026 6.11956 11.7747L6.12749 11.7431L6.13414 11.742C6.23841 11.4931 6.31069 11.202 6.34152 10.8964L6.47752 9.54891C6.85429 9.29718 7.15609 9.00582 7.36847 8.72461ZM13.9487 11.1741H11.2646L11.189 11.8546H14.467L14.3513 13.0001H6.78326C6.78326 13.0001 6.87461 12.2513 6.91811 11.8546H9.94123L10.0168 11.1741H7.47386C7.50418 10.9253 7.56508 10.4173 7.60666 10.0286H10.1325L10.1673 9.63721H11.4149L11.3803 10.0286H14.0701L13.9487 11.1741Z"
    fill="#222222" />
</svg>
