<svg width="20" height="20" viewBox="0 0 20 20" fill="none" xmlns="http://www.w3.org/2000/svg">
  <path
    d="M14.1172 0.508789C15.4979 0.508789 16.6172 1.62808 16.6172 3.00879V16.9912C16.6172 18.3719 15.4979 19.4912 14.1172 19.4912H5.88281C4.5021 19.4912 3.38281 18.3719 3.38281 16.9912V3.00879C3.38281 1.62808 4.5021 0.508789 5.88281 0.508789H14.1172ZM10 15.7451C9.30285 15.7451 8.73734 16.3107 8.7373 17.0078C8.7373 17.705 9.30283 18.2705 10 18.2705C10.6972 18.2705 11.2627 17.705 11.2627 17.0078C11.2627 16.3107 10.6972 15.7451 10 15.7451ZM6.16211 2.5127C5.60984 2.5127 5.16214 2.96044 5.16211 3.5127V13.4922C5.16211 14.0445 5.60982 14.4922 6.16211 14.4922H13.8379C14.3902 14.4922 14.8379 14.0445 14.8379 13.4922V3.5127C14.8379 2.96044 14.3902 2.5127 13.8379 2.5127H6.16211Z"
    fill="#E5E5E5" />
</svg>
