<svg xmlns="http://www.w3.org/2000/svg" width="112" height="10" viewBox="0 0 112 10" fill="none">
  <g opacity="0.3">
    <path d="M5.875 10C5.97446 10 6.06984 9.96049 6.14017 9.89017C6.21049 9.81984 6.25 9.72446 6.25 9.625V7.875C6.25 7.77554 6.21049 7.68016 6.14017 7.60984C6.06984 7.53951 5.97446 7.5 5.875 7.5H2.875C2.77554 7.5 2.68016 7.46049 2.60983 7.39017C2.53951 7.31984 2.5 7.22446 2.5 7.125V4.125C2.5 4.02554 2.46049 3.93016 2.39016 3.85983C2.31984 3.78951 2.22446 3.75 2.125 3.75H0.375C0.275544 3.75 0.180161 3.78951 0.109835 3.85983C0.0395088 3.93016 0 4.02554 0 4.125L0 9.625C0 9.72446 0.0395088 9.81984 0.109835 9.89017C0.180161 9.96049 0.275544 10 0.375 10H5.875ZM7.5 9.75C7.5 9.8875 7.6125 10 7.75 10H9.75C9.8875 10 10 9.8875 10 9.75V7.75C10 7.6837 9.97366 7.62011 9.92678 7.57322C9.87989 7.52634 9.8163 7.5 9.75 7.5H7.75C7.68369 7.5 7.62011 7.52634 7.57322 7.57322C7.52634 7.62011 7.5 7.6837 7.5 7.75V9.75ZM0 2.25C0 2.3875 0.1125 2.5 0.25 2.5H2.25C2.3875 2.5 2.5 2.3875 2.5 2.25V0.25C2.5 0.183696 2.47366 0.120108 2.42678 0.0732231C2.37989 0.0263395 2.3163 0 2.25 0H0.25C0.183696 0 0.120107 0.0263395 0.0732233 0.0732231C0.0263392 0.120108 0 0.183696 0 0.25L0 2.25Z" fill="#222222"/>
    <path d="M106.125 10C106.026 10 105.93 9.96049 105.86 9.89017C105.79 9.81984 105.75 9.72446 105.75 9.625V7.875C105.75 7.77554 105.79 7.68016 105.86 7.60984C105.93 7.53951 106.026 7.5 106.125 7.5H109.125C109.224 7.5 109.32 7.46049 109.39 7.39017C109.46 7.31984 109.5 7.22446 109.5 7.125V4.125C109.5 4.02554 109.54 3.93016 109.61 3.85983C109.68 3.78951 109.776 3.75 109.875 3.75H111.625C111.724 3.75 111.82 3.78951 111.89 3.85983C111.96 3.93016 112 4.02554 112 4.125V9.625C112 9.72446 111.96 9.81984 111.89 9.89017C111.82 9.96049 111.724 10 111.625 10H106.125ZM104.5 9.75C104.5 9.8875 104.388 10 104.25 10H102.25C102.112 10 102 9.8875 102 9.75V7.75C102 7.6837 102.026 7.62011 102.073 7.57322C102.12 7.52634 102.184 7.5 102.25 7.5H104.25C104.316 7.5 104.38 7.52634 104.427 7.57322C104.474 7.62011 104.5 7.6837 104.5 7.75V9.75ZM112 2.25C112 2.3875 111.887 2.5 111.75 2.5H109.75C109.613 2.5 109.5 2.3875 109.5 2.25V0.25C109.5 0.183696 109.526 0.120108 109.573 0.0732231C109.62 0.0263395 109.684 0 109.75 0H111.75C111.816 0 111.88 0.0263395 111.927 0.0732231C111.974 0.120108 112 0.183696 112 0.25V2.25Z" fill="#222222"/>
  </g>
</svg>
