<svg xmlns="http://www.w3.org/2000/svg" width="16" height="16" viewBox="0 0 16 16" fill="none">
  <g clip-path="url(#clip0_3043_6221)">
    <path d="M13.1476 3.35596L12.3478 3.77002C12.322 3.78337 12.2949 3.79433 12.2687 3.80713C12.634 4.03537 12.979 4.30841 13.2843 4.64209C14.0019 5.42671 14.4499 6.46777 14.546 7.79932C14.8157 11.5388 11.5848 14.0101 8.59092 13.6909L7.69639 13.5962L7.88682 11.8062L8.78233 11.9019C10.7655 12.1131 12.9325 10.4467 12.7511 7.9292C12.6804 6.95045 12.3677 6.30691 11.9562 5.85693C11.533 5.39447 10.9421 5.06836 10.214 4.84033L9.35557 4.57178L9.38389 4.479L9.23545 4.49658L9.02744 2.7085L9.921 2.604C9.92203 2.60389 9.92371 2.60427 9.92588 2.604C9.93187 2.60325 9.94254 2.60194 9.95615 2.6001C9.98342 2.59641 10.0254 2.5908 10.0782 2.58252C10.1847 2.56583 10.3344 2.53837 10.505 2.50146C10.8629 2.42404 11.2486 2.3133 11.5206 2.17236L12.3185 1.75732L13.1476 3.35596Z" fill="#B3B3B3"/>
    <path d="M2.18847 11.9917L3.06819 11.7988C3.15074 11.7807 3.23653 11.7667 3.32314 11.7529C2.12831 10.5616 1.30115 8.82007 1.66853 6.90656C1.93577 5.51481 2.54708 4.40842 3.47877 3.65592C4.40735 2.90609 5.57033 2.57599 6.81735 2.57599L7.71728 2.57549L7.71733 4.37511L6.8174 4.3756C5.88721 4.3756 5.15166 4.61874 4.61003 5.05599C4.07162 5.49081 3.6395 6.18564 3.43591 7.24566C3.13522 8.81181 4.14639 10.3935 5.51149 11.1887L6.28891 11.6417L6.2357 11.7346L6.36113 11.7419L6.24279 13.5381L5.34482 13.4785L5.33488 13.4778C5.32693 13.4774 5.31429 13.4779 5.2977 13.477C5.26429 13.4752 5.21413 13.4715 5.1512 13.4691C5.02495 13.4642 4.84825 13.46 4.64797 13.4606C4.22943 13.4618 3.77234 13.4862 3.45365 13.5561L2.57462 13.7502L2.18847 11.9917Z" fill="#B3B3B3"/>
  </g>
  <defs>
    <clipPath id="clip0_3043_6221">
      <rect width="16" height="16" fill="white"/>
    </clipPath>
  </defs>
</svg>