<svg width="41" height="28" viewBox="0 0 41 28" fill="none" xmlns="http://www.w3.org/2000/svg">
  <path fill-rule="evenodd" clip-rule="evenodd" d="M11.7701 9.92434C10.6129 10.8292 10.421 12.1706 10.4855 12.9589C9.73602 12.7062 8.38891 12.5681 7.23066 13.4738C5.67143 14.693 5.12202 17.2607 7.56685 19.4164C9.72378 21.3186 13.1188 21.2499 15.0677 21.0119C16.0378 20.8935 16.8469 20.2609 17.1958 19.3479C17.8967 17.514 18.7821 14.2357 17.4562 11.6837C15.9537 8.79116 13.3293 8.70514 11.7701 9.92434Z" fill="white" stroke="#FF2F87" stroke-width="2.7" stroke-linejoin="round"/>
  <path d="M2.41468 14.0413C2.14304 14.5709 1.73042 15.9699 2.25301 17.3296" stroke="#FF2F87" stroke-width="2.7" stroke-linecap="round" stroke-linejoin="round"/>
  <path d="M38.4413 9.67909C38.4263 8.92455 38.0463 7.1144 36.6457 5.91019" stroke="#FF2F87" stroke-width="2.7" stroke-linecap="round" stroke-linejoin="round"/>
  <path fill-rule="evenodd" clip-rule="evenodd" d="M30.0333 6.17768C27.8222 5.72407 26.061 6.83496 25.2026 7.69517C24.7522 6.56646 23.5727 4.85229 21.3596 4.39827C18.3803 3.78706 14.8281 5.70026 14.739 10.7079C14.6641 14.886 17.7544 18.6053 19.9668 20.7259C21.2859 21.9903 23.1745 22.3777 24.8849 21.7349C27.7535 20.6567 32.0586 18.4545 33.6349 14.5844C35.5246 9.94617 33.0126 6.78889 30.0333 6.17768Z" fill="white" stroke="#FF2F87" stroke-width="2.7" stroke-linejoin="round"/>
  <path d="M29.5786 10.6055C29.7684 10.6765 30.1248 11.0367 30.1401 11.4726" stroke="#FF2F87" stroke-width="2.2" stroke-linecap="round"/>
</svg>
 
