<svg width="30" height="16" viewBox="0 0 30 16" fill="none" xmlns="http://www.w3.org/2000/svg">
<rect width="30" height="16" rx="8" fill="#00BFFF"/>
<path d="M9.5175 6.41H11.7445V5.322C11.1835 5.3645 10.58 5.39 9.9425 5.39L9.679 4.5995C11.396 4.5995 12.8495 4.421 14.0395 4.064L14.473 4.8035C13.946 4.982 13.334 5.118 12.6455 5.22V6.41H14.7365V7.26H12.6455V8.3735H14.235V11.867H13.3595V11.51H11.0475V11.867H10.172V8.3735H11.7445V7.26H9.5175V6.41ZM11.0475 10.677H13.3595V9.181H11.0475V10.677ZM8.013 4.0725C8.5485 4.489 9.0075 4.9055 9.39 5.3135L8.778 5.934C8.455 5.543 7.9875 5.1265 7.384 4.6845L8.013 4.0725ZM6.806 6.529H8.829V10.065C9.067 9.861 9.3135 9.623 9.577 9.368L9.8235 10.303C9.2795 10.8045 8.7015 11.255 8.0895 11.6545L7.7495 10.8555C7.894 10.728 7.9705 10.575 7.9705 10.3965V7.379H6.806V6.529ZM21.069 10.932C22.004 10.932 22.7095 10.9065 23.1685 10.8725L23.0155 11.7565H21.273C19.2415 11.7565 17.975 11.646 17.465 11.4335C17.074 11.2635 16.734 10.9915 16.428 10.609C16.2835 11.068 16.0965 11.5015 15.867 11.9095L15.221 11.34C15.646 10.592 15.8755 9.7675 15.918 8.858L16.7 8.96C16.683 9.2405 16.6575 9.5125 16.615 9.7675C16.785 9.9885 16.955 10.1755 17.1335 10.32V8.603H15.527V7.804H19.182V8.603H17.8985V9.266H18.9695V10.048H17.8985V10.7195C18.349 10.8555 19.403 10.932 21.069 10.932ZM15.8415 4.2765H18.91V7.4215H15.8415V4.2765ZM18.043 6.6905V6.1805H16.7V6.6905H18.043ZM16.7 5.5175H18.043V5.0075H16.7V5.5175ZM19.233 4.2765H22.973V5.0755H21.5195C21.494 5.2455 21.4685 5.407 21.4345 5.56H22.7945V9.0705H21.9785V6.308H20.2275V9.0705H19.4455V5.56H20.6525C20.678 5.3985 20.7035 5.237 20.7205 5.0755H19.233V4.2765ZM21.8255 9.011C22.3185 9.385 22.7435 9.7675 23.092 10.15L22.4715 10.7705C22.1825 10.405 21.766 10.0055 21.2305 9.572L21.8255 9.011ZM20.695 6.597H21.511V7.8295C21.477 8.6285 21.3155 9.266 21.018 9.742C20.7205 10.184 20.2445 10.5155 19.59 10.7535L19.1055 10.0055C19.7175 9.7845 20.134 9.5125 20.3465 9.1895C20.5505 8.841 20.6695 8.3905 20.695 7.8295V6.597Z" fill="white"/>
</svg>
