<svg xmlns="http://www.w3.org/2000/svg" width="16" height="16" viewBox="0 0 16 16" fill="none">
  <g clip-path="url(#clip0_2151_5983)">
    <path d="M8.27651 13.3112L10.5042 11.181L10.3331 14.832L8.27651 13.3112Z" fill="black"/>
    <path d="M3.22265 9.83674L4.42959 7.00064L1.07386 8.4492L3.22265 9.83674Z" fill="black"/>
    <path d="M6.67063 4.02491C5.52243 5.29791 3.71396 9.07879 3.71396 9.07879L8.81529 12.6055C8.81529 12.6055 11.9821 9.62879 12.8026 7.67003C13.6231 5.71127 13.1281 1.17857 13.1281 1.17857L10.2937 1.95541" stroke="black" stroke-width="1.7" stroke-linecap="square" stroke-linejoin="bevel"/>
    <path d="M4.35197 11.6512L5.90137 12.7569L5.70244 13.6769L2.89153 15.3066L3.51321 12.2354L4.35197 11.6512Z" fill="black"/>
    <path d="M10.2565 6.55091C10.2565 7.1518 9.76934 7.63892 9.16845 7.63892C8.56755 7.63892 8.08043 7.1518 8.08043 6.55091C8.08043 5.95001 8.56755 5.46289 9.16845 5.46289C9.76934 5.46289 10.2565 5.95001 10.2565 6.55091Z" fill="black"/>
  </g>
  <defs>
    <clipPath id="clip0_2151_5983">
      <rect width="16" height="16" fill="black" transform="translate(0 -0.00195312)"/>
    </clipPath>
  </defs>
</svg>