<svg width="20" height="20" viewBox="0 0 20 20" fill="none" xmlns="http://www.w3.org/2000/svg">
  <mask id="mask0_13011_6111" style="mask-type:alpha" maskUnits="userSpaceOnUse" x="0" y="0" width="20" height="20">
    <rect width="20" height="20" fill="#D9D9D9" />
  </mask>
  <g mask="url(#mask0_13011_6111)">
    <path
      d="M9.99874 14.3358C10.2754 14.3358 10.5077 14.2422 10.6956 14.055C10.8835 13.8678 10.9775 13.6358 10.9775 13.3592C10.9775 13.0825 10.8839 12.8493 10.6969 12.6596C10.5096 12.47 10.2776 12.3752 10.0008 12.3752C9.72415 12.3752 9.49186 12.47 9.30395 12.6596C9.11603 12.8493 9.02207 13.0825 9.02207 13.3592C9.02207 13.6358 9.11561 13.8678 9.3027 14.055C9.48992 14.2422 9.72193 14.3358 9.99874 14.3358ZM9.05186 10.8431H10.9477V5.72853H9.05186V10.8431ZM9.99978 18.5025C8.82047 18.5025 7.71395 18.2794 6.6802 17.8333C5.64631 17.3872 4.747 16.7819 3.98228 16.0173C3.2177 15.2526 2.61235 14.3533 2.16624 13.3194C1.72013 12.2856 1.49707 11.1791 1.49707 9.99978C1.49707 8.82047 1.72013 7.71394 2.16624 6.6802C2.61235 5.64631 3.2177 4.747 3.98228 3.98228C4.747 3.21769 5.64631 2.61235 6.6802 2.16624C7.71395 1.72013 8.82047 1.49707 9.99978 1.49707C11.1791 1.49707 12.2856 1.72013 13.3194 2.16624C14.3533 2.61235 15.2526 3.21769 16.0173 3.98228C16.7819 4.747 17.3872 5.64631 17.8333 6.6802C18.2794 7.71394 18.5025 8.82047 18.5025 9.99978C18.5025 11.1791 18.2794 12.2856 17.8333 13.3194C17.3872 14.3533 16.7819 15.2526 16.0173 16.0173C15.2526 16.7819 14.3533 17.3872 13.3194 17.8333C12.2856 18.2794 11.1791 18.5025 9.99978 18.5025ZM9.99978 16.6067C11.8476 16.6067 13.4107 15.9675 14.6892 14.6892C15.9675 13.4107 16.6067 11.8476 16.6067 9.99978C16.6067 8.152 15.9675 6.58888 14.6892 5.3104C13.4107 4.03207 11.8476 3.3929 9.99978 3.3929C8.152 3.3929 6.58888 4.03207 5.3104 5.3104C4.03207 6.58888 3.3929 8.152 3.3929 9.99978C3.3929 11.8476 4.03207 13.4107 5.3104 14.6892C6.58888 15.9675 8.152 16.6067 9.99978 16.6067Z"
      fill="#FF599F" />
  </g>
</svg>
