<svg width="30" height="30" viewBox="0 0 30 30" fill="none" xmlns="http://www.w3.org/2000/svg">
<path d="M6.83888 5.9825C8.12309 5.21735 9.69966 4.96052 11.2041 5.10554C12.5359 5.23395 13.8806 5.68435 15 6.45711C16.119 5.685 17.4638 5.23541 18.7949 5.10652C20.3996 4.95119 22.0864 5.25374 23.4131 6.14265C25.6093 7.61603 26.7042 10.1845 26.7002 12.8829C26.6961 15.5901 25.5965 18.5054 23.3174 20.8311C20.7013 23.5007 17.9103 25.0694 15.2637 25.796C15.261 25.7967 15.2576 25.7962 15.2549 25.7969C15.2307 25.8033 15.2064 25.809 15.1817 25.8136C15.1715 25.8155 15.1615 25.8178 15.1514 25.8194C15.1336 25.8221 15.1157 25.8235 15.0977 25.8253C15.08 25.827 15.0625 25.8293 15.0449 25.8302C15.0297 25.8308 15.0144 25.8302 14.999 25.8302C14.984 25.8302 14.9691 25.8308 14.9541 25.8302C14.9356 25.8293 14.9171 25.8272 14.8984 25.8253C14.8818 25.8236 14.8652 25.8219 14.8486 25.8194C14.8376 25.8177 14.8265 25.8157 14.8154 25.8136C14.7897 25.8087 14.7644 25.8028 14.7393 25.796H14.7363C14.7285 25.7938 14.7207 25.7913 14.7129 25.7891C14.7002 25.7853 14.6874 25.7817 14.6748 25.7774C12.0465 25.0435 9.27843 23.48 6.68263 20.8311C4.40346 18.5054 3.30395 15.5901 3.29982 12.8829C3.29578 10.1844 4.38963 7.616 6.58595 6.14265L6.83888 5.9825Z" fill="#FF5757"/>
</svg>
