<svg width="244" height="28" viewBox="0 0 244 28" fill="none" xmlns="http://www.w3.org/2000/svg">
<g clip-path="url(#clip0_24_544)">
<path d="M4.73505 12.1497C4.84063 13.3229 5.20071 14.6322 5.20071 14.6322C5.37613 15.4415 5.51791 16.5954 5.51791 18.2402C5.51791 20.2961 7.16291 23.6806 7.66031 23.6143C8.15772 23.5479 7.66031 22.4868 8.05824 22.4205C8.45616 22.3542 8.52249 23.4153 9.05305 23.0235C9.58362 22.6316 8.61313 20.9134 8.41417 19.1559C8.255 17.7499 8.12825 15.4894 8.19457 14.4503C8.54828 14.0745 9.4613 12.9979 10.2837 11.698C11.1061 10.3981 12.0191 7.95088 12.3728 6.88975C12.3838 7.24346 12.3993 8.30238 12.3728 9.70838C12.3463 11.1144 12.2756 11.9634 12.5752 12.8153C13.144 12.7024 13.5606 11.3454 13.5606 11.3454L13.694 12.6021C14.4463 12.5026 15.8016 12.2924 16.1199 12.1497C16.5178 11.9714 16.6014 11.0306 16.6014 9.86118C16.8619 10.8211 16.8484 11.6085 17.3693 12.0222C17.9224 11.374 17.9314 10.6024 17.8713 9.70838C17.7778 8.31749 17.4021 6.68501 17.181 5.59649C17.6342 6.50303 18.6932 8.54152 19.3033 9.4431C19.9135 10.3447 21.3831 11.322 22.0417 11.698C22.1679 12.4275 22.4138 14.4967 22.3872 16.9374C22.3541 19.9881 21.7978 22.2037 22.0417 22.4205C22.2367 22.5939 22.5655 21.978 22.7055 21.6483C22.6629 22.1482 22.6783 23.1605 23.0805 23.2108C23.5833 23.2736 24.3689 21.1997 24.4946 17.9945C24.6203 14.7893 24.4003 12.3698 24.1175 9.98159C23.8347 7.59343 21.9807 5.07954 20.7238 4.01115C19.4668 2.94276 18.1064 1.917 15.9938 1.91701C14.5601 1.91701 13.7894 2.33732 13.305 2.68575C12.5402 2.55827 10.8547 2.63827 9.42129 3.4506C7.61178 4.47604 6.5519 5.98485 5.54636 7.83882C4.74192 9.32199 4.62948 10.9766 4.73505 12.1497Z" fill="#3D2142" stroke="white" stroke-width="1.43812"/>
<ellipse cx="24.4411" cy="12.2695" rx="1.4123" ry="1.89057" fill="#3D2142" stroke="white" stroke-width="1.43812"/>
<ellipse cx="24.4411" cy="12.2695" rx="1.4123" ry="1.89057" fill="#FFEAE0" stroke="black" stroke-width="0.647154"/>
<ellipse cx="5.38666" cy="15.1689" rx="1.4123" ry="1.89057" fill="#3D2142" stroke="white" stroke-width="1.43812"/>
<ellipse cx="5.38666" cy="15.1689" rx="1.4123" ry="1.89057" fill="#FFEAE0" stroke="black" stroke-width="0.647154"/>
<path d="M17.4989 20.1699C17.6566 20.1762 17.7956 20.2866 17.8339 20.4453L18.2196 22.0488C18.4938 21.9286 18.8013 21.798 19.0927 21.6758C19.5434 21.4868 19.9511 21.3171 20.161 21.2227C20.4571 21.0894 20.7414 21.091 20.9706 21.2344C21.1442 21.343 21.2377 21.5058 21.2831 21.6416L22.3944 23.4932L22.3983 23.5L23.8661 26.0693C23.9296 26.1806 23.9294 26.3169 23.8651 26.4277C23.8008 26.5385 23.6826 26.6064 23.5546 26.6064H7.84363C7.70437 26.6064 7.57774 26.5264 7.51843 26.4004C7.4592 26.2745 7.47778 26.1258 7.56628 26.0186L9.67371 23.4697C9.68177 23.4562 9.69246 23.4379 9.70593 23.416C9.73674 23.366 9.78199 23.2958 9.83875 23.2109C9.95207 23.0414 10.1147 22.8118 10.3143 22.5752C10.5131 22.3397 10.7544 22.0904 11.0233 21.8838C11.2898 21.6791 11.6041 21.5013 11.9491 21.4395C12.5517 21.3315 13.0043 21.5643 13.3378 21.8232C13.4994 21.9487 13.6443 22.0886 13.7587 22.1963C13.8834 22.3137 13.9657 22.3854 14.0331 22.4248C14.0504 22.4349 14.063 22.4388 14.0702 22.4414C14.0858 22.4316 14.122 22.4051 14.1757 22.335C14.2797 22.1987 14.3846 21.9238 14.4462 21.6094C14.4756 21.4589 14.4926 21.3128 14.496 21.1885C14.4995 21.0579 14.487 20.9758 14.4755 20.9395C14.4437 20.8392 14.458 20.7299 14.5135 20.6406C14.5691 20.5515 14.6607 20.4914 14.7645 20.4756C15.2346 20.4042 15.6821 20.3627 16.118 20.3223C16.5567 20.2816 16.9843 20.2416 17.4305 20.1738L17.4989 20.1699Z" fill="#1E1E1E" stroke="white" stroke-width="0.71906" stroke-linecap="round" stroke-linejoin="round"/>
<path d="M14.4608 22.5534C14.7688 22.1506 14.9351 21.1986 14.8184 20.8306C15.7348 20.6914 16.5679 20.6685 17.4843 20.5293L17.9717 22.5534C18.645 22.2393 19.8782 21.7446 20.309 21.5507C20.7399 21.3569 20.9194 21.6315 20.9553 21.7931L22.0863 23.6781L23.5544 26.2474H7.84363L9.96821 23.6781C9.96821 23.6781 10.9436 21.9846 12.0126 21.7931C12.9416 21.6266 13.4172 22.482 13.8522 22.7356C14.0505 22.8512 14.2403 22.8418 14.4608 22.5534Z" fill="#1E1E1E"/>
<path d="M9.96821 23.6781C9.96821 23.6781 10.9436 21.9846 12.0126 21.7931C12.9416 21.6266 13.4172 22.482 13.8522 22.7356M9.96821 23.6781L7.84363 26.2474H23.5544L22.0863 23.6781M9.96821 23.6781L14.4608 24.7912M22.0863 23.6781L20.9553 21.7931C20.9194 21.6315 20.7399 21.3569 20.309 21.5507C19.8782 21.7446 18.645 22.2393 17.9717 22.5534M22.0863 23.6781L16.444 24.7912M17.9717 22.5534L17.4843 20.5293C16.5679 20.6685 15.7348 20.6914 14.8184 20.8306C14.9351 21.1986 14.7688 22.1506 14.4608 22.5534C14.2403 22.8418 14.0505 22.8512 13.8522 22.7356M17.9717 22.5534L15.605 24.4268M13.8522 22.7356L15.3282 24.4268" stroke="black" stroke-width="0.647154" stroke-linecap="round" stroke-linejoin="round"/>
<path d="M14.2274 4.8457L21.66 7.7002L21.8973 7.79199L21.9784 8.03223L23.5399 12.6641L23.5917 12.8164L23.5507 12.9717C23.3668 13.6766 23.1286 14.6878 22.8368 15.6436C22.5493 16.5853 22.1836 17.5663 21.7089 18.1963C21.1777 18.901 20.2361 19.4452 19.4403 19.8281C19.0298 20.0257 18.6335 20.1919 18.3094 20.3223C17.9694 20.4591 17.7438 20.5438 17.6219 20.5986C17.4486 20.6766 17.2087 20.7304 16.9843 20.7715C16.7445 20.8153 16.4654 20.8538 16.1835 20.8867C15.619 20.9526 15.016 20.9996 14.6317 21.0225L14.5887 21.0244L14.5468 21.0205C13.5553 20.9214 11.1679 20.573 9.72839 19.9561C8.7301 19.5281 8.22283 18.832 7.95984 18.2051C7.83107 17.898 7.76244 17.6123 7.7196 17.3955C7.6992 17.2922 7.68155 17.1899 7.67078 17.1309C7.65556 17.0474 7.65266 17.0493 7.66296 17.0752L7.62878 16.9902L7.62488 16.8994L7.30164 9.65527L7.28894 9.35742L7.53406 9.1875L13.7274 4.90625L13.9618 4.74414L14.2274 4.8457Z" fill="#FFEAE0" stroke="white" stroke-width="1.07859"/>
<path d="M14.1503 5.04785L21.5829 7.90234L21.7245 7.95703L21.7733 8.10059L23.3358 12.7324L23.3661 12.8242L23.3417 12.918C23.156 13.6299 22.9207 14.6302 22.6307 15.5801C22.3432 16.5218 21.9866 17.4697 21.537 18.0664C21.0398 18.7262 20.1403 19.2518 19.3466 19.6338C18.9424 19.8283 18.5513 19.9925 18.2294 20.1221C17.8977 20.2555 17.6601 20.3452 17.5331 20.4023C17.386 20.4685 17.1692 20.5186 16.9452 20.5596C16.7119 20.6022 16.4385 20.6402 16.1591 20.6729C15.5995 20.7381 15.0005 20.7839 14.619 20.8066L14.5936 20.8086L14.5673 20.8057C13.5772 20.7066 11.2197 20.3606 9.81335 19.7578C8.87503 19.3556 8.40335 18.706 8.15808 18.1211C8.03711 17.8326 7.97188 17.5628 7.93054 17.3535C7.91046 17.2518 7.89528 17.1555 7.88367 17.0918C7.87008 17.0173 7.86302 16.9953 7.86316 16.9951L7.84265 16.9443L7.8407 16.8896L7.51746 9.64551L7.50964 9.4668L7.6571 9.36523L13.8505 5.08301L13.9911 4.98633L14.1503 5.04785Z" fill="#FFEAE0" stroke="black" stroke-width="0.647154"/>
<mask id="mask0_24_544" style="mask-type:alpha" maskUnits="userSpaceOnUse" x="7" y="5" width="17" height="16">
<path d="M9.94118 19.4605C8.24465 18.7334 8.27157 17.1446 8.16385 16.8753L7.8407 9.63133L14.0344 5.34961L21.4669 8.20411L23.0288 12.8359C22.6518 14.2811 22.1021 16.7786 21.2784 17.8717C20.3857 19.0563 17.9392 19.8644 17.4006 20.1068C16.9697 20.3007 15.354 20.4389 14.5999 20.4838C13.6125 20.3851 11.2984 20.0422 9.94118 19.4605Z" fill="#FFEAE0"/>
</mask>
<g mask="url(#mask0_24_544)">
<circle cx="20.5929" cy="17.0233" r="2.07803" fill="#FFCFBA"/>
<circle cx="11.255" cy="18.7148" r="1.8154" fill="#FFCFBA"/>
</g>
<path d="M15.4882 24.3248L14.0088 22.6975C14.1937 22.5865 14.44 22.2556 14.5744 22.0435C14.7809 21.7175 14.9206 21.235 14.8466 20.8775L17.5314 20.5068L17.966 22.5058L15.4882 24.3248Z" fill="#FFEAE0" stroke="black" stroke-width="0.71906"/>
<path d="M6.39179 4.89715C5.86846 4.50466 4.37415 4.12723 2.21537 6.44952C1.70294 7.0819 0.680851 8.83527 1.51819 10.4576C2.35554 12.08 4.06947 12.3329 4.82177 12.2566C4.88719 11.646 5.11615 10.1305 5.50866 8.95303C5.90116 7.77551 6.8061 6.63071 7.20951 6.20549C7.11138 5.90021 6.81046 5.21115 6.39179 4.89715Z" fill="#3D2142" stroke="white" stroke-width="1.43812"/>
<path d="M6.39179 4.89715C5.86846 4.50466 4.37415 4.12723 2.21537 6.44952C1.70294 7.0819 0.680851 8.83527 1.51819 10.4576C2.35554 12.08 4.06947 12.3329 4.82177 12.2566C4.88719 11.646 5.11615 10.1305 5.50866 8.95303C5.90116 7.77551 6.8061 6.63071 7.20951 6.20549C7.11138 5.90021 6.81046 5.21115 6.39179 4.89715Z" fill="#3D2142" stroke="black" stroke-width="0.647154"/>
<path opacity="0.6" d="M2.19922 8.85744L4.20478 8.64746" stroke="black" stroke-width="0.35953"/>
<path opacity="0.6" d="M4.828 9.33789C4.828 9.33789 4.79811 8.6035 4.47839 7.72427C4.15866 6.84503 3.7634 5.96934 3.7634 5.96934" stroke="black" stroke-width="0.35953"/>
<path d="M25.3854 9.83257C26.159 9.22881 27.3855 7.96448 27.0647 5.83233C26.8923 5.04853 26.1831 3.55849 24.4231 3.05856C22.663 2.55863 21.523 3.91324 21.121 4.4926C21.5504 4.94793 22.0543 5.1225 22.7193 6.18763C23.3843 7.25275 23.9658 9.71713 24.0457 10.2855C24.3405 10.4213 24.9875 10.1431 25.3854 9.83257Z" fill="#3D2142" stroke="white" stroke-width="1.43812"/>
<path d="M25.3854 9.83257C26.159 9.22881 27.3855 7.96448 27.0647 5.83233C26.8923 5.04853 26.1831 3.55849 24.4231 3.05856C22.663 2.55863 21.523 3.91324 21.121 4.4926C21.5504 4.94793 22.0543 5.1225 22.7193 6.18763C23.3843 7.25275 23.9658 9.71713 24.0457 10.2855C24.3405 10.4213 24.9875 10.1431 25.3854 9.83257Z" fill="#3D2142" stroke="black" stroke-width="0.647154"/>
<path opacity="0.6" d="M24.6974 8.12207C24.6974 8.12207 25.4691 6.70829 25.642 5.90502C25.815 5.10175 25.9442 4.26988 25.9442 4.26988" stroke="black" stroke-width="0.35953"/>
<path opacity="0.6" d="M22.671 6.38867C22.671 6.38867 24.0624 6.1508 25.0346 6.1508C26.0068 6.1508 27.0498 6.65698 27.0498 6.65698" stroke="black" stroke-width="0.35953"/>
<path d="M4.73505 12.1497C4.84063 13.3229 5.20071 14.6322 5.20071 14.6322C5.37613 15.4415 5.51791 16.5954 5.51791 18.2402C5.51791 20.2961 7.16291 23.6806 7.66031 23.6143C8.15772 23.5479 7.66031 22.4868 8.05824 22.4205C8.45616 22.3542 8.52249 23.4153 9.05305 23.0235C9.58362 22.6316 8.61313 20.9134 8.41417 19.1559C8.255 17.7499 8.12825 15.4894 8.19457 14.4503C8.54828 14.0745 9.4613 12.9979 10.2837 11.698C11.1061 10.3981 12.0191 7.95088 12.3728 6.88975C12.3838 7.24346 12.3993 8.30238 12.3728 9.70838C12.3463 11.1144 12.2756 11.9634 12.5752 12.8153C13.144 12.7024 13.5606 11.3454 13.5606 11.3454L13.694 12.6021C14.4463 12.5026 15.8016 12.2924 16.1199 12.1497C16.5178 11.9714 16.6014 11.0306 16.6014 9.86118C16.8619 10.8211 16.8484 11.6085 17.3693 12.0222C17.9224 11.374 17.9314 10.6024 17.8713 9.70838C17.7778 8.31749 17.4021 6.68501 17.181 5.59649C17.6342 6.50303 18.6932 8.54152 19.3033 9.4431C19.9135 10.3447 21.3831 11.322 22.0417 11.698C22.1679 12.4275 22.4138 14.4967 22.3872 16.9374C22.3541 19.9881 21.7978 22.2037 22.0417 22.4205C22.2367 22.5939 22.5655 21.978 22.7055 21.6483C22.6629 22.1482 22.6783 23.1605 23.0805 23.2108C23.5833 23.2736 24.3689 21.1997 24.4946 17.9945C24.6203 14.7893 24.4003 12.3698 24.1175 9.98159C23.8347 7.59343 21.9807 5.07954 20.7238 4.01115C19.4668 2.94276 18.1064 1.917 15.9938 1.91701C14.5601 1.91701 13.7894 2.33732 13.305 2.68575C12.5402 2.55827 10.8547 2.63827 9.42129 3.4506C7.61178 4.47604 6.5519 5.98485 5.54636 7.83882C4.74192 9.32199 4.62948 10.9766 4.73505 12.1497Z" fill="#3C213D" stroke="black" stroke-width="0.575248" stroke-linejoin="bevel"/>
<path d="M6.45503 12.1124C7.17655 9.74171 8.48941 6.93834 9.42617 6.4873C9.04453 8.16422 8.12263 12.623 7.92834 14.3716L8.06055 18.7498C8.3902 20.8656 9.04758 22.7642 8.90838 22.8325C8.7229 22.8827 8.30402 21.8933 7.92834 22.0648C7.69969 22.1692 7.78133 23.396 7.60982 23.2817C7.231 23.0291 6.10257 20.2798 5.93603 19.4472C5.56294 17.5818 5.6328 14.814 6.45503 12.1124Z" fill="#FFAFCA"/>
<path d="M13.2737 14.9089L10.332 15.6429L10.0037 14.6681L13.0476 13.8301L13.2737 14.9089Z" fill="#800EEB"/>
<path d="M13.5676 15.7712L10.748 16.6522L10.4441 15.576L13.3416 14.6924L13.5676 15.7712Z" fill="#CA01DB"/>
<path d="M8.79492 14.9366L12.5263 13.8279L13.5676 13.624" stroke="black" stroke-width="0.71906"/>
<path d="M10.5612 16.4087L9.86255 14.662L13.1094 13.7373L13.4895 15.8231L10.4585 16.8711L10.5612 16.4087Z" stroke="black" stroke-width="0.431436" stroke-linejoin="bevel"/>
<path d="M11.7478 13.9395L12.006 14.6371C12.0655 14.798 12.1923 14.9248 12.3531 14.9843L13.0508 15.2424L12.3531 15.5006C12.1923 15.5601 12.0655 15.6869 12.006 15.8477L11.7478 16.5454L11.4896 15.8477C11.4301 15.6869 11.3033 15.5601 11.1425 15.5006L10.4448 15.2424L11.1425 14.9843C11.3033 14.9248 11.4301 14.798 11.4896 14.6371L11.7478 13.9395Z" fill="white"/>
<path d="M20.3546 13.6159L17.4419 13.9554L17.1539 12.9044L20.2871 12.5157L20.3546 13.6159Z" fill="#800EEB"/>
<path d="M20.5206 14.5127L17.6031 14.9763L17.4582 13.8675L20.453 13.4125L20.5206 14.5127Z" fill="#CA01DB"/>
<path d="M17.4535 14.7073L17.015 12.8779L20.3614 12.4328L20.4738 14.1412L20.7745 14.5275L17.601 15.0605L17.4535 14.7073Z" stroke="black" stroke-width="0.431436" stroke-linejoin="bevel"/>
<path d="M16.3359 12.9182C16.3359 12.9182 18.0487 12.589 19.1008 12.5004C20.1529 12.4118 21.441 12.4368 21.441 12.4368" stroke="black" stroke-width="0.71906"/>
<path d="M18.8597 12.3472L19.1148 13.0367C19.1743 13.1975 19.3011 13.3243 19.462 13.3838L20.1515 13.639L19.462 13.8941C19.3011 13.9536 19.1743 14.0804 19.1148 14.2413L18.8597 14.9308L18.6045 14.2413C18.545 14.0804 18.4182 13.9536 18.2574 13.8941L17.5679 13.639L18.2574 13.3838C18.4182 13.3243 18.545 13.1975 18.6045 13.0367L18.8597 12.3472Z" fill="white"/>
<path d="M17.4974 11.331C18.0039 11.3199 19.5255 11.2053 19.8662 11.101" stroke="black" stroke-width="0.503342" stroke-linecap="round"/>
<path d="M13.4895 16.8713C14.7632 17.0154 16.2493 16.729 17.1251 16.2044" stroke="black" stroke-width="0.539295" stroke-linecap="round"/>
<path d="M15.198 19.4774C14.8287 19.2442 14.374 17.9098 14.2729 16.9888L16.5226 16.6189C16.5227 16.9893 16.6855 18.9831 16.5227 19.1651C16.3009 19.413 15.4215 19.5746 15.198 19.4774Z" fill="#F3B499" stroke="black" stroke-width="0.539295" stroke-linecap="round"/>
<path d="M10.0813 12.874C10.6469 12.758 12.0337 12.4643 12.3641 12.331" stroke="black" stroke-width="0.503342" stroke-linecap="round"/>
<path d="M23.7405 11.2913C23.3241 9.07084 22.2545 6.62974 21.3178 6.17871C21.6994 7.85562 22.2986 11.7096 22.5772 13.8285L22.6834 18.4412C22.3537 20.557 22.1287 21.7498 22.2679 21.8181C22.4533 21.8683 22.4399 21.5847 22.8156 21.7562C23.0442 21.8606 22.9626 23.0874 23.1341 22.9731C23.5129 22.7205 23.9578 20.3662 24.1243 19.5335C24.4054 18.1282 24.2609 14.0669 23.7405 11.2913Z" fill="#A56DFF"/>
<path d="M14.7322 7.3877C14.8069 6.25797 14.2875 4.8925 13.6992 4.51003C13.754 5.38043 13.7316 6.64793 13.5593 7.69643C13.4257 8.50991 13.1162 9.4727 13.1202 10.6214C14.0272 9.9582 14.6578 8.51352 14.7322 7.3877Z" fill="#FFAFCA"/>
<path d="M23.12 1.77295C24.6279 2.6316 25.1539 4.55033 24.2953 6.05829C23.792 6.94221 22.9243 7.48876 21.9898 7.61686C21.7942 7.64365 21.6446 7.73762 21.5738 7.86208L21.3216 8.30508C21.1321 8.63789 20.7088 8.75406 20.376 8.56458L18.6795 7.59873C18.3468 7.40919 18.2306 6.9859 18.42 6.65313L18.6722 6.21013C18.7431 6.08567 18.7484 5.90962 18.6716 5.72768C18.3046 4.85866 18.3309 3.83328 18.8342 2.94911C19.6928 1.44107 21.612 0.91438 23.12 1.77295Z" fill="#FFDD00" stroke="black" stroke-width="0.65" stroke-linejoin="round"/>
<path d="M20.0478 4.00494L21.0656 3.72179L21.4087 4.81119L22.4168 4.61075L22.5893 5.54634" stroke="black" stroke-width="0.65" stroke-linecap="round" stroke-linejoin="round"/>
</g>
<path d="M49.2959 8.576V11.904H47.8399V9.968H42.0479V11.968H40.6079V8.576H44.1119C43.9199 8 43.7119 7.456 43.4719 6.976L45.0239 6.72C45.2319 7.28 45.4399 7.904 45.6319 8.576H49.2959ZM43.4399 10.784L44.9439 10.912C44.7359 11.744 44.5279 12.512 44.3199 13.2H49.7599V14.656H47.9519C47.6959 16.144 47.1839 17.392 46.4159 18.416C47.8239 19.184 48.9599 19.888 49.8399 20.496L48.8159 21.696C47.9199 21.024 46.7839 20.288 45.4239 19.488C44.3039 20.432 42.5439 21.184 40.1759 21.76L39.5679 20.32C41.4559 19.904 42.9279 19.344 43.9679 18.64C43.0879 18.128 42.1599 17.616 41.1679 17.088C41.5679 16.32 41.9359 15.504 42.2719 14.656H40.2719V13.2H42.7839C43.0239 12.416 43.2479 11.616 43.4399 10.784ZM46.4959 14.656H43.8239C43.5359 15.408 43.2479 16.064 42.9599 16.608C43.7119 16.976 44.4159 17.328 45.0719 17.68C45.7599 16.88 46.2399 15.872 46.4959 14.656ZM36.9759 21.504H35.6159L35.2799 20.032C35.6799 20.08 36.0639 20.112 36.4479 20.112C36.7999 20.112 36.9759 19.92 36.9759 19.552V16.16C36.3999 16.368 35.8399 16.56 35.2799 16.736L34.8959 15.216C35.5999 15.056 36.2879 14.864 36.9759 14.624V11.28H35.2319V9.824H36.9759V6.928H38.5119V9.824H39.8879V11.28H38.5119V14C38.9599 13.792 39.3919 13.568 39.8399 13.344V14.88C39.3919 15.104 38.9439 15.328 38.5119 15.52V19.936C38.5119 20.976 37.9999 21.504 36.9759 21.504ZM50.9279 7.616H65.2479V9.104H58.4319V11.2C60.3839 12.144 62.3679 13.232 64.3839 14.448L63.4719 15.824C61.4559 14.512 59.7759 13.504 58.4319 12.816V21.648H56.9119V9.104H50.9279V7.616ZM80.6559 8.576V11.904H79.1999V9.968H73.4079V11.968H71.9679V8.576H75.4719C75.2799 8 75.0719 7.456 74.8319 6.976L76.3839 6.72C76.5919 7.28 76.7999 7.904 76.9919 8.576H80.6559ZM74.7999 10.784L76.3039 10.912C76.0959 11.744 75.8879 12.512 75.6799 13.2H81.1199V14.656H79.3119C79.0559 16.144 78.5439 17.392 77.7759 18.416C79.1839 19.184 80.3199 19.888 81.1999 20.496L80.1759 21.696C79.2799 21.024 78.1439 20.288 76.7839 19.488C75.6639 20.432 73.9039 21.184 71.5359 21.76L70.9279 20.32C72.8159 19.904 74.2879 19.344 75.3279 18.64C74.4479 18.128 73.5199 17.616 72.5279 17.088C72.9279 16.32 73.2959 15.504 73.6319 14.656H71.6319V13.2H74.1439C74.3839 12.416 74.6079 11.616 74.7999 10.784ZM77.8559 14.656H75.1839C74.8959 15.408 74.6079 16.064 74.3199 16.608C75.0719 16.976 75.7759 17.328 76.4319 17.68C77.1199 16.88 77.5999 15.872 77.8559 14.656ZM68.3359 21.504H66.9759L66.6399 20.032C67.0399 20.08 67.4239 20.112 67.8079 20.112C68.1599 20.112 68.3359 19.92 68.3359 19.552V16.16C67.7599 16.368 67.1999 16.56 66.6399 16.736L66.2559 15.216C66.9599 15.056 67.6479 14.864 68.3359 14.624V11.28H66.5919V9.824H68.3359V6.928H69.8719V9.824H71.2479V11.28H69.8719V14C70.3199 13.792 70.7519 13.568 71.1999 13.344V14.88C70.7519 15.104 70.3039 15.328 69.8719 15.52V19.936C69.8719 20.976 69.3599 21.504 68.3359 21.504ZM94.5599 8.896H92.1599L91.7759 13.28H94.3519L94.5599 8.896ZM90.3039 13.28L90.6879 8.896H88.7999V7.456H96.1119L95.5519 19.728H96.8639V21.2H87.9039V19.984C86.9439 20.512 85.8719 20.944 84.6559 21.296L84.0159 19.984C84.3999 19.824 84.5919 19.6 84.5919 19.312V16.208H82.5279V14.8H84.5919V13.168H83.7599V11.904C83.5679 12.24 83.3919 12.56 83.1999 12.88L81.9679 12.096C82.9599 10.496 83.6479 8.768 84.0639 6.912L85.5359 7.216C85.4079 7.696 85.2799 8.144 85.1519 8.576H87.8879V10H84.6399C84.3839 10.64 84.0959 11.232 83.8079 11.808H87.6159V13.168H86.0799V14.8H88.1599V16.208H86.0799V19.488C86.6879 19.232 87.2799 18.912 87.8879 18.528L88.1119 19.728H89.7279L90.1759 14.752H88.4319V13.28H90.3039ZM91.1839 19.728H94.0479L94.2879 14.752H91.6479L91.1839 19.728ZM106.304 15.152V15.264C106.288 15.776 106.256 16.256 106.208 16.704H109.68V15.152H106.304ZM105.984 18.048C105.648 19.456 105.056 20.688 104.208 21.712L103.04 20.656C104.192 19.28 104.784 17.52 104.816 15.376V11.84C104.48 12.08 104.144 12.304 103.808 12.528L102.832 11.36C104.736 10.256 106.352 8.72 107.696 6.768L109.232 7.12C109.008 7.44 108.8 7.76 108.592 8.064H114.352V9.184C113.744 9.776 113.136 10.288 112.528 10.736H116.352V20.032C116.352 21.056 115.76 21.568 114.592 21.568H112.576L112.208 20.16C112.912 20.208 113.552 20.24 114.16 20.24C114.624 20.24 114.864 19.984 114.864 19.504V18.048H111.168V21.36H109.68V18.048H105.984ZM114.864 16.704V15.152H111.168V16.704H114.864ZM114.864 13.808V12.112H111.168V13.808H114.864ZM106.208 10.736H110.384C111.008 10.336 111.632 9.888 112.256 9.376H107.552C107.104 9.856 106.656 10.32 106.208 10.736ZM109.68 12.112H106.304V13.808H109.68V12.112ZM125.36 12.768H121.952V15.28H125.36V12.768ZM126.88 15.28H130.256V12.768H126.88V15.28ZM123.04 9.632C122.464 10.256 121.84 10.832 121.2 11.344H126.304C126.816 10.864 127.328 10.288 127.872 9.632H123.04ZM120.416 11.952C120.08 12.176 119.76 12.4 119.44 12.608L118.416 11.376C120.368 10.272 122.032 8.736 123.424 6.784L124.976 7.12C124.72 7.52 124.448 7.904 124.176 8.256H129.84V9.408C129.328 10.16 128.816 10.8 128.32 11.344H131.792V16.72H121.952V19.216C121.952 19.68 122.208 19.92 122.688 19.92H130.112C130.608 19.888 130.944 19.744 131.104 19.456C131.232 19.232 131.376 18.592 131.504 17.536L132.992 18.016C132.864 19.056 132.704 19.792 132.544 20.24C132.256 20.976 131.616 21.36 130.624 21.392H122.048C120.96 21.392 120.416 20.864 120.416 19.808V11.952ZM147.36 21.392H146.352C145.456 21.392 145.024 20.896 145.024 19.936V11.936H144.464C144.336 16.24 143.376 19.408 141.584 21.44L140.512 20.496C142.08 18.672 142.928 15.808 143.04 11.936H141.616V10.512H143.056V6.896H144.48V10.512H148.416V11.936H146.416V19.632C146.416 19.888 146.528 20.032 146.784 20.032H147.12C147.248 20.032 147.344 19.904 147.408 19.648C147.504 19.376 147.552 18.544 147.584 17.152L148.88 17.568C148.784 19.424 148.624 20.528 148.384 20.88C148.16 21.216 147.808 21.392 147.36 21.392ZM134.384 8.4H137.36C137.152 7.936 136.928 7.52 136.672 7.136L138.304 6.88C138.496 7.328 138.704 7.84 138.912 8.4H141.76V9.776H134.384V8.4ZM135.008 10.8H140.992V15.04H138.768V20.064C138.768 21.024 138.288 21.504 137.36 21.504H136.16L135.856 20.128C136.208 20.192 136.56 20.224 136.88 20.224C137.168 20.224 137.328 20.048 137.328 19.696V15.04H135.008V10.8ZM139.584 13.76V12.096H136.4V13.76H139.584ZM135.312 15.76L136.56 16.096C136.224 17.536 135.792 18.816 135.264 19.904L134.016 19.456C134.512 18.48 134.944 17.248 135.312 15.76ZM140.464 15.728C140.912 16.8 141.248 17.776 141.488 18.672L140.288 19.136C140 18.08 139.664 17.056 139.248 16.048L140.464 15.728ZM146.352 7.088C147.104 7.952 147.68 8.72 148.08 9.376L146.96 10.144C146.544 9.44 145.952 8.656 145.216 7.792L146.352 7.088ZM156.624 6.848H157.744C159.76 9.056 162.064 10.8 164.688 12.08L163.856 13.552C162.896 13.056 162.016 12.512 161.184 11.904V13.104H153.232V11.84C152.368 12.448 151.44 13.024 150.448 13.568L149.632 12.096C152.432 10.688 154.768 8.944 156.624 6.848ZM153.472 11.664H160.864C159.488 10.64 158.256 9.488 157.184 8.208C156.144 9.472 154.912 10.624 153.472 11.664ZM150.72 14.88H163.68V16.352H156.224C155.504 17.68 154.672 18.832 153.728 19.824C156.032 19.696 158.24 19.504 160.384 19.248C159.904 18.624 159.376 18 158.8 17.36L159.984 16.608C161.44 18.192 162.56 19.568 163.36 20.736L162.096 21.632C161.824 21.216 161.536 20.784 161.232 20.352C158.752 20.736 155.632 21.04 151.888 21.264L151.472 19.952C151.84 19.856 152.096 19.712 152.256 19.536C153.12 18.528 153.856 17.472 154.464 16.352H150.72V14.88ZM166.992 12.8H178.784V14.192H176.368V15.904H179.84V17.264H176.368V20.048C176.368 21.104 175.824 21.648 174.768 21.648H172.496L172.16 20.224C172.896 20.288 173.6 20.32 174.256 20.32C174.64 20.32 174.832 20.112 174.832 19.696V17.264H174.416C172.784 19.024 170.176 20.48 166.576 21.632L165.776 20.304C168.848 19.488 171.12 18.48 172.592 17.264H166.8C167.248 16.224 167.568 15.312 167.76 14.528L169.296 14.672C169.152 15.12 169.008 15.536 168.848 15.904H174.832V14.192H166.992V12.8ZM173.312 6.752C173.456 7.104 173.6 7.52 173.744 7.968H179.712V10.48H178.24V9.328H167.472V10.56H166V7.968H172.192C172.032 7.616 171.872 7.296 171.696 7.008L173.312 6.752ZM174.16 9.616C175.872 10.096 177.44 10.688 178.864 11.376L178.128 12.512C176.592 11.744 175.024 11.152 173.408 10.736L174.16 9.616ZM171.36 9.6L172.272 10.624C170.96 11.392 169.344 12.016 167.424 12.528L166.848 11.312C168.672 10.88 170.176 10.304 171.36 9.6ZM194.576 19.216C194.032 19.216 193.488 18.8 192.976 17.984C192.912 17.888 192.864 17.808 192.832 17.712C192.24 18.48 191.584 19.12 190.88 19.632L190.096 18.448C190.912 17.84 191.616 17.104 192.208 16.208C192.016 15.6 191.84 14.928 191.68 14.192C191.488 13.2 191.344 11.968 191.28 10.496H189.68V16.208C190.128 15.936 190.624 15.616 191.152 15.264L191.408 16.56C190.384 17.248 189.344 17.856 188.272 18.384L187.92 17.024C188.192 16.88 188.336 16.624 188.336 16.272V9.232H191.216C191.184 8.496 191.184 7.696 191.184 6.864H192.608C192.608 7.712 192.608 8.496 192.64 9.232H194.464C194.08 8.704 193.584 8.128 192.96 7.488L193.952 6.88C194.608 7.52 195.12 8.08 195.488 8.56L194.496 9.232H195.648V10.496H192.672C192.72 11.664 192.8 12.624 192.928 13.392C192.992 13.808 193.056 14.208 193.12 14.56C193.536 13.6 193.888 12.528 194.176 11.344L195.376 11.888C194.96 13.68 194.368 15.232 193.616 16.528C193.616 16.56 193.632 16.576 193.648 16.608C193.936 17.312 194.192 17.68 194.432 17.68C194.56 17.68 194.72 17.12 194.896 16L196.064 16.672C195.648 18.368 195.152 19.216 194.576 19.216ZM181.808 8.912H184.16V6.88H185.616V8.912H187.744V10.256H185.616V12.112H187.856V13.488H185.84V15.296H187.44V16.656H185.84V19.52C186.736 19.84 188.752 20.016 191.856 20.016C193.648 20.016 194.992 19.984 195.888 19.92L195.632 21.424H192.208C188.336 21.424 185.92 21.184 184.96 20.704C184.224 20.336 183.568 19.728 182.992 18.88C182.784 19.904 182.512 20.848 182.192 21.744L181.024 20.704C181.696 18.832 182.064 16.752 182.144 14.448L183.488 14.608C183.456 15.424 183.408 16.208 183.312 16.976C183.648 17.616 184 18.128 184.384 18.512V13.488H181.392V12.112H184.16V10.256H181.808V8.912ZM196.96 10.56H198.88V7.072H200.432V10.56H203.312V6.928H204.8V10.56H207.696V6.928H209.184V10.56H211.472V12.016H209.184V17.056H203.312V12.016H200.432V19.504H210.928V21.056H198.88V12.016H196.96V10.56ZM204.8 12.016V15.584H207.696V12.016H204.8ZM214.304 7.408H225.568V14.032H222.72C223.744 15.104 225.296 15.968 227.376 16.608L226.72 17.952C225.312 17.408 224.128 16.784 223.168 16.08V21.68H221.632V15.568H222.512C221.936 15.072 221.472 14.56 221.088 14.032H218.72C218.288 14.576 217.792 15.088 217.216 15.552H218.432C218.432 16.832 218.24 17.936 217.856 18.832C217.392 19.984 216.304 20.928 214.592 21.696L213.584 20.48C214.992 19.904 215.92 19.184 216.368 18.336C216.688 17.68 216.864 16.832 216.896 15.808C215.872 16.56 214.656 17.232 213.216 17.808L212.4 16.48C214.48 15.824 216.032 15.008 217.056 14.032H214.304V7.408ZM224.112 12.704V11.328H220.64V12.704H224.112ZM219.168 12.704V11.328H215.76V12.704H219.168ZM215.76 10.08H219.168V8.752H215.76V10.08ZM220.64 8.752V10.08H224.112V8.752H220.64ZM235.072 12.192C236.624 11.296 238.096 10.288 239.488 9.168H229.248V7.696H241.584V9.168C240.112 10.496 238.448 11.76 236.592 12.96V19.84C236.592 20.96 236.032 21.52 234.928 21.52C233.952 21.52 233.104 21.488 232.384 21.424L231.968 19.952C232.752 20.048 233.6 20.096 234.512 20.096C234.88 20.096 235.072 19.904 235.072 19.552V12.192Z" fill="white"/>
<path d="M37.744 26.224C37.744 26.5686 37.4646 26.848 37.12 26.848C36.7754 26.848 36.496 26.5686 36.496 26.224C36.496 25.8794 36.7754 25.6 37.12 25.6C37.4646 25.6 37.744 25.8794 37.744 26.224ZM40.24 26.224C40.24 26.5686 39.9606 26.848 39.616 26.848C39.2714 26.848 38.992 26.5686 38.992 26.224C38.992 25.8794 39.2714 25.6 39.616 25.6C39.9606 25.6 40.24 25.8794 40.24 26.224ZM42.736 26.224C42.736 26.5686 42.4566 26.848 42.112 26.848C41.7674 26.848 41.488 26.5686 41.488 26.224C41.488 25.8794 41.7674 25.6 42.112 25.6C42.4566 25.6 42.736 25.8794 42.736 26.224ZM45.232 26.224C45.232 26.5686 44.9526 26.848 44.608 26.848C44.2634 26.848 43.984 26.5686 43.984 26.224C43.984 25.8794 44.2634 25.6 44.608 25.6C44.9526 25.6 45.232 25.8794 45.232 26.224ZM47.728 26.224C47.728 26.5686 47.4486 26.848 47.104 26.848C46.7594 26.848 46.48 26.5686 46.48 26.224C46.48 25.8794 46.7594 25.6 47.104 25.6C47.4486 25.6 47.728 25.8794 47.728 26.224ZM50.224 26.224C50.224 26.5686 49.9446 26.848 49.6 26.848C49.2554 26.848 48.976 26.5686 48.976 26.224C48.976 25.8794 49.2554 25.6 49.6 25.6C49.9446 25.6 50.224 25.8794 50.224 26.224ZM52.72 26.224C52.72 26.5686 52.4406 26.848 52.096 26.848C51.7514 26.848 51.472 26.5686 51.472 26.224C51.472 25.8794 51.7514 25.6 52.096 25.6C52.4406 25.6 52.72 25.8794 52.72 26.224ZM55.216 26.224C55.216 26.5686 54.9366 26.848 54.592 26.848C54.2474 26.848 53.968 26.5686 53.968 26.224C53.968 25.8794 54.2474 25.6 54.592 25.6C54.9366 25.6 55.216 25.8794 55.216 26.224ZM57.712 26.224C57.712 26.5686 57.4326 26.848 57.088 26.848C56.7434 26.848 56.464 26.5686 56.464 26.224C56.464 25.8794 56.7434 25.6 57.088 25.6C57.4326 25.6 57.712 25.8794 57.712 26.224ZM60.208 26.224C60.208 26.5686 59.9286 26.848 59.584 26.848C59.2394 26.848 58.96 26.5686 58.96 26.224C58.96 25.8794 59.2394 25.6 59.584 25.6C59.9286 25.6 60.208 25.8794 60.208 26.224ZM62.704 26.224C62.704 26.5686 62.4246 26.848 62.08 26.848C61.7354 26.848 61.456 26.5686 61.456 26.224C61.456 25.8794 61.7354 25.6 62.08 25.6C62.4246 25.6 62.704 25.8794 62.704 26.224ZM65.2 26.224C65.2 26.5686 64.9206 26.848 64.576 26.848C64.2314 26.848 63.952 26.5686 63.952 26.224C63.952 25.8794 64.2314 25.6 64.576 25.6C64.9206 25.6 65.2 25.8794 65.2 26.224ZM67.696 26.224C67.696 26.5686 67.4166 26.848 67.072 26.848C66.7274 26.848 66.448 26.5686 66.448 26.224C66.448 25.8794 66.7274 25.6 67.072 25.6C67.4166 25.6 67.696 25.8794 67.696 26.224ZM70.192 26.224C70.192 26.5686 69.9126 26.848 69.568 26.848C69.2234 26.848 68.944 26.5686 68.944 26.224C68.944 25.8794 69.2234 25.6 69.568 25.6C69.9126 25.6 70.192 25.8794 70.192 26.224ZM72.688 26.224C72.688 26.5686 72.4086 26.848 72.064 26.848C71.7193 26.848 71.44 26.5686 71.44 26.224C71.44 25.8794 71.7193 25.6 72.064 25.6C72.4086 25.6 72.688 25.8794 72.688 26.224ZM75.184 26.224C75.184 26.5686 74.9046 26.848 74.56 26.848C74.2153 26.848 73.936 26.5686 73.936 26.224C73.936 25.8794 74.2153 25.6 74.56 25.6C74.9046 25.6 75.184 25.8794 75.184 26.224ZM77.68 26.224C77.68 26.5686 77.4006 26.848 77.056 26.848C76.7113 26.848 76.432 26.5686 76.432 26.224C76.432 25.8794 76.7113 25.6 77.056 25.6C77.4006 25.6 77.68 25.8794 77.68 26.224ZM80.176 26.224C80.176 26.5686 79.8966 26.848 79.552 26.848C79.2073 26.848 78.928 26.5686 78.928 26.224C78.928 25.8794 79.2073 25.6 79.552 25.6C79.8966 25.6 80.176 25.8794 80.176 26.224ZM82.672 26.224C82.672 26.5686 82.3926 26.848 82.048 26.848C81.7033 26.848 81.424 26.5686 81.424 26.224C81.424 25.8794 81.7033 25.6 82.048 25.6C82.3926 25.6 82.672 25.8794 82.672 26.224ZM85.168 26.224C85.168 26.5686 84.8886 26.848 84.544 26.848C84.1993 26.848 83.92 26.5686 83.92 26.224C83.92 25.8794 84.1993 25.6 84.544 25.6C84.8886 25.6 85.168 25.8794 85.168 26.224ZM87.664 26.224C87.664 26.5686 87.3846 26.848 87.04 26.848C86.6953 26.848 86.416 26.5686 86.416 26.224C86.416 25.8794 86.6953 25.6 87.04 25.6C87.3846 25.6 87.664 25.8794 87.664 26.224ZM90.16 26.224C90.16 26.5686 89.8806 26.848 89.536 26.848C89.1913 26.848 88.912 26.5686 88.912 26.224C88.912 25.8794 89.1913 25.6 89.536 25.6C89.8806 25.6 90.16 25.8794 90.16 26.224ZM92.656 26.224C92.656 26.5686 92.3766 26.848 92.032 26.848C91.6873 26.848 91.408 26.5686 91.408 26.224C91.408 25.8794 91.6873 25.6 92.032 25.6C92.3766 25.6 92.656 25.8794 92.656 26.224ZM95.152 26.224C95.152 26.5686 94.8726 26.848 94.528 26.848C94.1833 26.848 93.904 26.5686 93.904 26.224C93.904 25.8794 94.1833 25.6 94.528 25.6C94.8726 25.6 95.152 25.8794 95.152 26.224ZM97.648 26.224C97.648 26.5686 97.3686 26.848 97.024 26.848C96.6793 26.848 96.4 26.5686 96.4 26.224C96.4 25.8794 96.6793 25.6 97.024 25.6C97.3686 25.6 97.648 25.8794 97.648 26.224ZM100.144 26.224C100.144 26.5686 99.8646 26.848 99.52 26.848C99.1753 26.848 98.896 26.5686 98.896 26.224C98.896 25.8794 99.1753 25.6 99.52 25.6C99.8646 25.6 100.144 25.8794 100.144 26.224ZM102.64 26.224C102.64 26.5686 102.361 26.848 102.016 26.848C101.671 26.848 101.392 26.5686 101.392 26.224C101.392 25.8794 101.671 25.6 102.016 25.6C102.361 25.6 102.64 25.8794 102.64 26.224ZM105.136 26.224C105.136 26.5686 104.857 26.848 104.512 26.848C104.167 26.848 103.888 26.5686 103.888 26.224C103.888 25.8794 104.167 25.6 104.512 25.6C104.857 25.6 105.136 25.8794 105.136 26.224ZM107.632 26.224C107.632 26.5686 107.353 26.848 107.008 26.848C106.663 26.848 106.384 26.5686 106.384 26.224C106.384 25.8794 106.663 25.6 107.008 25.6C107.353 25.6 107.632 25.8794 107.632 26.224ZM110.128 26.224C110.128 26.5686 109.849 26.848 109.504 26.848C109.159 26.848 108.88 26.5686 108.88 26.224C108.88 25.8794 109.159 25.6 109.504 25.6C109.849 25.6 110.128 25.8794 110.128 26.224ZM112.624 26.224C112.624 26.5686 112.345 26.848 112 26.848C111.655 26.848 111.376 26.5686 111.376 26.224C111.376 25.8794 111.655 25.6 112 25.6C112.345 25.6 112.624 25.8794 112.624 26.224ZM115.12 26.224C115.12 26.5686 114.841 26.848 114.496 26.848C114.151 26.848 113.872 26.5686 113.872 26.224C113.872 25.8794 114.151 25.6 114.496 25.6C114.841 25.6 115.12 25.8794 115.12 26.224ZM117.616 26.224C117.616 26.5686 117.337 26.848 116.992 26.848C116.647 26.848 116.368 26.5686 116.368 26.224C116.368 25.8794 116.647 25.6 116.992 25.6C117.337 25.6 117.616 25.8794 117.616 26.224ZM120.112 26.224C120.112 26.5686 119.833 26.848 119.488 26.848C119.143 26.848 118.864 26.5686 118.864 26.224C118.864 25.8794 119.143 25.6 119.488 25.6C119.833 25.6 120.112 25.8794 120.112 26.224ZM122.608 26.224C122.608 26.5686 122.329 26.848 121.984 26.848C121.639 26.848 121.36 26.5686 121.36 26.224C121.36 25.8794 121.639 25.6 121.984 25.6C122.329 25.6 122.608 25.8794 122.608 26.224ZM125.104 26.224C125.104 26.5686 124.825 26.848 124.48 26.848C124.135 26.848 123.856 26.5686 123.856 26.224C123.856 25.8794 124.135 25.6 124.48 25.6C124.825 25.6 125.104 25.8794 125.104 26.224ZM127.6 26.224C127.6 26.5686 127.321 26.848 126.976 26.848C126.631 26.848 126.352 26.5686 126.352 26.224C126.352 25.8794 126.631 25.6 126.976 25.6C127.321 25.6 127.6 25.8794 127.6 26.224ZM130.096 26.224C130.096 26.5686 129.817 26.848 129.472 26.848C129.127 26.848 128.848 26.5686 128.848 26.224C128.848 25.8794 129.127 25.6 129.472 25.6C129.817 25.6 130.096 25.8794 130.096 26.224ZM132.592 26.224C132.592 26.5686 132.313 26.848 131.968 26.848C131.623 26.848 131.344 26.5686 131.344 26.224C131.344 25.8794 131.623 25.6 131.968 25.6C132.313 25.6 132.592 25.8794 132.592 26.224ZM135.088 26.224C135.088 26.5686 134.809 26.848 134.464 26.848C134.119 26.848 133.84 26.5686 133.84 26.224C133.84 25.8794 134.119 25.6 134.464 25.6C134.809 25.6 135.088 25.8794 135.088 26.224ZM137.584 26.224C137.584 26.5686 137.305 26.848 136.96 26.848C136.615 26.848 136.336 26.5686 136.336 26.224C136.336 25.8794 136.615 25.6 136.96 25.6C137.305 25.6 137.584 25.8794 137.584 26.224ZM140.08 26.224C140.08 26.5686 139.801 26.848 139.456 26.848C139.111 26.848 138.832 26.5686 138.832 26.224C138.832 25.8794 139.111 25.6 139.456 25.6C139.801 25.6 140.08 25.8794 140.08 26.224ZM142.576 26.224C142.576 26.5686 142.297 26.848 141.952 26.848C141.607 26.848 141.328 26.5686 141.328 26.224C141.328 25.8794 141.607 25.6 141.952 25.6C142.297 25.6 142.576 25.8794 142.576 26.224ZM145.072 26.224C145.072 26.5686 144.793 26.848 144.448 26.848C144.103 26.848 143.824 26.5686 143.824 26.224C143.824 25.8794 144.103 25.6 144.448 25.6C144.793 25.6 145.072 25.8794 145.072 26.224ZM147.568 26.224C147.568 26.5686 147.289 26.848 146.944 26.848C146.599 26.848 146.32 26.5686 146.32 26.224C146.32 25.8794 146.599 25.6 146.944 25.6C147.289 25.6 147.568 25.8794 147.568 26.224ZM150.064 26.224C150.064 26.5686 149.785 26.848 149.44 26.848C149.095 26.848 148.816 26.5686 148.816 26.224C148.816 25.8794 149.095 25.6 149.44 25.6C149.785 25.6 150.064 25.8794 150.064 26.224ZM152.56 26.224C152.56 26.5686 152.281 26.848 151.936 26.848C151.591 26.848 151.312 26.5686 151.312 26.224C151.312 25.8794 151.591 25.6 151.936 25.6C152.281 25.6 152.56 25.8794 152.56 26.224ZM155.056 26.224C155.056 26.5686 154.777 26.848 154.432 26.848C154.087 26.848 153.808 26.5686 153.808 26.224C153.808 25.8794 154.087 25.6 154.432 25.6C154.777 25.6 155.056 25.8794 155.056 26.224ZM157.552 26.224C157.552 26.5686 157.273 26.848 156.928 26.848C156.583 26.848 156.304 26.5686 156.304 26.224C156.304 25.8794 156.583 25.6 156.928 25.6C157.273 25.6 157.552 25.8794 157.552 26.224ZM160.048 26.224C160.048 26.5686 159.769 26.848 159.424 26.848C159.079 26.848 158.8 26.5686 158.8 26.224C158.8 25.8794 159.079 25.6 159.424 25.6C159.769 25.6 160.048 25.8794 160.048 26.224ZM162.544 26.224C162.544 26.5686 162.265 26.848 161.92 26.848C161.575 26.848 161.296 26.5686 161.296 26.224C161.296 25.8794 161.575 25.6 161.92 25.6C162.265 25.6 162.544 25.8794 162.544 26.224ZM165.04 26.224C165.04 26.5686 164.761 26.848 164.416 26.848C164.071 26.848 163.792 26.5686 163.792 26.224C163.792 25.8794 164.071 25.6 164.416 25.6C164.761 25.6 165.04 25.8794 165.04 26.224ZM167.536 26.224C167.536 26.5686 167.257 26.848 166.912 26.848C166.567 26.848 166.288 26.5686 166.288 26.224C166.288 25.8794 166.567 25.6 166.912 25.6C167.257 25.6 167.536 25.8794 167.536 26.224ZM170.032 26.224C170.032 26.5686 169.753 26.848 169.408 26.848C169.063 26.848 168.784 26.5686 168.784 26.224C168.784 25.8794 169.063 25.6 169.408 25.6C169.753 25.6 170.032 25.8794 170.032 26.224ZM172.528 26.224C172.528 26.5686 172.249 26.848 171.904 26.848C171.559 26.848 171.28 26.5686 171.28 26.224C171.28 25.8794 171.559 25.6 171.904 25.6C172.249 25.6 172.528 25.8794 172.528 26.224ZM175.024 26.224C175.024 26.5686 174.745 26.848 174.4 26.848C174.055 26.848 173.776 26.5686 173.776 26.224C173.776 25.8794 174.055 25.6 174.4 25.6C174.745 25.6 175.024 25.8794 175.024 26.224ZM177.52 26.224C177.52 26.5686 177.241 26.848 176.896 26.848C176.551 26.848 176.272 26.5686 176.272 26.224C176.272 25.8794 176.551 25.6 176.896 25.6C177.241 25.6 177.52 25.8794 177.52 26.224ZM180.016 26.224C180.016 26.5686 179.737 26.848 179.392 26.848C179.047 26.848 178.768 26.5686 178.768 26.224C178.768 25.8794 179.047 25.6 179.392 25.6C179.737 25.6 180.016 25.8794 180.016 26.224ZM182.512 26.224C182.512 26.5686 182.233 26.848 181.888 26.848C181.543 26.848 181.264 26.5686 181.264 26.224C181.264 25.8794 181.543 25.6 181.888 25.6C182.233 25.6 182.512 25.8794 182.512 26.224ZM185.008 26.224C185.008 26.5686 184.729 26.848 184.384 26.848C184.039 26.848 183.76 26.5686 183.76 26.224C183.76 25.8794 184.039 25.6 184.384 25.6C184.729 25.6 185.008 25.8794 185.008 26.224ZM187.504 26.224C187.504 26.5686 187.225 26.848 186.88 26.848C186.535 26.848 186.256 26.5686 186.256 26.224C186.256 25.8794 186.535 25.6 186.88 25.6C187.225 25.6 187.504 25.8794 187.504 26.224ZM190 26.224C190 26.5686 189.721 26.848 189.376 26.848C189.031 26.848 188.752 26.5686 188.752 26.224C188.752 25.8794 189.031 25.6 189.376 25.6C189.721 25.6 190 25.8794 190 26.224ZM192.496 26.224C192.496 26.5686 192.217 26.848 191.872 26.848C191.527 26.848 191.248 26.5686 191.248 26.224C191.248 25.8794 191.527 25.6 191.872 25.6C192.217 25.6 192.496 25.8794 192.496 26.224ZM194.992 26.224C194.992 26.5686 194.713 26.848 194.368 26.848C194.023 26.848 193.744 26.5686 193.744 26.224C193.744 25.8794 194.023 25.6 194.368 25.6C194.713 25.6 194.992 25.8794 194.992 26.224ZM197.488 26.224C197.488 26.5686 197.209 26.848 196.864 26.848C196.519 26.848 196.24 26.5686 196.24 26.224C196.24 25.8794 196.519 25.6 196.864 25.6C197.209 25.6 197.488 25.8794 197.488 26.224ZM199.984 26.224C199.984 26.5686 199.705 26.848 199.36 26.848C199.015 26.848 198.736 26.5686 198.736 26.224C198.736 25.8794 199.015 25.6 199.36 25.6C199.705 25.6 199.984 25.8794 199.984 26.224ZM202.48 26.224C202.48 26.5686 202.201 26.848 201.856 26.848C201.511 26.848 201.232 26.5686 201.232 26.224C201.232 25.8794 201.511 25.6 201.856 25.6C202.201 25.6 202.48 25.8794 202.48 26.224ZM204.976 26.224C204.976 26.5686 204.697 26.848 204.352 26.848C204.007 26.848 203.728 26.5686 203.728 26.224C203.728 25.8794 204.007 25.6 204.352 25.6C204.697 25.6 204.976 25.8794 204.976 26.224ZM207.472 26.224C207.472 26.5686 207.193 26.848 206.848 26.848C206.503 26.848 206.224 26.5686 206.224 26.224C206.224 25.8794 206.503 25.6 206.848 25.6C207.193 25.6 207.472 25.8794 207.472 26.224ZM209.968 26.224C209.968 26.5686 209.689 26.848 209.344 26.848C208.999 26.848 208.72 26.5686 208.72 26.224C208.72 25.8794 208.999 25.6 209.344 25.6C209.689 25.6 209.968 25.8794 209.968 26.224ZM212.464 26.224C212.464 26.5686 212.185 26.848 211.84 26.848C211.495 26.848 211.216 26.5686 211.216 26.224C211.216 25.8794 211.495 25.6 211.84 25.6C212.185 25.6 212.464 25.8794 212.464 26.224ZM214.96 26.224C214.96 26.5686 214.681 26.848 214.336 26.848C213.991 26.848 213.712 26.5686 213.712 26.224C213.712 25.8794 213.991 25.6 214.336 25.6C214.681 25.6 214.96 25.8794 214.96 26.224ZM217.456 26.224C217.456 26.5686 217.177 26.848 216.832 26.848C216.487 26.848 216.208 26.5686 216.208 26.224C216.208 25.8794 216.487 25.6 216.832 25.6C217.177 25.6 217.456 25.8794 217.456 26.224ZM219.952 26.224C219.952 26.5686 219.673 26.848 219.328 26.848C218.983 26.848 218.704 26.5686 218.704 26.224C218.704 25.8794 218.983 25.6 219.328 25.6C219.673 25.6 219.952 25.8794 219.952 26.224ZM222.448 26.224C222.448 26.5686 222.169 26.848 221.824 26.848C221.479 26.848 221.2 26.5686 221.2 26.224C221.2 25.8794 221.479 25.6 221.824 25.6C222.169 25.6 222.448 25.8794 222.448 26.224ZM224.944 26.224C224.944 26.5686 224.665 26.848 224.32 26.848C223.975 26.848 223.696 26.5686 223.696 26.224C223.696 25.8794 223.975 25.6 224.32 25.6C224.665 25.6 224.944 25.8794 224.944 26.224ZM227.44 26.224C227.44 26.5686 227.161 26.848 226.816 26.848C226.471 26.848 226.192 26.5686 226.192 26.224C226.192 25.8794 226.471 25.6 226.816 25.6C227.161 25.6 227.44 25.8794 227.44 26.224ZM229.936 26.224C229.936 26.5686 229.656 26.848 229.312 26.848C228.967 26.848 228.688 26.5686 228.688 26.224C228.688 25.8794 228.967 25.6 229.312 25.6C229.656 25.6 229.936 25.8794 229.936 26.224ZM232.432 26.224C232.432 26.5686 232.152 26.848 231.808 26.848C231.463 26.848 231.184 26.5686 231.184 26.224C231.184 25.8794 231.463 25.6 231.808 25.6C232.152 25.6 232.432 25.8794 232.432 26.224ZM234.928 26.224C234.928 26.5686 234.648 26.848 234.304 26.848C233.959 26.848 233.68 26.5686 233.68 26.224C233.68 25.8794 233.959 25.6 234.304 25.6C234.648 25.6 234.928 25.8794 234.928 26.224ZM237.424 26.224C237.424 26.5686 237.144 26.848 236.8 26.848C236.455 26.848 236.176 26.5686 236.176 26.224C236.176 25.8794 236.455 25.6 236.8 25.6C237.144 25.6 237.424 25.8794 237.424 26.224ZM239.92 26.224C239.92 26.5686 239.64 26.848 239.296 26.848C238.951 26.848 238.672 26.5686 238.672 26.224C238.672 25.8794 238.951 25.6 239.296 25.6C239.64 25.6 239.92 25.8794 239.92 26.224ZM242.416 26.224C242.416 26.5686 242.136 26.848 241.792 26.848C241.447 26.848 241.168 26.5686 241.168 26.224C241.168 25.8794 241.447 25.6 241.792 25.6C242.136 25.6 242.416 25.8794 242.416 26.224Z" fill="white"/>
<defs>
<clipPath id="clip0_24_544">
<rect width="28" height="28" fill="white"/>
</clipPath>
</defs>
</svg>
