<svg xmlns="http://www.w3.org/2000/svg" width="20" height="20" viewBox="0 0 20 20" fill="none">
  <g clip-path="url(#clip0_156_796)">
    <path d="M12.9018 14.5586L12.9018 14.5586C9.66286 16.718 8.04338 17.7976 6.71867 17.4287C6.29344 17.3103 5.89958 17.0995 5.56518 16.8114C4.52344 15.9138 4.52344 13.9674 4.52344 10.0747C4.52344 6.18194 4.52344 4.23557 5.56518 3.33797C5.89958 3.04983 6.29344 2.83904 6.71867 2.72063C8.04338 2.35175 9.66286 3.43141 12.9018 5.59071C15.5762 7.37367 16.9135 8.26514 17.1596 9.47825C17.2394 9.87186 17.2394 10.2775 17.1596 10.6711C16.9135 11.8842 15.5763 12.7757 12.9018 14.5586Z" fill="white"/>
    <path d="M6.35059 1.39771C7.52395 1.07108 8.65613 1.44773 9.71289 1.98267C10.7792 2.52248 12.0743 3.38931 13.6631 4.44849C14.9708 5.32029 16.0565 6.0411 16.833 6.70435C17.6178 7.37468 18.2911 8.15147 18.5049 9.20532C18.6213 9.77909 18.6213 10.3708 18.5049 10.9446C18.291 11.9982 17.6177 12.7753 16.833 13.4456C16.0629 14.1033 14.9885 14.8169 13.6953 15.679V15.6799L13.6631 15.7014C12.0743 16.7606 10.7792 17.6275 9.71289 18.1672C8.65609 18.7022 7.52399 19.0779 6.35059 18.7512C5.73078 18.5786 5.15638 18.2718 4.66895 17.8518C3.74614 17.0567 3.43114 15.9058 3.29004 14.7297C3.14767 13.543 3.15039 11.9842 3.15039 10.0745C3.15039 8.16483 3.14767 6.60588 3.29004 5.41919C3.43115 4.24327 3.74634 3.09314 4.66895 2.2981C5.1564 1.87808 5.73072 1.57031 6.35059 1.39771Z" stroke="black" stroke-opacity="0.2" stroke-width="2.74624"/>
  </g>
  <defs>
    <clipPath id="clip0_156_796">
      <rect width="20" height="20" fill="white" transform="matrix(-1 0 0 1 20 0.00292969)"/>
    </clipPath>
  </defs>
</svg>