<svg width="18" height="18" viewBox="0 0 18 18" fill="none" xmlns="http://www.w3.org/2000/svg">
<rect width="18" height="18" rx="9" fill="black" fill-opacity="0.4"/>
<g clip-path="url(#clip0_9377_5691)">
<path d="M8.23631 4.66711C8.5357 4.01356 9.4643 4.01356 9.76369 4.66711L10.5359 6.35281C10.6556 6.61411 10.9006 6.79607 11.1853 6.83517L13.0187 7.08691C13.7087 7.18166 13.9903 8.02669 13.4951 8.5164L12.1097 9.88627C11.9133 10.0804 11.825 10.3587 11.8733 10.6306L12.2146 12.5503C12.3389 13.2499 11.5926 13.7783 10.9741 13.4286L9.41341 12.5462C9.15688 12.4012 8.84312 12.4012 8.58659 12.5462L7.02588 13.4286C6.40738 13.7783 5.66109 13.2499 5.78544 12.5503L6.12671 10.6306C6.17504 10.3587 6.08665 10.0804 5.8903 9.88627L4.50495 8.5164C4.0097 8.02669 4.29129 7.18166 4.9813 7.08691L6.8147 6.83517C7.09944 6.79607 7.34442 6.61411 7.46411 6.35281L8.23631 4.66711Z" stroke="white" stroke-width="1.3"/>
</g>
<defs>
<clipPath id="clip0_9377_5691">
<rect width="12" height="12" fill="white" transform="translate(3 3)"/>
</clipPath>
</defs>
</svg>
