<svg xmlns="http://www.w3.org/2000/svg" width="40" height="16" viewBox="0 0 40 16" fill="none">
  <path d="M7.37958 7.34375H35.2659C36.2792 7.34375 37.0575 8.24117 36.9143 9.24425L36.4644 12.3939C36.241 13.9581 34.9015 15.1199 33.3215 15.1199L7.37958 15.1199V7.34375Z" fill="#5D57F8"/>
  <path d="M10.0831 8.41424C9.34988 11.1505 7.68222 13.0812 6.35826 12.7264C5.03429 12.3717 4.55537 9.86586 5.28856 7.12956C6.02175 4.39326 7.68941 2.46263 9.01337 2.81739C10.3373 3.17214 10.8163 5.67794 10.0831 8.41424Z" stroke="#5D57F8" stroke-width="4.99525" stroke-linecap="round" stroke-linejoin="round"/>
  <path d="M7.04349 10.169C4.30719 9.43583 2.37657 7.76817 2.73132 6.44421C3.08608 5.12024 5.59187 4.64132 8.32817 5.37451C11.0645 6.1077 12.9951 7.77536 12.6403 9.09932C12.2856 10.4233 9.77979 10.9022 7.04349 10.169Z" stroke="#5D57F8" stroke-width="4.99525" stroke-linecap="round" stroke-linejoin="round"/>
  <path d="M10.0831 8.41424C9.34988 11.1505 7.68222 13.0812 6.35826 12.7264C5.03429 12.3717 4.55537 9.86586 5.28856 7.12956C6.02175 4.39326 7.68941 2.46263 9.01337 2.81739C10.3373 3.17214 10.8163 5.67794 10.0831 8.41424Z" stroke="white" stroke-width="1.44307" stroke-linecap="round" stroke-linejoin="round"/>
  <path d="M7.04349 10.169C4.30719 9.43583 2.37657 7.76817 2.73132 6.44421C3.08608 5.12024 5.59187 4.64132 8.32817 5.37451C11.0645 6.1077 12.9951 7.77536 12.6403 9.09932C12.2856 10.4233 9.77979 10.9022 7.04349 10.169Z" stroke="white" stroke-width="1.44307" stroke-linecap="round" stroke-linejoin="round"/>
  <path d="M37.4668 2.16822C37.6407 2.05487 37.8618 2.21912 37.8036 2.4184L37.6787 2.84526C37.5688 3.22119 37.6286 3.62639 37.8424 3.95455L38.0852 4.32718C38.1985 4.50114 38.0343 4.72223 37.835 4.66395L37.4081 4.53912C37.0322 4.42918 36.627 4.48896 36.2988 4.70277L35.9262 4.94556C35.7522 5.05891 35.5311 4.89466 35.5894 4.69538L35.7143 4.26852C35.8242 3.89259 35.7644 3.48739 35.5506 3.15923L35.3078 2.7866C35.1945 2.61264 35.3587 2.39155 35.558 2.44983L35.9849 2.57466C36.3608 2.6846 36.766 2.62482 37.0942 2.41101L37.4668 2.16822Z" fill="white" stroke="#5D57F8" stroke-width="3.33016"/>
  <path d="M31.798 10.8226C32.5827 11.2993 33.6753 11.6586 35.076 11.9006C35.23 11.93 35.3473 12.007 35.428 12.1316C35.516 12.2563 35.5417 12.3956 35.505 12.5496C35.4757 12.711 35.395 12.8283 35.263 12.9016C35.1383 12.9823 34.9953 13.0043 34.834 12.9676C33.3087 12.645 32.0657 12.128 31.105 11.4166V12.6596C31.105 12.8356 31.0463 12.9823 30.929 13.0996C30.8117 13.217 30.6613 13.2756 30.478 13.2756C30.302 13.2756 30.1553 13.217 30.038 13.0996C29.9207 12.9823 29.862 12.832 29.862 12.6486V11.3946C29.026 12.04 27.8123 12.5716 26.221 12.9896C25.8617 13.063 25.6233 12.9346 25.506 12.6046C25.4693 12.436 25.4913 12.2893 25.572 12.1646C25.6527 12.04 25.7773 11.9593 25.946 11.9226C26.7087 11.7613 27.288 11.6183 27.684 11.4936C28.234 11.3176 28.7327 11.094 29.18 10.8226H26.067C25.935 10.8226 25.8213 10.775 25.726 10.6796C25.6307 10.5843 25.583 10.4706 25.583 10.3386C25.583 10.2066 25.6307 10.093 25.726 9.99764C25.8213 9.90231 25.935 9.85464 26.067 9.85464H29.862C29.884 9.70064 29.9537 9.57231 30.071 9.46964C30.1883 9.36697 30.3277 9.31564 30.489 9.31564C30.841 9.34497 31.0463 9.52464 31.105 9.85464H34.944C35.076 9.85464 35.1897 9.90231 35.285 9.99764C35.3803 10.093 35.428 10.2066 35.428 10.3386C35.428 10.4706 35.3803 10.5843 35.285 10.6796C35.1897 10.775 35.076 10.8226 34.944 10.8226H31.798ZM31.699 8.34764H34.713C34.8377 8.34764 34.9403 8.38797 35.021 8.46864C35.1017 8.54931 35.142 8.65197 35.142 8.77664C35.1273 9.04064 34.988 9.17997 34.724 9.19464H27.871C27.7683 9.43664 27.5777 9.56497 27.299 9.57964C27.123 9.57964 26.9763 9.52097 26.859 9.40364C26.7417 9.28631 26.683 9.13964 26.683 8.96364V6.93964C26.639 7.00564 26.595 7.06797 26.551 7.12664C26.3163 7.38331 26.0377 7.41264 25.715 7.21464C25.5757 7.11931 25.4987 6.98731 25.484 6.81864C25.4693 6.64264 25.5133 6.49231 25.616 6.36764C26.2687 5.42164 26.793 4.46831 27.189 3.50764C27.233 3.35364 27.332 3.23631 27.486 3.15564C27.6473 3.07497 27.816 3.05664 27.992 3.10064C28.168 3.13731 28.3 3.23631 28.388 3.39764C28.476 3.55897 28.487 3.71664 28.421 3.87064C28.3843 3.95131 28.3477 4.03197 28.311 4.11264H30.467V3.67264C30.467 3.49664 30.522 3.34997 30.632 3.23264C30.742 3.11531 30.885 3.05664 31.061 3.05664C31.2517 3.05664 31.4057 3.11531 31.523 3.23264C31.6403 3.34997 31.699 3.49664 31.699 3.67264V4.11264H34.658C34.7827 4.11264 34.8853 4.15297 34.966 4.23364C35.0467 4.31431 35.087 4.41697 35.087 4.54164C35.0723 4.80564 34.933 4.94497 34.669 4.95964H31.699V5.56464H34.405C34.647 5.57931 34.779 5.71131 34.801 5.96064C34.7863 6.20264 34.658 6.33097 34.416 6.34564H31.699V6.95064H34.394C34.636 6.96531 34.768 7.09731 34.79 7.34664C34.7753 7.58864 34.647 7.71697 34.405 7.73164H31.699V8.34764ZM30.456 8.34764V7.73164H27.915V8.34764H30.456ZM30.456 6.95064V6.34564H27.915V6.95064H30.456ZM30.456 5.56464V4.95964H27.904C27.8307 5.09897 27.7207 5.30064 27.574 5.56464H30.456Z" fill="white"/>
  <path d="M23.02 4.56407H15.991V11.9231H23.02V4.56407ZM24.263 12.3851C24.2557 12.7811 24.0577 12.9827 23.669 12.9901H15.32C14.9387 12.9827 14.7407 12.7811 14.726 12.3851V4.10207C14.7407 3.70607 14.9387 3.5044 15.32 3.49707H23.669C24.0577 3.5044 24.2557 3.70607 24.263 4.10207V12.3851ZM21.414 11.6151C20.314 11.4171 18.9537 11.2007 17.333 10.9661C17.1937 10.9514 17.0873 10.8927 17.014 10.7901C16.9407 10.6874 16.9113 10.5701 16.926 10.4381C16.948 10.2987 17.0103 10.1924 17.113 10.1191C17.2157 10.0457 17.3293 10.0164 17.454 10.0311C18.8253 10.2437 20.193 10.4527 21.557 10.6581C21.6963 10.6874 21.8027 10.7534 21.876 10.8561C21.9493 10.9587 21.975 11.0797 21.953 11.2191C21.887 11.5197 21.7073 11.6517 21.414 11.6151ZM20.996 9.99807C19.6393 9.7854 18.686 9.64607 18.136 9.58007C17.8793 9.52874 17.762 9.37474 17.784 9.11807C17.7987 9.00074 17.85 8.90907 17.938 8.84307C18.026 8.77707 18.125 8.7514 18.235 8.76607C19.093 8.89807 20.0537 9.0374 21.117 9.18407C21.227 9.19874 21.315 9.25007 21.381 9.33807C21.447 9.42607 21.4727 9.52874 21.458 9.64607C21.4433 9.7634 21.3883 9.85507 21.293 9.92107C21.205 9.98707 21.106 10.0127 20.996 9.99807ZM20.633 7.58907C21.227 7.75774 21.8027 7.89707 22.36 8.00707C22.7267 8.08774 22.8843 8.27107 22.833 8.55707C22.767 8.8724 22.5543 8.99707 22.195 8.93107C21.3737 8.74774 20.4717 8.49107 19.489 8.16107C18.7997 8.44707 17.883 8.70374 16.739 8.93107C16.607 8.9604 16.486 8.94207 16.376 8.87607C16.2733 8.80274 16.2073 8.70007 16.178 8.56807C16.1487 8.43607 16.1707 8.31874 16.244 8.21607C16.3247 8.1134 16.4347 8.05474 16.574 8.04007C17.124 7.9594 17.663 7.84574 18.191 7.69907C17.8977 7.58174 17.6447 7.46807 17.432 7.35807C17.3073 7.29207 17.2267 7.19674 17.19 7.07207C17.1533 6.94007 17.1753 6.82274 17.256 6.72007C17.4247 6.49274 17.6813 6.46707 18.026 6.64307C18.4073 6.84107 18.8877 7.0354 19.467 7.22607C19.9803 6.97674 20.4313 6.66507 20.82 6.29107H17.509C17.333 6.29107 17.2047 6.2214 17.124 6.08207C17.0433 5.94274 17.0507 5.7924 17.146 5.63107L17.476 5.02607C17.6153 4.75474 17.828 4.6814 18.114 4.80607C18.3267 4.91607 18.3927 5.09207 18.312 5.33407L18.235 5.49907H21.645C21.843 5.49907 21.9897 5.56874 22.085 5.70807C22.1803 5.84007 22.206 5.9904 22.162 6.15907C22.1253 6.28374 22.0667 6.3864 21.986 6.46707C21.5607 6.92174 21.1097 7.29574 20.633 7.58907Z" fill="white"/>
  <path d="M31.0605 1.55664C31.5192 1.55664 32.0037 1.69062 32.4131 2.01953L32.584 2.17188L32.7295 2.33398C32.8019 2.42279 32.8636 2.51691 32.9189 2.61328H34.6582C35.1398 2.61333 35.637 2.78372 36.0264 3.17285C36.4158 3.56231 36.5869 4.06014 36.5869 4.54199V4.58398L36.585 4.625C36.5689 4.914 36.4892 5.27747 36.2646 5.61719C36.2786 5.69112 36.289 5.76205 36.2949 5.8291L36.3047 5.94043L36.2979 6.05176C36.2867 6.23615 36.2486 6.45208 36.1621 6.67285C36.2332 6.86528 36.2698 7.05186 36.2842 7.21484L36.2939 7.32617L36.2871 7.4375C36.2835 7.49728 36.2755 7.56041 36.2656 7.62598C36.5239 7.97483 36.6416 8.38065 36.6416 8.77734V8.81836L36.6396 8.86035C36.6334 8.97333 36.6161 9.09748 36.5859 9.22754C36.8057 9.54931 36.9277 9.93054 36.9277 10.3389C36.9277 10.6864 36.8375 11.0134 36.6758 11.3018C36.6793 11.3071 36.684 11.312 36.6875 11.3174L36.6855 11.3184C36.9886 11.7753 37.0799 12.3051 36.9785 12.8174L36.9805 12.8184C36.9785 12.8289 36.9747 12.8391 36.9727 12.8496C36.9693 12.8654 36.9676 12.8817 36.9639 12.8975L36.9619 12.8965C36.8513 13.3971 36.5593 13.8577 36.0762 14.1582L36.0781 14.1611C36.0613 14.172 36.0424 14.1801 36.0254 14.1904C36.0137 14.1972 36.0031 14.2063 35.9912 14.2129L35.9902 14.2109C35.5153 14.4864 34.9953 14.5369 34.5234 14.4346C34.5169 14.4332 34.5104 14.432 34.5039 14.4307H34.502V14.4297C33.7163 14.2624 32.9785 14.044 32.2949 13.7686C32.2103 13.907 32.1102 14.0402 31.9893 14.1611C31.5599 14.5903 31.0127 14.7764 30.4775 14.7764C29.9308 14.7763 29.3944 14.5778 28.9775 14.1611C28.8526 14.0362 28.7502 13.8995 28.665 13.7578C28.0333 14.0174 27.3438 14.2457 26.6025 14.4404L26.5615 14.4512L26.5205 14.46C26.119 14.5418 25.5841 14.5509 25.0615 14.2695C24.528 13.9822 24.2384 13.5169 24.0928 13.1074L24.0605 13.0176L24.04 12.9238C24.0377 12.9132 24.0363 12.9023 24.0342 12.8916C24.1814 12.7948 24.2582 12.627 24.2627 12.3848V11.4375C24.2793 11.4089 24.2942 11.3789 24.3125 11.3506L24.3398 11.3115C24.3118 11.2622 24.2863 11.2117 24.2627 11.1602V9.5166C24.3607 9.30294 24.4956 9.10699 24.665 8.9375L24.8096 8.80566C24.9061 8.72601 25.0095 8.65636 25.1182 8.59668C25.0521 8.56325 24.9892 8.52907 24.9307 8.49316L24.8984 8.47363L24.8682 8.45312C24.6156 8.28031 24.4112 8.06106 24.2627 7.80957V5.7002C24.2987 5.63794 24.3374 5.57639 24.3809 5.5166L24.5996 5.19141C25.0955 4.43407 25.4943 3.68232 25.8018 2.93652C25.9905 2.43283 26.3521 2.05655 26.79 1.82715L26.8027 1.82031L26.8154 1.81445C27.2809 1.58178 27.7944 1.52095 28.2969 1.63281H28.2979C28.3028 1.63384 28.3076 1.63566 28.3125 1.63672C28.3267 1.63999 28.3413 1.64196 28.3555 1.64551L28.3545 1.64746C28.7941 1.75139 29.1699 1.98245 29.4502 2.30957C29.4785 2.27525 29.507 2.24015 29.5381 2.20703L29.7021 2.0498C30.0982 1.71022 30.582 1.55674 31.0605 1.55664ZM30.4893 9.31641C30.3281 9.31641 30.1886 9.36723 30.0713 9.46973C29.954 9.57239 29.8843 9.70147 29.8623 9.85547H26.0674C25.9354 9.85547 25.8209 9.90271 25.7256 9.99805C25.6304 10.0933 25.583 10.207 25.583 10.3389C25.583 10.4707 25.6305 10.5844 25.7256 10.6797C25.8209 10.775 25.9354 10.8232 26.0674 10.8232H29.1797C28.7324 11.0945 28.2335 11.3182 27.6836 11.4941C27.2877 11.6188 26.7085 11.7616 25.9463 11.9229C25.7777 11.9595 25.6529 12.0404 25.5723 12.165C25.4916 12.2897 25.4692 12.4368 25.5059 12.6055C25.6232 12.9351 25.8617 13.0634 26.2207 12.9902C27.812 12.5722 29.0263 12.0399 29.8623 11.3945V12.6494C29.8624 12.8325 29.9209 12.9824 30.0381 13.0996C30.1261 13.1876 30.2306 13.2426 30.3516 13.2646L30.4775 13.2764C30.6609 13.2764 30.8114 13.2169 30.9287 13.0996C31.046 12.9823 31.1054 12.8361 31.1055 12.6602V11.417C32.0661 12.1282 33.3088 12.6451 34.834 12.9678C34.9952 13.0044 35.1381 12.9828 35.2627 12.9023C35.3947 12.829 35.4755 12.7111 35.5049 12.5498C35.5415 12.3959 35.5157 12.2565 35.4277 12.1318C35.3471 12.0074 35.23 11.9307 35.0762 11.9014C33.6755 11.6594 32.5825 11.2999 31.7979 10.8232H34.9443C35.0762 10.8232 35.1899 10.7749 35.2852 10.6797C35.3803 10.5844 35.4277 10.4708 35.4277 10.3389C35.4277 10.207 35.3804 10.0933 35.2852 9.99805C35.1899 9.90279 35.0762 9.85555 34.9443 9.85547H31.1055C31.0468 9.52556 30.8411 9.34581 30.4893 9.31641ZM31.0605 3.05664C30.8848 3.05674 30.7417 3.11617 30.6318 3.2334C30.5221 3.35065 30.4668 3.49706 30.4668 3.67285V4.11328H28.3105C28.3472 4.03265 28.3842 3.95172 28.4209 3.87109C28.4869 3.71716 28.4756 3.5597 28.3877 3.39844C28.2997 3.23713 28.1681 3.13727 27.9922 3.10059C27.8162 3.0566 27.6476 3.07565 27.4863 3.15625C27.3324 3.23687 27.2335 3.35396 27.1895 3.50781C26.7935 4.46848 26.2689 5.42216 25.6162 6.36816C25.5135 6.49283 25.4697 6.64334 25.4844 6.81934C25.4991 6.98776 25.5757 7.11959 25.7148 7.21484C26.0375 7.41282 26.3161 7.38354 26.5508 7.12695C26.5947 7.06843 26.6387 7.00625 26.6826 6.94043V8.96387C26.6826 9.13987 26.742 9.28696 26.8594 9.4043C26.9766 9.52137 27.1231 9.58004 27.2988 9.58008C27.5774 9.56542 27.7684 9.43716 27.8711 9.19531H34.7236C34.9875 9.18065 35.1268 9.04111 35.1416 8.77734C35.1416 8.65274 35.1021 8.5494 35.0215 8.46875C34.9408 8.38808 34.8376 8.34766 34.7129 8.34766H31.6992V7.73242H34.4053C34.6471 7.71768 34.7754 7.5886 34.79 7.34668C34.768 7.09755 34.6355 6.96583 34.3936 6.95117H31.6992V6.3457H34.416C34.658 6.33103 34.7861 6.20293 34.8008 5.96094C34.7788 5.71176 34.6471 5.58019 34.4053 5.56543H31.6992V4.95996H34.6689C34.9329 4.94529 35.0722 4.80599 35.0869 4.54199C35.0869 4.41738 35.0464 4.31503 34.9658 4.23438C34.8852 4.15375 34.7828 4.11333 34.6582 4.11328H31.6992V3.67285C31.6992 3.49713 31.6405 3.35063 31.5234 3.2334C31.4061 3.11607 31.2512 3.05664 31.0605 3.05664ZM30.4561 7.73242V8.34766H27.915V7.73242H30.4561ZM30.4561 6.3457V6.95117H27.915V6.3457H30.4561ZM30.4561 4.95996V5.56543H27.5742C27.7209 5.30143 27.831 5.09929 27.9043 4.95996H30.4561Z" fill="#5D57F8"/>
  <path d="M23.6973 1.99707C24.1341 2.00531 24.7157 2.12992 25.1797 2.60254C25.6391 3.07046 25.7548 3.64767 25.7627 4.07422V6.14941C25.7142 6.22205 25.6663 6.29561 25.6162 6.36816C25.5135 6.49283 25.4697 6.64334 25.4844 6.81934C25.4991 6.98776 25.5757 7.11959 25.7148 7.21484C25.7305 7.22444 25.7473 7.2317 25.7627 7.24023V9.9668C25.7506 9.97696 25.7372 9.98648 25.7256 9.99805C25.6304 10.0933 25.583 10.207 25.583 10.3389C25.583 10.4707 25.6305 10.5844 25.7256 10.6797C25.737 10.6911 25.7508 10.6999 25.7627 10.71V11.9912C25.684 12.0342 25.6201 12.0912 25.5723 12.165C25.4916 12.2897 25.4692 12.4368 25.5059 12.6055C25.5524 12.7363 25.6194 12.834 25.7041 12.9014C25.6313 13.2271 25.479 13.5787 25.1797 13.8838C24.7157 14.3564 24.1341 14.481 23.6973 14.4893L23.6836 14.4902H15.3057L15.291 14.4893C14.8485 14.4807 14.2744 14.3512 13.8154 13.8838C13.3654 13.4254 13.2422 12.8617 13.2266 12.4404L13.2256 12.4131V4.07422L13.2266 4.04688C13.2422 3.62558 13.3654 3.06092 13.8154 2.60254C14.2743 2.13533 14.8486 2.0056 15.291 1.99707H23.6973ZM15.3203 3.49707C14.9391 3.5044 14.7404 3.70584 14.7256 4.10156V12.3848C14.7403 12.7808 14.939 12.9829 15.3203 12.9902H23.6689C24.0576 12.9829 24.2554 12.7808 24.2627 12.3848V4.10156C24.2552 3.70586 24.0575 3.5044 23.6689 3.49707H15.3203ZM23.0195 4.56445V11.9229H15.9912V4.56445H23.0195ZM17.4541 10.0312C17.3295 10.0166 17.2159 10.0459 17.1133 10.1191C17.0106 10.1925 16.9478 10.2991 16.9258 10.4385C16.9112 10.5702 16.9405 10.6875 17.0137 10.79C17.087 10.8927 17.1937 10.9512 17.333 10.9658C18.9537 11.2005 20.3141 11.4172 21.4141 11.6152C21.7073 11.6519 21.8871 11.5194 21.9531 11.2188C21.975 11.0797 21.9491 10.959 21.876 10.8564C21.8026 10.7538 21.696 10.6875 21.5566 10.6582C20.1928 10.4529 18.8253 10.2439 17.4541 10.0312ZM18.2354 8.76562C18.1255 8.75098 18.0264 8.777 17.9385 8.84277C17.8505 8.90877 17.7988 9.00083 17.7842 9.11816C17.7622 9.37466 17.8793 9.52871 18.1357 9.58008C18.6857 9.64608 19.6394 9.78538 20.9961 9.99805C21.1061 10.0127 21.205 9.98688 21.293 9.9209C21.3882 9.85499 21.4433 9.76358 21.458 9.64648C21.4727 9.52915 21.4469 9.42589 21.3809 9.33789C21.3149 9.25001 21.2271 9.19828 21.1172 9.18359C20.054 9.03694 19.0933 8.89761 18.2354 8.76562ZM18.1143 4.80566C17.8283 4.681 17.6149 4.75503 17.4756 5.02637L17.1465 5.63086C17.0512 5.79219 17.0434 5.9427 17.124 6.08203C17.2047 6.22129 17.3329 6.29096 17.5088 6.29102H20.8203C20.4316 6.66502 19.9801 6.97625 19.4668 7.22559C18.8877 7.03497 18.4076 6.84052 18.0264 6.64258C17.6818 6.46661 17.4245 6.49249 17.2559 6.71973C17.1752 6.82239 17.1538 6.94027 17.1904 7.07227C17.2271 7.19672 17.3072 7.29246 17.4316 7.3584C17.6443 7.4684 17.8981 7.58189 18.1914 7.69922C17.6635 7.84587 17.1241 7.95937 16.5742 8.04004C16.435 8.0547 16.3248 8.11326 16.2441 8.21582C16.1708 8.31849 16.1484 8.43636 16.1777 8.56836C16.2071 8.70021 16.2734 8.8027 16.376 8.87598C16.486 8.94198 16.6073 8.96 16.7393 8.93066C17.8831 8.70335 18.8 8.44711 19.4893 8.16113C20.4718 8.49109 21.3741 8.74735 22.1953 8.93066C22.5545 8.99656 22.767 8.8719 22.833 8.55664C22.8841 8.27092 22.7267 8.0875 22.3604 8.00684C21.803 7.89684 21.2268 7.75753 20.6328 7.58887C21.1095 7.29553 21.561 6.92146 21.9863 6.4668C22.0668 6.3862 22.1255 6.28365 22.1621 6.15918C22.2061 5.99051 22.1803 5.84001 22.085 5.70801C21.9896 5.56868 21.8425 5.49902 21.6445 5.49902H18.2354L18.3115 5.33398C18.3922 5.09201 18.3269 4.91567 18.1143 4.80566Z" fill="#5D57F8"/>
  <path d="M37.4668 2.16822C37.6407 2.05487 37.8618 2.21912 37.8036 2.4184L37.6787 2.84526C37.5688 3.22119 37.6286 3.62639 37.8424 3.95455L38.0852 4.32718C38.1985 4.50114 38.0343 4.72223 37.835 4.66395L37.4081 4.53912C37.0322 4.42918 36.627 4.48896 36.2988 4.70277L35.9262 4.94556C35.7522 5.05891 35.5311 4.89466 35.5894 4.69538L35.7143 4.26852C35.8242 3.89259 35.7644 3.48739 35.5506 3.15923L35.3078 2.7866C35.1945 2.61264 35.3587 2.39155 35.558 2.44983L35.9849 2.57466C36.3608 2.6846 36.766 2.62482 37.0942 2.41101L37.4668 2.16822Z" fill="white" stroke="white" stroke-width="0.671002"/>
</svg>
