<svg width="31" height="40" viewBox="0 0 31 40" fill="none" xmlns="http://www.w3.org/2000/svg">
  <path d="M19.4716 22.8348C19.8319 24.2617 11.8644 24.6323 11.4976 23.2396C10.8793 20.8927 12.6933 19.5005 13.9788 19.115C15.6477 18.9847 16.9815 18.8882 17.8986 19.4271C18.6519 19.8711 19.3842 22.0733 19.2594 21.524" fill="#FFA6C2"/>
  <path d="M12.5171 19.1465C12.5508 20.1415 12.3762 22.1318 12.0617 22.1318C11.7472 22.1318 11.7002 20.0052 11.8512 18.9861L12.5171 19.1465Z" fill="#79205A"/>
  <path d="M19.6685 22.7577C19.7194 23.3127 19.2277 24.0146 18.2548 24.3094C16.3291 24.6814 12.0728 24.7506 11.2828 24.1774C10.8044 23.9033 10.7343 23.1692 10.7383 22.6539C10.7106 21.3245 11.4321 20.4378 11.9514 19.9287C12.417 19.4722 12.8533 19.2528 12.9759 19.2037C13.3634 19.036 13.6084 18.9349 15.8882 18.7167C18.0669 18.3281 19.4313 19.891 19.5776 21.9362C19.5973 22.1571 19.285 22.2103 19.2336 21.9976C19.111 21.4822 18.8186 20.8959 18.5853 20.4378C18.0111 19.6888 17.383 19.4853 16.4617 19.5508C15.9793 19.5917 14.3609 19.3119 13.9141 19.496L13.5176 19.6127C12.8201 19.94 12.2455 20.2883 11.8402 21.1676C11.5369 21.8256 11.2839 22.0899 11.537 23.2388C11.8403 23.9644 15.9002 23.903 16.3629 23.9644C17.1458 24.0175 19.1466 23.8212 19.2336 22.8231C19.2059 22.545 19.6092 22.4877 19.6646 22.7577H19.6685Z" fill="#79205A"/>
  <path d="M18.9155 3.13704C18.8902 3.11542 18.883 3.07937 18.9047 3.05414C19.1425 2.71175 19.5967 2.69733 19.9715 2.70454C20.0292 2.70454 20.0832 2.69733 20.1301 2.6757C20.5157 2.51712 20.5446 2.19995 21.0275 2.11705C21.6222 2.01974 22.1232 2.19274 22.5413 2.64327C22.5629 2.66849 22.5953 2.67931 22.6278 2.68291C22.9558 2.69012 23.3666 2.51712 23.6261 2.75139C23.9974 3.09019 24.2965 3.48304 24.5236 3.92996C24.538 3.95519 24.5596 3.98042 24.5813 3.99484C25.0498 4.3048 25.5436 4.85624 25.4859 5.41489C25.4607 5.65637 25.3057 5.94471 25.2624 6.23304C25.2516 6.31594 25.2552 6.4529 25.2841 6.64392C25.3814 7.37197 24.4839 8.83167 23.8136 9.1993C23.7631 9.22813 18.9227 3.13704 18.9227 3.13704H18.9155Z" fill="#3F486F"/>
  <path d="M18.8933 2.95639C18.8826 2.86669 18.9436 2.77698 18.9866 2.72674C19.2522 2.37867 19.812 2.32843 20.178 2.33561C20.3466 2.29614 20.422 2.18131 20.5619 2.05213C21.1971 1.43494 22.3238 1.65383 22.8943 2.27102L22.9266 2.30332C22.9123 2.28896 22.8979 2.2782 22.8836 2.26743C22.7652 2.23155 22.8513 2.25308 22.8872 2.24231C23.2065 2.21002 23.5079 2.10955 23.8417 2.27102C24.0247 2.37867 24.0749 2.45403 24.1646 2.53297C24.4481 2.79851 24.8643 3.35111 24.9505 3.58435C25.4564 3.88936 26.1633 4.6788 25.966 5.45029C25.9085 5.70147 25.8081 5.89524 25.7722 6.12131C25.7794 6.41914 25.8404 6.7385 25.7507 7.03274C25.4887 7.9083 25.0079 8.66185 24.3046 9.22522C24.2687 9.24675 24.1897 9.29699 24.1538 9.3221C24.0139 9.40822 23.7842 9.35081 23.6981 9.22881C22.0906 7.28393 20.3717 4.99457 18.8933 2.95998V2.95639ZM19.2845 2.95639C20.8598 4.76133 22.5786 6.85692 24.118 8.68697L24.1682 8.74438L24.1897 8.76591L24.2005 8.77668C24.1395 8.69414 23.9242 8.65467 23.8201 8.73362C23.8345 8.71926 23.8883 8.69056 23.9098 8.67261C24.5019 8.16307 25.0725 7.29828 25.0904 6.51244C25.0689 6.31867 25.0473 6.10695 25.0976 5.90959C25.2196 5.43952 25.4672 5.09863 25.1191 4.65727C24.9074 4.32714 24.6167 4.21231 24.423 3.97907C24.2184 3.56641 23.9062 3.1071 23.5654 2.81645C23.3824 2.71598 22.8872 2.91692 22.618 2.78057C22.5463 2.74468 22.4924 2.6765 22.4386 2.61909C22.0726 2.23155 21.3442 2.02343 20.8992 2.4002C20.7306 2.56168 20.4758 2.78057 20.2103 2.78415C19.8407 2.78415 19.5249 2.74109 19.2809 3.00663C19.2809 3.00663 19.2558 3.04251 19.2809 2.99945C19.2881 2.9851 19.2916 2.97075 19.2916 2.95281L19.2845 2.95639Z" fill="#510E3C"/>
  <path d="M17.8795 17.1832C17.6298 17.2931 17.3602 17.3863 17.0639 17.4662C15.852 17.7925 13.2819 17.5461 12.3031 17.3597C6.53033 16.2544 10.1025 9.95225 10.1025 9.95225C10.1125 9.93227 11.2744 7.43538 11.2744 7.43538C11.2744 7.43206 11.2811 7.42873 11.2844 7.43206C11.2844 7.43206 11.2877 7.43538 11.2877 7.43871C14.587 4.5623 19.4609 8.31096 20.0501 10.3051C20.2233 10.3984 21.5716 14.8095 18.602 16.7904" fill="#F3EDE1"/>
  <path d="M18.0317 17.3635C16.1898 18.1542 14.1399 17.8686 12.2162 17.6143C7.82994 16.8689 8.01754 12.745 9.71612 9.46394C9.65472 9.56495 10.9031 6.82379 10.886 6.8412C10.9542 6.70188 11.0907 6.61829 11.251 6.63919C11.4147 6.64615 11.5784 6.86907 11.5511 7.02232C11.5511 7.02232 10.9815 6.73323 10.9883 6.72974C12.4516 5.38529 14.672 5.30866 16.3945 6.10976C18.0726 6.88997 19.7268 8.11252 20.4056 9.92719L20.2964 9.78787C20.3476 9.81922 20.3919 9.86798 20.4192 9.92371C20.5591 10.2128 20.6205 10.5228 20.6887 10.8293C21.1423 12.9888 20.7467 15.6394 18.7889 16.9038C18.7206 16.949 18.6251 16.9316 18.5808 16.8585C18.5365 16.7888 18.5535 16.6948 18.6217 16.646C19.6177 15.9633 20.2214 14.8383 20.3851 13.6366C20.542 12.4907 20.4431 11.2717 20.044 10.1815C20.0338 10.1606 20.0304 10.1501 20.0236 10.1397C20.0372 10.1606 20.0577 10.1815 20.0816 10.1884L19.9724 10.0491C19.3209 8.43644 17.7145 7.30445 16.183 6.63919C14.614 5.96347 12.721 6.03313 11.4386 7.24872C11.4386 7.2522 10.8758 6.95614 10.8724 6.95963C10.8315 7.30445 11.3158 7.46815 11.4863 7.16861C11.5784 6.97704 10.2618 9.8018 10.2823 9.76C9.46713 11.3727 8.74404 13.3963 9.43984 15.1622C10.2482 16.9908 12.397 17.2277 14.1911 17.3809C15.4429 17.4785 16.7185 17.5203 17.8884 17.0117C18.1272 16.8968 18.2841 17.266 18.0385 17.3635H18.0317Z" fill="#79205A"/>
  <path d="M7.77332 8.31634C7.61125 8.37712 7.47349 8.3366 7.35599 8.19479C6.90625 7.6397 6.83332 7.1697 6.86168 6.39988C6.88194 5.92988 6.86168 5.45988 6.81306 4.98988C6.78875 4.75893 6.84547 4.47126 6.99134 4.13092C7.23444 3.54747 7.54642 3.70549 8.02857 3.55558C8.06504 3.54342 8.08935 3.51506 8.09745 3.47454C8.14202 3.16661 8.12987 2.86273 8.29599 2.59937C8.94021 1.5905 9.90452 1.89437 10.9053 1.76472C11.2537 1.72015 11.6184 1.64317 11.9547 1.71205C12.6192 1.84575 13.1499 2.1942 13.547 2.76144C13.5713 2.79791 13.5632 2.85058 13.5267 2.87894C13.5267 2.87894 7.80573 8.30418 7.77332 8.31634Z" fill="#3F486F"/>
  <path d="M7.74192 7.69931C7.47639 7.82849 7.17138 7.63472 7.03502 7.39789C6.42501 6.63716 6.70131 5.63602 6.56495 4.77123C6.48242 4.2258 6.62954 3.46507 7.14626 3.16724C7.44409 3.03806 7.61633 3.06318 7.76346 3.00935L7.79216 3.00218C7.79575 3.00218 7.82804 2.98782 7.7814 3.00935C7.72039 3.03806 7.67733 3.0883 7.6558 3.15289C7.64504 3.20312 7.65222 3.17442 7.65222 3.16724C7.66657 3.03088 7.67016 2.91606 7.69169 2.76176C7.75628 2.27015 8.1187 1.85391 8.55289 1.63143C9.20597 1.32642 9.75857 1.4556 10.3722 1.36948C11.3913 1.10753 12.5108 1.52019 13.0814 2.42445C13.207 2.61464 13.128 2.86941 12.9486 2.99859C12.3924 3.51172 11.8255 4.05356 11.2513 4.5631C10.4583 5.27718 9.02655 6.57616 8.22635 7.25794C8.16176 7.31177 7.96081 7.4876 7.89622 7.54142C7.84957 7.58089 7.78499 7.63831 7.73116 7.66701L7.74551 7.7029L7.74192 7.69931ZM7.61633 7.36559C7.60916 7.34406 7.6558 7.30818 7.66657 7.29383L7.76704 7.18976L7.96799 6.98164C9.40333 5.5176 11.0827 3.83467 12.5646 2.42445C12.4534 2.50699 12.4247 2.66487 12.4965 2.77611C12.5108 2.79764 12.4893 2.76893 12.4893 2.76535C12.1556 2.29886 11.5886 1.96156 11.0037 2.00462C10.3542 2.14097 9.42485 2.01179 8.84713 2.23786C8.6103 2.35627 8.37706 2.59311 8.334 2.86223C8.31247 2.96629 8.30171 3.12418 8.28018 3.24618C8.28018 3.35383 8.17253 3.53325 8.04693 3.5799C7.95364 3.61578 7.98593 3.60143 7.92493 3.61937C7.69886 3.67678 7.4728 3.68037 7.41539 3.71625C7.2575 3.78443 7.10679 4.27604 7.1032 4.45904C7.1032 4.57387 7.13191 4.87888 7.13191 5.01523C7.16779 5.80467 6.91302 6.71252 7.50868 7.31536C7.57327 7.36559 7.59839 7.28665 7.61633 7.36201V7.36559Z" fill="#510E3C"/>
  <path d="M7.8382 9.09003C8.01798 8.55357 8.12451 8.03872 8.27432 7.50946C8.33758 7.28984 8.42747 7.08462 8.54399 6.88659C9.06334 6.0153 9.59934 5.23042 10.152 4.52114C10.4216 4.17911 10.7512 3.85147 11.1441 3.54184C11.3505 3.37982 11.6501 3.1962 12.0463 2.99818C12.8153 2.60934 13.5677 2.46532 14.3967 2.49053C14.5498 2.49413 14.6997 2.47972 14.8461 2.44012C15.5852 2.2493 16.2677 2.18809 17.0168 2.35011C17.9955 2.55893 18.9577 3.00178 19.8166 3.54544C20.0363 3.68585 20.276 3.87667 20.5324 4.1251C20.8919 4.46714 22.4433 6.28173 22.8994 8.06392C23.3722 9.91092 22.7962 12.5896 22.7962 12.5896C22.8395 12.0964 19.8033 9.81371 19.7733 9.30965C19.7334 8.53917 19.3772 10.7786 19.3239 11.9127C19.2739 11.9991 19.194 12.0135 19.0842 11.9487C18.738 11.7507 18.4683 11.5743 18.1354 11.3943C17.9523 11.2935 17.7858 11.1314 17.636 10.9082C17.4629 10.6454 17.12 10.9694 16.9502 11.0198C16.7737 11.0702 16.4774 11.0774 16.0646 11.0378C15.5319 10.9874 14.8694 11.0162 14.0738 11.1206C13.581 11.2251 13.1549 9.16564 12.9518 8.90641C12.8653 8.7948 12.2061 9.49327 12.4857 10.9622C11.7733 9.80651 11.8832 9.02522 11.8266 7.8911C11.8366 7.42665 11.3904 7.20703 11.2573 7.45546L10.7978 8.22954L7.83154 9.09363L7.8382 9.09003Z" fill="#3F486F"/>
  <path d="M10.6373 9.09752C10.5707 9.33056 10.4908 9.55362 10.3976 9.77001C10.1079 10.4492 9.8649 11.1183 9.49536 11.7775C9.52199 10.9552 9.60522 10.1595 9.74505 9.39381C9.74838 9.36718 9.76503 9.35386 9.79166 9.35386C10.028 9.33722 10.2478 9.25732 10.4508 9.12082C10.5141 9.07754 10.5674 9.08753 10.6373 9.09752Z" fill="#3F486F"/>
  <path d="M18.5063 10.3378C18.564 10.1421 18.2892 9.88854 17.8924 9.77152C17.4956 9.65451 17.1271 9.71835 17.0694 9.9141C17.0116 10.1099 17.2865 10.3634 17.6833 10.4804C18.0801 10.5974 18.4486 10.5336 18.5063 10.3378Z" fill="#510E3C"/>
  <path d="M11.0544 10.8908C11.4499 10.7693 11.7219 10.5126 11.6619 10.3175C11.602 10.1224 11.2328 10.0628 10.8374 10.1843C10.4419 10.3058 10.1699 10.5624 10.2299 10.7575C10.2898 10.9526 10.659 11.0123 11.0544 10.8908Z" fill="#510E3C"/>
  <path d="M10.4813 13.9873C10.6711 14.2769 10.984 14.4168 11.4201 14.4101C11.3902 14.4334 11.3735 14.4567 11.3669 14.48C11.3602 14.5067 11.3669 14.53 11.3935 14.5466C11.5932 14.6798 11.7064 14.7763 11.7331 14.8429C12.036 15.542 11.8529 16.4842 11.3935 16.6473C10.9341 16.8105 9.922 15.9748 9.66232 15.6253C9.54913 15.4721 9.50918 15.3256 9.53914 15.1925C9.61238 14.8529 9.7056 14.5233 9.81546 14.197C9.79549 14.3535 9.85541 14.4334 9.99524 14.4401C10.0219 14.4401 10.0418 14.4334 10.0618 14.4134L10.4846 13.9906L10.4813 13.9873Z" fill="#FED7CC"/>
  <path d="M17.0071 14.4973C17.2069 14.5605 17.41 14.5572 17.613 14.4873C17.6264 14.5106 17.6297 14.5406 17.6297 14.5705C17.6297 14.5938 17.643 14.6171 17.6663 14.6238C18.0358 14.727 18.3088 14.9501 18.482 15.2863C18.5119 15.3462 18.7017 16.0054 18.4254 16.4349C18.149 16.8643 17.1137 17.2272 16.7508 17.0574C15.8353 16.6313 15.7687 15.4494 16.5277 14.8469C16.6709 14.7337 16.8806 14.7203 17.0071 14.4973Z" fill="#FED7CC"/>
  <path d="M10.4976 17.9465C9.57512 17.6717 8.16433 16.963 8.14262 17.0136C8.13901 17.0281 7.98708 17.4475 8.24753 18.4202C6.38818 17.556 6.20369 13.9112 6.19646 13.9148C6.19646 13.9148 5.97941 14.1064 5.62129 15.4226C4.66267 12.642 6.74269 2.75987 14.701 2.48145C8.47904 7.93055 7.37573 15.6938 10.4976 17.9465Z" fill="#FCB7E1"/>
  <path d="M15.4594 2.79085C23.2315 2.16768 26.9083 12.419 23.8502 17.4699C23.886 17.3023 23.9611 16.2637 23.5534 15.8482C22.7164 17.51 21.225 18.2644 20.8315 18.2498C21.7543 16.9962 21.7364 14.9955 21.7364 14.9955C21.7364 14.9955 20.9424 16.6901 19.5654 16.8759C24.3724 7.8673 15.4558 2.79085 15.4558 2.79085H15.4594Z" fill="#B081F2"/>
  <path d="M16.1325 10.7947C16.4016 10.8055 16.7856 10.8234 17.0224 10.7517C17.1265 10.7086 17.2736 10.5866 17.514 10.5328C17.6324 10.5005 17.8477 10.5328 17.959 10.662C18.0236 10.7337 18.0272 10.7445 18.0559 10.7768C18.1635 10.9096 18.3035 11.0316 18.447 11.0997C18.6659 11.211 19.1072 11.4371 19.3261 11.5519C19.3656 11.5734 19.4984 11.6416 19.5199 11.6524C19.5307 11.6559 19.5199 11.6452 19.4733 11.6524C19.3548 11.6739 19.3656 11.7708 19.3369 11.8497C19.3513 11.394 19.3405 10.9275 19.3441 10.4538C19.3692 9.96225 19.2938 9.44194 19.5199 8.97904C19.5737 8.88933 19.6921 8.78527 19.8285 8.7781C20.0905 8.77092 20.155 8.87857 20.2663 8.99698C21.3894 10.5794 21.4074 12.7217 20.9732 14.541C20.7364 15.4847 20.3488 16.3818 19.8787 17.2215L19.5343 16.7155C20.4206 16.5827 21.0737 15.7933 21.4755 15.0433C21.6191 14.7455 22.0963 14.8747 22.0748 15.1976C22.0174 16.389 21.777 17.5767 21.0557 18.5635L20.8548 18.1437C20.9122 18.1437 21.0701 18.1042 21.1921 18.0504C22.1502 17.6449 22.9181 16.8626 23.4348 15.9655C23.5281 15.7897 23.8044 15.9368 23.7147 16.1127C23.2302 17.1282 22.4157 18.0181 21.3894 18.5168C21.228 18.585 21.088 18.6532 20.8332 18.6676C20.6287 18.6819 20.4959 18.4343 20.6179 18.2728C21.228 17.408 21.4253 16.2526 21.4325 15.2048L22.0425 15.3412C21.7949 15.8364 21.4899 16.2454 21.0988 16.6294C20.7974 16.9452 19.4338 17.8458 19.2328 17.1138C19.2185 17.0313 19.2364 16.9523 19.2759 16.8877C20.1299 15.3089 20.6718 13.5039 20.4923 11.7062C20.4062 10.8916 20.2053 10.0663 19.7209 9.39888C19.7316 9.39888 19.7496 9.44553 19.8967 9.44194C19.972 9.43476 20.0438 9.38452 20.0689 9.34146C20.0797 9.32352 20.0689 9.33788 20.0689 9.34505C20.0582 9.37017 20.0474 9.41682 20.0402 9.46347C19.8967 10.296 20.0259 11.1643 19.8823 12.004C19.8393 12.0901 19.7316 12.1942 19.5917 12.2229C19.4625 12.248 19.3692 12.2157 19.3046 12.1906C19.1934 12.1404 19.1539 12.1081 19.0606 12.0614C18.5726 11.7636 17.9159 11.5124 17.6037 11.0065C17.5284 11.0065 17.3274 11.1177 17.1803 11.1787C16.9471 11.2469 16.7892 11.2325 16.6098 11.2325C16.3801 11.1859 15.9316 11.3007 15.928 10.9706C15.9387 10.8665 16.032 10.7912 16.1361 10.7983L16.1325 10.7947Z" fill="#510E3C"/>
  <path d="M7.1616 17.4414C7.46661 17.872 7.87568 18.3851 8.32422 18.6291L8.0228 18.8839C7.92592 18.5646 7.59579 17.2189 8.12687 17.1795C8.18069 17.1795 8.22734 17.1902 8.2704 17.2046C9.04189 17.4952 9.78827 17.8505 10.5526 18.0765L10.2906 18.604C7.02883 16.0168 8.68306 10.4441 10.5239 7.43712C10.6315 7.2577 10.7822 7.01728 11.0155 6.99575C11.5788 6.94193 11.8803 7.412 11.8803 7.86772C11.9018 8.28038 11.891 8.95858 11.97 9.39994C12.0417 9.88078 12.2355 10.3293 12.5082 10.7563L11.97 10.9824C11.8193 10.1678 11.9233 9.12723 12.6733 8.59615C12.7271 8.56745 12.8025 8.53874 12.8778 8.54233C13.1182 8.54592 13.2008 8.83657 13.2295 9.02675C13.3694 9.63677 13.2761 10.559 13.9077 10.8676C14.2306 10.9393 14.6325 10.925 14.977 10.907C15.0631 10.9035 15.1385 10.968 15.1457 11.0542C15.1492 11.1367 15.0882 11.2085 15.0093 11.2228C14.7545 11.2551 14.4926 11.2802 14.2306 11.2802C12.9747 11.3879 12.9101 9.85207 12.6948 8.98369C12.6948 8.97293 12.6876 8.97293 12.6876 8.96934C12.6876 8.96575 12.6876 8.96934 12.6876 8.97293L12.7163 9.00522C12.7953 9.06264 12.8563 9.0734 12.9245 9.05187C12.8886 9.0734 12.8061 9.16311 12.7558 9.24564C12.458 9.7193 12.4293 10.3078 12.5549 10.864C12.5908 11.0219 12.4903 11.1833 12.3324 11.2192C12.2068 11.2479 12.0812 11.1905 12.0166 11.09C11.3133 10.2001 11.2272 8.92269 11.22 7.85696C11.22 7.79237 11.2021 7.73854 11.1698 7.70625C11.1447 7.66319 11.0801 7.66677 11.1411 7.66677C11.1554 7.66677 11.1805 7.65601 11.2021 7.63807C9.61603 10.2576 7.7465 15.6436 10.6459 18.1232C10.7822 18.2165 10.8145 18.4103 10.7176 18.543C10.6387 18.6471 10.5059 18.6866 10.3875 18.6507C9.58014 18.3959 8.84453 18.0084 8.10175 17.6854C8.15198 17.6926 8.2381 17.689 8.30628 17.628C8.35652 17.5885 8.38164 17.5096 8.37446 17.5311C8.27758 17.9222 8.3637 18.3672 8.4534 18.7799C8.3924 19.7343 6.98577 17.9438 6.84224 17.6675C6.7023 17.4486 7.02525 17.2405 7.17237 17.4522L7.1616 17.4414Z" fill="#510E3C"/>
  <path d="M17.182 2.09451C23.6194 2.37799 27.093 12.7411 24.0752 17.7612C24.007 17.8796 23.8527 17.9155 23.7415 17.8437C23.5082 17.6858 23.7307 17.4311 23.6876 17.205C23.7163 16.9897 23.4508 16.6775 23.7235 16.5591C23.8204 16.5232 23.9245 16.5663 23.9675 16.656C24.129 16.9861 24.1864 17.3378 24.1039 17.7002L23.6661 17.5064C25.6756 13.6454 24.0249 7.6995 21.0071 4.76782C19.9163 3.68056 18.5419 3.15307 17.0851 2.57535C16.8303 2.48564 16.9128 2.08016 17.182 2.09092V2.09451Z" fill="#79205A"/>
  <path d="M6.38166 16.6533C6.11612 15.9285 5.95823 15.1678 5.87211 14.4034C5.87211 14.3747 5.87211 14.4573 5.908 14.5183C5.9367 14.59 6.05512 14.6833 6.15918 14.6869C6.3063 14.6905 6.32783 14.6582 6.41395 14.6044C6.44625 14.5757 6.43907 14.5829 6.43548 14.5865C6.22018 15.0135 6.10894 15.4871 5.98335 15.95C5.9367 16.1474 5.73576 16.2694 5.5384 16.2191C5.40922 16.1868 5.31592 16.09 5.28004 15.9751C5.00374 15.0996 4.98938 14.2599 5.00374 13.4167C5.17598 10.0939 6.39601 6.59522 9.08726 4.49246C9.76187 4.05468 10.3001 3.31189 11.0393 2.95306C11.7785 2.56193 12.6254 2.24975 13.483 2.21028C13.8705 2.16722 14.3191 2.24616 14.6779 2.19592C15.0654 2.11698 15.4996 2.05598 15.9195 2.05598C16.0307 2.05598 16.1168 2.14569 16.1168 2.25334C16.1168 2.3574 16.0379 2.43993 15.941 2.45069C15.3633 2.49017 14.703 2.78441 14.1217 2.74853C13.1457 2.77723 12.2378 3.07506 11.3946 3.58102C10.7774 3.90397 10.4078 4.54987 9.82287 4.95176C7.86005 6.43016 6.75126 8.75899 6.1843 11.1201C5.86135 12.5913 5.6317 14.2779 5.97976 15.7311L5.27286 15.7562C5.39128 15.3579 5.51687 14.956 5.6927 14.5721C5.78599 14.3963 5.86853 14.1702 6.05153 14.0626C6.17712 13.9836 6.43548 14.0626 6.4929 14.2133C6.54313 14.3317 6.52519 14.3317 6.53237 14.3999C6.57184 15.1068 6.6759 15.8172 6.85532 16.5026C6.93785 16.8005 6.4929 16.944 6.38525 16.6533H6.38166Z" fill="#79205A"/>
  <path d="M12.134 15.0962C11.718 15.1046 11.4227 14.9367 11.2386 14.5925C10.8099 13.8061 10.9623 12.9553 11.464 12.334C11.8006 11.9142 12.1244 11.8191 12.4832 12.2697C12.6801 12.5159 12.8008 12.737 12.8516 12.9301C12.9405 13.2771 12.9881 13.5906 12.9944 13.8676C12.9976 14.0663 12.9214 14.2511 12.8389 14.4721C12.7023 14.8472 12.4674 15.0543 12.134 15.0934V15.0962Z" fill="#3C190A"/>
  <path d="M16.9272 15.0962C16.5112 15.1045 16.216 14.9366 16.0318 14.5924C15.6032 13.806 15.7556 12.9552 16.2572 12.3339C16.5938 11.9142 16.9177 11.819 17.2765 12.2696C17.4733 12.5159 17.594 12.7369 17.6448 12.93C17.7337 13.2771 17.7813 13.5905 17.7877 13.8676C17.7908 14.0663 17.7146 14.251 17.6321 14.4721C17.4955 14.8471 17.2606 15.0542 16.9272 15.0934V15.0962Z" fill="#3C190A"/>
  <path d="M17.8522 6.67944C17.6622 6.28299 17.3194 6.05172 17.0717 6.15084C17.0675 5.70483 16.8445 5.34554 16.572 5.34554C16.2994 5.34554 16.0723 5.71309 16.0723 6.16323C16.0723 6.61337 16.2953 6.98091 16.572 6.98091C16.6752 6.98091 16.7743 6.92722 16.8569 6.83637C16.8776 6.92722 16.9065 7.01808 16.9478 7.10893C17.1419 7.51777 17.5011 7.75317 17.7531 7.6334C18.005 7.51364 18.0504 7.08828 17.8563 6.67944H17.8522Z" fill="#C3CBE2"/>
  <path d="M15.0579 18.8121C14.5385 18.549 14.0491 17.9132 14.0425 17.6335C14.0425 17.6335 16.0333 17.7267 16.8223 17.5137C16.8223 17.5137 15.6638 18.599 15.3941 18.7888C15.3342 18.8287 15.2743 18.8487 15.2077 18.8487L15.0579 18.8121Z" fill="#F3EDE1" stroke="#79205A" stroke-width="0.332918"/>
  <path d="M16.1286 19.7316C15.819 19.7316 15.2963 19.402 15.2763 19.1257C15.2663 18.9892 15.2597 18.8427 15.2563 18.6929C15.2563 18.623 15.2863 18.563 15.3462 18.5231C15.4994 18.4232 15.6425 18.3666 15.7824 18.31C15.8756 18.2734 15.9621 18.2401 16.0487 18.1935C16.082 18.1769 16.1119 18.1702 16.1452 18.1702L16.2152 18.1835C16.3084 18.2168 16.375 18.2867 16.4082 18.3766C16.4648 18.5331 16.4082 18.7328 16.335 18.866C16.335 18.8826 16.345 18.9093 16.3583 18.9259C16.4449 19.0691 16.568 19.4453 16.3716 19.6417C16.3283 19.685 16.2551 19.7349 16.1286 19.7349V19.7316Z" fill="#FF578B"/>
  <path d="M16.1274 19.8075C15.7346 19.7776 15.3284 19.5778 15.1753 19.1983C15.152 19.1217 15.1586 19.0052 15.1487 18.9319C15.1487 18.8121 15.1054 18.6589 15.1653 18.5458C15.3118 18.3194 15.5748 18.2761 15.7879 18.1629C15.9144 18.1229 15.981 18.053 16.1441 18.043C16.5935 18.073 16.6368 18.6223 16.4337 18.9186L16.447 18.8487C16.6435 19.2316 16.6435 19.7709 16.1274 19.8075ZM16.1274 19.6743C16.4071 19.6577 16.4204 19.3514 16.3405 19.145C16.3072 19.0418 16.2406 18.9619 16.2173 18.852C16.3405 18.6423 16.3638 18.2994 16.1241 18.2961H16.1474C16.1174 18.2961 15.941 18.3893 15.8944 18.4059C15.7479 18.4692 15.4716 18.5657 15.3917 18.6556C15.3717 18.7189 15.3917 18.9919 15.3917 19.0784C15.3917 19.2249 15.4882 19.3081 15.5948 19.408C15.7679 19.5645 15.9543 19.6144 16.1308 19.671L16.1274 19.6743Z" fill="#79205A"/>
  <path d="M14.1034 19.6214C14.0535 19.6214 14.0036 19.6148 13.9536 19.6014C13.8038 19.5582 13.7572 19.455 13.7406 19.3984C13.6973 19.2219 13.8371 19.0355 13.9137 18.9489L13.8205 18.7858C13.7938 18.7392 13.7872 18.6826 13.8005 18.6293C13.8604 18.383 14.0202 18.2498 14.2533 18.2498C14.2999 18.2498 14.3498 18.2565 14.3997 18.2664C14.5262 18.2931 14.6694 18.383 14.8392 18.5394C14.8925 18.5894 14.9124 18.6593 14.8958 18.7292C14.8825 18.7925 14.8658 18.8557 14.8525 18.9156C14.8458 18.9456 14.8425 18.9722 14.8392 19.0022C14.8259 19.1121 14.8092 19.2652 14.6295 19.385C14.6061 19.4017 14.5828 19.4183 14.5595 19.4317C14.433 19.5215 14.2865 19.6214 14.0968 19.6214H14.1034Z" fill="#FF578B"/>
  <path d="M14.1035 19.6982C13.5775 19.7049 13.5243 19.2088 13.8339 18.8759L13.8206 19.0057L13.714 18.8293C13.6042 18.5663 13.774 18.29 14.017 18.1701C14.1834 18.1002 14.3432 18.1168 14.503 18.1601C14.6595 18.2167 14.7727 18.3099 14.8792 18.4032C14.9192 18.4364 15.0191 18.5297 15.0291 18.6395C15.039 18.766 15.0024 18.816 14.9924 18.8826C14.9492 19.0956 14.9125 19.3486 14.6995 19.4618L14.5264 19.5684C14.4065 19.6383 14.2567 19.6982 14.1069 19.6849V19.6982H14.1035ZM14.1035 19.565C14.28 19.5551 14.4465 19.4086 14.5863 19.302C14.7494 19.1955 14.7161 18.9924 14.7561 18.826C14.786 18.6528 14.816 18.6795 14.7128 18.5929C14.4897 18.3732 14.0569 18.2533 13.9371 18.6229C13.8871 18.7228 13.9637 18.7827 14.017 18.8992L14.0569 18.9724L14.0037 19.029C13.7806 19.2521 13.7473 19.5284 14.1069 19.5551V19.5684L14.1035 19.565Z" fill="#79205A"/>
  <path d="M14.948 19.318C14.8115 19.3147 14.705 19.1982 14.7083 19.065L14.7183 18.7687C14.7216 18.6355 14.8315 18.529 14.9647 18.529L15.1345 18.5357C15.271 18.539 15.3775 18.6555 15.3708 18.7887L15.3608 19.0883C15.3575 19.2215 15.2477 19.328 15.1145 19.328L14.9447 19.3214L14.948 19.318Z" fill="#FF578B"/>
  <path d="M14.9454 19.3948C14.7357 19.4048 14.5826 19.1917 14.6059 18.9887V18.8355C14.5692 18.6091 14.759 18.3861 14.9854 18.4027H15.1419C15.3449 18.4094 15.5114 18.5925 15.4981 18.7922C15.4948 18.8921 15.4848 19.0053 15.4715 19.1052C15.4615 19.2151 15.3916 19.3183 15.2983 19.3682C15.1652 19.4581 14.9787 19.3549 14.9454 19.3948ZM14.9488 19.2617C15.1918 19.2583 15.275 19.2051 15.2517 19.0153C15.2417 18.9287 15.2584 18.8322 15.2417 18.7456C15.2251 18.699 15.1752 18.6657 15.1285 18.6657C15.0786 18.6657 14.9421 18.6424 14.8988 18.6724C14.8056 18.719 14.8323 18.8755 14.8156 18.992C14.8156 19.022 14.8023 19.0852 14.8089 19.1152C14.8189 19.1784 14.8755 19.2384 14.9488 19.245V19.2583V19.2617Z" fill="#79205A"/>
  <path d="M14.5 34.5H14.51V36.28C14.51 36.8 14.3567 37.2233 14.05 37.55C13.7433 37.8767 13.33 38.04 12.81 38.04H12.36C12.18 38.04 12.03 37.99 11.91 37.89C11.7967 37.7967 11.74 37.6633 11.74 37.49C11.74 37.3233 11.7967 37.19 11.91 37.09C12.03 36.9967 12.18 36.95 12.36 36.95H12.69C12.8767 36.95 13.0333 36.88 13.16 36.74C13.2867 36.6 13.35 36.44 13.35 36.26V35.94H11.12V37.42C11.12 37.5867 11.0667 37.7233 10.96 37.83C10.8533 37.9367 10.7167 37.99 10.55 37.99C10.3833 37.99 10.2433 37.9333 10.13 37.82C10.0233 37.7133 9.97 37.5767 9.97 37.41V35.94H7.71C7.59 36.6867 7.35667 37.3133 7.01 37.82C6.76333 38.14 6.47 38.1933 6.13 37.98C5.83 37.7267 5.78667 37.43 6 37.09C6.26 36.7167 6.44 36.2833 6.54 35.79C6.64 35.2967 6.69 34.5967 6.69 33.69V31.89C6.69 31.73 6.74 31.6 6.84 31.5C6.94667 31.3933 7.08 31.34 7.24 31.34H10.84L11.58 30.57H7.65C7.44333 30.61 7.27 30.55 7.13 30.39C6.93 30.11 6.96667 29.83 7.24 29.55C7.42667 29.3833 7.60333 29.2033 7.77 29.01C8.02333 28.7567 8.29 28.73 8.57 28.93C8.77 29.1233 8.80667 29.3533 8.68 29.62H12.51C12.8033 29.6333 12.9933 29.7533 13.08 29.98C13.16 30.2267 13.1067 30.4567 12.92 30.67L12.26 31.34H13.95C14.11 31.34 14.24 31.3933 14.34 31.5C14.4467 31.6 14.5 31.73 14.5 31.89V34.5ZM13.35 35.01V34.13H11.12V35.01H13.35ZM13.35 33.19V32.3H11.12V33.19H13.35ZM9.97 35.01V34.13H7.84C7.83333 34.43 7.82333 34.7233 7.81 35.01H9.97ZM9.97 33.19V32.3H7.84V33.19H9.97ZM23.56 35.14H17.83V36.33C17.83 36.4567 17.8733 36.5633 17.96 36.65C18.0467 36.7367 18.1533 36.78 18.28 36.78H23.3C23.4867 36.78 23.64 36.72 23.76 36.6C23.88 36.48 23.94 36.3267 23.94 36.14V35.68C23.94 35.5133 23.9967 35.3733 24.11 35.26C24.2233 35.1467 24.36 35.09 24.52 35.09C24.68 35.09 24.8167 35.1467 24.93 35.26C25.0433 35.3733 25.1 35.5133 25.1 35.68V36.17C25.1 36.63 24.95 37.0167 24.65 37.33C24.3367 37.6567 23.9367 37.82 23.45 37.82H17.8C17.5 37.82 17.2367 37.7067 17.01 37.48C16.7833 37.2533 16.67 36.99 16.67 36.69V32.27C16.67 32.11 16.72 31.98 16.82 31.88C16.9267 31.7733 17.06 31.72 17.22 31.72H20.4L21.45 30.79H17.65C17.3633 30.7767 17.1733 30.6533 17.08 30.42C16.9733 30.1867 17.04 29.96 17.28 29.74C17.54 29.5133 17.7733 29.2933 17.98 29.08C18.2333 28.84 18.5 28.8167 18.78 29.01C19.0133 29.2367 19.0267 29.4933 18.82 29.78H22.56C22.9133 29.8067 23.12 29.9767 23.18 30.29C23.2133 30.55 23.1367 30.7567 22.95 30.91L21.94 31.72H23.69C23.85 31.72 23.98 31.7733 24.08 31.88C24.1867 31.98 24.24 32.11 24.24 32.27V34.58C24.24 34.7467 24.1867 34.8833 24.08 34.99C23.9733 35.0967 23.8367 35.15 23.67 35.15C23.6167 35.15 23.58 35.1467 23.56 35.14ZM23.1 34.1V32.75H21.03V34.1H23.1ZM19.9 34.1V32.75H17.82V33.91H17.83V34.1H19.9Z" fill="#222222"/>
</svg>
