<svg width="14" height="14" viewBox="0 0 14 14" fill="none" xmlns="http://www.w3.org/2000/svg">
<g id="icon_&#229;&#133;&#179;&#233;&#151;&#173;">
<path id="Union" fill-rule="evenodd" clip-rule="evenodd" d="M2.55022 2.55006C2.93668 2.1636 3.56326 2.1636 3.94972 2.55006L11.4497 10.0501C11.8362 10.4365 11.8362 11.0631 11.4497 11.4496C11.0633 11.836 10.4367 11.836 10.0502 11.4496L7.00016 8.3995L3.94973 11.4499C3.56327 11.8364 2.93669 11.8364 2.55023 11.4499C2.16377 11.0635 2.16377 10.4369 2.55023 10.0504L5.60067 7L2.55022 3.94956C2.16376 3.5631 2.16376 2.93652 2.55022 2.55006ZM11.4498 2.55039C11.8362 2.93685 11.8362 3.56342 11.4498 3.94988L9.61175 5.78792C9.22529 6.17438 8.59871 6.17438 8.21225 5.78792C7.82579 5.40146 7.82579 4.77488 8.21225 4.38842L10.0503 2.55039C10.4367 2.16393 11.0633 2.16393 11.4498 2.55039Z" fill="black" fill-opacity="0.2"/>
</g>
</svg>
