<svg width="97" height="47" viewBox="0 0 97 47" fill="none" xmlns="http://www.w3.org/2000/svg">
<path d="M5.53 11.3641C6.47026 10.4058 7.75637 9.86597 9.09889 9.86597L80.5 9.86602L85.2245 3.20721C86.4874 1.42715 88.9442 0.988128 90.7455 2.2206L93.6914 4.23621C95.5175 5.48564 95.9823 7.98025 94.7288 9.80355L91.5 14.5L95.7645 17.6014C96.5407 18.1659 97 19.0678 97 20.0276V39.4289C97 40.755 96.4732 42.0267 95.5355 42.9644L92.9645 45.5355C92.0268 46.4732 90.755 46.9999 89.4289 46.9999H5C2.23858 46.9999 0 44.7614 0 41.9999V19.0433C0 17.7336 0.513858 16.4762 1.43111 15.5414L5.53 11.3641Z" fill="white"/>
<path d="M3 37.5V44H90L94 40.5V19.5L92 18M3 33V18.5L7.5 13.5H76" stroke="black" stroke-width="2.8" stroke-linejoin="bevel"/>
<path d="M87.4038 16.3633L93.3099 7.51799L87.8688 3.80322L80.8913 13.0773L79.9806 20.2375L83.5235 19.2664" stroke="black" stroke-width="2.25" stroke-linecap="square" stroke-linejoin="bevel"/>
<path d="M85.4056 7.28796L89.795 10.4711" stroke="black" stroke-width="2.25" stroke-linecap="square" stroke-linejoin="bevel"/>
</svg>
