<svg width="26" height="16" viewBox="0 0 26 16" fill="none" xmlns="http://www.w3.org/2000/svg">
<rect width="26" height="16" rx="8" fill="#FF599F"/>
<path d="M5.095 4.285H7.917V4.982C7.662 5.696 7.373 6.4525 7.0415 7.2515C7.5685 8.042 7.849 8.722 7.8915 9.3C7.8915 9.708 7.8065 10.0055 7.6365 10.1755C7.3815 10.3965 6.931 10.5155 6.302 10.524L6.013 9.623C6.2 9.657 6.3615 9.674 6.489 9.674C6.693 9.657 6.829 9.6315 6.897 9.5805C6.965 9.5295 6.999 9.436 6.999 9.3C6.999 8.7305 6.71 8.093 6.1405 7.3875C6.5145 6.546 6.812 5.7895 7.0245 5.118H5.962V11.8925H5.095V4.285ZM9.0305 6.6225V7.328H11.181V6.6225H9.0305ZM11.181 5.8235V5.1095H9.0305V5.8235H11.181ZM9.753 8.1355H9.0305V10.6855C9.464 10.5495 9.889 10.388 10.314 10.184L10.5265 11.0085C9.8975 11.272 9.107 11.527 8.155 11.765L7.9425 10.983C8.0785 10.9405 8.155 10.8555 8.155 10.7365V4.2765H12.048V8.1355H10.552C10.637 8.5435 10.773 8.9175 10.96 9.266C11.317 9.045 11.657 8.7475 11.98 8.3565L12.541 8.926C12.1925 9.334 11.8015 9.657 11.3765 9.895C11.725 10.337 12.1755 10.728 12.7365 11.051L12.2435 11.833C10.8665 10.9235 10.0335 9.691 9.753 8.1355ZM16.2215 4.5825V10.9915H15.3715V10.4815H14.445V11.1955H13.578V4.5825H16.2215ZM14.445 9.657H15.3715V7.8975H14.445V9.657ZM14.445 7.073H15.3715V5.39H14.445V7.073ZM17.522 7.158C18.032 7.957 18.4315 8.6455 18.7035 9.232L17.964 9.742C17.675 9.113 17.284 8.399 16.791 7.617L17.522 7.158ZM19.3495 11.799H17.828L17.6325 10.9405C18.1255 10.9745 18.593 10.9915 19.035 10.9915C19.222 10.9915 19.324 10.8895 19.324 10.6855V6.342H16.536V5.4835H19.324V4.0895H20.225V5.4835H21.143V6.342H20.225V10.9065C20.225 11.5015 19.9275 11.799 19.3495 11.799Z" fill="white"/>
</svg>
