<svg xmlns="http://www.w3.org/2000/svg" width="19" height="19" viewBox="0 0 19 19" fill="none">
  <path d="M17.4226 9.02537L15.0327 8.3233C12.8327 7.68176 11.2299 5.9629 10.7434 3.72354L10.2219 1.29051C10.1397 0.903163 9.49662 0.903163 9.36032 1.29051L8.49854 3.72354C7.69884 5.9629 5.85559 7.68176 3.5659 8.3233L1.07784 9.02537C0.880303 9.07379 0.73413 9.25536 0.719741 9.46114C0.705352 9.66692 0.826978 9.83638 1.01689 9.8969L3.40677 10.599C5.60673 11.2405 7.2096 12.9594 7.69612 15.1987L8.21763 17.6318C8.26476 17.8254 8.42533 17.9586 8.61947 17.9586C8.81362 17.9586 9.00495 17.8254 9.06702 17.6318L9.92881 15.1987C10.7285 12.9594 12.5718 11.2405 14.8614 10.599L17.3495 9.8969C17.547 9.84849 17.6932 9.66692 17.7076 9.46114C17.722 9.25536 17.6004 9.08589 17.4105 9.02537H17.4226Z" fill="#FF4493"/>
</svg>
