<svg xmlns="http://www.w3.org/2000/svg" width="20" height="21" viewBox="0 0 20 21" fill="none">
  <circle cx="10.1456" cy="10.8956" r="1.37194" fill="#5E5E5E" stroke="#5E5E5E" stroke-width="0.685972"/>
  <mask id="path-2-outside-1_642_6242" maskUnits="userSpaceOnUse" x="2.08203" y="2.7334" width="15" height="15" fill="black">
    <rect fill="white" x="2.08203" y="2.7334" width="15" height="15"/>
    <path d="M9.69336 8.19238L12.1533 5.73438L14.2744 7.85547L11.8154 10.3145L14.3057 12.8047L12.1846 14.9268L9.69336 12.4355L7.20312 14.9268L5.08203 12.8047L7.57227 10.3145L5.11328 7.85547L7.23438 5.7334L9.69336 8.19238Z"/>
  </mask>
  <path d="M9.69336 8.19238L12.1533 5.73438L14.2744 7.85547L11.8154 10.3145L14.3057 12.8047L12.1846 14.9268L9.69336 12.4355L7.20312 14.9268L5.08203 12.8047L7.57227 10.3145L5.11328 7.85547L7.23438 5.7334L9.69336 8.19238Z" fill="white"/>
  <path d="M9.69336 8.19238L7.92559 9.96015C8.90163 10.9362 10.484 10.9365 11.4604 9.96085L9.69336 8.19238ZM12.1533 5.73438L13.9211 3.96661C12.9451 2.99057 11.3627 2.99026 10.3863 3.96591L12.1533 5.73438ZM14.2744 7.85547L16.0422 9.62324C17.0185 8.64692 17.0185 7.06401 16.0422 6.0877L14.2744 7.85547ZM11.8154 10.3145L10.0477 8.54669C9.07135 9.523 9.07135 11.1059 10.0477 12.0822L11.8154 10.3145ZM14.3057 12.8047L16.0738 14.572C17.0498 13.5957 17.0496 12.0131 16.0734 11.0369L14.3057 12.8047ZM12.1846 14.9268L10.4168 16.6945C10.8857 17.1634 11.5217 17.4268 12.1849 17.4268C12.848 17.4267 13.4839 17.1631 13.9527 16.6941L12.1846 14.9268ZM9.69336 12.4355L11.4611 10.6678C10.9922 10.1989 10.3562 9.93548 9.69311 9.93555C9.02999 9.93561 8.39405 10.1991 7.92525 10.6681L9.69336 12.4355ZM7.20312 14.9268L5.43495 16.6941C5.90381 17.1632 6.53986 17.4267 7.20308 17.4268C7.86631 17.4268 8.50236 17.1632 8.97124 16.6942L7.20312 14.9268ZM5.08203 12.8047L3.31426 11.0369C2.33811 12.0131 2.33793 13.5957 3.31386 14.572L5.08203 12.8047ZM7.57227 10.3145L9.34003 12.0822C10.3163 11.1059 10.3163 9.523 9.34003 8.54669L7.57227 10.3145ZM5.11328 7.85547L3.34511 6.08811C2.36918 7.06449 2.36936 8.64708 3.34551 9.62324L5.11328 7.85547ZM7.23438 5.7334L9.00214 3.96563C8.53323 3.49672 7.89723 3.23332 7.23409 3.2334C6.57095 3.23347 5.935 3.49702 5.4662 3.96604L7.23438 5.7334ZM9.69336 8.19238L11.4604 9.96085L13.9204 7.50284L12.1533 5.73438L10.3863 3.96591L7.92629 6.42391L9.69336 8.19238ZM12.1533 5.73438L10.3856 7.50214L12.5066 9.62324L14.2744 7.85547L16.0422 6.0877L13.9211 3.96661L12.1533 5.73438ZM14.2744 7.85547L12.5066 6.0877L10.0477 8.54669L11.8154 10.3145L13.5832 12.0822L16.0422 9.62324L14.2744 7.85547ZM11.8154 10.3145L10.0477 12.0822L12.5379 14.5725L14.3057 12.8047L16.0734 11.0369L13.5832 8.54669L11.8154 10.3145ZM14.3057 12.8047L12.5375 11.0373L10.4164 13.1594L12.1846 14.9268L13.9527 16.6941L16.0738 14.572L14.3057 12.8047ZM12.1846 14.9268L13.9523 13.159L11.4611 10.6678L9.69336 12.4355L7.92559 14.2033L10.4168 16.6945L12.1846 14.9268ZM9.69336 12.4355L7.92525 10.6681L5.43501 13.1593L7.20312 14.9268L8.97124 16.6942L11.4615 14.203L9.69336 12.4355ZM7.20312 14.9268L8.9713 13.1594L6.85021 11.0373L5.08203 12.8047L3.31386 14.572L5.43495 16.6941L7.20312 14.9268ZM5.08203 12.8047L6.8498 14.5725L9.34003 12.0822L7.57227 10.3145L5.8045 8.54669L3.31426 11.0369L5.08203 12.8047ZM7.57227 10.3145L9.34003 8.54669L6.88105 6.0877L5.11328 7.85547L3.34551 9.62324L5.8045 12.0822L7.57227 10.3145ZM5.11328 7.85547L6.88146 9.62283L9.00255 7.50076L7.23438 5.7334L5.4662 3.96604L3.34511 6.08811L5.11328 7.85547ZM7.23438 5.7334L5.46661 7.50117L7.92559 9.96015L9.69336 8.19238L11.4611 6.42462L9.00214 3.96563L7.23438 5.7334Z" fill="#5E5E5E" mask="url(#path-2-outside-1_642_6242)"/>
</svg>
