<svg width="16" height="16" viewBox="0 0 16 16" fill="none" xmlns="http://www.w3.org/2000/svg">
<g id="&#230;&#141;&#143;&#229;&#174;&#157;">
<circle id="Ellipse 761" cx="8" cy="8" r="7.5" fill="#19ACFF" stroke="white"/>
<path id="&#232;&#183;&#175;&#229;&#190;&#132;" d="M7.99999 11.6107C8.23468 11.6107 8.42787 11.4376 8.46037 11.1924C8.78533 9.00974 9.08321 8.7059 11.1828 8.46723C11.4248 8.4378 11.6107 8.23524 11.6107 8C11.6107 7.76151 11.4284 7.56545 11.1846 7.52952C9.09946 7.23868 8.8413 6.98376 8.46037 4.80433C8.41884 4.56242 8.23288 4.38928 7.99999 4.38928C7.76168 4.38928 7.57211 4.56242 7.5324 4.80758C7.21465 6.98701 6.91678 7.29085 4.82076 7.52952C4.57162 7.5622 4.38928 7.75826 4.38928 8C4.38928 8.23524 4.5662 8.4313 4.81534 8.46723C6.90414 8.76457 7.15869 9.01624 7.5324 11.1957C7.58114 11.4408 7.7707 11.6107 7.99999 11.6107Z" fill="white"/>
</g>
</svg>
