<svg width="24" height="24" viewBox="0 0 24 24" fill="none" xmlns="http://www.w3.org/2000/svg">
  <path
    d="M14.3359 3.79883H13.1357C8.25473 3.79899 3.56962 7.51177 3.56934 12.1582C3.56956 16.905 7.28844 20.2001 12.0557 20.2002C14.8416 20.2002 17.3685 18.8116 18.9014 16.7266C17.3379 16.0645 15.8916 16.1864 14.75 16.5215C14.0586 16.7244 13.4855 17.0047 13.0869 17.2344C12.889 17.3485 12.7369 17.4486 12.6387 17.5166C12.5899 17.5504 12.554 17.5763 12.5332 17.5918C12.525 17.5979 12.5182 17.6018 12.5146 17.6045L11.5762 18.3516L10.082 16.4736L11.0215 15.7266L11.6729 16.5459C11.0674 15.7845 11.025 15.7298 11.0225 15.7256H11.0234C11.0241 15.7251 11.0255 15.7242 11.0264 15.7236C11.0279 15.7224 11.0294 15.7203 11.0312 15.7188C11.0356 15.7154 11.0416 15.7109 11.0479 15.7061C11.0607 15.6961 11.0787 15.6826 11.0996 15.667C11.1416 15.6357 11.1996 15.5934 11.2725 15.543C11.4187 15.4417 11.627 15.3061 11.8887 15.1553C12.4102 14.8547 13.1594 14.4863 14.0742 14.2178C15.6659 13.7507 17.7782 13.5842 20.0205 14.5957C20.3404 13.6635 20.4857 12.6622 20.4111 11.6289C20.2863 9.90126 19.7019 8.7143 18.8887 7.86914C18.0578 7.00582 16.9067 6.4163 15.5312 6.04199L14.374 5.72656L15.0039 3.41113L16.1621 3.72559C17.8079 4.17347 19.3954 4.93445 20.6182 6.20508C21.8585 7.4941 22.6436 9.22651 22.8047 11.4561C23.2465 17.5767 18.0253 22.6006 12.0557 22.6006C6.14067 22.6005 1.16918 18.4015 1.16895 12.1582C1.16922 5.81448 7.33448 1.3986 13.1357 1.39844H14.3359V3.79883Z"
    fill="#E5E5E5" />
  <path
    d="M11.587 9.14795L10.63 10.2007L11.0157 10.5552L11.6788 11.1636L10.4611 12.4907L9.79895 11.8813L9.42102 11.5347L9.07825 11.9146L8.47375 12.5815L7.14075 11.3726L7.74426 10.7056L8.09485 10.3179L7.71008 9.96436L7.047 9.35596L8.26575 8.02979L8.92786 8.63916L9.30383 8.98389L9.64758 8.60596L10.2521 7.93896L11.587 9.14795Z"
    fill="#E5E5E5" />
  <path
    d="M18.2142 9.14795L17.2572 10.2007L17.6429 10.5552L18.306 11.1636L17.0883 12.4907L16.4261 11.8813L16.0482 11.5347L15.7054 11.9146L15.101 12.5815L13.7679 11.3726L14.3715 10.7056L14.722 10.3179L14.3373 9.96436L13.6742 9.35596L14.8929 8.02979L15.5551 8.63916L15.931 8.98389L16.2748 8.60596L16.8793 7.93896L18.2142 9.14795Z"
    fill="#E5E5E5" />
</svg>
