<svg width="80" height="32" viewBox="0 0 80 32" fill="none" xmlns="http://www.w3.org/2000/svg">
  <circle cx="64" cy="16" r="15" fill="#EDEDED" stroke="white" stroke-width="2" />
  <circle cx="59.1852" cy="15.9999" r="1.55992" fill="#B5B5B5" />
  <circle cx="68.8147" cy="15.9999" r="1.55992" fill="#B5B5B5" />
  <circle cx="64" cy="15.9999" r="1.55992" fill="#B5B5B5" />
  <circle cx="40" cy="16" r="15" fill="#29B0FF" stroke="white" stroke-width="2" />
  <path
    d="M46.0182 20.7138C45.6886 20.754 44.7312 19.2033 44.7312 19.2033C44.7312 20.1004 44.2669 21.2728 43.2666 22.1212C43.751 22.2702 44.8401 22.6715 44.5822 23.1072C44.3729 23.4597 40.9821 23.3336 40.0019 23.2218C39.0216 23.3307 35.6308 23.4597 35.4216 23.1072C35.1607 22.6715 36.2499 22.2702 36.7343 22.1212C35.7311 21.2756 35.2696 20.1033 35.2696 19.2033C35.2696 19.2033 34.3123 20.754 33.9827 20.7138C33.8279 20.6938 33.6273 19.8654 34.2521 17.8561C34.5473 16.9103 34.8827 16.1221 35.4044 14.8236C35.3155 11.4729 36.7028 8.66113 40.0019 8.66113C43.2666 8.66113 44.6825 11.4156 44.5994 14.8236C45.1182 16.1192 45.4564 16.9103 45.7516 17.8561C46.3736 19.8654 46.1701 20.6966 46.0182 20.7138Z"
    fill="white" />
  <circle cx="16" cy="16" r="15" fill="#0BDA6E" stroke="white" stroke-width="2" />
  <path
    d="M19.1214 13.5188C19.3243 13.5188 19.5239 13.5343 19.7247 13.5563C19.1842 11.0394 16.4942 9.16992 13.4225 9.16992C9.98901 9.16992 7.17651 11.5093 7.17651 14.4817C7.17651 16.1968 8.11181 17.6052 9.67578 18.6993L9.05151 20.5776L11.2353 19.4835C12.0162 19.6368 12.6427 19.7957 13.4225 19.7957C13.6188 19.7957 13.8129 19.7868 14.0048 19.7725C13.8835 19.3545 13.8118 18.9177 13.8118 18.4622C13.8129 15.7335 16.1556 13.5188 19.1214 13.5188ZM15.764 11.8258C16.2361 11.8258 16.546 12.1357 16.546 12.6056C16.546 13.0732 16.2361 13.3865 15.764 13.3865C15.2975 13.3865 14.8276 13.0732 14.8276 12.6056C14.8276 12.1346 15.2964 11.8258 15.764 11.8258ZM11.3931 13.3865C10.9243 13.3865 10.4522 13.0732 10.4522 12.6056C10.4522 12.1357 10.9243 11.8258 11.3931 11.8258C11.8618 11.8258 12.1728 12.1346 12.1728 12.6056C12.1728 13.0732 11.8618 13.3865 11.3931 13.3865ZM24.8236 18.3872C24.8236 15.8901 22.3243 13.8552 19.5173 13.8552C16.5449 13.8552 14.2056 15.8912 14.2056 18.3872C14.2056 20.8909 16.546 22.9192 19.5173 22.9192C20.1394 22.9192 20.767 22.7637 21.3912 22.6071L23.1041 23.5468L22.6342 21.985C23.8883 21.0431 24.8236 19.7957 24.8236 18.3872ZM17.7945 17.6052C17.4846 17.6052 17.1703 17.2964 17.1703 16.981C17.1703 16.6699 17.4846 16.3567 17.7945 16.3567C18.2688 16.3567 18.5765 16.6699 18.5765 16.981C18.5765 17.2964 18.2688 17.6052 17.7945 17.6052ZM21.2302 17.6052C20.9225 17.6052 20.6092 17.2964 20.6092 16.981C20.6092 16.6699 20.9214 16.3567 21.2302 16.3567C21.7 16.3567 22.0122 16.6699 22.0122 16.981C22.0122 17.2964 21.7 17.6052 21.2302 17.6052Z"
    fill="white" />
</svg>
