<svg width="31" height="40" viewBox="0 0 31 40" fill="none" xmlns="http://www.w3.org/2000/svg">
  <path d="M14.7985 2.17705C15.2676 1.78676 15.9484 1.78676 16.4175 2.17705L19.7293 4.93263C19.8401 5.0248 19.9658 5.09737 20.101 5.14722L24.1433 6.6375C24.7158 6.84861 25.0562 7.43817 24.9527 8.0396L24.2222 12.2854C24.1978 12.4275 24.1978 12.5726 24.2222 12.7146L24.9527 16.9605C25.0562 17.5619 24.7158 18.1515 24.1433 18.3626L20.101 19.8529C19.9658 19.9027 19.8401 19.9753 19.7293 20.0675L16.4175 22.823C15.9484 23.2133 15.2676 23.2133 14.7985 22.823L11.4868 20.0675C11.376 19.9753 11.2503 19.9027 11.1151 19.8529L7.07279 18.3626C6.50024 18.1515 6.15984 17.5619 6.26331 16.9605L6.99382 12.7146C7.01825 12.5726 7.01825 12.4275 6.99382 12.2854L6.26331 8.0396C6.15984 7.43817 6.50024 6.84861 7.07279 6.6375L11.1151 5.14722C11.2503 5.09737 11.376 5.0248 11.4868 4.93263L14.7985 2.17705Z" fill="#FFECAA"/>
  <path d="M14.8817 5.33667C15.3024 4.98659 15.9131 4.98659 16.3338 5.33668L18.4868 7.12806C18.5862 7.21073 18.6989 7.27583 18.8202 7.3205L21.448 8.28935C21.9615 8.47866 22.2669 9.00753 22.1741 9.54694L21.6992 12.3071C21.6772 12.4345 21.6772 12.5647 21.6992 12.6921L22.1741 15.4523C22.2669 15.9917 21.9615 16.5205 21.448 16.7099L18.8202 17.6787C18.6989 17.7234 18.5862 17.7885 18.4868 17.8712L16.3338 19.6625C15.9131 20.0126 15.3024 20.0126 14.8817 19.6625L12.7287 17.8712C12.6294 17.7885 12.5166 17.7234 12.3954 17.6787L9.76752 16.7099C9.25396 16.5205 8.94863 15.9917 9.04144 15.4523L9.51633 12.6921C9.53825 12.5647 9.53825 12.4345 9.51633 12.3071L9.04144 9.54694C8.94863 9.00753 9.25396 8.47866 9.76752 8.28935L12.3954 7.3205C12.5166 7.27583 12.6294 7.21073 12.7287 7.12806L14.8817 5.33667Z" fill="#FECB48"/>
  <path d="M15.1361 8.11498C15.4016 7.90046 15.787 7.90046 16.0526 8.11499L17.4113 9.21267C17.474 9.26333 17.5451 9.30322 17.6217 9.33059L19.2801 9.92427C19.6042 10.0403 19.7969 10.3643 19.7383 10.6949L19.4386 12.3862C19.4248 12.4642 19.4248 12.544 19.4386 12.6221L19.7383 14.3134C19.7969 14.644 19.6042 14.968 19.2801 15.084L17.6217 15.6777C17.5451 15.7051 17.474 15.745 17.4113 15.7956L16.0526 16.8933C15.787 17.1078 15.4016 17.1078 15.1361 16.8933L13.7774 15.7956C13.7147 15.745 13.6435 15.7051 13.567 15.6777L11.9086 15.084C11.5845 14.968 11.3918 14.644 11.4504 14.3134L11.7501 12.6221C11.7639 12.544 11.7639 12.4642 11.7501 12.3862L11.4504 10.6949C11.3918 10.3643 11.5845 10.0403 11.9086 9.92427L13.567 9.33059C13.6435 9.30322 13.7147 9.26333 13.7774 9.21267L15.1361 8.11498Z" fill="#FFFED8"/>
  <path d="M19.8274 4.91836C19.9504 5.00958 20.113 5.05718 20.2597 5.09684L20.7991 5.26739L21.8819 5.60849L24.0317 6.33432C24.7734 6.5485 25.3088 7.36952 25.1898 8.14295L25.0986 8.72203L24.7218 10.959L24.5195 12.0735C24.468 12.3036 24.4402 12.5019 24.4997 12.7518C24.6861 13.9298 24.8725 15.2109 25.0312 16.4008L25.0708 16.6824C25.1978 17.4082 24.7456 18.1777 24.0436 18.3958C23.5954 18.5386 23.1353 18.6814 22.6792 18.8083C22.5641 18.84 22.4412 18.7726 22.4095 18.6576C22.3777 18.5505 22.4333 18.4434 22.5285 18.3958C22.8735 18.2371 23.2186 18.0864 23.5676 17.9397C24.0753 17.781 24.4521 17.3606 24.3252 16.8093C24.0396 15.4211 23.7342 13.9932 23.5002 12.5971C23.4605 12.1648 23.6866 11.2327 23.7382 10.7924L24.1308 8.55941C24.1586 8.34523 24.2974 7.89307 24.2022 7.67889C24.1229 7.45678 23.9761 7.2783 23.7144 7.17914L21.6083 6.33432C21.1204 6.12014 20.224 5.76714 19.7521 5.5371C19.5418 5.42604 19.2404 5.196 19.4546 4.94612C19.5498 4.843 19.7084 4.8311 19.8195 4.91439L19.8274 4.91836Z" fill="#79205A"/>
  <path d="M20.1051 19.8197C19.8512 19.9109 19.4467 20.3512 19.2127 20.5376C18.7407 20.9422 17.8086 21.7632 17.3366 22.1677L16.8686 22.5763C16.3252 23.1633 15.3614 23.314 14.699 22.8142L13.7114 22.021L11.7838 20.4543C11.6688 20.367 11.4268 20.1568 11.3277 20.0894C11.2285 20.0101 10.9787 19.9466 10.8636 19.899C10.1219 19.6293 8.12689 18.9035 7.3614 18.6219C6.53244 18.3958 5.96526 17.4994 6.13978 16.6586L6.6554 13.5966C6.70696 13.3229 6.82595 12.6764 6.84975 12.4543C6.85768 12.3671 6.80215 12.1211 6.77439 11.9228C6.70696 11.5143 6.34206 9.31301 6.2667 8.86085L6.16358 8.25004C5.98906 7.42506 6.54434 6.53264 7.3614 6.31053C8.58698 5.83854 10.2013 5.34672 11.3554 4.87077C12.232 4.1846 13.8582 2.844 14.7387 2.16576C15.3574 1.68584 16.3093 1.85639 16.7932 2.39977C17.0867 2.65362 17.8879 3.36358 18.1894 3.63329C18.3956 3.82367 18.1299 4.13701 17.9078 3.97042L16.9281 3.20493C16.6861 3.03438 16.2538 2.61395 16 2.53066C15.7025 2.4196 15.3574 2.4791 15.1155 2.67345C14.5443 3.17717 12.9102 4.57726 12.3074 5.09685C12.1289 5.23963 12.002 5.37449 11.8036 5.51727C11.6252 5.6442 11.3594 5.74732 11.1532 5.82268C10.0307 6.25897 8.79323 6.73492 7.67473 7.15535C7.26621 7.26641 6.97667 7.6551 7.07582 8.08743C7.22258 8.90448 7.58351 10.9392 7.73026 11.7562C7.75803 11.9665 7.81752 12.1291 7.82942 12.4543C7.79372 12.9541 7.7025 13.315 7.63507 13.7632C7.55971 14.2034 7.16705 16.4285 7.09962 16.8212C7.0084 17.2416 7.29794 17.6184 7.69457 17.7176C8.63061 18.0666 10.5662 18.7845 11.4784 19.1296C11.8235 19.2525 12.0971 19.5381 12.3589 19.7523L14.2469 21.3666L15.175 22.1558C15.4487 22.374 15.873 22.378 16.1586 22.1717C16.2935 22.0765 16.7258 21.7196 16.8726 21.6085C17.3525 21.2198 18.3321 20.4503 18.816 20.0616C19.1532 19.8237 19.4903 19.4548 19.9107 19.308C20.236 19.197 20.4263 19.6848 20.0971 19.8197H20.1051Z" fill="#79205A"/>
  <path d="M8.37 36.13V37.57C8.37 37.7367 8.32 37.87 8.22 37.97C8.12 38.07 7.98667 38.12 7.82 38.12C7.66 38.12 7.52667 38.0667 7.42 37.96C7.32 37.86 7.27 37.73 7.27 37.57V29.45C7.27 29.29 7.32 29.16 7.42 29.06C7.52667 28.9533 7.66 28.9 7.82 28.9C7.98 28.9 8.11 28.9533 8.21 29.06C8.31667 29.16 8.37 29.29 8.37 29.45V30.46H9.53C9.67667 30.46 9.8 30.51 9.9 30.61C10 30.71 10.05 30.8333 10.05 30.98C10.05 31.12 10 31.24 9.9 31.34C9.8 31.44 9.68 31.49 9.54 31.49H8.37V32.76H9.41C9.55 32.76 9.67 32.81 9.77 32.91C9.87 33.01 9.92 33.1333 9.92 33.28C9.92 33.42 9.87333 33.5367 9.78 33.63C9.68667 33.7233 9.56667 33.77 9.42 33.77H8.37V35.1H9.65C9.79667 35.1 9.92 35.15 10.02 35.25C10.12 35.35 10.17 35.4733 10.17 35.62C10.17 35.76 10.12 35.88 10.02 35.98C9.92 36.08 9.8 36.13 9.66 36.13H8.37ZM5.24 36.13H4.01C3.87 36.13 3.75 36.08 3.65 35.98C3.55 35.88 3.5 35.76 3.5 35.62C3.5 35.4733 3.55 35.35 3.65 35.25C3.75 35.15 3.87333 35.1 4.02 35.1H5.24V33.77H4.45C4.31 33.77 4.19 33.7233 4.09 33.63C3.99667 33.53 3.95 33.41 3.95 33.27C3.95 33.13 4 33.01 4.1 32.91C4.2 32.81 4.32 32.76 4.46 32.76H5.24V31.49H4.37C4.23 31.49 4.11 31.44 4.01 31.34C3.91 31.24 3.86 31.12 3.86 30.98C3.86 30.8333 3.91 30.71 4.01 30.61C4.11 30.51 4.23333 30.46 4.38 30.46H5.24V29.45C5.24 29.29 5.29 29.16 5.39 29.06C5.49667 28.9533 5.63 28.9 5.79 28.9C5.95 28.9 6.08 28.9533 6.18 29.06C6.28667 29.16 6.34 29.29 6.34 29.45V37.57C6.34 37.7367 6.29 37.87 6.19 37.97C6.09 38.07 5.95667 38.12 5.79 38.12C5.63 38.12 5.49667 38.0667 5.39 37.96C5.29 37.86 5.24 37.73 5.24 37.57V36.13ZM3.01 34.36V36.59C3.01 37.05 2.87333 37.4167 2.6 37.69C2.32667 37.9633 1.96 38.1 1.5 38.1H1.41C1.25 38.1 1.12 38.05 1.02 37.95C0.92 37.85 0.87 37.72 0.87 37.56C0.87 37.4 0.92 37.2667 1.02 37.16C1.12667 37.06 1.26 37.01 1.42 37.01H1.51C1.77 37.0033 1.90667 36.8633 1.92 36.59V34.66C1.82667 34.6933 1.73 34.7233 1.63 34.75C1.25667 34.85 1.01 34.72 0.89 34.36C0.85 34.1867 0.866667 34.0333 0.94 33.9C1.02 33.76 1.15 33.6667 1.33 33.62C1.53 33.5733 1.72667 33.5267 1.92 33.48V31.7H1.41C1.26333 31.7 1.14 31.65 1.04 31.55C0.94 31.45 0.89 31.3267 0.89 31.18C0.89 31.0267 0.94 30.9 1.04 30.8C1.14 30.7 1.26667 30.65 1.42 30.65H1.92V29.47C1.92 29.31 1.97 29.18 2.07 29.08C2.17667 28.9733 2.31 28.92 2.47 28.92C2.63 28.92 2.76 28.97 2.86 29.07C2.96 29.17 3.01 29.3 3.01 29.46V30.65H3.22C3.37333 30.65 3.5 30.7 3.6 30.8C3.7 30.9 3.75 31.0267 3.75 31.18C3.75 31.3267 3.7 31.45 3.6 31.55C3.5 31.65 3.37667 31.7 3.23 31.7H3.01V33.23C3.03667 33.2233 3.06 33.2167 3.08 33.21C3.42 33.15 3.64333 33.28 3.75 33.6C3.79 33.7467 3.77333 33.8833 3.7 34.01C3.63333 34.13 3.53 34.21 3.39 34.25C3.26333 34.29 3.13667 34.3267 3.01 34.36ZM11.92 31.94C11.64 32.16 11.3633 32.1433 11.09 31.89C10.8633 31.5833 10.8867 31.2967 11.16 31.03C11.8733 30.41 12.45 29.8233 12.89 29.27C13.1433 28.99 13.4267 28.9567 13.74 29.17C14.0067 29.4233 14.0367 29.7 13.83 30C13.21 30.72 12.5733 31.3667 11.92 31.94ZM15.38 30.69C15.22 30.69 15.0867 30.6367 14.98 30.53C14.8733 30.4233 14.82 30.29 14.82 30.13C14.82 29.97 14.8733 29.8367 14.98 29.73C15.0867 29.6233 15.22 29.57 15.38 29.57H19.19C19.35 29.57 19.4833 29.6233 19.59 29.73C19.6967 29.8367 19.75 29.97 19.75 30.13C19.75 30.29 19.6967 30.4233 19.59 30.53C19.4833 30.6367 19.35 30.69 19.19 30.69H15.38ZM18.63 33.32V36.3C18.63 36.7867 18.4767 37.1933 18.17 37.52C17.85 37.86 17.4367 38.03 16.93 38.03H15.85C15.69 38.03 15.5567 37.9767 15.45 37.87C15.3433 37.7633 15.29 37.6333 15.29 37.48C15.29 37.3267 15.3433 37.1967 15.45 37.09C15.5567 36.9833 15.69 36.93 15.85 36.93H16.78C16.9667 36.93 17.1233 36.87 17.25 36.75C17.3833 36.6233 17.45 36.47 17.45 36.29V33.32H14.99C14.83 33.32 14.6967 33.2667 14.59 33.16C14.4833 33.0533 14.43 32.92 14.43 32.76C14.43 32.5933 14.4833 32.4567 14.59 32.35C14.6967 32.2433 14.8333 32.19 15 32.19H19.57C19.7367 32.19 19.8733 32.2433 19.98 32.35C20.0867 32.4567 20.14 32.5933 20.14 32.76C20.14 32.92 20.0867 33.0533 19.98 33.16C19.8733 33.2667 19.74 33.32 19.58 33.32H18.63ZM12.76 33.89C12.9067 33.9033 13.0267 33.9633 13.12 34.07C13.2133 34.1767 13.26 34.3067 13.26 34.46V37.54C13.26 37.7067 13.2067 37.8433 13.1 37.95C12.9933 38.0567 12.8567 38.11 12.69 38.11C12.5233 38.11 12.3867 38.0567 12.28 37.95C12.1733 37.8433 12.12 37.7067 12.12 37.54V34.54C12.0533 34.6067 11.94 34.7133 11.78 34.86C11.6667 34.9667 11.5333 35.0167 11.38 35.01C11.2267 35.0033 11.1 34.9433 11 34.83C10.7867 34.5633 10.7967 34.3033 11.03 34.05C11.8167 33.3167 12.4933 32.53 13.06 31.69C13.28 31.41 13.5467 31.36 13.86 31.54C14.1533 31.76 14.2033 32.0267 14.01 32.34C13.6367 32.8667 13.22 33.3833 12.76 33.89ZM28.75 31.69H29.45C29.61 31.69 29.74 31.7433 29.84 31.85C29.9467 31.95 30 32.08 30 32.24V32.76C30 32.9 29.95 33.02 29.85 33.12C29.75 33.22 29.63 33.27 29.49 33.27C29.35 33.27 29.23 33.22 29.13 33.12C29.03 33.02 28.98 32.9 28.98 32.76V32.6H24.94V32.78C24.94 32.92 24.8933 33.0367 24.8 33.13C24.7067 33.2233 24.5867 33.27 24.44 33.27C24.3 33.27 24.1833 33.2233 24.09 33.13C23.9967 33.0367 23.95 32.9167 23.95 32.77V32.24C23.95 32.08 24 31.95 24.1 31.85C24.2067 31.7433 24.34 31.69 24.5 31.69H25.35L25.23 31.48C25.11 31.1867 25.1933 30.9667 25.48 30.82C25.7733 30.7133 25.9967 30.7967 26.15 31.07L26.45 31.69H27.63C27.6633 31.6233 27.7667 31.41 27.94 31.05C28 30.9233 28.0933 30.84 28.22 30.8C28.3533 30.7533 28.4867 30.76 28.62 30.82C28.9133 30.98 28.9933 31.2067 28.86 31.5L28.75 31.69ZM27.61 29.79H29.46C29.5933 29.79 29.7033 29.8333 29.79 29.92C29.8767 30.0067 29.92 30.1167 29.92 30.25C29.92 30.3767 29.8767 30.4833 29.79 30.57C29.7033 30.6567 29.5967 30.7 29.47 30.7H24.5C24.3733 30.7 24.2667 30.6567 24.18 30.57C24.0933 30.4833 24.05 30.3767 24.05 30.25C24.05 30.1167 24.0933 30.0067 24.18 29.92C24.2667 29.8333 24.3767 29.79 24.51 29.79H26.44V29.47C26.44 29.31 26.4967 29.1767 26.61 29.07C26.73 28.9567 26.8733 28.9 27.04 28.9C27.2067 28.9 27.3433 28.9533 27.45 29.06C27.5567 29.1667 27.61 29.3033 27.61 29.47V29.79ZM27.58 33.59H29.71C29.8433 33.59 29.9533 33.6333 30.04 33.72C30.1267 33.8067 30.17 33.9167 30.17 34.05C30.17 34.1833 30.1267 34.2933 30.04 34.38C29.9533 34.4667 29.8433 34.51 29.71 34.51H26.15C26.15 34.6833 26.1367 34.9033 26.11 35.17H28.98C29.1333 35.17 29.2567 35.2233 29.35 35.33C29.45 35.43 29.5 35.56 29.5 35.72L29.49 36.61C29.4833 37.03 29.3367 37.3667 29.05 37.62C28.77 37.88 28.42 38.01 28 38.01H26.75C26.61 38.01 26.4933 37.9633 26.4 37.87C26.3067 37.7767 26.2633 37.66 26.27 37.52C26.2767 37.3867 26.3267 37.2767 26.42 37.19C26.5133 37.1033 26.63 37.06 26.77 37.06H27.77C27.95 37.06 28.0933 37.0133 28.2 36.92C28.3133 36.82 28.37 36.6933 28.37 36.54V36.07H25.94C25.8333 36.4433 25.6633 36.78 25.43 37.08C25.21 37.3667 24.8933 37.6733 24.48 38C24.1867 38.1867 23.93 38.1433 23.71 37.87C23.53 37.5633 23.5767 37.3 23.85 37.08C24.31 36.7333 24.62 36.39 24.78 36.05C24.94 35.7033 25.03 35.19 25.05 34.51H24.32C24.1867 34.51 24.0767 34.4667 23.99 34.38C23.9033 34.2933 23.86 34.1833 23.86 34.05C23.86 33.9167 23.9033 33.8067 23.99 33.72C24.0767 33.6333 24.1867 33.59 24.32 33.59H26.43V33.3C26.43 33.1467 26.4833 33.0167 26.59 32.91C26.7033 32.7967 26.84 32.74 27 32.74C27.16 32.74 27.2967 32.7933 27.41 32.9C27.5233 33.0067 27.58 33.14 27.58 33.3V33.59ZM23.02 33.54V37.6C23.02 37.7533 22.9733 37.8767 22.88 37.97C22.7867 38.0633 22.66 38.11 22.5 38.11C22.3467 38.11 22.22 38.06 22.12 37.96C22.0267 37.8667 21.98 37.7467 21.98 37.6V33.73C21.82 34.2967 21.68 34.6967 21.56 34.93C21.4133 35.1633 21.1967 35.2233 20.91 35.11C20.6367 34.9367 20.5667 34.71 20.7 34.43C21.1733 33.61 21.55 32.7133 21.83 31.74H21.44C21.2933 31.74 21.17 31.69 21.07 31.59C20.97 31.49 20.92 31.37 20.92 31.23C20.92 31.0833 20.97 30.96 21.07 30.86C21.17 30.76 21.2967 30.71 21.45 30.71H21.98V29.4C21.98 29.2533 22.0267 29.1333 22.12 29.04C22.22 28.94 22.3467 28.89 22.5 28.89C22.66 28.89 22.7867 28.9367 22.88 29.03C22.9733 29.1233 23.02 29.2467 23.02 29.4V30.71H23.44C23.5933 30.71 23.72 30.76 23.82 30.86C23.92 30.96 23.97 31.0833 23.97 31.23C23.97 31.37 23.92 31.49 23.82 31.59C23.72 31.69 23.5967 31.74 23.45 31.74H23.02V32.36C23.2 32.48 23.4367 32.64 23.73 32.84C23.9767 33.0533 24.01 33.2933 23.83 33.56C23.6167 33.7933 23.38 33.8133 23.12 33.62C23.08 33.5933 23.0467 33.5667 23.02 33.54Z" fill="#222222"/>
</svg>
