<svg xmlns="http://www.w3.org/2000/svg" width="14" height="14" viewBox="0 0 14 14" fill="none">
  <g clip-path="url(#clip0_25635_15330)">
    <path d="M5.47659 3.03871C5.79104 2.18893 6.99294 2.18893 7.30739 3.03871L7.71765 4.14743C8.04752 5.0389 8.75039 5.74177 9.64186 6.07164L10.7506 6.4819C11.6004 6.79635 11.6004 7.99825 10.7506 8.3127L9.64186 8.72296C8.75039 9.05283 8.04752 9.7557 7.71765 10.6472L7.30739 11.7559C6.99294 12.6057 5.79104 12.6057 5.47659 11.7559L5.06633 10.6472C4.73645 9.7557 4.03359 9.05283 3.14212 8.72296L2.0334 8.3127C1.18362 7.99825 1.18362 6.79635 2.0334 6.4819L3.14212 6.07164C4.03359 5.74177 4.73645 5.0389 5.06633 4.14743L5.47659 3.03871Z" fill="#00FFFF"/>
    <path d="M11.319 0.680761C11.443 0.345755 11.9168 0.345755 12.0407 0.680762L12.2025 1.11785C12.3325 1.46929 12.6096 1.74639 12.9611 1.87643L13.3982 2.03817C13.7332 2.16213 13.7332 2.63596 13.3982 2.75992L12.9611 2.92166C12.6096 3.05171 12.3325 3.3288 12.2025 3.68024L12.0407 4.11733C11.9168 4.45234 11.443 4.45234 11.319 4.11733L11.1573 3.68024C11.0272 3.3288 10.7501 3.05171 10.3987 2.92166L9.96158 2.75992C9.62658 2.63596 9.62658 2.16213 9.96158 2.03817L10.3987 1.87643C10.7501 1.74639 11.0272 1.46929 11.1573 1.11785L11.319 0.680761Z" fill="#00FFFF"/>
  </g>
  <defs>
    <clipPath id="clip0_25635_15330">
      <rect width="14" height="14" fill="white"/>
    </clipPath>
  </defs>
</svg>