<svg xmlns="http://www.w3.org/2000/svg" width="24" height="24" viewBox="0 0 24 24" fill="none">
  <g clip-path="url(#clip0_2577_1328)">
    <path d="M12 22.0007C17.5229 22.0007 22 17.5236 22 12.0007C22 6.47788 17.5229 2.00073 12 2.00073C6.47715 2.00073 2 6.47788 2 12.0007C2 17.5236 6.47715 22.0007 12 22.0007Z" stroke="white" stroke-width="2.18182"/>
    <path fill-rule="evenodd" clip-rule="evenodd" d="M7.79933 9.53444C8.50235 9.53444 9.07228 8.96451 9.07228 8.26148C9.07228 7.55845 8.50235 6.98853 7.79933 6.98853C7.0963 6.98853 6.52637 7.55845 6.52637 8.26148C6.52637 8.96451 7.0963 9.53444 7.79933 9.53444Z" fill="white"/>
    <path fill-rule="evenodd" clip-rule="evenodd" d="M7.79933 13.2695C8.50235 13.2695 9.07228 12.6996 9.07228 11.9966C9.07228 11.2936 8.50235 10.7236 7.79933 10.7236C7.0963 10.7236 6.52637 11.2936 6.52637 11.9966C6.52637 12.6996 7.0963 13.2695 7.79933 13.2695Z" fill="white"/>
    <path fill-rule="evenodd" clip-rule="evenodd" d="M11.9995 9.53444C12.7026 9.53444 13.2725 8.96451 13.2725 8.26148C13.2725 7.55845 12.7026 6.98853 11.9995 6.98853C11.2965 6.98853 10.7266 7.55845 10.7266 8.26148C10.7266 8.96451 11.2965 9.53444 11.9995 9.53444Z" fill="white"/>
    <path fill-rule="evenodd" clip-rule="evenodd" d="M11.9995 13.2695C12.7026 13.2695 13.2725 12.6996 13.2725 11.9966C13.2725 11.2936 12.7026 10.7236 11.9995 10.7236C11.2965 10.7236 10.7266 11.2936 10.7266 11.9966C10.7266 12.6996 11.2965 13.2695 11.9995 13.2695Z" fill="white"/>
    <path fill-rule="evenodd" clip-rule="evenodd" d="M16.2007 9.53444C16.9037 9.53444 17.4737 8.96451 17.4737 8.26148C17.4737 7.55845 16.9037 6.98853 16.2007 6.98853C15.4977 6.98853 14.9277 7.55845 14.9277 8.26148C14.9277 8.96451 15.4977 9.53444 16.2007 9.53444Z" fill="white"/>
    <path fill-rule="evenodd" clip-rule="evenodd" d="M16.2007 13.2695C16.9037 13.2695 17.4737 12.6996 17.4737 11.9966C17.4737 11.2936 16.9037 10.7236 16.2007 10.7236C15.4977 10.7236 14.9277 11.2936 14.9277 11.9966C14.9277 12.6996 15.4977 13.2695 16.2007 13.2695Z" fill="white"/>
    <path d="M10.7266 16.5H13.2725" stroke="white" stroke-width="2.18182" stroke-linecap="round"/>
  </g>
  <defs>
    <clipPath id="clip0_2577_1328">
      <rect width="24" height="24" fill="white"/>
    </clipPath>
  </defs>
</svg>