<svg width="36" height="36" viewBox="0 0 36 36" fill="none" xmlns="http://www.w3.org/2000/svg">
<g clip-path="url(#clip0_35101_6008)">
<path d="M6.08883 15.6212C6.22457 17.1295 6.68753 18.813 6.68753 18.813C6.91307 19.8535 7.09536 21.3371 7.09536 23.4518C7.09536 26.0952 9.21036 30.4466 9.84988 30.3613C10.4894 30.2761 9.84988 28.9118 10.3615 28.8265C10.8731 28.7412 10.9584 30.1055 11.6405 29.6017C12.3227 29.0979 11.0749 26.8888 10.8191 24.6292C10.6145 22.8215 10.4515 19.915 10.5368 18.5791C10.9915 18.0959 12.1654 16.7117 13.2228 15.0404C14.2801 13.3692 15.454 10.2227 15.9088 8.85838C15.923 9.31316 15.9429 10.6746 15.9088 12.4823C15.8747 14.2901 15.7838 15.3817 16.169 16.477C16.9004 16.3318 17.436 14.5871 17.436 14.5871L17.6074 16.2029C18.5747 16.075 20.3172 15.8046 20.7265 15.6212C21.2381 15.392 21.3456 14.1824 21.3456 12.6788C21.6805 13.913 21.6632 14.9254 22.3329 15.4572C23.044 14.6238 23.0555 13.6318 22.9783 12.4823C22.8581 10.6941 22.3751 8.59516 22.0908 7.19562C22.6735 8.36118 24.035 10.9821 24.8195 12.1413C25.6039 13.3004 27.4935 14.557 28.3402 15.0404C28.5025 15.9784 28.8186 18.6388 28.7845 21.7767C28.7419 25.6991 28.0267 28.5478 28.3402 28.8265C28.591 29.0494 29.0137 28.2575 29.1936 27.8337C29.1389 28.4764 29.1587 29.7779 29.6759 29.8426C30.3223 29.9234 31.3323 27.2569 31.4939 23.1359C31.6555 19.015 31.3727 15.9041 31.0091 12.8336C30.6455 9.76312 28.2618 6.53098 26.6458 5.15734C25.0297 3.78369 23.2805 2.46485 20.5643 2.46486C18.7211 2.46487 17.7302 3.00526 17.1074 3.45324C16.124 3.28935 13.957 3.3922 12.114 4.43662C9.78748 5.75505 8.42478 7.69494 7.13194 10.0786C6.09766 11.9856 5.95309 14.1129 6.08883 15.6212Z" fill="#3D2142" stroke="white" stroke-width="1.84901"/>
<ellipse cx="31.4252" cy="15.775" rx="1.81581" ry="2.43074" fill="#3D2142" stroke="white" stroke-width="1.84901"/>
<ellipse cx="31.4252" cy="15.775" rx="1.81581" ry="2.43074" fill="#FFEAE0" stroke="black" stroke-width="0.832056"/>
<ellipse cx="6.92616" cy="19.503" rx="1.81581" ry="2.43074" fill="#3D2142" stroke="white" stroke-width="1.84901"/>
<ellipse cx="6.92616" cy="19.503" rx="1.81581" ry="2.43074" fill="#FFEAE0" stroke="black" stroke-width="0.832056"/>
<path d="M22.499 25.9326C22.7017 25.9408 22.8805 26.0821 22.9297 26.2861L23.4258 28.3477C23.7782 28.1931 24.1734 28.0252 24.5479 27.8682C25.1275 27.6251 25.6521 27.4075 25.9219 27.2861C26.3027 27.1148 26.6682 27.1163 26.9629 27.3008C27.1859 27.4404 27.3058 27.6497 27.3643 27.8242L28.793 30.2051L28.7988 30.2139L30.6855 33.5166C30.7673 33.6597 30.7673 33.836 30.6846 33.9785C30.6019 34.121 30.4489 34.209 30.2842 34.209H10.085C9.90601 34.209 9.74329 34.1052 9.66699 33.9434C9.59081 33.7815 9.61466 33.5901 9.72852 33.4521L12.4385 30.1738C12.4488 30.1566 12.4626 30.1339 12.4795 30.1064C12.5191 30.0422 12.5764 29.9511 12.6494 29.8418C12.7951 29.6239 13.0051 29.3295 13.2617 29.0254C13.5172 28.7226 13.8271 28.4013 14.1729 28.1357C14.5155 27.8726 14.9198 27.644 15.3633 27.5645C16.1381 27.4256 16.7207 27.7247 17.1494 28.0576C17.3572 28.219 17.5424 28.3996 17.6895 28.5381C17.8501 28.6894 17.9562 28.7814 18.043 28.832C18.0649 28.8448 18.0805 28.8501 18.0898 28.8535C18.1095 28.8414 18.1558 28.8071 18.2256 28.7158C18.3593 28.5407 18.495 28.1885 18.5742 27.7842C18.6122 27.5905 18.6334 27.4022 18.6377 27.2422C18.6422 27.0744 18.6271 26.9687 18.6123 26.9219C18.5715 26.7931 18.5889 26.6528 18.6602 26.5381C18.7316 26.4233 18.8498 26.3455 18.9834 26.3252C19.5878 26.2334 20.1631 26.1799 20.7236 26.1279C21.2877 26.0757 21.8374 26.0246 22.4111 25.9375L22.499 25.9326Z" fill="#1E1E1E" stroke="white" stroke-width="0.924506" stroke-linecap="round" stroke-linejoin="round"/>
<path d="M18.5928 28.997C18.9888 28.4791 19.2026 27.2551 19.0526 26.7819C20.2308 26.6029 21.3019 26.5735 22.4801 26.3945L23.1068 28.997C23.9724 28.5931 25.5579 27.9571 26.1119 27.7078C26.6659 27.4585 26.8967 27.8117 26.9429 28.0194L28.397 30.4431L30.2845 33.7463H10.085L12.8166 30.4431C12.8166 30.4431 14.0707 28.2657 15.445 28.0194C16.6396 27.8054 17.251 28.9052 17.8103 29.2312C18.0652 29.3799 18.3093 29.3677 18.5928 28.997Z" fill="#1E1E1E"/>
<path d="M12.8166 30.4431C12.8166 30.4431 14.0707 28.2657 15.445 28.0194C16.6396 27.8054 17.251 28.9052 17.8103 29.2312M12.8166 30.4431L10.085 33.7463H30.2845L28.397 30.4431M12.8166 30.4431L18.5928 31.8741M28.397 30.4431L26.9429 28.0194C26.8967 27.8117 26.6659 27.4585 26.1119 27.7078C25.5579 27.9571 23.9724 28.5931 23.1068 28.997M28.397 30.4431L21.1426 31.8741M23.1068 28.997L22.4801 26.3945C21.3019 26.5735 20.2308 26.6029 19.0526 26.7819C19.2026 27.2551 18.9888 28.4791 18.5928 28.997C18.3093 29.3677 18.0652 29.3799 17.8103 29.2312M23.1068 28.997L20.0638 31.4057M17.8103 29.2312L19.708 31.4057" stroke="black" stroke-width="0.832056" stroke-linecap="round" stroke-linejoin="round"/>
<path d="M18.293 6.23096L27.8486 9.90088L28.1533 10.0181L28.2578 10.3267L30.2656 16.2817L30.332 16.478L30.2793 16.6782C30.0429 17.5845 29.7374 18.8842 29.3623 20.1128C28.9926 21.3237 28.5226 22.5859 27.9121 23.396C27.2292 24.3021 26.0183 25.0023 24.9951 25.4946C24.4674 25.7486 23.9577 25.9618 23.541 26.1294C23.1042 26.3051 22.814 26.4134 22.6572 26.4839C22.4343 26.5842 22.1255 26.6538 21.8369 26.7065C21.5287 26.7629 21.1701 26.8127 20.8076 26.855C20.0819 26.9396 19.3067 26.9994 18.8125 27.0288L18.7578 27.0317L18.7021 27.0269C17.4273 26.8993 14.3595 26.4518 12.5088 25.6587C11.2248 25.1084 10.5715 24.2129 10.2334 23.4067C10.0678 23.0118 9.97987 22.6446 9.9248 22.3657C9.8986 22.233 9.87713 22.1018 9.86328 22.0259C9.85348 21.9721 9.84748 21.9455 9.8457 21.937L9.80957 21.8452L9.80371 21.728L9.38867 12.4146L9.37109 12.0308L9.68652 11.813L17.6504 6.30811L17.9512 6.1001L18.293 6.23096Z" fill="#FFEAE0" stroke="white" stroke-width="1.38676"/>
<path d="M18.1934 6.48975L27.75 10.1597L27.9326 10.23L27.9951 10.4155L30.0029 16.3706L30.043 16.4888L30.0107 16.6089C29.772 17.5242 29.4695 18.8105 29.0967 20.0317C28.727 21.2425 28.2685 22.4619 27.6904 23.229C27.0511 24.0772 25.8954 24.7536 24.875 25.2446C24.3551 25.4948 23.8516 25.705 23.4375 25.8716C23.0111 26.0431 22.7063 26.1575 22.543 26.231C22.3538 26.3161 22.0754 26.3814 21.7871 26.4341C21.4871 26.4889 21.1357 26.5377 20.7764 26.5796C20.0569 26.6635 19.2864 26.7232 18.7959 26.7524L18.7627 26.7544L18.7305 26.7505C17.458 26.6232 14.4267 26.1788 12.6182 25.4038C11.4115 24.8866 10.8046 24.0514 10.4893 23.2993C10.3336 22.9283 10.2504 22.5812 10.1973 22.312C10.1715 22.1815 10.1507 22.0579 10.1357 21.9761C10.1197 21.8882 10.1115 21.8567 10.1104 21.8521L10.084 21.7866L10.0811 21.7153L9.66504 12.4019L9.65527 12.1724L9.84473 12.0415L17.8076 6.53662L17.9883 6.41162L18.1934 6.48975Z" fill="#FFEAE0" stroke="black" stroke-width="0.832056"/>
<mask id="mask0_35101_6008" style="mask-type:alpha" maskUnits="userSpaceOnUse" x="10" y="6" width="20" height="21">
<path d="M12.7817 25.021C10.6004 24.0861 10.635 22.0434 10.4965 21.6971L10.0811 12.3835L18.0444 6.87842L27.6004 10.5485L29.6086 16.5037C29.1239 18.3618 28.4171 21.5729 27.3581 22.9782C26.2103 24.5013 23.0648 25.5403 22.3723 25.852C21.8183 26.1012 19.741 26.279 18.7715 26.3367C17.502 26.2097 14.5267 25.7689 12.7817 25.021Z" fill="#FFEAE0"/>
</mask>
<g mask="url(#mask0_35101_6008)">
<circle cx="26.4764" cy="21.8871" r="2.67176" fill="#FFCFBA"/>
<circle cx="14.4708" cy="24.0621" r="2.33409" fill="#FFCFBA"/>
</g>
<path d="M19.9139 31.2746L18.0117 29.1823C18.2495 29.0396 18.5661 28.6141 18.7389 28.3414C19.0044 27.9223 19.1841 27.3019 19.089 26.8423L22.5408 26.3657L23.0995 28.9358L19.9139 31.2746Z" fill="#FFEAE0" stroke="black" stroke-width="0.924506"/>
<path d="M8.2182 6.29599C7.54533 5.79135 5.62409 5.30609 2.84851 8.29189C2.18967 9.10495 0.875554 11.3593 1.95214 13.4452C3.02872 15.5311 5.23235 15.8563 6.1996 15.7581C6.28371 14.9731 6.57808 13.0246 7.08273 11.5107C7.58738 9.99674 8.75088 8.52485 9.26954 7.97814C9.14338 7.58564 8.75648 6.6997 8.2182 6.29599Z" fill="#3D2142" stroke="white" stroke-width="1.84901"/>
<path d="M8.2182 6.29599C7.54533 5.79135 5.62409 5.30609 2.84851 8.29189C2.18967 9.10495 0.875554 11.3593 1.95214 13.4452C3.02872 15.5311 5.23235 15.8563 6.1996 15.7581C6.28371 14.9731 6.57808 13.0246 7.08273 11.5107C7.58738 9.99674 8.75088 8.52485 9.26954 7.97814C9.14338 7.58564 8.75648 6.6997 8.2182 6.29599Z" fill="#3D2142" stroke="black" stroke-width="0.832056"/>
<path opacity="0.6" d="M2.82812 11.3881L5.4067 11.1182" stroke="black" stroke-width="0.462253"/>
<path opacity="0.6" d="M6.20703 12.0059C6.20703 12.0059 6.16859 11.0616 5.75752 9.9312C5.34645 8.80076 4.83825 7.67486 4.83825 7.67486" stroke="black" stroke-width="0.462253"/>
<path d="M32.641 12.6415C33.6357 11.8653 35.2126 10.2397 34.8002 7.49837C34.5785 6.49062 33.6667 4.57486 31.4037 3.93209C29.1408 3.28931 27.6751 5.03096 27.1583 5.77585C27.7103 6.36127 28.3582 6.58572 29.2132 7.95517C30.0682 9.32462 30.8158 12.4931 30.9186 13.2238C31.2976 13.3984 32.1295 13.0408 32.641 12.6415Z" fill="#3D2142" stroke="white" stroke-width="1.84901"/>
<path d="M32.641 12.6415C33.6357 11.8653 35.2126 10.2397 34.8002 7.49837C34.5785 6.49062 33.6667 4.57486 31.4037 3.93209C29.1408 3.28931 27.6751 5.03096 27.1583 5.77585C27.7103 6.36127 28.3582 6.58572 29.2132 7.95517C30.0682 9.32462 30.8158 12.4931 30.9186 13.2238C31.2976 13.3984 32.1295 13.0408 32.641 12.6415Z" fill="#3D2142" stroke="black" stroke-width="0.832056"/>
<path opacity="0.6" d="M31.7559 10.4429C31.7559 10.4429 32.7481 8.62516 32.9704 7.59238C33.1927 6.5596 33.3589 5.49005 33.3589 5.49005" stroke="black" stroke-width="0.462253"/>
<path opacity="0.6" d="M29.1504 8.21387C29.1504 8.21387 30.9393 7.90804 32.1893 7.90804C33.4393 7.90804 34.7803 8.55884 34.7803 8.55884" stroke="black" stroke-width="0.462253"/>
<path d="M6.08883 15.6212C6.22457 17.1295 6.68753 18.813 6.68753 18.813C6.91307 19.8535 7.09536 21.3371 7.09536 23.4518C7.09536 26.0952 9.21036 30.4466 9.84988 30.3613C10.4894 30.2761 9.84988 28.9118 10.3615 28.8265C10.8731 28.7412 10.9584 30.1055 11.6405 29.6017C12.3227 29.0979 11.0749 26.8888 10.8191 24.6292C10.6145 22.8215 10.4515 19.915 10.5368 18.5791C10.9915 18.0959 12.1654 16.7117 13.2228 15.0404C14.2801 13.3692 15.454 10.2227 15.9088 8.85838C15.923 9.31316 15.9429 10.6746 15.9088 12.4823C15.8747 14.2901 15.7838 15.3817 16.169 16.477C16.9004 16.3318 17.436 14.5871 17.436 14.5871L17.6074 16.2029C18.5747 16.075 20.3172 15.8046 20.7265 15.6212C21.2381 15.392 21.3456 14.1824 21.3456 12.6788C21.6805 13.913 21.6632 14.9254 22.3329 15.4572C23.044 14.6238 23.0555 13.6318 22.9783 12.4823C22.8581 10.6941 22.3751 8.59516 22.0908 7.19562C22.6735 8.36118 24.035 10.9821 24.8195 12.1413C25.6039 13.3004 27.4935 14.557 28.3402 15.0404C28.5025 15.9784 28.8186 18.6388 28.7845 21.7767C28.7419 25.6991 28.0267 28.5478 28.3402 28.8265C28.591 29.0494 29.0137 28.2575 29.1936 27.8337C29.1389 28.4764 29.1587 29.7779 29.6759 29.8426C30.3223 29.9234 31.3323 27.2569 31.4939 23.1359C31.6555 19.015 31.3727 15.9041 31.0091 12.8336C30.6455 9.76312 28.2618 6.53098 26.6458 5.15734C25.0297 3.78369 23.2805 2.46485 20.5643 2.46486C18.7211 2.46487 17.7302 3.00526 17.1074 3.45324C16.124 3.28935 13.957 3.3922 12.114 4.43662C9.78748 5.75505 8.42478 7.69494 7.13194 10.0786C6.09766 11.9856 5.95309 14.1129 6.08883 15.6212Z" fill="#3C213D" stroke="black" stroke-width="0.739605" stroke-linejoin="bevel"/>
<path d="M8.30019 15.5731C9.22787 12.5251 10.9158 8.92072 12.1202 8.34082C11.6295 10.4968 10.4442 16.2295 10.1944 18.4777L10.3644 24.1069C10.7883 26.8272 11.6335 29.2682 11.4545 29.3561C11.216 29.4206 10.6775 28.1485 10.1944 28.369C9.90048 28.5032 10.0054 30.0806 9.78493 29.9336C9.29787 29.6089 7.84703 26.0741 7.63291 25.0035C7.15323 22.6051 7.24305 19.0466 8.30019 15.5731Z" fill="#FFAFCA"/>
<path d="M17.0666 19.1684L13.2845 20.112L12.8623 18.8588L16.776 17.7812L17.0666 19.1684Z" fill="#800EEB"/>
<path d="M17.4447 20.2772L13.8194 21.4099L13.4287 20.0262L17.154 18.8901L17.4447 20.2772Z" fill="#CA01DB"/>
<path d="M11.3076 19.2041L16.1051 17.7788L17.444 17.5166" stroke="black" stroke-width="0.924506"/>
<path d="M13.578 21.0968L12.6797 18.851L16.8542 17.6621L17.3429 20.3438L13.4459 21.6913L13.578 21.0968Z" stroke="black" stroke-width="0.554704" stroke-linejoin="bevel"/>
<path d="M15.1049 17.9219L15.4369 18.8189C15.5134 19.0257 15.6764 19.1887 15.8832 19.2652L16.7802 19.5971L15.8832 19.9291C15.6764 20.0056 15.5134 20.1686 15.4369 20.3754L15.1049 21.2724L14.773 20.3754C14.6965 20.1686 14.5335 20.0056 14.3267 19.9291L13.4297 19.5971L14.3267 19.2652C14.5335 19.1887 14.6965 19.0257 14.773 18.8189L15.1049 17.9219Z" fill="white"/>
<path d="M26.1702 17.5063L22.4254 17.9428L22.055 16.5916L26.0834 16.0918L26.1702 17.5063Z" fill="#800EEB"/>
<path d="M26.3833 18.6592L22.6323 19.2554L22.4459 17.8297L26.2965 17.2447L26.3833 18.6592Z" fill="#CA01DB"/>
<path d="M22.4396 18.9094L21.8758 16.5573L26.1784 15.985L26.3229 18.1816L26.7095 18.6782L22.6292 19.3635L22.4396 18.9094Z" stroke="black" stroke-width="0.554704" stroke-linejoin="bevel"/>
<path d="M21.0034 16.6089C21.0034 16.6089 23.2057 16.1856 24.5583 16.0717C25.911 15.9578 27.5672 15.9899 27.5672 15.9899" stroke="black" stroke-width="0.924506"/>
<path d="M24.2488 15.875L24.5768 16.7615C24.6533 16.9683 24.8164 17.1313 25.0232 17.2079L25.9097 17.5359L25.0232 17.8639C24.8164 17.9405 24.6533 18.1035 24.5768 18.3103L24.2488 19.1968L23.9207 18.3103C23.8442 18.1035 23.6812 17.9405 23.4744 17.8639L22.5879 17.5359L23.4744 17.2079C23.6812 17.1313 23.8442 16.9683 23.9207 16.7615L24.2488 15.875Z" fill="white"/>
<path d="M22.4978 14.5682C23.149 14.554 25.1054 14.4066 25.5434 14.2726" stroke="black" stroke-width="0.647154" stroke-linecap="round"/>
<path d="M17.3443 21.6918C18.9819 21.8771 20.8926 21.5089 22.0186 20.8344" stroke="black" stroke-width="0.69338" stroke-linecap="round"/>
<path d="M19.5416 25.0426C19.0668 24.7428 18.4821 23.0271 18.3522 21.843L21.2447 21.3674C21.2448 21.8436 21.4541 24.407 21.2448 24.641C20.9597 24.9598 19.829 25.1676 19.5416 25.0426Z" fill="#F3B499" stroke="black" stroke-width="0.69338" stroke-linecap="round"/>
<path d="M12.9618 16.5525C13.689 16.4034 15.472 16.0257 15.8968 15.8543" stroke="black" stroke-width="0.647154" stroke-linecap="round"/>
<path d="M30.5243 14.5172C29.989 11.6623 28.6138 8.52375 27.4094 7.94385C27.9001 10.0999 28.6705 15.055 29.0287 17.7793L29.1652 23.7099C28.7414 26.4302 28.452 27.9638 28.631 28.0516C28.8695 28.1161 28.8522 27.7516 29.3352 27.9721C29.6292 28.1063 29.5242 29.6836 29.7447 29.5366C30.2318 29.2119 30.8037 26.1849 31.0178 25.1143C31.3792 23.3075 31.1935 18.0858 30.5243 14.5172Z" fill="#A56DFF"/>
<path d="M18.9414 9.49812C19.0374 8.04561 18.3696 6.29001 17.6132 5.79826C17.6837 6.91735 17.6548 8.54699 17.4334 9.89506C17.2615 10.941 16.8637 12.1788 16.8688 13.6558C18.035 12.8031 18.8457 10.9456 18.9414 9.49812Z" fill="#FFAFCA"/>
<path d="M29.7256 2.27991C31.6644 3.38382 32.3415 5.8508 31.2376 7.78968C30.5904 8.92649 29.4735 9.62917 28.2717 9.79372C28.0205 9.82822 27.8298 9.94855 27.7386 10.1083L27.414 10.6786C27.1703 11.1065 26.6259 11.2558 26.198 11.0123L24.0169 9.77054C23.589 9.52691 23.4396 8.98251 23.6832 8.55458L24.0079 7.98428C24.0988 7.82428 24.1042 7.59858 24.0055 7.36484C23.5337 6.24747 23.5686 4.92876 24.2158 3.79196C25.3197 1.85305 27.7867 1.17603 29.7256 2.27991Z" fill="#FFDD00" stroke="black" stroke-width="0.835714" stroke-linejoin="round"/>
<path d="M25.7761 5.14955L27.0846 4.7855L27.5257 6.18617L28.822 5.92846L29.0437 7.13136" stroke="black" stroke-width="0.835714" stroke-linecap="round" stroke-linejoin="round"/>
</g>
<defs>
<clipPath id="clip0_35101_6008">
<rect width="36" height="36" fill="white"/>
</clipPath>
</defs>
</svg>
