<svg xmlns="http://www.w3.org/2000/svg" width="20" height="20" viewBox="0 0 20 20" fill="none">
  <g clip-path="url(#clip0_156_823)">
    <path d="M4.20215 4.5C4.20215 4.03406 4.20215 3.80109 4.28914 3.61732C4.40514 3.37229 4.62762 3.17761 4.90765 3.07612C5.11768 3 5.38393 3 5.91643 3C6.44894 3 7.28662 3 7.49664 3.07612C7.77668 3.17761 7.99916 3.37229 8.11515 3.61732C8.20215 3.80109 8.20215 4.03406 8.20215 4.5V15.5C8.20215 15.9659 8.20215 16.1989 8.11515 16.3827C7.99916 16.6277 7.77668 16.8224 7.49664 16.9239C7.28662 17 6.44894 17 5.91643 17C5.38393 17 5.11768 17 4.90765 16.9239C4.62762 16.8224 4.40514 16.6277 4.28914 16.3827C4.20215 16.1989 4.20215 15.9659 4.20215 15.5V4.5Z" fill="white"/>
    <path d="M12.2021 4.5C12.2021 4.03406 12.2021 3.80109 12.2891 3.61732C12.4051 3.37229 12.6276 3.17761 12.9077 3.07612C13.1177 3 13.3839 3 13.9164 3C14.4489 3 15.2866 3 15.4966 3.07612C15.7767 3.17761 15.9992 3.37229 16.1152 3.61732C16.2021 3.80109 16.2021 4.03406 16.2021 4.5V15.5C16.2021 15.9659 16.2021 16.1989 16.1152 16.3827C15.9992 16.6277 15.7767 16.8224 15.4966 16.9239C15.2866 17 14.4489 17 13.9164 17C13.3839 17 13.1177 17 12.9077 16.9239C12.6276 16.8224 12.4051 16.6277 12.2891 16.3827C12.2021 16.1989 12.2021 15.9659 12.2021 15.5V4.5Z" fill="white"/>
    <path d="M6.86719 1.75977C7.02914 1.76487 7.19836 1.77311 7.35059 1.78711C7.43249 1.79464 7.58843 1.80971 7.75488 1.85059L7.92285 1.90137L8.12793 1.98633C8.53158 2.17544 8.88923 2.4767 9.13281 2.875L9.24512 3.08203L9.33008 3.29395C9.39914 3.501 9.42497 3.69491 9.4375 3.85547C9.45304 4.05476 9.45215 4.28655 9.45215 4.5V15.5C9.45215 15.7134 9.45304 15.9452 9.4375 16.1445C9.42078 16.3588 9.3801 16.6328 9.24512 16.918C8.97356 17.4914 8.47893 17.897 7.92285 18.0986C7.70097 18.1791 7.45981 18.2028 7.35059 18.2129C7.19836 18.2269 7.02914 18.2351 6.86719 18.2402C6.54179 18.2505 6.17829 18.25 5.91602 18.25C5.66496 18.25 5.42193 18.2505 5.2168 18.2383C5.00307 18.2255 4.74808 18.1953 4.48145 18.0986C3.92537 17.897 3.43074 17.4914 3.15918 16.918C3.0242 16.6328 2.98352 16.3588 2.9668 16.1445C2.95126 15.9452 2.95215 15.7134 2.95215 15.5V4.5C2.95215 4.28655 2.95126 4.05476 2.9668 3.85547C2.98352 3.64118 3.0242 3.36717 3.15918 3.08203L3.27148 2.875C3.55561 2.41041 3.9949 2.0778 4.48145 1.90137C4.74808 1.80473 5.00307 1.77448 5.2168 1.76172C5.42193 1.74948 5.66496 1.75 5.91602 1.75C6.17829 1.75 6.54179 1.74952 6.86719 1.75977ZM14.8672 1.75977C15.0291 1.76487 15.1984 1.77311 15.3506 1.78711C15.4325 1.79464 15.5884 1.80971 15.7549 1.85059L15.9229 1.90137L16.1279 1.98633C16.5316 2.17544 16.8892 2.4767 17.1328 2.875L17.2451 3.08203L17.3301 3.29395C17.3991 3.501 17.425 3.69491 17.4375 3.85547C17.453 4.05476 17.4521 4.28655 17.4521 4.5V15.5C17.4521 15.7134 17.453 15.9452 17.4375 16.1445C17.4208 16.3588 17.3801 16.6328 17.2451 16.918C16.9736 17.4914 16.4789 17.897 15.9229 18.0986C15.701 18.1791 15.4598 18.2028 15.3506 18.2129C15.1984 18.2269 15.0291 18.2351 14.8672 18.2402C14.5418 18.2505 14.1783 18.25 13.916 18.25C13.665 18.25 13.4219 18.2505 13.2168 18.2383C13.0031 18.2255 12.7481 18.1953 12.4814 18.0986C11.9254 17.897 11.4307 17.4914 11.1592 16.918C11.0242 16.6328 10.9835 16.3588 10.9668 16.1445C10.9513 15.9452 10.9521 15.7134 10.9521 15.5V4.5C10.9521 4.28655 10.9513 4.05476 10.9668 3.85547C10.9835 3.64118 11.0242 3.36717 11.1592 3.08203C11.4307 2.50861 11.9254 2.10302 12.4814 1.90137C12.7481 1.80473 13.0031 1.77448 13.2168 1.76172C13.4219 1.74948 13.665 1.75 13.916 1.75C14.1783 1.75 14.5418 1.74952 14.8672 1.75977Z" stroke="black" stroke-opacity="0.2" stroke-width="2.5"/>
  </g>
  <defs>
    <clipPath id="clip0_156_823">
      <rect width="20" height="20" fill="white" transform="matrix(-1 0 0 1 20 0.00292969)"/>
    </clipPath>
  </defs>
</svg>