<svg width="19" height="15" viewBox="0 0 19 15" fill="none" xmlns="http://www.w3.org/2000/svg">
<mask id="path-1-outside-1_994_4104" maskUnits="userSpaceOnUse" x="0.0303845" y="-0.347347" width="19.6962" height="16.473" fill="black">
<rect fill="white" x="0.0303845" y="-0.347347" width="19.6962" height="16.473"/>
<path d="M6.49831 12.1391C5.95666 12.2347 5.44752 12.2218 4.97087 12.1005C4.50144 11.9706 4.08979 11.7572 3.73592 11.4602C3.38205 11.156 3.10039 10.784 2.89095 10.3442C2.68874 9.89588 2.58763 9.3967 2.58763 8.8467C2.58763 8.2967 2.68874 7.76554 2.89095 7.25322C3.10039 6.73229 3.38205 6.26096 3.73592 5.83923C4.08979 5.4175 4.50144 5.06258 4.97087 4.77448C5.44752 4.47776 5.95666 4.28165 6.49831 4.18615C7.03995 4.09064 7.54548 4.10783 8.01491 4.23773C8.49156 4.35902 8.90682 4.56813 9.26069 4.86506C9.61457 5.162 9.89261 5.53464 10.0948 5.98298C10.3043 6.42272 10.409 6.91759 10.409 7.46759C10.409 8.01759 10.3043 8.55306 10.0948 9.07398C9.89261 9.58631 9.61457 10.057 9.26069 10.4861C8.90682 10.9078 8.49156 11.267 8.01491 11.5637C7.54548 11.8518 7.03995 12.0436 6.49831 12.1391ZM6.49831 10.4781C6.81607 10.4221 7.11217 10.3112 7.3866 10.1455C7.66104 9.97246 7.90297 9.76113 8.11241 9.51154C8.32184 9.26194 8.48433 8.98762 8.59989 8.68858C8.72266 8.38093 8.78404 8.06944 8.78404 7.75411C8.78404 7.43144 8.72266 7.1416 8.59989 6.88458C8.48433 6.62629 8.32184 6.41294 8.11241 6.24454C7.90297 6.0688 7.66104 5.94646 7.3866 5.87752C7.11217 5.80124 6.81607 5.79112 6.49831 5.84715C6.18776 5.9019 5.89166 6.01645 5.61001 6.19078C5.33558 6.3565 5.09364 6.56416 4.88421 6.81376C4.68199 7.05475 4.5195 7.3254 4.39673 7.62571C4.28117 7.92475 4.2234 8.23561 4.2234 8.55827C4.2234 8.87361 4.28117 9.16409 4.39673 9.42971C4.5195 9.68673 4.68199 9.90375 4.88421 10.0808C5.09364 10.2565 5.33558 10.3825 5.61001 10.4588C5.89166 10.5264 6.18776 10.5329 6.49831 10.4781ZM10.9586 3.49868L14.1001 2.94474C14.4468 2.88362 14.7718 2.89232 15.0751 2.97083C15.3856 3.04807 15.6528 3.18429 15.8767 3.37948C16.1078 3.56607 16.2884 3.80556 16.4184 4.09798C16.5556 4.38178 16.6242 4.70335 16.6242 5.06268C16.6242 5.53202 16.5122 5.98075 16.2884 6.4089C16.0645 6.82971 15.7684 7.18625 15.4001 7.47853L17.025 10.129L15.1617 10.4576L13.7426 8.13378L12.5943 8.33625V10.9103L10.9586 11.1987V3.49868ZM14.1001 6.49774C14.3745 6.44935 14.6056 6.31327 14.7934 6.0895C14.9812 5.85839 15.0751 5.60717 15.0751 5.33583C15.0751 5.05717 14.9812 4.83905 14.7934 4.6815C14.6056 4.52394 14.3745 4.46935 14.1001 4.51774L12.5943 4.78325V6.76325L14.1001 6.49774Z"/>
</mask>
<path d="M6.49831 12.1391C5.95666 12.2347 5.44752 12.2218 4.97087 12.1005C4.50144 11.9706 4.08979 11.7572 3.73592 11.4602C3.38205 11.156 3.10039 10.784 2.89095 10.3442C2.68874 9.89588 2.58763 9.3967 2.58763 8.8467C2.58763 8.2967 2.68874 7.76554 2.89095 7.25322C3.10039 6.73229 3.38205 6.26096 3.73592 5.83923C4.08979 5.4175 4.50144 5.06258 4.97087 4.77448C5.44752 4.47776 5.95666 4.28165 6.49831 4.18615C7.03995 4.09064 7.54548 4.10783 8.01491 4.23773C8.49156 4.35902 8.90682 4.56813 9.26069 4.86506C9.61457 5.162 9.89261 5.53464 10.0948 5.98298C10.3043 6.42272 10.409 6.91759 10.409 7.46759C10.409 8.01759 10.3043 8.55306 10.0948 9.07398C9.89261 9.58631 9.61457 10.057 9.26069 10.4861C8.90682 10.9078 8.49156 11.267 8.01491 11.5637C7.54548 11.8518 7.03995 12.0436 6.49831 12.1391ZM6.49831 10.4781C6.81607 10.4221 7.11217 10.3112 7.3866 10.1455C7.66104 9.97246 7.90297 9.76113 8.11241 9.51154C8.32184 9.26194 8.48433 8.98762 8.59989 8.68858C8.72266 8.38093 8.78404 8.06944 8.78404 7.75411C8.78404 7.43144 8.72266 7.1416 8.59989 6.88458C8.48433 6.62629 8.32184 6.41294 8.11241 6.24454C7.90297 6.0688 7.66104 5.94646 7.3866 5.87752C7.11217 5.80124 6.81607 5.79112 6.49831 5.84715C6.18776 5.9019 5.89166 6.01645 5.61001 6.19078C5.33558 6.3565 5.09364 6.56416 4.88421 6.81376C4.68199 7.05475 4.5195 7.3254 4.39673 7.62571C4.28117 7.92475 4.2234 8.23561 4.2234 8.55827C4.2234 8.87361 4.28117 9.16409 4.39673 9.42971C4.5195 9.68673 4.68199 9.90375 4.88421 10.0808C5.09364 10.2565 5.33558 10.3825 5.61001 10.4588C5.89166 10.5264 6.18776 10.5329 6.49831 10.4781ZM10.9586 3.49868L14.1001 2.94474C14.4468 2.88362 14.7718 2.89232 15.0751 2.97083C15.3856 3.04807 15.6528 3.18429 15.8767 3.37948C16.1078 3.56607 16.2884 3.80556 16.4184 4.09798C16.5556 4.38178 16.6242 4.70335 16.6242 5.06268C16.6242 5.53202 16.5122 5.98075 16.2884 6.4089C16.0645 6.82971 15.7684 7.18625 15.4001 7.47853L17.025 10.129L15.1617 10.4576L13.7426 8.13378L12.5943 8.33625V10.9103L10.9586 11.1987V3.49868ZM14.1001 6.49774C14.3745 6.44935 14.6056 6.31327 14.7934 6.0895C14.9812 5.85839 15.0751 5.60717 15.0751 5.33583C15.0751 5.05717 14.9812 4.83905 14.7934 4.6815C14.6056 4.52394 14.3745 4.46935 14.1001 4.51774L12.5943 4.78325V6.76325L14.1001 6.49774Z" fill="white"/>
<path d="M4.97087 12.1005L4.16837 14.0684C4.17941 14.0715 4.1905 14.0744 4.20164 14.0773L4.97087 12.1005ZM3.73592 11.4602L2.32919 13.1081C2.33384 13.1121 2.3385 13.1161 2.34319 13.12L3.73592 11.4602ZM2.89095 10.3442L1.07776 11.445C1.08249 11.4555 1.08731 11.4659 1.09224 11.4763L2.89095 10.3442ZM2.89095 7.25322L1.08773 6.76663C1.08582 6.77139 1.08392 6.77616 1.08203 6.78093L2.89095 7.25322ZM3.73592 5.83923L2.34319 4.67059L2.34319 4.67059L3.73592 5.83923ZM4.97087 4.77448L5.7501 6.4739C5.75447 6.47122 5.75883 6.46852 5.76319 6.46581L4.97087 4.77448ZM8.01491 4.23773L7.2124 6.20569C7.22345 6.20875 7.23454 6.2117 7.24568 6.21453L8.01491 4.23773ZM10.0948 5.98298L8.28163 7.0838C8.28635 7.09427 8.29118 7.10468 8.29611 7.11503L10.0948 5.98298ZM10.0948 9.07398L8.2916 8.58739C8.28969 8.59216 8.28779 8.59693 8.2859 8.6017L10.0948 9.07398ZM9.26069 10.4861L10.6534 11.6547C10.6581 11.6491 10.6628 11.6435 10.6674 11.6379L9.26069 10.4861ZM8.01491 11.5637L8.79414 13.2632C8.79851 13.2605 8.80287 13.2578 8.80723 13.2551L8.01491 11.5637ZM7.3866 10.1455L8.15093 11.854C8.16432 11.8459 8.17766 11.8377 8.19093 11.8293L7.3866 10.1455ZM8.11241 9.51154L6.71968 8.3429L6.71968 8.3429L8.11241 9.51154ZM8.59989 8.68858L6.79435 8.20778C6.79106 8.21602 6.78781 8.22428 6.78462 8.23255L8.59989 8.68858ZM8.59989 6.88458L6.78462 7.98078C6.79026 7.99339 6.79605 8.00591 6.80198 8.01833L8.59989 6.88458ZM8.11241 6.24454L6.71968 7.90433C6.72782 7.91116 6.73604 7.91791 6.74432 7.92457L8.11241 6.24454ZM7.3866 5.87752L6.58228 7.84498C6.59555 7.84867 6.60888 7.85219 6.62228 7.85556L7.3866 5.87752ZM5.61001 6.19078L6.37433 7.89928C6.38192 7.8947 6.38949 7.89007 6.39704 7.8854L5.61001 6.19078ZM4.88421 6.81376L3.49148 5.64512L4.88421 6.81376ZM4.39673 7.62571L2.59882 7.126C2.59289 7.14052 2.5871 7.15508 2.58146 7.16968L4.39673 7.62571ZM4.39673 9.42971L2.5745 10.5101C2.58231 10.5281 2.59042 10.5459 2.59882 10.5635L4.39673 9.42971ZM4.88421 10.0808L3.46726 11.7198C3.47526 11.7268 3.48333 11.7337 3.49148 11.7405L4.88421 10.0808ZM5.61001 10.4588L4.80568 12.4262C4.82447 12.4315 4.84339 12.4364 4.86243 12.4409L5.61001 10.4588ZM6.49831 12.1391V10.1391C6.20855 10.1902 5.96225 10.1802 5.7401 10.1237L4.97087 12.1005L4.20164 14.0773C4.93278 14.2633 5.70477 14.2791 6.49831 14.1391V12.1391ZM4.97087 12.1005L5.77337 10.1325C5.51778 10.0618 5.30761 9.95061 5.12865 9.80044L3.73592 11.4602L2.34319 13.12C2.87198 13.5637 3.48511 13.8794 4.16837 14.0684L4.97087 12.1005ZM3.73592 11.4602L5.14264 9.81233C4.9554 9.65133 4.80534 9.45505 4.68967 9.21218L2.89095 10.3442L1.09224 11.4763C1.39544 12.1129 1.80869 12.6606 2.32919 13.1081L3.73592 11.4602ZM2.89095 10.3442L4.70415 9.24341C4.6099 9.03445 4.55725 8.79363 4.55725 8.49941L2.58763 8.8467L0.618018 9.194C0.618018 9.99978 0.76758 10.7573 1.07776 11.445L2.89095 10.3442ZM2.58763 8.8467L4.55725 8.49941C4.55725 8.205 4.60993 7.9534 4.69987 7.72551L2.89095 7.25322L1.08203 6.78093C0.767556 7.57769 0.618018 8.38841 0.618018 9.194L2.58763 8.8467ZM2.89095 7.25322L4.69418 7.73981C4.80927 7.45354 4.95464 7.21525 5.12865 7.00787L3.73592 5.83923L2.34319 4.67059C1.80946 5.30667 1.39151 6.01104 1.08773 6.76663L2.89095 7.25322ZM3.73592 5.83923L5.12865 7.00787C5.30241 6.80079 5.50468 6.62452 5.7501 6.4739L4.97087 4.77448L4.19164 3.07505C3.49821 3.50064 2.87718 4.03421 2.34319 4.67059L3.73592 5.83923ZM4.97087 4.77448L5.76319 6.46581C5.98 6.33084 6.21818 6.23554 6.49831 6.18615V4.18615V2.18615C5.69514 2.32777 4.91503 2.62468 4.17854 3.08315L4.97087 4.77448ZM6.49831 4.18615V6.18615C6.77857 6.13673 7.009 6.14941 7.2124 6.20569L8.01491 4.23773L8.81741 2.26976C8.08197 2.06626 7.30133 2.04455 6.49831 2.18615V4.18615ZM8.01491 4.23773L7.24568 6.21453C7.49763 6.27864 7.69919 6.38324 7.86796 6.52485L9.26069 4.86506L10.6534 3.20527C10.1144 2.75302 9.48548 2.43939 8.78414 2.26093L8.01491 4.23773ZM9.26069 4.86506L7.86796 6.52485C8.03674 6.66647 8.17474 6.84681 8.28163 7.0838L10.0948 5.98298L11.908 4.88217C11.6105 4.22247 11.1924 3.65753 10.6534 3.20527L9.26069 4.86506ZM10.0948 5.98298L8.29611 7.11503C8.38686 7.30557 8.43936 7.5303 8.43936 7.81489L10.409 7.46759L12.3786 7.12029C12.3786 6.30488 12.2217 5.53987 11.8935 4.85094L10.0948 5.98298ZM10.409 7.46759L8.43936 7.81489C8.43936 8.09933 8.38687 8.35045 8.2916 8.58739L10.0948 9.07398L11.898 9.56057C12.2217 8.75566 12.3786 7.93585 12.3786 7.12029L10.409 7.46759ZM10.0948 9.07398L8.2859 8.6017C8.17861 8.87352 8.03611 9.11341 7.85397 9.33425L9.26069 10.4861L10.6674 11.6379C11.193 11.0006 11.6066 10.2991 11.9037 9.54627L10.0948 9.07398ZM9.26069 10.4861L7.86796 9.31743C7.69395 9.52481 7.48452 9.70934 7.22259 9.8724L8.01491 11.5637L8.80723 13.2551C9.49859 12.8247 10.1197 12.2908 10.6534 11.6547L9.26069 10.4861ZM8.01491 11.5637L7.23568 9.8643C7.02687 9.99246 6.78824 10.088 6.49831 10.1391V12.1391V14.1391C7.29166 13.9993 8.0641 13.7112 8.79414 13.2632L8.01491 11.5637ZM6.49831 10.4781V12.4781C7.06072 12.379 7.61861 12.1755 8.15093 11.854L7.3866 10.1455L6.62228 8.43702C6.60572 8.44701 6.57142 8.46526 6.49831 8.47815V10.4781ZM7.3866 10.1455L8.19093 11.8293C8.68118 11.5202 9.12331 11.1352 9.50513 10.6802L8.11241 9.51154L6.71968 8.3429C6.68263 8.38705 6.64089 8.42475 6.58228 8.4617L7.3866 10.1455ZM8.11241 9.51154L9.50513 10.6802C9.89572 10.2147 10.2013 9.69814 10.4152 9.14462L8.59989 8.68858L6.78462 8.23255C6.7674 8.27711 6.74796 8.30919 6.71968 8.3429L8.11241 9.51154ZM8.59989 8.68858L10.4054 9.16939C10.6376 8.58758 10.7537 7.99412 10.7537 7.40681L8.78404 7.75411L6.81443 8.10141C6.81443 8.14476 6.80771 8.17429 6.79435 8.20778L8.59989 8.68858ZM8.78404 7.75411L10.7537 7.40681C10.7537 6.81901 10.6402 6.25821 10.3978 5.75083L8.59989 6.88458L6.80198 8.01833C6.80516 8.02499 6.81443 8.04388 6.81443 8.10141L8.78404 7.75411ZM8.59989 6.88458L10.4152 5.78839C10.1986 5.3044 9.88603 4.89059 9.48049 4.56451L8.11241 6.24454L6.74432 7.92457C6.75766 7.93529 6.77004 7.94818 6.78462 7.98078L8.59989 6.88458ZM8.11241 6.24454L9.50513 4.58475C9.11455 4.25701 8.6589 4.02709 8.15092 3.89948L7.3866 5.87752L6.62228 7.85556C6.66317 7.86583 6.69139 7.88059 6.71968 7.90433L8.11241 6.24454ZM7.3866 5.87752L8.19093 3.91006C7.64917 3.75948 7.07718 3.74508 6.49831 3.84715V5.84715V7.84715C6.55496 7.83716 6.57517 7.843 6.58228 7.84498L7.3866 5.87752ZM6.49831 5.84715V3.84715C5.91992 3.94913 5.35563 4.16648 4.82298 4.49616L5.61001 6.19078L6.39704 7.8854C6.4277 7.86642 6.45561 7.85468 6.49831 7.84715V5.84715ZM5.61001 6.19078L4.84569 4.48228C4.33771 4.78903 3.88206 5.17963 3.49148 5.64512L4.88421 6.81376L6.27693 7.98239C6.30522 7.94869 6.33344 7.92397 6.37433 7.89928L5.61001 6.19078ZM4.88421 6.81376L3.49148 5.64512C3.11087 6.09871 2.81457 6.59827 2.59882 7.126L4.39673 7.62571L6.19463 8.12543C6.22443 8.05252 6.25312 8.01078 6.27693 7.98239L4.88421 6.81376ZM4.39673 7.62571L2.58146 7.16968C2.35733 7.74972 2.25378 8.33448 2.25378 8.90557L4.2234 8.55827L6.19301 8.21098C6.19301 8.13674 6.20502 8.09979 6.21199 8.08175L4.39673 7.62571ZM4.2234 8.55827L2.25378 8.90557C2.25378 9.47592 2.35965 10.0162 2.5745 10.5101L4.39673 9.42971L6.21895 8.34929C6.2027 8.31194 6.19301 8.27129 6.19301 8.21098L4.2234 8.55827ZM4.39673 9.42971L2.59882 10.5635C2.81182 11.0094 3.10114 11.3993 3.46726 11.7198L4.88421 10.0808L6.30115 8.44172C6.26285 8.40819 6.22718 8.3641 6.19463 8.29596L4.39673 9.42971ZM4.88421 10.0808L3.49148 11.7405C3.8733 12.0609 4.31543 12.29 4.80568 12.4262L5.61001 10.4588L6.41433 8.49132C6.35572 8.47503 6.31398 8.45206 6.27693 8.42097L4.88421 10.0808ZM5.61001 10.4588L4.86243 12.4409C5.38613 12.5668 5.93662 12.5772 6.49831 12.4781V10.4781V8.47815C6.43891 8.48862 6.3972 8.48614 6.35759 8.47662L5.61001 10.4588ZM10.9586 3.49868V1.49868C9.87079 1.69049 8.98896 2.74141 8.98896 3.84598L10.9586 3.49868ZM15.0751 2.97083L14.2992 4.94593C14.3043 4.94725 14.3094 4.94854 14.3145 4.94982L15.0751 2.97083ZM15.8767 3.37948L14.462 5.02051C14.4766 5.03316 14.4913 5.04552 14.5063 5.05761L15.8767 3.37948ZM16.4184 4.09798L14.6015 5.19061C14.6087 5.2068 14.6161 5.22285 14.6238 5.23874L16.4184 4.09798ZM16.2884 6.4089L17.9802 7.13472C17.983 7.12945 17.9857 7.12417 17.9885 7.11888L16.2884 6.4089ZM15.4001 7.47853L14.377 5.94987C13.4699 6.66967 13.163 7.91286 13.6829 8.76091L15.4001 7.47853ZM17.025 10.129V12.129C17.7245 12.0057 18.3716 11.5148 18.7249 10.8394C19.0782 10.164 19.0848 9.40551 18.7422 8.84663L17.025 10.129ZM15.1617 10.4576L13.4431 11.7376C13.7914 12.3079 14.4487 12.5833 15.1617 12.4576V10.4576ZM13.7426 8.13378L15.4613 6.85376C15.113 6.28343 14.4556 6.00806 13.7426 6.13378V8.13378ZM12.5943 8.33625V6.33625C11.5066 6.52806 10.6247 7.57898 10.6247 8.68355L12.5943 8.33625ZM12.5943 10.9103V12.9103C13.6821 12.7184 14.564 11.6675 14.564 10.563L12.5943 10.9103ZM10.9586 11.1987L8.98896 11.546C8.98896 12.6505 9.87079 13.3905 10.9586 13.1987V11.1987ZM14.7934 6.0895L16.1861 7.25813C16.1949 7.2477 16.2036 7.23719 16.2122 7.22661L14.7934 6.0895ZM12.5943 4.78325V2.78325C11.5066 2.97506 10.6247 4.02598 10.6247 5.13055L12.5943 4.78325ZM12.5943 6.76325L10.6247 7.11055C10.6247 8.21512 11.5066 8.95506 12.5943 8.76325V6.76325ZM10.9586 3.49868V5.49868L14.1001 4.94474V2.94474V0.944743L10.9586 1.49868V3.49868ZM14.1001 2.94474V4.94474C14.1937 4.92824 14.2533 4.93406 14.2992 4.94593L15.0751 2.97083L15.8509 0.995735C15.2902 0.850573 14.6998 0.839003 14.1001 0.944743V2.94474ZM15.0751 2.97083L14.3145 4.94982C14.3907 4.96876 14.4323 4.99457 14.462 5.02051L15.8767 3.37948L17.2914 1.73845C16.8734 1.37401 16.3806 1.12739 15.8356 0.991845L15.0751 2.97083ZM15.8767 3.37948L14.5063 5.05761C14.537 5.08241 14.5696 5.11892 14.6015 5.19061L16.4184 4.09798L18.2352 3.00534C18.0071 2.49221 17.6786 2.04973 17.2472 1.70136L15.8767 3.37948ZM16.4184 4.09798L14.6238 5.23874C14.6385 5.26902 14.6546 5.31671 14.6546 5.40998L16.6242 5.06268L18.5938 4.71539C18.5938 4.08999 18.4727 3.49454 18.2129 2.95722L16.4184 4.09798ZM16.6242 5.06268L14.6546 5.40998C14.6546 5.54009 14.628 5.62284 14.5882 5.69891L16.2884 6.4089L17.9885 7.11888C18.3965 6.33867 18.5938 5.52394 18.5938 4.71539L16.6242 5.06268ZM16.2884 6.4089L14.5966 5.68308C14.5348 5.79922 14.4666 5.87874 14.377 5.94987L15.4001 7.47853L16.4231 9.00718C17.0701 8.49376 17.5942 7.8602 17.9802 7.13472L16.2884 6.4089ZM15.4001 7.47853L13.6829 8.76091L15.3078 11.4114L17.025 10.129L18.7422 8.84663L17.1172 6.19615L15.4001 7.47853ZM17.025 10.129V8.12901L15.1617 8.45755V10.4576V12.4576L17.025 12.129V10.129ZM15.1617 10.4576L16.8804 9.17753L15.4613 6.85376L13.7426 8.13378L12.024 9.4138L13.4431 11.7376L15.1617 10.4576ZM13.7426 8.13378V6.13378L12.5943 6.33625V8.33625V10.3363L13.7426 10.1338V8.13378ZM12.5943 8.33625L10.6247 8.68355V11.2575L12.5943 10.9103L14.564 10.563V7.98896L12.5943 8.33625ZM12.5943 10.9103V8.91025L10.9586 9.19868V11.1987V13.1987L12.5943 12.9103V10.9103ZM10.9586 11.1987L12.9282 10.8514V3.15138L10.9586 3.49868L8.98896 3.84598V11.546L10.9586 11.1987ZM14.1001 6.49774V8.49774C14.8774 8.36069 15.6154 7.93831 16.1861 7.25813L14.7934 6.0895L13.4007 4.92086C13.4807 4.82549 13.5942 4.72181 13.7379 4.63717C13.8804 4.55329 14.0087 4.51386 14.1001 4.49774V6.49774ZM14.7934 6.0895L16.2122 7.22661C16.7482 6.56686 17.0447 5.78474 17.0447 4.98854L15.0751 5.33583L13.1055 5.68313C13.1055 5.57931 13.1245 5.44488 13.1799 5.29675C13.235 5.14913 13.3096 5.03248 13.3747 4.95238L14.7934 6.0895ZM15.0751 5.33583L17.0447 4.98854C17.0447 4.19927 16.7569 3.50061 16.1861 3.02171L14.7934 4.6815L13.4007 6.34128C13.3207 6.27414 13.2383 6.17342 13.1799 6.03776C13.122 5.90332 13.1055 5.77593 13.1055 5.68313L15.0751 5.33583ZM14.7934 4.6815L16.1861 3.02171C15.6154 2.5428 14.8774 2.38069 14.1001 2.51774V4.51774V6.51774C14.0087 6.53386 13.8804 6.53968 13.7379 6.50604C13.5942 6.47209 13.4807 6.40843 13.4007 6.34128L14.7934 4.6815ZM14.1001 4.51774V2.51774L12.5943 2.78325V4.78325V6.78325L14.1001 6.51774V4.51774ZM12.5943 4.78325L10.6247 5.13055V7.11055L12.5943 6.76325L14.564 6.41596V4.43596L12.5943 4.78325ZM12.5943 6.76325V8.76325L14.1001 8.49774V6.49774V4.49774L12.5943 4.76325V6.76325Z" fill="#5E5E5E" mask="url(#path-1-outside-1_994_4104)"/>
</svg>
