<svg width="41" height="28" viewBox="0 0 41 28" fill="none" xmlns="http://www.w3.org/2000/svg">
  <path d="M16.1189 13.4457C16.1189 10.8889 18.1916 8.81616 20.7485 8.81616H29.0817C31.6386 8.81616 33.7113 10.8889 33.7113 13.4457V21.7075C33.7113 23.6281 31.5074 24.7133 29.9852 23.5423L28.4417 22.355C27.9561 21.9815 27.3607 21.779 26.7481 21.779H20.7485C18.1916 21.779 16.1189 19.7062 16.1189 17.1494V13.4457Z" fill="white" stroke="#00BFFF" stroke-width="2.7"/>
  <path d="M24.3035 8.46551C24.3035 5.90867 22.2307 3.83594 19.6739 3.83594H11.3406C8.7838 3.83594 6.71107 5.90867 6.71107 8.46552V16.7273C6.71107 18.6478 8.91496 19.733 10.4372 18.5621L11.9807 17.3748C12.4662 17.0013 13.0617 16.7988 13.6743 16.7988H19.6739C22.2307 16.7988 24.3035 14.726 24.3035 12.1692V8.46551Z" fill="white" stroke="#00BFFF" stroke-width="2.7"/>
  <path d="M19.4003 7.95923C19.6295 8.04499 20.0597 8.47972 20.0782 9.00594" stroke="#00BFFF" stroke-width="2.2" stroke-linecap="round"/>
  <path d="M4.31816 3.22056C4.04727 3.39908 3.47637 3.95246 3.35988 4.7379" stroke="#00BFFF" stroke-width="2.7" stroke-linecap="round" stroke-linejoin="round"/>
  <path d="M37.3917 9.39157C37.2108 8.65666 36.2846 7.23116 35.44 6.81175" stroke="#00BFFF" stroke-width="2.7" stroke-linecap="round" stroke-linejoin="round"/>
</svg>
 
