<svg xmlns="http://www.w3.org/2000/svg" width="8" height="8" viewBox="0 0 8 8" fill="none">
  <path d="M4.00354 0.611328C4.41775 0.611328 4.75354 0.947115 4.75354 1.36133V3.23633H6.63928C7.0534 3.23644 7.38928 3.57218 7.38928 3.98633C7.38928 4.40047 7.0534 4.73622 6.63928 4.73633H4.75354V6.63965C4.75343 7.05377 4.41769 7.38965 4.00354 7.38965C3.58939 7.38965 3.25365 7.05377 3.25354 6.63965V4.73633H1.36096C0.946748 4.73633 0.610962 4.40054 0.610962 3.98633C0.610962 3.57211 0.946748 3.23633 1.36096 3.23633H3.25354V1.36133C3.25354 0.947115 3.58933 0.611328 4.00354 0.611328Z" fill="white"/>
</svg>
