<svg xmlns="http://www.w3.org/2000/svg" width="30" height="31" viewBox="0 0 30 31" fill="none">
  <path d="M6.75112 4.94232L8.35298 2.0127L9.95488 4.94232L12.8846 6.54422L9.95488 8.14608L8.35298 11.0788L6.75112 8.14608L3.82149 6.54422L6.75112 4.94232ZM21.9718 23.5354L20.7827 25.7123L19.5962 23.5354L17.4192 22.3459L19.5933 21.1568L20.7827 18.9796L21.9718 21.1568L24.149 22.3459L21.9718 23.5354ZM26.5095 16.7996L25.3202 18.9768L24.1309 16.7996L21.9537 15.6105L24.1278 14.421L25.3172 12.244L26.5066 14.418L28.6835 15.6074L26.5095 16.7996ZM21.9236 8.77544C21.3247 8.1762 20.5115 7.83899 19.6625 7.83604C18.8164 7.83604 18.0033 8.17324 17.4042 8.77239L4.08819 22.1161C3.26014 22.9199 2.92598 24.1062 3.21804 25.2234C3.5101 26.3405 4.38326 27.2138 5.50032 27.5059C6.61744 27.7979 7.80672 27.4666 8.60767 26.6357L21.9236 13.2919C22.523 12.6927 22.8604 11.8797 22.8604 11.0336C22.8604 10.1876 22.523 9.37459 21.9236 8.77544ZM20.7103 12.238L15.9138 17.0347C15.7723 16.5136 15.4983 16.0198 15.0886 15.6133C14.6791 15.2009 14.1853 14.9269 13.6644 14.7884L18.4642 9.9888C18.8646 9.58538 19.4516 9.42879 19.9996 9.57633C20.5476 9.72381 20.9753 10.1544 21.1228 10.7024C21.2704 11.2505 21.1108 11.8376 20.7103 12.238Z" fill="#CCCCCC"/>
</svg>