<svg width="20" height="20" viewBox="0 0 20 20" fill="none" xmlns="http://www.w3.org/2000/svg">
<path d="M9.98535 3.50488C14.9627 3.50493 18.5574 7.96269 19.6436 9.49121C19.8623 9.79906 19.8617 10.1983 19.6426 10.5059C18.5536 12.0346 14.9509 16.4941 9.98535 16.4941C5.01754 16.4941 1.41644 12.0358 0.328125 10.5078C0.109155 10.2004 0.108643 9.80192 0.327148 9.49414C1.41268 7.96515 5.00578 3.50488 9.98535 3.50488ZM9.99902 4.91895C7.19283 4.91897 4.91803 7.19381 4.91797 10C4.91797 12.8062 7.19279 15.081 9.99902 15.0811C12.8053 15.0811 15.0801 12.8063 15.0801 10C15.08 7.1938 12.8052 4.91895 9.99902 4.91895ZM9.96875 7.23535C10.7057 7.23542 11.4191 7.54015 11.916 8.03711C12.4129 8.55778 12.7178 9.27107 12.7178 9.98438C12.7177 10.6977 12.4366 11.411 11.916 11.9316C11.3954 12.4286 10.6821 12.7333 9.96875 12.7334C9.25534 12.7334 8.5412 12.4523 8.02051 11.9316C7.52368 11.411 7.21978 10.6976 7.21973 9.98438C7.21973 9.27117 7.5001 8.55776 8.02051 8.03711C8.5412 7.54009 9.25534 7.23535 9.96875 7.23535Z" fill="#E5E5E5"/>
</svg>
