<svg xmlns="http://www.w3.org/2000/svg" width="12" height="12" viewBox="0 0 12 12" fill="none">
  <g clip-path="url(#clip0_20476_34515)">
    <path d="M2 4H10.5" stroke="#8A9799" stroke-width="1.3" stroke-linecap="round"/>
    <path d="M4.875 1.5L2.625 10.5" stroke="#8A9799" stroke-width="1.3" stroke-linecap="round"/>
    <path d="M10.0637 1.65875C10.1513 1.31063 9.94019 0.957356 9.59208 0.869683C9.24397 0.78201 8.89069 0.993139 8.80302 1.34125L10.0637 1.65875ZM6.53635 10.3413C6.44868 10.6894 6.65981 11.0426 7.00792 11.1303C7.35603 11.218 7.70931 11.0069 7.79698 10.6587L6.53635 10.3413ZM5.46667 8.9C5.82565 8.9 6.11667 8.60899 6.11667 8.25C6.11667 7.89102 5.82565 7.6 5.46667 7.6V8.9ZM10 8.9C10.359 8.9 10.65 8.60899 10.65 8.25C10.65 7.89102 10.359 7.6 10 7.6V8.9ZM1.5 7.6C1.14101 7.6 0.85 7.89102 0.85 8.25C0.85 8.60899 1.14101 8.9 1.5 8.9V7.6ZM8.80302 1.34125L7.10302 8.09125L8.36365 8.40875L10.0637 1.65875L8.80302 1.34125ZM7.73333 8.9H10V7.6H7.73333V8.9ZM1.5 8.9H5.46667V7.6H1.5V8.9ZM7.10302 8.09125L6.81968 9.21625L8.08032 9.53375L8.36365 8.40875L7.10302 8.09125ZM6.81968 9.21625L6.53635 10.3413L7.79698 10.6587L8.08032 9.53375L6.81968 9.21625Z" fill="#8A9799"/>
  </g>
  <defs>
    <clipPath id="clip0_20476_34515">
      <rect width="12" height="12" fill="white"/>
    </clipPath>
  </defs>
</svg>
