<svg width="16" height="16" viewBox="0 0 16 16" fill="none" xmlns="http://www.w3.org/2000/svg">
<g id="like">
<circle id="Ellipse 761" cx="8" cy="8" r="7.5" fill="#FF64B8" stroke="white"/>
<path id="Icon" fill-rule="evenodd" clip-rule="evenodd" d="M7.9079 10.673L7.90704 10.6727L7.90501 10.6718L7.898 10.6687C7.89204 10.666 7.88352 10.6622 7.87261 10.6572C7.85081 10.6472 7.81945 10.6325 7.7799 10.6132C7.70084 10.5747 7.58883 10.5177 7.45484 10.4429C7.1874 10.2937 6.82963 10.072 6.47061 9.78282C5.76211 9.21209 5 8.33809 5 7.2027V7.19947C5.00545 6.8096 5.12143 6.42939 5.33427 6.11038C5.54722 5.7912 5.84779 5.54758 6.19744 5.416C6.54741 5.2843 6.92712 5.27227 7.284 5.38186C7.55287 5.46443 7.79734 5.61247 7.99999 5.81138C8.20264 5.61247 8.44711 5.46443 8.71598 5.38186C9.07285 5.27227 9.45257 5.2843 9.80254 5.416C10.1522 5.54758 10.4528 5.7912 10.6657 6.11038C10.8785 6.42939 10.9945 6.8096 11 7.19947L11 7.2027C11 8.33809 10.2379 9.21209 9.52936 9.78282C9.17034 10.072 8.81257 10.2937 8.54513 10.4429C8.41114 10.5177 8.29914 10.5747 8.22007 10.6132C8.18052 10.6325 8.14917 10.6472 8.12736 10.6572C8.11646 10.6622 8.10794 10.666 8.10198 10.6687L8.09497 10.6718L8.09294 10.6727L8.0923 10.6729L7.9079 10.673ZM7.9079 10.673C7.96654 10.6985 8.03328 10.6986 8.09192 10.6731L7.9079 10.673Z" fill="white"/>
</g>
</svg>
