<svg xmlns="http://www.w3.org/2000/svg" width="12" height="12" viewBox="0 0 12 12" fill="none">
  <path d="M5.19571 2.17243C5.47184 1.42619 6.52732 1.42619 6.80345 2.17243L7.12855 3.05098C7.44049 3.894 8.10516 4.55867 8.94818 4.87062L9.82673 5.19571C10.573 5.47184 10.573 6.52732 9.82673 6.80345L8.94818 7.12855C8.10516 7.44049 7.44049 8.10516 7.12855 8.94818L6.80345 9.82673C6.52732 10.573 5.47184 10.573 5.19571 9.82673L4.87062 8.94818C4.55867 8.10516 3.894 7.44049 3.05098 7.12855L2.17243 6.80345C1.42619 6.52732 1.42619 5.47184 2.17243 5.19571L3.05098 4.87062C3.894 4.55867 4.55867 3.894 4.87062 3.05098L5.19571 2.17243Z" fill="#EDEDED"/>
  <path d="M9.57146 0.460224C9.66999 0.19395 10.0466 0.19395 10.1451 0.460224L10.2611 0.773707C10.3724 1.07451 10.6096 1.31168 10.9104 1.42299L11.2239 1.53899C11.4902 1.63752 11.4902 2.01413 11.2239 2.11266L10.9104 2.22866C10.6096 2.33997 10.3724 2.57713 10.2611 2.87794L10.1451 3.19142C10.0466 3.4577 9.66999 3.4577 9.57146 3.19142L9.45546 2.87794C9.34415 2.57713 9.10698 2.33997 8.80618 2.22866L8.49269 2.11266C8.22642 2.01413 8.22642 1.63752 8.49269 1.53899L8.80618 1.42299C9.10698 1.31168 9.34415 1.07451 9.45546 0.773707L9.57146 0.460224Z" fill="#EDEDED"/>
</svg>
