<svg width="30" height="18" viewBox="0 0 30 18" fill="none" xmlns="http://www.w3.org/2000/svg">
<rect width="30" height="18" rx="9" fill="#5D57F8" fill-opacity="0.06"/>
<path d="M10.482 6.699C10.068 7.563 9.609 8.301 9.105 8.913L8.43 8.103C9.15 7.257 9.78 6.069 10.32 4.521L11.274 4.737C11.148 5.097 11.022 5.439 10.896 5.772H14.523V6.699H11.697V7.896H14.181V8.814H11.697V10.047H14.181V10.956H11.697V12.963H10.743V6.699H10.482ZM7.332 8.256C7.089 8.544 6.837 8.823 6.567 9.093L6.252 8.085C7.161 7.086 7.836 5.907 8.277 4.557L9.168 4.971C8.943 5.646 8.646 6.294 8.286 6.906V12.963H7.332V8.256ZM16.197 5.448H18.636V4.593H19.59V5.448H21.525V6.321H19.59V7.122H20.616C21.444 6.528 22.155 5.88 22.74 5.16L23.451 5.682C23.019 6.213 22.551 6.69 22.065 7.122H23.568V8.004H20.904L20.607 8.193C20.301 8.373 19.959 8.553 19.581 8.751H22.488V12.963H21.543V12.639H18.033V12.963H17.079V9.831C16.647 9.993 16.197 10.155 15.729 10.326L15.333 9.453C16.692 9.138 17.979 8.652 19.185 8.004H15.477V7.122H18.636V6.321H16.197V5.448ZM18.033 11.073V11.811H21.543V11.073H18.033ZM21.543 10.263V9.561H18.033V10.263H21.543Z" fill="#5D57F8"/>
</svg>
