<svg xmlns="http://www.w3.org/2000/svg" width="16" height="16" viewBox="0 0 16 16" fill="none">
  <path d="M15.4602 4.92043C16.0425 5.13244 16.0339 5.47013 15.7036 5.92915C14.8532 7.11108 11.5118 8.56693 10.1027 9.12158C7.86338 10.0029 3.38222 11.4511 1.03249 11.1733C-1.4716 10.877 1.59634 8.9128 2.38152 8.50863C2.27499 6.5157 3.28291 4.33718 4.97807 3.24939C7.48667 1.63953 10.8872 2.70004 12.6391 4.95437C13.371 4.88671 14.1114 4.74508 14.8499 4.81499C15.0436 4.83339 15.2779 4.85401 15.4602 4.92043ZM13.2626 8.80964C13.2704 8.89138 13.1272 9.3767 13.091 9.48871C12.216 12.1958 9.84267 13.7841 7.02106 13.0901C6.07085 12.8563 5.23651 12.4178 4.46382 11.8239C4.48044 11.7467 4.50147 11.7812 4.53496 11.7739C4.80512 11.7159 5.12679 11.7 5.40858 11.6514C7.67261 11.2625 9.93024 10.519 11.9754 9.47028C12.3542 9.27609 12.816 8.94881 13.1817 8.79514C13.2192 8.7795 13.2555 8.73733 13.2626 8.80964ZM9.30169 4.97977C6.49275 3.78674 4.1057 6.87963 5.08994 9.46504L5.09036 9.46416C7.16676 8.97679 9.19337 8.25773 11.1434 7.39854C11.0126 6.31683 10.3071 5.40664 9.30169 4.97977Z" fill="white"/>
</svg>
