<svg xmlns="http://www.w3.org/2000/svg" width="18" height="18" viewBox="0 0 18 18" fill="none">
  <path d="M8.48825 15.3255L5.82236 15.1674C4.23729 15.0734 3 13.7605 3 12.1727L3 5.25C3 3.59315 4.34315 2.25 6 2.25L11.5649 2.25C13.0935 2.25 14.3777 3.39941 14.5465 4.91871L14.625 5.625" stroke="black" stroke-width="1.8" stroke-linecap="square" stroke-linejoin="round"/>
  <path d="M10.9216 7.10962C9.25863 7.31075 8.25 8.44487 8.25 10.0453C8.25 11.6458 9.57788 12.9432 11.2159 12.9432C12.0013 12.9432 12.7154 12.6449 13.246 12.158M11.8773 7.62111C12.9064 7.7049 14.1818 8.7109 14.1818 10.0453C14.1818 10.8784 13.822 11.6293 13.246 12.158M13.246 12.158L15.8994 15.2211" stroke="black" stroke-width="1.8" stroke-linejoin="bevel"/>
</svg>