<svg width="72" height="28" viewBox="0 0 72 28" fill="none" xmlns="http://www.w3.org/2000/svg">
<path opacity="0.8" d="M4 22.0018C4 22.0018 39.8427 16.4855 41.8735 18.406C43.9043 20.3266 42.1873 22.8216 43.5568 23.8636C44.9263 24.9056 66 19.636 66 19.636" stroke="url(#paint0_linear_206_274)" stroke-width="7" stroke-linecap="round" stroke-linejoin="round"/>
<mask id="path-2-outside-1_206_274" maskUnits="userSpaceOnUse" x="1" y="5" width="68" height="17" fill="black">
<rect fill="white" x="1" y="5" width="68" height="17"/>
<path d="M15.586 12.421C15.858 12.421 16.0847 12.5117 16.266 12.693C16.4473 12.8743 16.538 13.101 16.538 13.373V16.977C16.538 17.249 16.4473 17.4757 16.266 17.657C16.0847 17.8383 15.858 17.929 15.586 17.929H10.435C10.163 17.929 9.93633 17.8383 9.755 17.657C9.57367 17.4757 9.483 17.249 9.483 16.977V13.373C9.483 13.101 9.57367 12.8743 9.755 12.693C9.93633 12.5117 10.163 12.421 10.435 12.421H15.586ZM11.217 14.053V16.314H14.804V14.053H11.217ZM12.594 7.508C12.5373 9.072 11.8063 10.4547 10.401 11.656C9.93633 11.9847 9.51133 11.9393 9.126 11.52C8.83133 11.0893 8.905 10.6587 9.347 10.228C10.3103 9.35533 10.8147 8.44867 10.86 7.508H9.67C9.398 7.508 9.18267 7.43433 9.024 7.287C8.87667 7.12833 8.803 6.92433 8.803 6.675C8.803 6.45967 8.88233 6.27833 9.041 6.131C9.19967 5.98367 9.40933 5.91 9.67 5.91H15.756C16.028 5.91 16.2547 6.00067 16.436 6.182C16.6173 6.36333 16.708 6.59 16.708 6.862V9.123C16.708 9.871 16.487 10.4717 16.045 10.925C15.5803 11.401 14.9627 11.639 14.192 11.639H13.07C12.8093 11.639 12.5997 11.5653 12.441 11.418C12.2823 11.2707 12.203 11.0837 12.203 10.857C12.203 10.6303 12.2767 10.449 12.424 10.313C12.5827 10.1657 12.798 10.092 13.07 10.092H13.971C14.617 10.0807 14.9513 9.74633 14.974 9.089V7.508H12.594ZM7.052 18.626C7.61867 18.796 8.33267 18.881 9.194 18.881H16.385C17.0083 18.881 17.32 19.1587 17.32 19.714C17.3087 20.292 16.997 20.5923 16.385 20.615H9.194C7.70933 20.615 6.542 20.3997 5.692 19.969C4.876 19.5497 4.264 18.881 3.856 17.963C3.754 18.8017 3.618 19.5043 3.448 20.071C3.35733 20.3657 3.18167 20.5697 2.921 20.683C2.67167 20.8077 2.411 20.819 2.139 20.717C1.629 20.5017 1.48167 20.0767 1.697 19.442C2.173 18.116 2.42233 16.2857 2.445 13.951C2.445 13.6563 2.53 13.4297 2.7 13.271C2.88133 13.101 3.11933 13.016 3.414 13.016C3.98067 13.016 4.264 13.3333 4.264 13.968V14.41C4.41133 15.77 4.76267 16.7957 5.318 17.487V12.268H2.547C2.26367 12.268 2.037 12.1887 1.867 12.03C1.697 11.8713 1.612 11.673 1.612 11.435C1.612 11.197 1.697 10.9987 1.867 10.84C2.037 10.6813 2.26367 10.602 2.547 10.602H4.502V8.885H2.921C2.63767 8.885 2.411 8.81133 2.241 8.664C2.071 8.51667 1.986 8.324 1.986 8.086C1.986 7.83667 2.071 7.63833 2.241 7.491C2.42233 7.33233 2.649 7.253 2.921 7.253H4.502V6.114C4.502 5.85333 4.587 5.64367 4.757 5.485C4.927 5.32633 5.131 5.247 5.369 5.247C5.607 5.247 5.811 5.32633 5.981 5.485C6.151 5.64367 6.236 5.85333 6.236 6.114V7.253H7.732C8.33267 7.287 8.63867 7.559 8.65 8.069C8.63867 8.579 8.33267 8.851 7.732 8.885H6.236V10.602H7.851C8.13433 10.602 8.361 10.6813 8.531 10.84C8.701 10.9987 8.786 11.197 8.786 11.435C8.786 11.673 8.701 11.8713 8.531 12.03C8.361 12.1887 8.13433 12.268 7.851 12.268H7.052V14.546H8.021C8.31567 14.546 8.531 14.6253 8.667 14.784C8.81433 14.9313 8.888 15.1297 8.888 15.379C8.888 15.6283 8.81433 15.8323 8.667 15.991C8.531 16.1383 8.31567 16.212 8.021 16.212H7.052V18.626ZM33.351 19.153H33.742C33.9687 19.153 34.1557 19.2267 34.303 19.374C34.4503 19.5213 34.524 19.7027 34.524 19.918C34.524 20.1447 34.4503 20.3317 34.303 20.479C34.1557 20.6263 33.9743 20.7 33.759 20.7H23.389C23.1737 20.7 22.9923 20.6263 22.845 20.479C22.6977 20.3317 22.624 20.1447 22.624 19.918C22.624 19.7027 22.6977 19.5213 22.845 19.374C22.9923 19.2267 23.1793 19.153 23.406 19.153H23.916V10.194C23.916 9.922 24.001 9.701 24.171 9.531C24.3523 9.34967 24.579 9.259 24.851 9.259H27.69V8.103H24.188C23.9727 8.103 23.7913 8.02933 23.644 7.882C23.4967 7.73467 23.423 7.55333 23.423 7.338C23.423 7.11133 23.4967 6.92433 23.644 6.777C23.7913 6.62967 23.9783 6.556 24.205 6.556H27.69V6.182C27.69 5.89867 27.7807 5.66633 27.962 5.485C28.1433 5.30367 28.3757 5.213 28.659 5.213C28.9423 5.213 29.1747 5.30367 29.356 5.485C29.5373 5.66633 29.628 5.89867 29.628 6.182V6.556H33.453C33.6683 6.556 33.8497 6.62967 33.997 6.777C34.1443 6.92433 34.218 7.11133 34.218 7.338C34.218 7.55333 34.1443 7.73467 33.997 7.882C33.8497 8.02933 33.674 8.103 33.47 8.103H29.628V9.259H32.416C32.688 9.259 32.909 9.34967 33.079 9.531C33.2603 9.701 33.351 9.922 33.351 10.194V19.153ZM31.447 19.153V18.048H25.803V19.153H31.447ZM31.447 16.739V15.6H25.803V16.739H31.447ZM31.447 14.308V13.169H25.803V14.308H31.447ZM31.447 11.877V10.755H25.803V11.877H31.447ZM21.145 11.554H21.179C21.4283 11.554 21.638 11.6447 21.808 11.826C21.978 12.0073 22.063 12.2283 22.063 12.489V20.02C22.063 20.292 21.978 20.513 21.808 20.683C21.638 20.853 21.4283 20.938 21.179 20.938H21.094C20.8447 20.938 20.635 20.853 20.465 20.683C20.295 20.513 20.21 20.292 20.21 20.02V13.271C19.8473 13.6223 19.4337 13.6507 18.969 13.356C18.527 12.9593 18.4363 12.489 18.697 11.945C19.6943 10.1203 20.5613 8.12 21.298 5.944C21.3773 5.69467 21.5247 5.519 21.74 5.417C21.9667 5.315 22.2047 5.30367 22.454 5.383C23.1113 5.655 23.338 6.06867 23.134 6.624C22.556 8.34667 21.893 9.99 21.145 11.554ZM48.107 18.677H50.47C51.1387 18.677 51.473 18.949 51.473 19.493C51.4617 20.0143 51.1273 20.2807 50.47 20.292H43.33C43.2053 20.7227 42.8993 20.938 42.412 20.938C41.7887 20.9267 41.4713 20.598 41.46 19.952L41.443 13.424C41.273 13.4353 41.0633 13.407 40.814 13.339C40.746 13.2937 40.7007 13.2653 40.678 13.254C40.6893 13.288 40.7007 13.322 40.712 13.356C40.814 13.9227 40.6043 14.2967 40.083 14.478C39.7657 14.5687 39.4483 14.6593 39.131 14.75V18.49C39.131 19.4193 38.9383 20.0767 38.553 20.462C38.1677 20.8473 37.5103 21.04 36.581 21.04H36.428C36.156 21.04 35.935 20.955 35.765 20.785C35.595 20.615 35.51 20.394 35.51 20.122C35.51 19.85 35.595 19.629 35.765 19.459C35.935 19.289 36.156 19.204 36.428 19.204H36.649C36.8757 19.204 37.0343 19.1473 37.125 19.034C37.227 18.932 37.278 18.7507 37.278 18.49V15.277C37.0627 15.345 36.8417 15.413 36.615 15.481C35.9803 15.6283 35.561 15.396 35.357 14.784C35.2777 14.4893 35.306 14.2287 35.442 14.002C35.578 13.764 35.7933 13.6167 36.088 13.56C36.4847 13.4693 36.8813 13.373 37.278 13.271V10.007H36.513C36.2523 10.007 36.037 9.922 35.867 9.752C35.697 9.582 35.612 9.36667 35.612 9.106C35.612 8.84533 35.697 8.63 35.867 8.46C36.037 8.29 36.2523 8.205 36.513 8.205H37.278V6.199C37.278 5.927 37.363 5.706 37.533 5.536C37.7143 5.35467 37.941 5.264 38.213 5.264C38.485 5.264 38.706 5.349 38.876 5.519C39.046 5.689 39.131 5.91 39.131 6.182V8.205H39.607C39.8677 8.205 40.083 8.29 40.253 8.46C40.423 8.63 40.508 8.84533 40.508 9.106C40.508 9.36667 40.423 9.582 40.253 9.752C40.083 9.922 39.8677 10.007 39.607 10.007H39.131V12.829C39.2897 12.795 39.4427 12.7553 39.59 12.71C39.862 12.6307 40.1227 12.676 40.372 12.846C40.27 12.5967 40.2813 12.3077 40.406 11.979C41.222 10.007 41.851 8.01233 42.293 5.995C42.4403 5.349 42.8257 5.08833 43.449 5.213C44.0837 5.37167 44.3217 5.76833 44.163 6.403C44.095 6.72033 43.9817 7.17367 43.823 7.763H46.186V6.216C46.186 5.57 46.509 5.247 47.155 5.247C47.767 5.25833 48.0843 5.58133 48.107 6.216V7.763H50.334C50.98 7.77433 51.3087 8.04633 51.32 8.579C51.3087 9.11167 50.98 9.38367 50.334 9.395H48.107V11.384H50.283C50.929 11.3953 51.2577 11.6673 51.269 12.2C51.2577 12.7327 50.929 13.0047 50.283 13.016H48.107V14.971H50.283C50.929 14.9823 51.2577 15.2543 51.269 15.787C51.2577 16.3197 50.929 16.5917 50.283 16.603H48.107V18.677ZM46.186 18.677V16.603H43.364V18.677H46.186ZM46.186 14.971V13.016H43.364V14.971H46.186ZM46.186 11.384V9.395H43.347C43.1883 9.939 42.973 10.602 42.701 11.384H46.186ZM64.682 15.753H67.606C67.844 15.753 68.0367 15.8323 68.184 15.991C68.3427 16.1383 68.422 16.3367 68.422 16.586C68.422 16.824 68.3483 17.0167 68.201 17.164C68.0537 17.3113 67.8553 17.385 67.606 17.385H64.546V18.388C64.546 19.0793 64.3193 19.663 63.866 20.139C63.39 20.6377 62.7837 20.887 62.047 20.887H60.466C60.194 20.887 59.9673 20.8077 59.786 20.649C59.6047 20.4903 59.514 20.2863 59.514 20.037C59.514 19.7877 59.6047 19.5893 59.786 19.442C59.9673 19.2947 60.194 19.221 60.466 19.221H61.826C62.0413 19.221 62.217 19.153 62.353 19.017C62.489 18.881 62.557 18.7053 62.557 18.49V17.385H58.477C58.239 17.385 58.0407 17.3113 57.882 17.164C57.7347 17.0053 57.661 16.807 57.661 16.569C57.661 16.331 57.7347 16.1383 57.882 15.991C58.0407 15.8323 58.239 15.753 58.477 15.753H62.557V15.702C62.557 15.3507 62.7213 15.0843 63.05 14.903L64.665 14.053H59.735C59.463 14.053 59.2307 13.9793 59.038 13.832C58.8453 13.6847 58.749 13.492 58.749 13.254C58.749 13.016 58.8453 12.8177 59.038 12.659C59.2307 12.5003 59.463 12.421 59.735 12.421H66.671C67.249 12.421 67.5833 12.6817 67.674 13.203C67.7307 13.7243 67.5607 14.087 67.164 14.291L64.682 15.753ZM64.58 6.692H67.589C67.827 6.692 68.0253 6.77133 68.184 6.93C68.3427 7.08867 68.422 7.287 68.422 7.525C68.422 7.763 68.3427 7.96133 68.184 8.12C68.0367 8.26733 67.844 8.341 67.606 8.341H53.581C53.343 8.341 53.1447 8.26733 52.986 8.12C52.8387 7.96133 52.765 7.763 52.765 7.525C52.765 7.287 52.8443 7.08867 53.003 6.93C53.1617 6.77133 53.36 6.692 53.598 6.692H56.692V6.199C56.692 5.91567 56.7827 5.68333 56.964 5.502C57.1567 5.30933 57.3947 5.213 57.678 5.213C57.9613 5.213 58.1937 5.30367 58.375 5.485C58.5563 5.66633 58.647 5.89867 58.647 6.182V6.692H62.625V6.199C62.625 5.91567 62.7157 5.68333 62.897 5.502C63.0897 5.30933 63.3277 5.213 63.611 5.213C63.8943 5.213 64.1267 5.30367 64.308 5.485C64.4893 5.66633 64.58 5.89867 64.58 6.182V6.692ZM59.123 9.718H67.453C67.691 9.718 67.8893 9.79733 68.048 9.956C68.2067 10.1147 68.286 10.313 68.286 10.551C68.286 10.789 68.2067 10.9873 68.048 11.146C67.9007 11.2933 67.708 11.367 67.47 11.367H58.307C57.661 12.5457 56.913 13.5827 56.063 14.478C56.5957 14.5687 56.879 14.8917 56.913 15.447V19.918C56.913 20.2013 56.8223 20.4337 56.641 20.615C56.4597 20.7963 56.2273 20.887 55.944 20.887C55.6607 20.887 55.4283 20.7963 55.247 20.615C55.0657 20.4337 54.975 20.2013 54.975 19.918V15.566C54.8163 15.7133 54.567 15.9343 54.227 16.229C53.7283 16.637 53.258 16.6143 52.816 16.161C52.6347 15.9457 52.5497 15.6963 52.561 15.413C52.5723 15.1297 52.6857 14.903 52.901 14.733C54.2157 13.6337 55.2583 12.5117 56.029 11.367H53.632C53.394 11.367 53.1957 11.2933 53.037 11.146C52.8897 10.9873 52.816 10.789 52.816 10.551C52.816 10.313 52.8953 10.1147 53.054 9.956C53.2127 9.79733 53.411 9.718 53.649 9.718H56.981C57.0603 9.57067 57.1793 9.33833 57.338 9.021C57.44 8.76033 57.61 8.58467 57.848 8.494C58.086 8.392 58.3467 8.39767 58.63 8.511C59.1287 8.783 59.293 9.18533 59.123 9.718Z"/>
</mask>
<path d="M15.586 12.421C15.858 12.421 16.0847 12.5117 16.266 12.693C16.4473 12.8743 16.538 13.101 16.538 13.373V16.977C16.538 17.249 16.4473 17.4757 16.266 17.657C16.0847 17.8383 15.858 17.929 15.586 17.929H10.435C10.163 17.929 9.93633 17.8383 9.755 17.657C9.57367 17.4757 9.483 17.249 9.483 16.977V13.373C9.483 13.101 9.57367 12.8743 9.755 12.693C9.93633 12.5117 10.163 12.421 10.435 12.421H15.586ZM11.217 14.053V16.314H14.804V14.053H11.217ZM12.594 7.508C12.5373 9.072 11.8063 10.4547 10.401 11.656C9.93633 11.9847 9.51133 11.9393 9.126 11.52C8.83133 11.0893 8.905 10.6587 9.347 10.228C10.3103 9.35533 10.8147 8.44867 10.86 7.508H9.67C9.398 7.508 9.18267 7.43433 9.024 7.287C8.87667 7.12833 8.803 6.92433 8.803 6.675C8.803 6.45967 8.88233 6.27833 9.041 6.131C9.19967 5.98367 9.40933 5.91 9.67 5.91H15.756C16.028 5.91 16.2547 6.00067 16.436 6.182C16.6173 6.36333 16.708 6.59 16.708 6.862V9.123C16.708 9.871 16.487 10.4717 16.045 10.925C15.5803 11.401 14.9627 11.639 14.192 11.639H13.07C12.8093 11.639 12.5997 11.5653 12.441 11.418C12.2823 11.2707 12.203 11.0837 12.203 10.857C12.203 10.6303 12.2767 10.449 12.424 10.313C12.5827 10.1657 12.798 10.092 13.07 10.092H13.971C14.617 10.0807 14.9513 9.74633 14.974 9.089V7.508H12.594ZM7.052 18.626C7.61867 18.796 8.33267 18.881 9.194 18.881H16.385C17.0083 18.881 17.32 19.1587 17.32 19.714C17.3087 20.292 16.997 20.5923 16.385 20.615H9.194C7.70933 20.615 6.542 20.3997 5.692 19.969C4.876 19.5497 4.264 18.881 3.856 17.963C3.754 18.8017 3.618 19.5043 3.448 20.071C3.35733 20.3657 3.18167 20.5697 2.921 20.683C2.67167 20.8077 2.411 20.819 2.139 20.717C1.629 20.5017 1.48167 20.0767 1.697 19.442C2.173 18.116 2.42233 16.2857 2.445 13.951C2.445 13.6563 2.53 13.4297 2.7 13.271C2.88133 13.101 3.11933 13.016 3.414 13.016C3.98067 13.016 4.264 13.3333 4.264 13.968V14.41C4.41133 15.77 4.76267 16.7957 5.318 17.487V12.268H2.547C2.26367 12.268 2.037 12.1887 1.867 12.03C1.697 11.8713 1.612 11.673 1.612 11.435C1.612 11.197 1.697 10.9987 1.867 10.84C2.037 10.6813 2.26367 10.602 2.547 10.602H4.502V8.885H2.921C2.63767 8.885 2.411 8.81133 2.241 8.664C2.071 8.51667 1.986 8.324 1.986 8.086C1.986 7.83667 2.071 7.63833 2.241 7.491C2.42233 7.33233 2.649 7.253 2.921 7.253H4.502V6.114C4.502 5.85333 4.587 5.64367 4.757 5.485C4.927 5.32633 5.131 5.247 5.369 5.247C5.607 5.247 5.811 5.32633 5.981 5.485C6.151 5.64367 6.236 5.85333 6.236 6.114V7.253H7.732C8.33267 7.287 8.63867 7.559 8.65 8.069C8.63867 8.579 8.33267 8.851 7.732 8.885H6.236V10.602H7.851C8.13433 10.602 8.361 10.6813 8.531 10.84C8.701 10.9987 8.786 11.197 8.786 11.435C8.786 11.673 8.701 11.8713 8.531 12.03C8.361 12.1887 8.13433 12.268 7.851 12.268H7.052V14.546H8.021C8.31567 14.546 8.531 14.6253 8.667 14.784C8.81433 14.9313 8.888 15.1297 8.888 15.379C8.888 15.6283 8.81433 15.8323 8.667 15.991C8.531 16.1383 8.31567 16.212 8.021 16.212H7.052V18.626ZM33.351 19.153H33.742C33.9687 19.153 34.1557 19.2267 34.303 19.374C34.4503 19.5213 34.524 19.7027 34.524 19.918C34.524 20.1447 34.4503 20.3317 34.303 20.479C34.1557 20.6263 33.9743 20.7 33.759 20.7H23.389C23.1737 20.7 22.9923 20.6263 22.845 20.479C22.6977 20.3317 22.624 20.1447 22.624 19.918C22.624 19.7027 22.6977 19.5213 22.845 19.374C22.9923 19.2267 23.1793 19.153 23.406 19.153H23.916V10.194C23.916 9.922 24.001 9.701 24.171 9.531C24.3523 9.34967 24.579 9.259 24.851 9.259H27.69V8.103H24.188C23.9727 8.103 23.7913 8.02933 23.644 7.882C23.4967 7.73467 23.423 7.55333 23.423 7.338C23.423 7.11133 23.4967 6.92433 23.644 6.777C23.7913 6.62967 23.9783 6.556 24.205 6.556H27.69V6.182C27.69 5.89867 27.7807 5.66633 27.962 5.485C28.1433 5.30367 28.3757 5.213 28.659 5.213C28.9423 5.213 29.1747 5.30367 29.356 5.485C29.5373 5.66633 29.628 5.89867 29.628 6.182V6.556H33.453C33.6683 6.556 33.8497 6.62967 33.997 6.777C34.1443 6.92433 34.218 7.11133 34.218 7.338C34.218 7.55333 34.1443 7.73467 33.997 7.882C33.8497 8.02933 33.674 8.103 33.47 8.103H29.628V9.259H32.416C32.688 9.259 32.909 9.34967 33.079 9.531C33.2603 9.701 33.351 9.922 33.351 10.194V19.153ZM31.447 19.153V18.048H25.803V19.153H31.447ZM31.447 16.739V15.6H25.803V16.739H31.447ZM31.447 14.308V13.169H25.803V14.308H31.447ZM31.447 11.877V10.755H25.803V11.877H31.447ZM21.145 11.554H21.179C21.4283 11.554 21.638 11.6447 21.808 11.826C21.978 12.0073 22.063 12.2283 22.063 12.489V20.02C22.063 20.292 21.978 20.513 21.808 20.683C21.638 20.853 21.4283 20.938 21.179 20.938H21.094C20.8447 20.938 20.635 20.853 20.465 20.683C20.295 20.513 20.21 20.292 20.21 20.02V13.271C19.8473 13.6223 19.4337 13.6507 18.969 13.356C18.527 12.9593 18.4363 12.489 18.697 11.945C19.6943 10.1203 20.5613 8.12 21.298 5.944C21.3773 5.69467 21.5247 5.519 21.74 5.417C21.9667 5.315 22.2047 5.30367 22.454 5.383C23.1113 5.655 23.338 6.06867 23.134 6.624C22.556 8.34667 21.893 9.99 21.145 11.554ZM48.107 18.677H50.47C51.1387 18.677 51.473 18.949 51.473 19.493C51.4617 20.0143 51.1273 20.2807 50.47 20.292H43.33C43.2053 20.7227 42.8993 20.938 42.412 20.938C41.7887 20.9267 41.4713 20.598 41.46 19.952L41.443 13.424C41.273 13.4353 41.0633 13.407 40.814 13.339C40.746 13.2937 40.7007 13.2653 40.678 13.254C40.6893 13.288 40.7007 13.322 40.712 13.356C40.814 13.9227 40.6043 14.2967 40.083 14.478C39.7657 14.5687 39.4483 14.6593 39.131 14.75V18.49C39.131 19.4193 38.9383 20.0767 38.553 20.462C38.1677 20.8473 37.5103 21.04 36.581 21.04H36.428C36.156 21.04 35.935 20.955 35.765 20.785C35.595 20.615 35.51 20.394 35.51 20.122C35.51 19.85 35.595 19.629 35.765 19.459C35.935 19.289 36.156 19.204 36.428 19.204H36.649C36.8757 19.204 37.0343 19.1473 37.125 19.034C37.227 18.932 37.278 18.7507 37.278 18.49V15.277C37.0627 15.345 36.8417 15.413 36.615 15.481C35.9803 15.6283 35.561 15.396 35.357 14.784C35.2777 14.4893 35.306 14.2287 35.442 14.002C35.578 13.764 35.7933 13.6167 36.088 13.56C36.4847 13.4693 36.8813 13.373 37.278 13.271V10.007H36.513C36.2523 10.007 36.037 9.922 35.867 9.752C35.697 9.582 35.612 9.36667 35.612 9.106C35.612 8.84533 35.697 8.63 35.867 8.46C36.037 8.29 36.2523 8.205 36.513 8.205H37.278V6.199C37.278 5.927 37.363 5.706 37.533 5.536C37.7143 5.35467 37.941 5.264 38.213 5.264C38.485 5.264 38.706 5.349 38.876 5.519C39.046 5.689 39.131 5.91 39.131 6.182V8.205H39.607C39.8677 8.205 40.083 8.29 40.253 8.46C40.423 8.63 40.508 8.84533 40.508 9.106C40.508 9.36667 40.423 9.582 40.253 9.752C40.083 9.922 39.8677 10.007 39.607 10.007H39.131V12.829C39.2897 12.795 39.4427 12.7553 39.59 12.71C39.862 12.6307 40.1227 12.676 40.372 12.846C40.27 12.5967 40.2813 12.3077 40.406 11.979C41.222 10.007 41.851 8.01233 42.293 5.995C42.4403 5.349 42.8257 5.08833 43.449 5.213C44.0837 5.37167 44.3217 5.76833 44.163 6.403C44.095 6.72033 43.9817 7.17367 43.823 7.763H46.186V6.216C46.186 5.57 46.509 5.247 47.155 5.247C47.767 5.25833 48.0843 5.58133 48.107 6.216V7.763H50.334C50.98 7.77433 51.3087 8.04633 51.32 8.579C51.3087 9.11167 50.98 9.38367 50.334 9.395H48.107V11.384H50.283C50.929 11.3953 51.2577 11.6673 51.269 12.2C51.2577 12.7327 50.929 13.0047 50.283 13.016H48.107V14.971H50.283C50.929 14.9823 51.2577 15.2543 51.269 15.787C51.2577 16.3197 50.929 16.5917 50.283 16.603H48.107V18.677ZM46.186 18.677V16.603H43.364V18.677H46.186ZM46.186 14.971V13.016H43.364V14.971H46.186ZM46.186 11.384V9.395H43.347C43.1883 9.939 42.973 10.602 42.701 11.384H46.186ZM64.682 15.753H67.606C67.844 15.753 68.0367 15.8323 68.184 15.991C68.3427 16.1383 68.422 16.3367 68.422 16.586C68.422 16.824 68.3483 17.0167 68.201 17.164C68.0537 17.3113 67.8553 17.385 67.606 17.385H64.546V18.388C64.546 19.0793 64.3193 19.663 63.866 20.139C63.39 20.6377 62.7837 20.887 62.047 20.887H60.466C60.194 20.887 59.9673 20.8077 59.786 20.649C59.6047 20.4903 59.514 20.2863 59.514 20.037C59.514 19.7877 59.6047 19.5893 59.786 19.442C59.9673 19.2947 60.194 19.221 60.466 19.221H61.826C62.0413 19.221 62.217 19.153 62.353 19.017C62.489 18.881 62.557 18.7053 62.557 18.49V17.385H58.477C58.239 17.385 58.0407 17.3113 57.882 17.164C57.7347 17.0053 57.661 16.807 57.661 16.569C57.661 16.331 57.7347 16.1383 57.882 15.991C58.0407 15.8323 58.239 15.753 58.477 15.753H62.557V15.702C62.557 15.3507 62.7213 15.0843 63.05 14.903L64.665 14.053H59.735C59.463 14.053 59.2307 13.9793 59.038 13.832C58.8453 13.6847 58.749 13.492 58.749 13.254C58.749 13.016 58.8453 12.8177 59.038 12.659C59.2307 12.5003 59.463 12.421 59.735 12.421H66.671C67.249 12.421 67.5833 12.6817 67.674 13.203C67.7307 13.7243 67.5607 14.087 67.164 14.291L64.682 15.753ZM64.58 6.692H67.589C67.827 6.692 68.0253 6.77133 68.184 6.93C68.3427 7.08867 68.422 7.287 68.422 7.525C68.422 7.763 68.3427 7.96133 68.184 8.12C68.0367 8.26733 67.844 8.341 67.606 8.341H53.581C53.343 8.341 53.1447 8.26733 52.986 8.12C52.8387 7.96133 52.765 7.763 52.765 7.525C52.765 7.287 52.8443 7.08867 53.003 6.93C53.1617 6.77133 53.36 6.692 53.598 6.692H56.692V6.199C56.692 5.91567 56.7827 5.68333 56.964 5.502C57.1567 5.30933 57.3947 5.213 57.678 5.213C57.9613 5.213 58.1937 5.30367 58.375 5.485C58.5563 5.66633 58.647 5.89867 58.647 6.182V6.692H62.625V6.199C62.625 5.91567 62.7157 5.68333 62.897 5.502C63.0897 5.30933 63.3277 5.213 63.611 5.213C63.8943 5.213 64.1267 5.30367 64.308 5.485C64.4893 5.66633 64.58 5.89867 64.58 6.182V6.692ZM59.123 9.718H67.453C67.691 9.718 67.8893 9.79733 68.048 9.956C68.2067 10.1147 68.286 10.313 68.286 10.551C68.286 10.789 68.2067 10.9873 68.048 11.146C67.9007 11.2933 67.708 11.367 67.47 11.367H58.307C57.661 12.5457 56.913 13.5827 56.063 14.478C56.5957 14.5687 56.879 14.8917 56.913 15.447V19.918C56.913 20.2013 56.8223 20.4337 56.641 20.615C56.4597 20.7963 56.2273 20.887 55.944 20.887C55.6607 20.887 55.4283 20.7963 55.247 20.615C55.0657 20.4337 54.975 20.2013 54.975 19.918V15.566C54.8163 15.7133 54.567 15.9343 54.227 16.229C53.7283 16.637 53.258 16.6143 52.816 16.161C52.6347 15.9457 52.5497 15.6963 52.561 15.413C52.5723 15.1297 52.6857 14.903 52.901 14.733C54.2157 13.6337 55.2583 12.5117 56.029 11.367H53.632C53.394 11.367 53.1957 11.2933 53.037 11.146C52.8897 10.9873 52.816 10.789 52.816 10.551C52.816 10.313 52.8953 10.1147 53.054 9.956C53.2127 9.79733 53.411 9.718 53.649 9.718H56.981C57.0603 9.57067 57.1793 9.33833 57.338 9.021C57.44 8.76033 57.61 8.58467 57.848 8.494C58.086 8.392 58.3467 8.39767 58.63 8.511C59.1287 8.783 59.293 9.18533 59.123 9.718Z" fill="#222222"/>
<path d="M16.266 12.693L16.3367 12.6223V12.6223L16.266 12.693ZM16.266 17.657L16.3367 17.7277V17.7277L16.266 17.657ZM9.755 17.657L9.82571 17.5863V17.5863L9.755 17.657ZM9.755 12.693L9.82571 12.7637V12.7637L9.755 12.693ZM11.217 14.053V13.953H11.117V14.053H11.217ZM11.217 16.314H11.117V16.414H11.217V16.314ZM14.804 16.314V16.414H14.904V16.314H14.804ZM14.804 14.053H14.904V13.953H14.804V14.053ZM12.594 7.508V7.408H12.4976L12.4941 7.50438L12.594 7.508ZM10.401 11.656L10.459 11.738L10.466 11.732L10.401 11.656ZM9.126 11.52L9.04347 11.5765L9.04752 11.5824L9.05237 11.5877L9.126 11.52ZM9.347 10.228L9.27982 10.1538L9.27721 10.1564L9.347 10.228ZM10.86 7.508L10.9599 7.51281L10.9649 7.408H10.86V7.508ZM9.024 7.287L8.95052 7.35523L8.95596 7.36028L9.024 7.287ZM16.045 10.925L16.1166 10.9949L16.1166 10.9948L16.045 10.925ZM12.441 11.418L12.373 11.4913V11.4913L12.441 11.418ZM12.424 10.313L12.4918 10.3865L12.492 10.3863L12.424 10.313ZM13.971 10.092L13.971 10.192L13.9728 10.192L13.971 10.092ZM14.974 9.089L15.074 9.09245V9.089H14.974ZM14.974 7.508H15.074V7.408H14.974V7.508ZM7.052 18.626H6.952V18.7004L7.02327 18.7218L7.052 18.626ZM17.32 19.714L17.42 19.716V19.714H17.32ZM16.385 20.615V20.7151L16.3887 20.7149L16.385 20.615ZM5.692 19.969L5.64629 20.0579L5.6468 20.0582L5.692 19.969ZM3.856 17.963L3.94738 17.9224L3.80042 17.5917L3.75673 17.9509L3.856 17.963ZM3.448 20.071L3.54358 20.1004L3.54378 20.0997L3.448 20.071ZM2.921 20.683L2.88107 20.5912L2.87628 20.5936L2.921 20.683ZM2.139 20.717L2.10007 20.8092L2.10389 20.8106L2.139 20.717ZM1.697 19.442L1.60287 19.4082L1.6023 19.4099L1.697 19.442ZM2.445 13.951L2.545 13.952V13.951H2.445ZM2.7 13.271L2.76823 13.3441L2.76839 13.344L2.7 13.271ZM4.264 14.41H4.16341L4.16458 14.4208L4.264 14.41ZM5.318 17.487L5.24004 17.5496L5.418 17.7712V17.487H5.318ZM5.318 12.268H5.418V12.168H5.318V12.268ZM1.867 12.03L1.93523 11.9569V11.9569L1.867 12.03ZM1.867 10.84L1.93523 10.9131V10.9131L1.867 10.84ZM4.502 10.602V10.702H4.602V10.602H4.502ZM4.502 8.885H4.602V8.785H4.502V8.885ZM2.241 8.664L2.30649 8.58843V8.58843L2.241 8.664ZM2.241 7.491L2.30649 7.56657L2.30685 7.56626L2.241 7.491ZM4.502 7.253V7.353H4.602V7.253H4.502ZM5.981 5.485L5.91277 5.55811V5.55811L5.981 5.485ZM6.236 7.253H6.136V7.353H6.236V7.253ZM7.732 7.253L7.73766 7.153H7.732V7.253ZM8.65 8.069L8.75007 8.07122L8.74998 8.06678L8.65 8.069ZM7.732 8.885V8.98516L7.73765 8.98484L7.732 8.885ZM6.236 8.885V8.785H6.136V8.885H6.236ZM6.236 10.602H6.136V10.702H6.236V10.602ZM8.531 10.84L8.46277 10.9131V10.9131L8.531 10.84ZM8.531 12.03L8.46277 11.9569V11.9569L8.531 12.03ZM7.052 12.268V12.168H6.952V12.268H7.052ZM7.052 14.546H6.952V14.646H7.052V14.546ZM8.667 14.784L8.59085 14.8493L8.59629 14.8547L8.667 14.784ZM8.667 15.991L8.59372 15.923L8.59352 15.9232L8.667 15.991ZM7.052 16.212V16.112H6.952V16.212H7.052ZM15.586 12.421V12.521C15.8333 12.521 16.0339 12.6024 16.1953 12.7637L16.266 12.693L16.3367 12.6223C16.1354 12.421 15.8827 12.321 15.586 12.321V12.421ZM16.266 12.693L16.1953 12.7637C16.3566 12.9251 16.438 13.1257 16.438 13.373H16.538H16.638C16.638 13.0763 16.538 12.8236 16.3367 12.6223L16.266 12.693ZM16.538 13.373H16.438V16.977H16.538H16.638V13.373H16.538ZM16.538 16.977H16.438C16.438 17.2243 16.3566 17.4249 16.1953 17.5863L16.266 17.657L16.3367 17.7277C16.538 17.5264 16.638 17.2737 16.638 16.977H16.538ZM16.266 17.657L16.1953 17.5863C16.0339 17.7476 15.8333 17.829 15.586 17.829V17.929V18.029C15.8827 18.029 16.1354 17.929 16.3367 17.7277L16.266 17.657ZM15.586 17.929V17.829H10.435V17.929V18.029H15.586V17.929ZM10.435 17.929V17.829C10.1877 17.829 9.98707 17.7476 9.82571 17.5863L9.755 17.657L9.68429 17.7277C9.8856 17.929 10.1383 18.029 10.435 18.029V17.929ZM9.755 17.657L9.82571 17.5863C9.66436 17.4249 9.583 17.2243 9.583 16.977H9.483H9.383C9.383 17.2737 9.48298 17.5264 9.68429 17.7277L9.755 17.657ZM9.483 16.977H9.583V13.373H9.483H9.383V16.977H9.483ZM9.483 13.373H9.583C9.583 13.1257 9.66436 12.9251 9.82571 12.7637L9.755 12.693L9.68429 12.6223C9.48298 12.8236 9.383 13.0763 9.383 13.373H9.483ZM9.755 12.693L9.82571 12.7637C9.98707 12.6024 10.1877 12.521 10.435 12.521V12.421V12.321C10.1383 12.321 9.8856 12.421 9.68429 12.6223L9.755 12.693ZM10.435 12.421V12.521H15.586V12.421V12.321H10.435V12.421ZM11.217 14.053H11.117V16.314H11.217H11.317V14.053H11.217ZM11.217 16.314V16.414H14.804V16.314V16.214H11.217V16.314ZM14.804 16.314H14.904V14.053H14.804H14.704V16.314H14.804ZM14.804 14.053V13.953H11.217V14.053V14.153H14.804V14.053ZM12.594 7.508L12.4941 7.50438C12.4386 9.03533 11.7243 10.3932 10.336 11.58L10.401 11.656L10.466 11.732C11.8884 10.5161 12.6361 9.10866 12.6939 7.51162L12.594 7.508ZM10.401 11.656L10.3433 11.5744C10.1241 11.7294 9.92561 11.7884 9.74436 11.7691C9.56309 11.7497 9.3814 11.6501 9.19963 11.4523L9.126 11.52L9.05237 11.5877C9.25594 11.8092 9.47941 11.9419 9.72314 11.9679C9.96689 11.9939 10.2132 11.9113 10.4587 11.7376L10.401 11.656ZM9.126 11.52L9.20853 11.4635C9.07282 11.2652 9.02719 11.0757 9.05882 10.8909C9.09089 10.7034 9.20488 10.5061 9.41679 10.2996L9.347 10.228L9.27721 10.1564C9.04712 10.3806 8.90328 10.6139 8.86168 10.8571C8.81964 11.1029 8.88451 11.3441 9.04347 11.5765L9.126 11.52ZM9.347 10.228L9.41414 10.3021C10.3895 9.41853 10.9128 8.48879 10.9599 7.51281L10.86 7.508L10.7601 7.50319C10.7165 8.40855 10.2312 9.29213 9.27986 10.1539L9.347 10.228ZM10.86 7.508V7.408H9.67V7.508V7.608H10.86V7.508ZM9.67 7.508V7.408C9.4165 7.408 9.2278 7.33978 9.09205 7.21372L9.024 7.287L8.95596 7.36028C9.13753 7.52888 9.3795 7.608 9.67 7.608V7.508ZM9.024 7.287L9.09728 7.21896C8.96972 7.08158 8.903 6.90319 8.903 6.675H8.803H8.703C8.703 6.94547 8.78361 7.17508 8.95072 7.35505L9.024 7.287ZM8.803 6.675H8.903C8.903 6.48765 8.97063 6.33281 9.10905 6.20428L9.041 6.131L8.97296 6.05772C8.79404 6.22386 8.703 6.43168 8.703 6.675H8.803ZM9.041 6.131L9.10905 6.20428C9.24558 6.0775 9.42913 6.01 9.67 6.01V5.91V5.81C9.38953 5.81 9.15375 5.88984 8.97296 6.05772L9.041 6.131ZM9.67 5.91V6.01H15.756V5.91V5.81H9.67V5.91ZM15.756 5.91V6.01C16.0033 6.01 16.2039 6.09136 16.3653 6.25271L16.436 6.182L16.5067 6.11129C16.3054 5.90998 16.0527 5.81 15.756 5.81V5.91ZM16.436 6.182L16.3653 6.25271C16.5266 6.41406 16.608 6.61474 16.608 6.862H16.708H16.808C16.808 6.56526 16.708 6.3126 16.5067 6.11129L16.436 6.182ZM16.708 6.862H16.608V9.123H16.708H16.808V6.862H16.708ZM16.708 9.123H16.608C16.608 9.84999 16.3939 10.4239 15.9734 10.8552L16.045 10.925L16.1166 10.9948C16.5801 10.5195 16.808 9.89201 16.808 9.123H16.708ZM16.045 10.925L15.9734 10.8551C15.5306 11.3088 14.9404 11.539 14.192 11.539V11.639V11.739C14.985 11.739 15.6301 11.4932 16.1166 10.9949L16.045 10.925ZM14.192 11.639V11.539H13.07V11.639V11.739H14.192V11.639ZM13.07 11.639V11.539C12.8291 11.539 12.6456 11.4715 12.509 11.3447L12.441 11.418L12.373 11.4913C12.5538 11.6592 12.7895 11.739 13.07 11.739V11.639ZM12.441 11.418L12.509 11.3447C12.3718 11.2173 12.303 11.0573 12.303 10.857H12.203H12.103C12.103 11.11 12.1929 11.324 12.373 11.4913L12.441 11.418ZM12.203 10.857H12.303C12.303 10.6542 12.3678 10.501 12.4918 10.3865L12.424 10.313L12.3562 10.2395C12.1856 10.397 12.103 10.6064 12.103 10.857H12.203ZM12.424 10.313L12.492 10.3863C12.6278 10.2602 12.8165 10.192 13.07 10.192V10.092V9.992C12.7795 9.992 12.5375 10.0711 12.356 10.2397L12.424 10.313ZM13.07 10.092V10.192H13.971V10.092V9.992H13.07V10.092ZM13.971 10.092L13.9728 10.192C14.312 10.186 14.5856 10.0948 14.777 9.90346C14.968 9.7124 15.0621 9.43646 15.0739 9.09245L14.974 9.089L14.8741 9.08555C14.8633 9.39887 14.7788 9.61877 14.6355 9.76204C14.4926 9.90502 14.276 9.98663 13.9692 9.99201L13.971 10.092ZM14.974 9.089H15.074V7.508H14.974H14.874V9.089H14.974ZM14.974 7.508V7.408H12.594V7.508V7.608H14.974V7.508ZM7.052 18.626L7.02327 18.7218C7.60244 18.8955 8.32695 18.981 9.194 18.981V18.881V18.781C8.33839 18.781 7.63489 18.6965 7.08073 18.5302L7.052 18.626ZM9.194 18.881V18.981H16.385V18.881V18.781H9.194V18.881ZM16.385 18.881V18.981C16.6839 18.981 16.8894 19.0478 17.0197 19.1639C17.1478 19.278 17.22 19.4549 17.22 19.714H17.32H17.42C17.42 19.4177 17.3363 19.1781 17.1528 19.0146C16.9714 18.853 16.7094 18.781 16.385 18.781V18.881ZM17.32 19.714L17.22 19.712C17.2147 19.9837 17.1394 20.1745 17.0084 20.3007C16.8764 20.4279 16.6729 20.5043 16.3813 20.5151L16.385 20.615L16.3887 20.7149C16.7091 20.7031 16.9674 20.6179 17.1471 20.4448C17.3278 20.2707 17.414 20.0223 17.42 19.716L17.32 19.714ZM16.385 20.615V20.515H9.194V20.615V20.715H16.385V20.615ZM9.194 20.615V20.515C7.71713 20.515 6.56752 20.3005 5.7372 19.8798L5.692 19.969L5.6468 20.0582C6.51648 20.4988 7.70154 20.715 9.194 20.715V20.615ZM5.692 19.969L5.73771 19.8801C4.94396 19.4722 4.34705 18.8216 3.94738 17.9224L3.856 17.963L3.76462 18.0036C4.18095 18.9404 4.80804 19.6272 5.64629 20.0579L5.692 19.969ZM3.856 17.963L3.75673 17.9509C3.65515 18.7861 3.52006 19.4828 3.35222 20.0423L3.448 20.071L3.54378 20.0997C3.71594 19.5259 3.85285 18.8172 3.95527 17.9751L3.856 17.963ZM3.448 20.071L3.35242 20.0416C3.26952 20.311 3.11256 20.4907 2.88113 20.5913L2.921 20.683L2.96087 20.7747C3.25077 20.6487 3.44515 20.4203 3.54358 20.1004L3.448 20.071ZM2.921 20.683L2.87628 20.5936C2.65297 20.7052 2.42131 20.7161 2.17411 20.6234L2.139 20.717L2.10389 20.8106C2.40069 20.9219 2.69036 20.9101 2.96572 20.7724L2.921 20.683ZM2.139 20.717L2.1779 20.6249C1.9425 20.5255 1.80278 20.3837 1.74048 20.204C1.6769 20.0206 1.68782 19.7803 1.7917 19.4741L1.697 19.442L1.6023 19.4099C1.49084 19.7384 1.46777 20.0279 1.55152 20.2695C1.63655 20.5148 1.8255 20.6932 2.1001 20.8091L2.139 20.717ZM1.697 19.442L1.79112 19.4758C2.27257 18.1346 2.52228 16.2915 2.545 13.952L2.445 13.951L2.345 13.95C2.32239 16.2799 2.07343 18.0974 1.60288 19.4082L1.697 19.442ZM2.445 13.951H2.545C2.545 13.6762 2.62361 13.4791 2.76823 13.3441L2.7 13.271L2.63177 13.1979C2.43639 13.3802 2.345 13.6365 2.345 13.951H2.445ZM2.7 13.271L2.76839 13.344C2.92783 13.1945 3.13973 13.116 3.414 13.116V13.016V12.916C3.09894 12.916 2.83483 13.0075 2.63161 13.198L2.7 13.271ZM3.414 13.016V13.116C3.6788 13.116 3.85996 13.1896 3.97691 13.3206C4.09578 13.4537 4.164 13.6635 4.164 13.968H4.264H4.364C4.364 13.6379 4.29056 13.3716 4.12609 13.1874C3.9597 13.001 3.71587 12.916 3.414 12.916V13.016ZM4.264 13.968H4.164V14.41H4.264H4.364V13.968H4.264ZM4.264 14.41L4.16458 14.4208C4.31294 15.7902 4.66791 16.8374 5.24004 17.5496L5.318 17.487L5.39596 17.4244C4.85742 16.7539 4.50973 15.7498 4.36342 14.3992L4.264 14.41ZM5.318 17.487H5.418V12.268H5.318H5.218V17.487H5.318ZM5.318 12.268V12.168H2.547V12.268V12.368H5.318V12.268ZM2.547 12.268V12.168C2.28316 12.168 2.08285 12.0947 1.93523 11.9569L1.867 12.03L1.79877 12.1031C1.99115 12.2827 2.24417 12.368 2.547 12.368V12.268ZM1.867 12.03L1.93523 11.9569C1.78603 11.8176 1.712 11.646 1.712 11.435H1.612H1.512C1.512 11.7 1.60797 11.925 1.79877 12.1031L1.867 12.03ZM1.612 11.435H1.712C1.712 11.224 1.78603 11.0524 1.93523 10.9131L1.867 10.84L1.79877 10.7669C1.60797 10.945 1.512 11.17 1.512 11.435H1.612ZM1.867 10.84L1.93523 10.9131C2.08285 10.7753 2.28316 10.702 2.547 10.702V10.602V10.502C2.24417 10.502 1.99115 10.5873 1.79877 10.7669L1.867 10.84ZM2.547 10.602V10.702H4.502V10.602V10.502H2.547V10.602ZM4.502 10.602H4.602V8.885H4.502H4.402V10.602H4.502ZM4.502 8.885V8.785H2.921V8.885V8.985H4.502V8.885ZM2.921 8.885V8.785C2.65529 8.785 2.45397 8.71625 2.30649 8.58843L2.241 8.664L2.17551 8.73957C2.36803 8.90642 2.62005 8.985 2.921 8.985V8.885ZM2.241 8.664L2.30649 8.58843C2.15981 8.46131 2.086 8.29691 2.086 8.086H1.986H1.886C1.886 8.35109 1.98219 8.57202 2.17551 8.73957L2.241 8.664ZM1.986 8.086H2.086C2.086 7.86214 2.16094 7.69271 2.30649 7.56657L2.241 7.491L2.17551 7.41543C1.98106 7.58395 1.886 7.81119 1.886 8.086H1.986ZM2.241 7.491L2.30685 7.56626C2.46759 7.42561 2.66989 7.353 2.921 7.353V7.253V7.153C2.62811 7.153 2.37708 7.23906 2.17515 7.41574L2.241 7.491ZM2.921 7.253V7.353H4.502V7.253V7.153H2.921V7.253ZM4.502 7.253H4.602V6.114H4.502H4.402V7.253H4.502ZM4.502 6.114H4.602C4.602 5.87735 4.67805 5.69547 4.82523 5.55811L4.757 5.485L4.68877 5.41189C4.49595 5.59186 4.402 5.82932 4.402 6.114H4.502ZM4.757 5.485L4.82523 5.55811C4.97624 5.41717 5.15567 5.347 5.369 5.347V5.247V5.147C5.10633 5.147 4.87776 5.2355 4.68877 5.41189L4.757 5.485ZM5.369 5.247V5.347C5.58233 5.347 5.76176 5.41717 5.91277 5.55811L5.981 5.485L6.04923 5.41189C5.86024 5.2355 5.63167 5.147 5.369 5.147V5.247ZM5.981 5.485L5.91277 5.55811C6.05995 5.69547 6.136 5.87735 6.136 6.114H6.236H6.336C6.336 5.82932 6.24205 5.59186 6.04923 5.41189L5.981 5.485ZM6.236 6.114H6.136V7.253H6.236H6.336V6.114H6.236ZM6.236 7.253V7.353H7.732V7.253V7.153H6.236V7.253ZM7.732 7.253L7.72635 7.35284C8.01436 7.36914 8.21572 7.44183 8.34556 7.55724C8.47289 7.67042 8.54481 7.83669 8.55002 8.07122L8.65 8.069L8.74998 8.06678C8.74385 7.79131 8.65711 7.56658 8.47844 7.40776C8.30228 7.25117 8.0503 7.17086 7.73765 7.15316L7.732 7.253ZM8.65 8.069L8.55002 8.06678C8.54481 8.30131 8.47289 8.46758 8.34556 8.58076C8.21572 8.69617 8.01436 8.76886 7.72635 8.78516L7.732 8.885L7.73765 8.98484C8.0503 8.96714 8.30228 8.88683 8.47844 8.73024C8.65711 8.57142 8.74385 8.34669 8.74998 8.07122L8.65 8.069ZM7.732 8.885V8.785H6.236V8.885V8.985H7.732V8.885ZM6.236 8.885H6.136V10.602H6.236H6.336V8.885H6.236ZM6.236 10.602V10.702H7.851V10.602V10.502H6.236V10.602ZM7.851 10.602V10.702C8.11484 10.702 8.31515 10.7753 8.46277 10.9131L8.531 10.84L8.59923 10.7669C8.40685 10.5873 8.15383 10.502 7.851 10.502V10.602ZM8.531 10.84L8.46277 10.9131C8.61197 11.0524 8.686 11.224 8.686 11.435H8.786H8.886C8.886 11.17 8.79003 10.945 8.59923 10.7669L8.531 10.84ZM8.786 11.435H8.686C8.686 11.646 8.61197 11.8176 8.46277 11.9569L8.531 12.03L8.59923 12.1031C8.79003 11.925 8.886 11.7 8.886 11.435H8.786ZM8.531 12.03L8.46277 11.9569C8.31515 12.0947 8.11484 12.168 7.851 12.168V12.268V12.368C8.15383 12.368 8.40685 12.2827 8.59923 12.1031L8.531 12.03ZM7.851 12.268V12.168H7.052V12.268V12.368H7.851V12.268ZM7.052 12.268H6.952V14.546H7.052H7.152V12.268H7.052ZM7.052 14.546V14.646H8.021V14.546V14.446H7.052V14.546ZM8.021 14.546V14.646C8.2989 14.646 8.48089 14.7205 8.59107 14.8491L8.667 14.784L8.74293 14.7189C8.58111 14.5301 8.33244 14.446 8.021 14.446V14.546ZM8.667 14.784L8.59629 14.8547C8.72126 14.9797 8.788 15.1506 8.788 15.379H8.888H8.988C8.988 15.1087 8.90741 14.883 8.73771 14.7133L8.667 14.784ZM8.888 15.379H8.788C8.788 15.6072 8.72128 15.7856 8.59372 15.923L8.667 15.991L8.74028 16.059C8.90739 15.8791 8.988 15.6495 8.988 15.379H8.888ZM8.667 15.991L8.59352 15.9232C8.48386 16.042 8.30098 16.112 8.021 16.112V16.212V16.312C8.33035 16.312 8.57814 16.2347 8.74048 16.0588L8.667 15.991ZM8.021 16.212V16.112H7.052V16.212V16.312H8.021V16.212ZM7.052 16.212H6.952V18.626H7.052H7.152V16.212H7.052ZM33.351 19.153H33.251V19.253H33.351V19.153ZM34.303 19.374L34.2323 19.4447V19.4447L34.303 19.374ZM34.303 20.479L34.3737 20.5497V20.5497L34.303 20.479ZM22.845 20.479L22.9157 20.4083V20.4083L22.845 20.479ZM22.845 19.374L22.9157 19.4447V19.4447L22.845 19.374ZM23.916 19.153V19.253H24.016V19.153H23.916ZM24.171 9.531L24.1003 9.46029V9.46029L24.171 9.531ZM27.69 9.259V9.359H27.79V9.259H27.69ZM27.69 8.103H27.79V8.003H27.69V8.103ZM27.69 6.556V6.656H27.79V6.556H27.69ZM29.628 6.556H29.528V6.656H29.628V6.556ZM29.628 8.103V8.003H29.528V8.103H29.628ZM29.628 9.259H29.528V9.359H29.628V9.259ZM33.079 9.531L33.0059 9.59954L33.0106 9.60395L33.079 9.531ZM31.447 19.153V19.253H31.547V19.153H31.447ZM31.447 18.048H31.547V17.948H31.447V18.048ZM25.803 18.048V17.948H25.703V18.048H25.803ZM25.803 19.153H25.703V19.253H25.803V19.153ZM31.447 16.739V16.839H31.547V16.739H31.447ZM31.447 15.6H31.547V15.5H31.447V15.6ZM25.803 15.6V15.5H25.703V15.6H25.803ZM25.803 16.739H25.703V16.839H25.803V16.739ZM31.447 14.308V14.408H31.547V14.308H31.447ZM31.447 13.169H31.547V13.069H31.447V13.169ZM25.803 13.169V13.069H25.703V13.169H25.803ZM25.803 14.308H25.703V14.408H25.803V14.308ZM31.447 11.877V11.977H31.547V11.877H31.447ZM31.447 10.755H31.547V10.655H31.447V10.755ZM25.803 10.755V10.655H25.703V10.755H25.803ZM25.803 11.877H25.703V11.977H25.803V11.877ZM21.145 11.554L21.0548 11.5109L20.9863 11.654H21.145V11.554ZM20.21 13.271H20.31V13.0349L20.1404 13.1992L20.21 13.271ZM18.969 13.356L18.9022 13.4304L18.9084 13.436L18.9154 13.4405L18.969 13.356ZM18.697 11.945L18.6091 11.897L18.6068 11.9018L18.697 11.945ZM21.298 5.944L21.3927 5.97607L21.3933 5.97432L21.298 5.944ZM21.74 5.417L21.699 5.32579L21.6972 5.32663L21.74 5.417ZM22.454 5.383L22.4924 5.29027L22.4843 5.28771L22.454 5.383ZM23.134 6.624L23.0401 6.5895L23.0392 6.59219L23.134 6.624ZM33.351 19.153V19.253H33.742V19.153V19.053H33.351V19.153ZM33.742 19.153V19.253C33.9447 19.253 34.1055 19.3179 34.2323 19.4447L34.303 19.374L34.3737 19.3033C34.2059 19.1355 33.9926 19.053 33.742 19.053V19.153ZM34.303 19.374L34.2323 19.4447C34.3602 19.5726 34.424 19.7282 34.424 19.918H34.524H34.624C34.624 19.6771 34.5405 19.4701 34.3737 19.3033L34.303 19.374ZM34.524 19.918H34.424C34.424 20.1207 34.3591 20.2815 34.2323 20.4083L34.303 20.479L34.3737 20.5497C34.5415 20.3819 34.624 20.1686 34.624 19.918H34.524ZM34.303 20.479L34.2323 20.4083C34.1044 20.5362 33.9488 20.6 33.759 20.6V20.7V20.8C33.9999 20.8 34.2069 20.7165 34.3737 20.5497L34.303 20.479ZM33.759 20.7V20.6H23.389V20.7V20.8H33.759V20.7ZM23.389 20.7V20.6C23.1992 20.6 23.0436 20.5362 22.9157 20.4083L22.845 20.479L22.7743 20.5497C22.9411 20.7165 23.1481 20.8 23.389 20.8V20.7ZM22.845 20.479L22.9157 20.4083C22.7889 20.2815 22.724 20.1207 22.724 19.918H22.624H22.524C22.524 20.1686 22.6065 20.3819 22.7743 20.5497L22.845 20.479ZM22.624 19.918H22.724C22.724 19.7282 22.7878 19.5726 22.9157 19.4447L22.845 19.374L22.7743 19.3033C22.6075 19.4701 22.524 19.6771 22.524 19.918H22.624ZM22.845 19.374L22.9157 19.4447C23.0425 19.3179 23.2033 19.253 23.406 19.253V19.153V19.053C23.1554 19.053 22.9421 19.1355 22.7743 19.3033L22.845 19.374ZM23.406 19.153V19.253H23.916V19.153V19.053H23.406V19.153ZM23.916 19.153H24.016V10.194H23.916H23.816V19.153H23.916ZM23.916 10.194H24.016C24.016 9.94472 24.093 9.75043 24.2417 9.60171L24.171 9.531L24.1003 9.46029C23.909 9.65157 23.816 9.89927 23.816 10.194H23.916ZM24.171 9.531L24.2417 9.60171C24.4031 9.44036 24.6037 9.359 24.851 9.359V9.259V9.159C24.5543 9.159 24.3016 9.25898 24.1003 9.46029L24.171 9.531ZM24.851 9.259V9.359H27.69V9.259V9.159H24.851V9.259ZM27.69 9.259H27.79V8.103H27.69H27.59V9.259H27.69ZM27.69 8.103V8.003H24.188V8.103V8.203H27.69V8.103ZM24.188 8.103V8.003C23.9982 8.003 23.8426 7.93918 23.7147 7.81129L23.644 7.882L23.5733 7.95271C23.7401 8.11949 23.9471 8.203 24.188 8.203V8.103ZM23.644 7.882L23.7147 7.81129C23.5868 7.6834 23.523 7.5278 23.523 7.338H23.423H23.323C23.323 7.57886 23.4065 7.78593 23.5733 7.95271L23.644 7.882ZM23.423 7.338H23.523C23.523 7.13529 23.5879 6.97455 23.7147 6.84771L23.644 6.777L23.5733 6.70629C23.4055 6.87412 23.323 7.08738 23.323 7.338H23.423ZM23.644 6.777L23.7147 6.84771C23.8415 6.72087 24.0023 6.656 24.205 6.656V6.556V6.456C23.9544 6.456 23.7411 6.53846 23.5733 6.70629L23.644 6.777ZM24.205 6.556V6.656H27.69V6.556V6.456H24.205V6.556ZM27.69 6.556H27.79V6.182H27.69H27.59V6.556H27.69ZM27.69 6.182H27.79C27.79 5.92214 27.8722 5.71624 28.0327 5.55571L27.962 5.485L27.8913 5.41429C27.6891 5.61643 27.59 5.8752 27.59 6.182H27.69ZM27.962 5.485L28.0327 5.55571C28.1932 5.39518 28.3991 5.313 28.659 5.313V5.213V5.113C28.3522 5.113 28.0934 5.21215 27.8913 5.41429L27.962 5.485ZM28.659 5.213V5.313C28.9189 5.313 29.1248 5.39518 29.2853 5.55571L29.356 5.485L29.4267 5.41429C29.2246 5.21215 28.9658 5.113 28.659 5.113V5.213ZM29.356 5.485L29.2853 5.55571C29.4458 5.71624 29.528 5.92214 29.528 6.182H29.628H29.728C29.728 5.8752 29.6289 5.61643 29.4267 5.41429L29.356 5.485ZM29.628 6.182H29.528V6.556H29.628H29.728V6.182H29.628ZM29.628 6.556V6.656H33.453V6.556V6.456H29.628V6.556ZM33.453 6.556V6.656C33.6428 6.656 33.7984 6.71982 33.9263 6.84771L33.997 6.777L34.0677 6.70629C33.9009 6.53951 33.6939 6.456 33.453 6.456V6.556ZM33.997 6.777L33.9263 6.84771C34.0531 6.97455 34.118 7.13529 34.118 7.338H34.218H34.318C34.318 7.08738 34.2355 6.87412 34.0677 6.70629L33.997 6.777ZM34.218 7.338H34.118C34.118 7.5278 34.0542 7.6834 33.9263 7.81129L33.997 7.882L34.0677 7.95271C34.2345 7.78593 34.318 7.57886 34.318 7.338H34.218ZM33.997 7.882L33.9263 7.81129C33.7973 7.94032 33.6469 8.003 33.47 8.003V8.103V8.203C33.7011 8.203 33.9021 8.11835 34.0677 7.95271L33.997 7.882ZM33.47 8.103V8.003H29.628V8.103V8.203H33.47V8.103ZM29.628 8.103H29.528V9.259H29.628H29.728V8.103H29.628ZM29.628 9.259V9.359H32.416V9.259V9.159H29.628V9.259ZM32.416 9.259V9.359C32.6633 9.359 32.8568 9.44025 33.006 9.59939L33.079 9.531L33.152 9.46261C32.9612 9.25909 32.7127 9.159 32.416 9.159V9.259ZM33.079 9.531L33.0106 9.60395C33.1698 9.75315 33.251 9.94674 33.251 10.194H33.351H33.451C33.451 9.89726 33.3509 9.64884 33.1474 9.45805L33.079 9.531ZM33.351 10.194H33.251V19.153H33.351H33.451V10.194H33.351ZM31.447 19.153H31.547V18.048H31.447H31.347V19.153H31.447ZM31.447 18.048V17.948H25.803V18.048V18.148H31.447V18.048ZM25.803 18.048H25.703V19.153H25.803H25.903V18.048H25.803ZM25.803 19.153V19.253H31.447V19.153V19.053H25.803V19.153ZM31.447 16.739H31.547V15.6H31.447H31.347V16.739H31.447ZM31.447 15.6V15.5H25.803V15.6V15.7H31.447V15.6ZM25.803 15.6H25.703V16.739H25.803H25.903V15.6H25.803ZM25.803 16.739V16.839H31.447V16.739V16.639H25.803V16.739ZM31.447 14.308H31.547V13.169H31.447H31.347V14.308H31.447ZM31.447 13.169V13.069H25.803V13.169V13.269H31.447V13.169ZM25.803 13.169H25.703V14.308H25.803H25.903V13.169H25.803ZM25.803 14.308V14.408H31.447V14.308V14.208H25.803V14.308ZM31.447 11.877H31.547V10.755H31.447H31.347V11.877H31.447ZM31.447 10.755V10.655H25.803V10.755V10.855H31.447V10.755ZM25.803 10.755H25.703V11.877H25.803H25.903V10.755H25.803ZM25.803 11.877V11.977H31.447V11.877V11.777H25.803V11.877ZM21.145 11.554V11.654H21.179V11.554V11.454H21.145V11.554ZM21.179 11.554V11.654C21.4008 11.654 21.584 11.7333 21.735 11.8944L21.808 11.826L21.881 11.7576C21.692 11.556 21.4559 11.454 21.179 11.454V11.554ZM21.808 11.826L21.735 11.8944C21.8868 12.0562 21.963 12.2524 21.963 12.489H22.063H22.163C22.163 12.2043 22.0692 11.9584 21.881 11.7576L21.808 11.826ZM22.063 12.489H21.963V20.02H22.063H22.163V12.489H22.063ZM22.063 20.02H21.963C21.963 20.2693 21.886 20.4636 21.7373 20.6123L21.808 20.683L21.8787 20.7537C22.07 20.5624 22.163 20.3147 22.163 20.02H22.063ZM21.808 20.683L21.7373 20.6123C21.5868 20.7628 21.4029 20.838 21.179 20.838V20.938V21.038C21.4538 21.038 21.6892 20.9432 21.8787 20.7537L21.808 20.683ZM21.179 20.938V20.838H21.094V20.938V21.038H21.179V20.938ZM21.094 20.938V20.838C20.8701 20.838 20.6862 20.7628 20.5357 20.6123L20.465 20.683L20.3943 20.7537C20.5838 20.9432 20.8192 21.038 21.094 21.038V20.938ZM20.465 20.683L20.5357 20.6123C20.387 20.4636 20.31 20.2693 20.31 20.02H20.21H20.11C20.11 20.3147 20.203 20.5624 20.3943 20.7537L20.465 20.683ZM20.21 20.02H20.31V13.271H20.21H20.11V20.02H20.21ZM20.21 13.271L20.1404 13.1992C19.9722 13.3621 19.7994 13.4438 19.6209 13.456C19.4413 13.4683 19.2427 13.4112 19.0226 13.2715L18.969 13.356L18.9154 13.4405C19.1599 13.5955 19.4005 13.6715 19.6346 13.6555C19.8698 13.6394 20.0851 13.5312 20.2796 13.3428L20.21 13.271ZM18.969 13.356L19.0358 13.2816C18.8271 13.0943 18.708 12.8959 18.6677 12.6868C18.6274 12.4776 18.6637 12.246 18.7872 11.9882L18.697 11.945L18.6068 11.9018C18.4697 12.188 18.421 12.4636 18.4713 12.7247C18.5217 12.986 18.6689 13.2211 18.9022 13.4304L18.969 13.356ZM18.697 11.945L18.7847 11.993C19.7851 10.1627 20.6544 8.15699 21.3927 5.97607L21.298 5.944L21.2033 5.91193C20.4683 8.08301 19.6035 10.078 18.6093 11.897L18.697 11.945ZM21.298 5.944L21.3933 5.97432C21.4651 5.74853 21.5951 5.59626 21.7828 5.50737L21.74 5.417L21.6972 5.32663C21.4542 5.44174 21.2895 5.6408 21.2027 5.91368L21.298 5.944ZM21.74 5.417L21.781 5.50819C21.984 5.41687 22.1965 5.406 22.4237 5.47829L22.454 5.383L22.4843 5.28771C22.2129 5.20133 21.9494 5.21313 21.699 5.32581L21.74 5.417ZM22.454 5.383L22.4158 5.4754C22.7336 5.60692 22.9313 5.76639 23.0293 5.9453C23.1254 6.1206 23.1349 6.33153 23.0401 6.58952L23.134 6.624L23.2279 6.65848C23.3371 6.36114 23.3353 6.08756 23.2047 5.8492C23.0761 5.61445 22.8317 5.43108 22.4922 5.2906L22.454 5.383ZM23.134 6.624L23.0392 6.59219C22.4624 8.31117 21.8009 9.95071 21.0548 11.5109L21.145 11.554L21.2352 11.5971C21.9851 10.0293 22.6496 8.38216 23.2288 6.65581L23.134 6.624ZM48.107 18.677H48.007V18.777H48.107V18.677ZM51.473 19.493L51.573 19.4952V19.493H51.473ZM50.47 20.292V20.392L50.4717 20.392L50.47 20.292ZM43.33 20.292V20.192H43.2548L43.2339 20.2642L43.33 20.292ZM42.412 20.938L42.4102 21.038H42.412V20.938ZM41.46 19.952L41.36 19.9523L41.36 19.9538L41.46 19.952ZM41.443 13.424L41.543 13.4237L41.5427 13.3171L41.4363 13.3242L41.443 13.424ZM40.814 13.339L40.7585 13.4222L40.772 13.4312L40.7877 13.4355L40.814 13.339ZM40.678 13.254L40.7227 13.1646L40.5068 13.0566L40.5831 13.2856L40.678 13.254ZM40.712 13.356L40.8104 13.3383L40.8091 13.3312L40.8069 13.3244L40.712 13.356ZM40.083 14.478L40.1105 14.5743L40.1159 14.5724L40.083 14.478ZM39.131 14.75L39.1035 14.6538L39.031 14.6746V14.75H39.131ZM38.553 20.462L38.4823 20.3913V20.3913L38.553 20.462ZM35.765 19.459L35.6943 19.3883V19.3883L35.765 19.459ZM37.125 19.034L37.0539 18.9629L37.0469 18.9715L37.125 19.034ZM37.278 15.277H37.378V15.1406L37.2479 15.1816L37.278 15.277ZM36.615 15.481L36.6377 15.5786L36.6437 15.5768L36.615 15.481ZM35.357 14.784L35.2603 14.81L35.2621 14.8156L35.357 14.784ZM35.442 14.002L35.5278 14.0535L35.5288 14.0516L35.442 14.002ZM36.088 13.56L36.1069 13.6583L36.1103 13.6575L36.088 13.56ZM37.278 13.271L37.3029 13.3678L37.378 13.3485V13.271H37.278ZM37.278 10.007H37.378V9.907H37.278V10.007ZM35.867 9.752L35.9377 9.68129V9.68129L35.867 9.752ZM35.867 8.46L35.9377 8.53071V8.53071L35.867 8.46ZM37.278 8.205V8.305H37.378V8.205H37.278ZM37.533 5.536L37.4623 5.46529V5.46529L37.533 5.536ZM39.131 8.205H39.031V8.305H39.131V8.205ZM40.253 8.46L40.1823 8.53071V8.53071L40.253 8.46ZM40.253 9.752L40.3237 9.82271V9.82271L40.253 9.752ZM39.131 10.007V9.907H39.031V10.007H39.131ZM39.131 12.829H39.031V12.9527L39.152 12.9268L39.131 12.829ZM39.59 12.71L39.562 12.614L39.5606 12.6144L39.59 12.71ZM40.372 12.846L40.3157 12.9286L40.5905 13.116L40.4646 12.8081L40.372 12.846ZM40.406 11.979L40.3136 11.9407L40.3125 11.9435L40.406 11.979ZM42.293 5.995L42.1955 5.97276L42.1953 5.9736L42.293 5.995ZM43.449 5.213L43.4733 5.11588L43.4686 5.11494L43.449 5.213ZM44.163 6.403L44.0659 6.37873L44.0652 6.38205L44.163 6.403ZM43.823 7.763L43.7264 7.737L43.6925 7.863H43.823V7.763ZM46.186 7.763V7.863H46.286V7.763H46.186ZM47.155 5.247L47.1569 5.147H47.155V5.247ZM48.107 6.216H48.2071L48.2069 6.21243L48.107 6.216ZM48.107 7.763H48.007V7.863H48.107V7.763ZM50.334 7.763L50.3358 7.663H50.334V7.763ZM51.32 8.579L51.4201 8.58113L51.42 8.57687L51.32 8.579ZM50.334 9.395V9.49502L50.3358 9.49498L50.334 9.395ZM48.107 9.395V9.295H48.007V9.395H48.107ZM48.107 11.384H48.007V11.484H48.107V11.384ZM50.283 11.384L50.2848 11.284H50.283V11.384ZM51.269 12.2L51.3691 12.2021L51.369 12.1979L51.269 12.2ZM50.283 13.016V13.116L50.2848 13.116L50.283 13.016ZM48.107 13.016V12.916H48.007V13.016H48.107ZM48.107 14.971H48.007V15.071H48.107V14.971ZM50.283 14.971L50.2848 14.871H50.283V14.971ZM51.269 15.787L51.3691 15.7891L51.369 15.7849L51.269 15.787ZM50.283 16.603V16.703L50.2848 16.703L50.283 16.603ZM48.107 16.603V16.503H48.007V16.603H48.107ZM46.186 18.677V18.777H46.286V18.677H46.186ZM46.186 16.603H46.286V16.503H46.186V16.603ZM43.364 16.603V16.503H43.264V16.603H43.364ZM43.364 18.677H43.264V18.777H43.364V18.677ZM46.186 14.971V15.071H46.286V14.971H46.186ZM46.186 13.016H46.286V12.916H46.186V13.016ZM43.364 13.016V12.916H43.264V13.016H43.364ZM43.364 14.971H43.264V15.071H43.364V14.971ZM46.186 11.384V11.484H46.286V11.384H46.186ZM46.186 9.395H46.286V9.295H46.186V9.395ZM43.347 9.395V9.295H43.272L43.251 9.367L43.347 9.395ZM42.701 11.384L42.6066 11.3511L42.5603 11.484H42.701V11.384ZM48.107 18.677V18.777H50.47V18.677V18.577H48.107V18.677ZM50.47 18.677V18.777C50.7934 18.777 51.0173 18.8432 51.1591 18.9586C51.297 19.0708 51.373 19.2425 51.373 19.493H51.473H51.573C51.573 19.1995 51.4818 18.9632 51.2854 18.8034C51.0929 18.6468 50.8153 18.577 50.47 18.577V18.677ZM51.473 19.493L51.373 19.4908C51.3678 19.729 51.2903 19.8949 51.1514 20.0055C51.0086 20.1193 50.7861 20.1865 50.4683 20.192L50.47 20.292L50.4717 20.392C50.8112 20.3861 51.0846 20.3145 51.2761 20.162C51.4715 20.0063 51.5668 19.7784 51.573 19.4952L51.473 19.493ZM50.47 20.292V20.192H43.33V20.292V20.392H50.47V20.292ZM43.33 20.292L43.2339 20.2642C43.1766 20.4622 43.0804 20.6026 42.9495 20.6947C42.8177 20.7874 42.6413 20.838 42.412 20.838V20.938V21.038C42.6701 21.038 42.8903 20.9809 43.0645 20.8583C43.2396 20.7351 43.3587 20.5525 43.4261 20.3198L43.33 20.292ZM42.412 20.938L42.4138 20.838C42.1188 20.8327 41.9128 20.7527 41.7784 20.6135C41.6435 20.4738 41.5654 20.2584 41.56 19.9502L41.46 19.952L41.36 19.9538C41.3659 20.2916 41.4522 20.5636 41.6346 20.7525C41.8175 20.942 42.0819 21.032 42.4102 21.038L42.412 20.938ZM41.46 19.952L41.56 19.9517L41.543 13.4237L41.443 13.424L41.343 13.4243L41.36 19.9523L41.46 19.952ZM41.443 13.424L41.4363 13.3242C41.2816 13.3345 41.0839 13.309 40.8403 13.2425L40.814 13.339L40.7877 13.4355C41.0428 13.505 41.2644 13.5361 41.4497 13.5238L41.443 13.424ZM40.814 13.339L40.8695 13.2558C40.8026 13.2112 40.752 13.1792 40.7227 13.1646L40.678 13.254L40.6333 13.3434C40.6494 13.3515 40.6894 13.3761 40.7585 13.4222L40.814 13.339ZM40.678 13.254L40.5831 13.2856C40.5945 13.3196 40.6058 13.3536 40.6171 13.3876L40.712 13.356L40.8069 13.3244C40.7955 13.2904 40.7842 13.2564 40.7729 13.2224L40.678 13.254ZM40.712 13.356L40.6136 13.3737C40.6619 13.6421 40.6341 13.8518 40.544 14.0126C40.4543 14.1727 40.2945 14.2985 40.0501 14.3836L40.083 14.478L40.1159 14.5724C40.3928 14.4761 40.5986 14.3243 40.7185 14.1104C40.838 13.8972 40.8641 13.6366 40.8104 13.3383L40.712 13.356ZM40.083 14.478L40.0555 14.3818C39.7382 14.4725 39.4209 14.5632 39.1035 14.6538L39.131 14.75L39.1585 14.8462C39.4758 14.7555 39.7931 14.6648 40.1105 14.5742L40.083 14.478ZM39.131 14.75H39.031V18.49H39.131H39.231V14.75H39.131ZM39.131 18.49H39.031C39.031 19.4103 38.8393 20.0342 38.4823 20.3913L38.553 20.462L38.6237 20.5327C39.0373 20.1191 39.231 19.4283 39.231 18.49H39.131ZM38.553 20.462L38.4823 20.3913C38.1252 20.7483 37.5013 20.94 36.581 20.94V21.04V21.14C37.5193 21.14 38.2101 20.9463 38.6237 20.5327L38.553 20.462ZM36.581 21.04V20.94H36.428V21.04V21.14H36.581V21.04ZM36.428 21.04V20.94C36.1787 20.94 35.9844 20.863 35.8357 20.7143L35.765 20.785L35.6943 20.8557C35.8856 21.047 36.1333 21.14 36.428 21.14V21.04ZM35.765 20.785L35.8357 20.7143C35.687 20.5656 35.61 20.3713 35.61 20.122H35.51H35.41C35.41 20.4167 35.503 20.6644 35.6943 20.8557L35.765 20.785ZM35.51 20.122H35.61C35.61 19.8727 35.687 19.6784 35.8357 19.5297L35.765 19.459L35.6943 19.3883C35.503 19.5796 35.41 19.8273 35.41 20.122H35.51ZM35.765 19.459L35.8357 19.5297C35.9844 19.381 36.1787 19.304 36.428 19.304V19.204V19.104C36.1333 19.104 35.8856 19.197 35.6943 19.3883L35.765 19.459ZM36.428 19.204V19.304H36.649V19.204V19.104H36.428V19.204ZM36.649 19.204V19.304C36.8888 19.304 37.0848 19.2443 37.2031 19.0965L37.125 19.034L37.0469 18.9715C36.9839 19.0504 36.8625 19.104 36.649 19.104V19.204ZM37.125 19.034L37.1957 19.1047C37.3268 18.9736 37.378 18.7577 37.378 18.49H37.278H37.178C37.178 18.7437 37.1272 18.8904 37.0543 18.9633L37.125 19.034ZM37.278 18.49H37.378V15.277H37.278H37.178V18.49H37.278ZM37.278 15.277L37.2479 15.1816C37.033 15.2495 36.8125 15.3173 36.5863 15.3852L36.615 15.481L36.6437 15.5768C36.8708 15.5087 37.0923 15.4405 37.3081 15.3724L37.278 15.277ZM36.615 15.481L36.5924 15.3836C36.2904 15.4537 36.0542 15.4302 35.873 15.3298C35.6919 15.2294 35.5487 15.043 35.4519 14.7524L35.357 14.784L35.2621 14.8156C35.3693 15.137 35.5378 15.3727 35.776 15.5047C36.0141 15.6366 36.3049 15.6556 36.6376 15.5784L36.615 15.481ZM35.357 14.784L35.4536 14.758C35.3801 14.4851 35.4079 14.2532 35.5277 14.0534L35.442 14.002L35.3563 13.9506C35.2041 14.2041 35.1752 14.4935 35.2604 14.81L35.357 14.784ZM35.442 14.002L35.5288 14.0516C35.6489 13.8415 35.8378 13.7099 36.1069 13.6582L36.088 13.56L36.0691 13.4618C35.7489 13.5234 35.5071 13.6865 35.3552 13.9524L35.442 14.002ZM36.088 13.56L36.1103 13.6575C36.5078 13.5666 36.9054 13.4701 37.3029 13.3678L37.278 13.271L37.2531 13.1742C36.8573 13.2759 36.4615 13.372 36.0657 13.4625L36.088 13.56ZM37.278 13.271H37.378V10.007H37.278H37.178V13.271H37.278ZM37.278 10.007V9.907H36.513V10.007V10.107H37.278V10.007ZM36.513 10.007V9.907C36.2764 9.907 36.0873 9.83086 35.9377 9.68129L35.867 9.752L35.7963 9.82271C35.9867 10.0131 36.2283 10.107 36.513 10.107V10.007ZM35.867 9.752L35.9377 9.68129C35.7881 9.53172 35.712 9.34261 35.712 9.106H35.612H35.512C35.512 9.39072 35.6059 9.63228 35.7963 9.82271L35.867 9.752ZM35.612 9.106H35.712C35.712 8.86939 35.7881 8.68028 35.9377 8.53071L35.867 8.46L35.7963 8.38929C35.6059 8.57972 35.512 8.82128 35.512 9.106H35.612ZM35.867 8.46L35.9377 8.53071C36.0873 8.38114 36.2764 8.305 36.513 8.305V8.205V8.105C36.2283 8.105 35.9867 8.19886 35.7963 8.38929L35.867 8.46ZM36.513 8.205V8.305H37.278V8.205V8.105H36.513V8.205ZM37.278 8.205H37.378V6.199H37.278H37.178V8.205H37.278ZM37.278 6.199H37.378C37.378 5.94972 37.455 5.75543 37.6037 5.60671L37.533 5.536L37.4623 5.46529C37.271 5.65657 37.178 5.90427 37.178 6.199H37.278ZM37.533 5.536L37.6037 5.60671C37.7651 5.44536 37.9657 5.364 38.213 5.364V5.264V5.164C37.9163 5.164 37.6636 5.26398 37.4623 5.46529L37.533 5.536ZM38.213 5.264V5.364C38.4623 5.364 38.6566 5.44099 38.8053 5.58971L38.876 5.519L38.9467 5.44829C38.7554 5.25701 38.5077 5.164 38.213 5.164V5.264ZM38.876 5.519L38.8053 5.58971C38.954 5.73843 39.031 5.93272 39.031 6.182H39.131H39.231C39.231 5.88727 39.138 5.63957 38.9467 5.44829L38.876 5.519ZM39.131 6.182H39.031V8.205H39.131H39.231V6.182H39.131ZM39.131 8.205V8.305H39.607V8.205V8.105H39.131V8.205ZM39.607 8.205V8.305C39.8436 8.305 40.0327 8.38114 40.1823 8.53071L40.253 8.46L40.3237 8.38929C40.1333 8.19886 39.8917 8.105 39.607 8.105V8.205ZM40.253 8.46L40.1823 8.53071C40.3319 8.68028 40.408 8.86939 40.408 9.106H40.508H40.608C40.608 8.82128 40.5141 8.57972 40.3237 8.38929L40.253 8.46ZM40.508 9.106H40.408C40.408 9.34261 40.3319 9.53172 40.1823 9.68129L40.253 9.752L40.3237 9.82271C40.5141 9.63228 40.608 9.39072 40.608 9.106H40.508ZM40.253 9.752L40.1823 9.68129C40.0327 9.83086 39.8436 9.907 39.607 9.907V10.007V10.107C39.8917 10.107 40.1333 10.0131 40.3237 9.82271L40.253 9.752ZM39.607 10.007V9.907H39.131V10.007V10.107H39.607V10.007ZM39.131 10.007H39.031V12.829H39.131H39.231V10.007H39.131ZM39.131 12.829L39.152 12.9268C39.3133 12.8922 39.4691 12.8518 39.6194 12.8056L39.59 12.71L39.5606 12.6144C39.4162 12.6589 39.266 12.6978 39.11 12.7312L39.131 12.829ZM39.59 12.71L39.618 12.806C39.8592 12.7356 40.0892 12.7742 40.3157 12.9286L40.372 12.846L40.4283 12.7634C40.1561 12.5778 39.8648 12.5257 39.562 12.614L39.59 12.71ZM40.372 12.846L40.4646 12.8081C40.3748 12.5887 40.381 12.3269 40.4995 12.0145L40.406 11.979L40.3125 11.9435C40.1817 12.2884 40.1652 12.6046 40.2794 12.8839L40.372 12.846ZM40.406 11.979L40.4984 12.0172C41.3166 10.04 41.9474 8.03968 42.3907 6.0164L42.293 5.995L42.1953 5.9736C41.7546 7.98499 41.1274 9.97403 40.3136 11.9408L40.406 11.979ZM42.293 5.995L42.3905 6.01724C42.4609 5.70849 42.5843 5.5089 42.7485 5.39783C42.9119 5.28731 43.1341 5.252 43.4294 5.31106L43.449 5.213L43.4686 5.11494C43.1406 5.04933 42.8584 5.08202 42.6365 5.23217C42.4153 5.38176 42.2724 5.63551 42.1955 5.97276L42.293 5.995ZM43.449 5.213L43.4247 5.31001C43.7271 5.38561 43.9172 5.51338 44.0177 5.68095C44.1183 5.84852 44.1416 6.07637 44.066 6.37875L44.163 6.403L44.26 6.42725C44.3431 6.09496 44.3267 5.80715 44.1893 5.57805C44.0518 5.34895 43.8055 5.19906 43.4733 5.11598L43.449 5.213ZM44.163 6.403L44.0652 6.38205C43.9978 6.69681 43.885 7.14816 43.7264 7.737L43.823 7.763L43.9196 7.789C44.0784 7.19917 44.1922 6.74385 44.2608 6.42395L44.163 6.403ZM43.823 7.763V7.863H46.186V7.763V7.663H43.823V7.763ZM46.186 7.763H46.286V6.216H46.186H46.086V7.763H46.186ZM46.186 6.216H46.286C46.286 5.90841 46.3628 5.69609 46.499 5.55996C46.6351 5.42383 46.8474 5.347 47.155 5.347V5.247V5.147C46.8166 5.147 46.5444 5.23167 46.3575 5.41854C46.1707 5.60541 46.086 5.87759 46.086 6.216H46.186ZM47.155 5.247L47.1531 5.34698C47.4424 5.35234 47.646 5.43081 47.7807 5.56783C47.9159 5.70544 47.9963 5.91714 48.0071 6.21957L48.107 6.216L48.2069 6.21243C48.1951 5.88019 48.1055 5.61306 47.9233 5.42767C47.7406 5.24169 47.4796 5.15299 47.1569 5.14702L47.155 5.247ZM48.107 6.216H48.007V7.763H48.107H48.207V6.216H48.107ZM48.107 7.763V7.863H50.334V7.763V7.663H48.107V7.763ZM50.334 7.763L50.3322 7.86298C50.6437 7.86845 50.8614 7.93678 51.0012 8.05254C51.1378 8.16555 51.2148 8.33602 51.22 8.58113L51.32 8.579L51.42 8.57687C51.4139 8.28931 51.3209 8.05745 51.1288 7.89846C50.94 7.74222 50.6703 7.66888 50.3358 7.66302L50.334 7.763ZM51.32 8.579L51.22 8.57687C51.2148 8.82198 51.1378 8.99245 51.0012 9.10546C50.8614 9.22122 50.6437 9.28955 50.3322 9.29502L50.334 9.395L50.3358 9.49498C50.6703 9.48911 50.94 9.41578 51.1288 9.25954C51.3209 9.10055 51.4139 8.86868 51.42 8.58113L51.32 8.579ZM50.334 9.395V9.295H48.107V9.395V9.495H50.334V9.395ZM48.107 9.395H48.007V11.384H48.107H48.207V9.395H48.107ZM48.107 11.384V11.484H50.283V11.384V11.284H48.107V11.384ZM50.283 11.384L50.2812 11.484C50.5927 11.4894 50.8104 11.5578 50.9502 11.6735C51.0868 11.7866 51.1638 11.957 51.169 12.2021L51.269 12.2L51.369 12.1979C51.3629 11.9103 51.2699 11.6784 51.0778 11.5195C50.889 11.3632 50.6193 11.2899 50.2848 11.284L50.283 11.384ZM51.269 12.2L51.169 12.1979C51.1638 12.443 51.0868 12.6134 50.9502 12.7265C50.8104 12.8422 50.5927 12.9106 50.2812 12.916L50.283 13.016L50.2848 13.116C50.6193 13.1101 50.889 13.0368 51.0778 12.8805C51.2699 12.7215 51.3629 12.4897 51.369 12.2021L51.269 12.2ZM50.283 13.016V12.916H48.107V13.016V13.116H50.283V13.016ZM48.107 13.016H48.007V14.971H48.107H48.207V13.016H48.107ZM48.107 14.971V15.071H50.283V14.971V14.871H48.107V14.971ZM50.283 14.971L50.2812 15.071C50.5927 15.0764 50.8104 15.1448 50.9502 15.2605C51.0868 15.3736 51.1638 15.544 51.169 15.7891L51.269 15.787L51.369 15.7849C51.3629 15.4973 51.2699 15.2654 51.0778 15.1065C50.889 14.9502 50.6193 14.8769 50.2848 14.871L50.283 14.971ZM51.269 15.787L51.169 15.7849C51.1638 16.03 51.0868 16.2004 50.9502 16.3135C50.8104 16.4292 50.5927 16.4976 50.2812 16.503L50.283 16.603L50.2848 16.703C50.6193 16.6971 50.889 16.6238 51.0778 16.4675C51.2699 16.3085 51.3629 16.0767 51.369 15.7891L51.269 15.787ZM50.283 16.603V16.503H48.107V16.603V16.703H50.283V16.603ZM48.107 16.603H48.007V18.677H48.107H48.207V16.603H48.107ZM46.186 18.677H46.286V16.603H46.186H46.086V18.677H46.186ZM46.186 16.603V16.503H43.364V16.603V16.703H46.186V16.603ZM43.364 16.603H43.264V18.677H43.364H43.464V16.603H43.364ZM43.364 18.677V18.777H46.186V18.677V18.577H43.364V18.677ZM46.186 14.971H46.286V13.016H46.186H46.086V14.971H46.186ZM46.186 13.016V12.916H43.364V13.016V13.116H46.186V13.016ZM43.364 13.016H43.264V14.971H43.364H43.464V13.016H43.364ZM43.364 14.971V15.071H46.186V14.971V14.871H43.364V14.971ZM46.186 11.384H46.286V9.395H46.186H46.086V11.384H46.186ZM46.186 9.395V9.295H43.347V9.395V9.495H46.186V9.395ZM43.347 9.395L43.251 9.367C43.093 9.90882 42.8782 10.5701 42.6066 11.3511L42.701 11.384L42.7954 11.4169C43.0678 10.6339 43.2837 9.96918 43.443 9.423L43.347 9.395ZM42.701 11.384V11.484H46.186V11.384V11.284H42.701V11.384ZM64.682 15.753L64.6312 15.6668L64.3152 15.853H64.682V15.753ZM68.184 15.991L68.1105 16.0592L68.116 16.0643L68.184 15.991ZM68.201 17.164L68.2717 17.2347V17.2347L68.201 17.164ZM64.546 17.385V17.285H64.446V17.385H64.546ZM63.866 20.139L63.9383 20.208L63.9384 20.208L63.866 20.139ZM59.786 20.649L59.8519 20.5737V20.5737L59.786 20.649ZM62.353 19.017L62.4237 19.0877V19.0877L62.353 19.017ZM62.557 17.385H62.657V17.285H62.557V17.385ZM57.882 17.164L57.8085 17.2322L57.814 17.2373L57.882 17.164ZM57.882 15.991L57.9527 16.0617V16.0617L57.882 15.991ZM62.557 15.753V15.853H62.657V15.753H62.557ZM63.05 14.903L63.0034 14.8145L63.0017 14.8154L63.05 14.903ZM64.665 14.053L64.7116 14.1415L64.665 13.953V14.053ZM59.038 13.832L59.0987 13.7526V13.7526L59.038 13.832ZM59.038 12.659L59.1016 12.7362V12.7362L59.038 12.659ZM67.674 13.203L67.7736 13.1922L67.7725 13.1859L67.674 13.203ZM67.164 14.291L67.1182 14.2019L67.1133 14.2048L67.164 14.291ZM64.58 6.692H64.48V6.792H64.58V6.692ZM68.184 8.12L68.1133 8.04929V8.04929L68.184 8.12ZM52.986 8.12L52.9125 8.18823L52.918 8.19328L52.986 8.12ZM56.692 6.692V6.792H56.792V6.692H56.692ZM56.964 5.502L57.0347 5.57271V5.57271L56.964 5.502ZM58.375 5.485L58.3043 5.55571V5.55571L58.375 5.485ZM58.647 6.692H58.547V6.792H58.647V6.692ZM62.625 6.692V6.792H62.725V6.692H62.625ZM62.897 5.502L62.9677 5.57271V5.57271L62.897 5.502ZM59.123 9.718L59.0277 9.6876L58.9861 9.818H59.123V9.718ZM68.048 11.146L68.1187 11.2167V11.2167L68.048 11.146ZM58.307 11.367V11.267H58.2478L58.2193 11.3189L58.307 11.367ZM56.063 14.478L55.9905 14.4091L55.8614 14.5451L56.0462 14.5766L56.063 14.478ZM56.913 15.447H57.0132L57.0128 15.4409L56.913 15.447ZM54.975 15.566H55.075V15.3367L54.907 15.4927L54.975 15.566ZM54.227 16.229L54.2903 16.3064L54.2925 16.3046L54.227 16.229ZM52.816 16.161L52.7393 16.2256L52.7444 16.2308L52.816 16.161ZM52.561 15.413L52.4611 15.409V15.409L52.561 15.413ZM52.901 14.733L52.963 14.8115L52.9651 14.8097L52.901 14.733ZM56.029 11.367L56.112 11.4228L56.2169 11.267H56.029V11.367ZM53.037 11.146L52.9635 11.2142L52.969 11.2193L53.037 11.146ZM56.981 9.718V9.818H57.0407L57.069 9.76541L56.981 9.718ZM57.338 9.021L57.4278 9.06591L57.4311 9.05744L57.338 9.021ZM57.848 8.494L57.8836 8.58753L57.8874 8.58591L57.848 8.494ZM58.63 8.511L58.6782 8.42259L58.6671 8.41815L58.63 8.511ZM64.682 15.753V15.853H67.606V15.753V15.653H64.682V15.753ZM67.606 15.753V15.853C67.8193 15.853 67.9843 15.9229 68.1107 16.059L68.184 15.991L68.2573 15.923C68.089 15.7418 67.8687 15.653 67.606 15.653V15.753ZM68.184 15.991L68.116 16.0643C68.2511 16.1898 68.322 16.3599 68.322 16.586H68.422H68.522C68.522 16.3135 68.4342 16.0869 68.252 15.9177L68.184 15.991ZM68.422 16.586H68.322C68.322 16.8016 68.2562 16.9674 68.1303 17.0933L68.201 17.164L68.2717 17.2347C68.4405 17.0659 68.522 16.8464 68.522 16.586H68.422ZM68.201 17.164L68.1303 17.0933C68.0053 17.2183 67.8344 17.285 67.606 17.285V17.385V17.485C67.8763 17.485 68.102 17.4044 68.2717 17.2347L68.201 17.164ZM67.606 17.385V17.285H64.546V17.385V17.485H67.606V17.385ZM64.546 17.385H64.446V18.388H64.546H64.646V17.385H64.546ZM64.546 18.388H64.446C64.446 19.0551 64.2282 19.6137 63.7936 20.07L63.866 20.139L63.9384 20.208C64.4104 19.7123 64.646 19.1035 64.646 18.388H64.546ZM63.866 20.139L63.7937 20.07C63.3379 20.5474 62.7584 20.787 62.047 20.787V20.887V20.987C62.8089 20.987 63.4421 20.7279 63.9383 20.208L63.866 20.139ZM62.047 20.887V20.787H60.466V20.887V20.987H62.047V20.887ZM60.466 20.887V20.787C60.2149 20.787 60.0126 20.7144 59.8519 20.5737L59.786 20.649L59.7201 20.7243C59.9221 20.9009 60.1731 20.987 60.466 20.987V20.887ZM59.786 20.649L59.8519 20.5737C59.6931 20.4348 59.614 20.2586 59.614 20.037H59.514H59.414C59.414 20.314 59.5163 20.5459 59.7201 20.7243L59.786 20.649ZM59.514 20.037H59.614C59.614 19.8155 59.6928 19.6465 59.8491 19.5196L59.786 19.442L59.7229 19.3644C59.5165 19.5321 59.414 19.7599 59.414 20.037H59.514ZM59.786 19.442L59.8491 19.5196C60.0097 19.3891 60.213 19.321 60.466 19.321V19.221V19.121C60.175 19.121 59.9249 19.2003 59.7229 19.3644L59.786 19.442ZM60.466 19.221V19.321H61.826V19.221V19.121H60.466V19.221ZM61.826 19.221V19.321C62.0644 19.321 62.2666 19.2448 62.4237 19.0877L62.353 19.017L62.2823 18.9463C62.1674 19.0612 62.0183 19.121 61.826 19.121V19.221ZM62.353 19.017L62.4237 19.0877C62.5808 18.9306 62.657 18.7284 62.657 18.49H62.557H62.457C62.457 18.6823 62.3972 18.8314 62.2823 18.9463L62.353 19.017ZM62.557 18.49H62.657V17.385H62.557H62.457V18.49H62.557ZM62.557 17.385V17.285H58.477V17.385V17.485H62.557V17.385ZM58.477 17.385V17.285C58.2615 17.285 58.0883 17.2191 57.95 17.0907L57.882 17.164L57.814 17.2373C57.993 17.4036 58.2165 17.485 58.477 17.485V17.385ZM57.882 17.164L57.9553 17.096C57.8269 16.9577 57.761 16.7845 57.761 16.569H57.661H57.561C57.561 16.8295 57.6424 17.053 57.8087 17.232L57.882 17.164ZM57.661 16.569H57.761C57.761 16.3534 57.8268 16.1876 57.9527 16.0617L57.882 15.991L57.8113 15.9203C57.6425 16.0891 57.561 16.3086 57.561 16.569H57.661ZM57.882 15.991L57.9527 16.0617C58.0914 15.923 58.2637 15.853 58.477 15.853V15.753V15.653C58.2143 15.653 57.9899 15.7416 57.8113 15.9203L57.882 15.991ZM58.477 15.753V15.853H62.557V15.753V15.653H58.477V15.753ZM62.557 15.753H62.657V15.702H62.557H62.457V15.753H62.557ZM62.557 15.702H62.657C62.657 15.5425 62.6941 15.4068 62.7654 15.2913C62.8368 15.1754 62.946 15.0746 63.0983 14.9906L63.05 14.903L63.0017 14.8154C62.8253 14.9128 62.688 15.0357 62.5951 15.1862C62.5021 15.3371 62.457 15.5101 62.457 15.702H62.557ZM63.05 14.903L63.0966 14.9915L64.7116 14.1415L64.665 14.053L64.6184 13.9645L63.0034 14.8145L63.05 14.903ZM64.665 14.053V13.953H59.735V14.053V14.153H64.665V14.053ZM59.735 14.053V13.953C59.4822 13.953 59.2719 13.885 59.0987 13.7526L59.038 13.832L58.9773 13.9114C59.1895 14.0737 59.4438 14.153 59.735 14.153V14.053ZM59.038 13.832L59.0987 13.7526C58.9303 13.6237 58.849 13.4602 58.849 13.254H58.749H58.649C58.649 13.5238 58.7604 13.7456 58.9773 13.9114L59.038 13.832ZM58.749 13.254H58.849C58.849 13.0475 58.9307 12.8769 59.1016 12.7362L59.038 12.659L58.9744 12.5818C58.76 12.7584 58.649 12.9845 58.649 13.254H58.749ZM59.038 12.659L59.1016 12.7362C59.2747 12.5936 59.484 12.521 59.735 12.521V12.421V12.321C59.442 12.321 59.1866 12.407 58.9744 12.5818L59.038 12.659ZM59.735 12.421V12.521H66.671V12.421V12.321H59.735V12.421ZM66.671 12.421V12.521C66.9457 12.521 67.1496 12.583 67.2938 12.6954C67.4368 12.8069 67.5333 12.9776 67.5755 13.2201L67.674 13.203L67.7725 13.1859C67.724 12.9071 67.608 12.6868 67.4167 12.5376C67.2266 12.3894 66.9743 12.321 66.671 12.321V12.421ZM67.674 13.203L67.5746 13.2138C67.6015 13.4618 67.5736 13.6632 67.4985 13.8236C67.4239 13.9826 67.2993 14.109 67.1183 14.2021L67.164 14.291L67.2097 14.3799C67.4254 14.269 67.5841 14.1121 67.6796 13.9084C67.7744 13.7061 67.8031 13.4656 67.7734 13.1922L67.674 13.203ZM67.164 14.291L67.1133 14.2048L64.6312 15.6668L64.682 15.753L64.7328 15.8392L67.2148 14.3772L67.164 14.291ZM64.58 6.692V6.792H67.589V6.692V6.592H64.58V6.692ZM67.589 6.692V6.792C67.8023 6.792 67.9746 6.86202 68.1133 7.00071L68.184 6.93L68.2547 6.85929C68.0761 6.68064 67.8517 6.592 67.589 6.592V6.692ZM68.184 6.93L68.1133 7.00071C68.252 7.1394 68.322 7.31174 68.322 7.525H68.422H68.522C68.522 7.26226 68.4334 7.03794 68.2547 6.85929L68.184 6.93ZM68.422 7.525H68.322C68.322 7.73826 68.252 7.9106 68.1133 8.04929L68.184 8.12L68.2547 8.19071C68.4334 8.01206 68.522 7.78774 68.522 7.525H68.422ZM68.184 8.12L68.1133 8.04929C67.9874 8.17516 67.8216 8.241 67.606 8.241V8.341V8.441C67.8664 8.441 68.0859 8.35951 68.2547 8.19071L68.184 8.12ZM67.606 8.341V8.241H53.581V8.341V8.441H67.606V8.341ZM53.581 8.341V8.241C53.3655 8.241 53.1923 8.17511 53.054 8.04672L52.986 8.12L52.918 8.19328C53.097 8.35955 53.3205 8.441 53.581 8.441V8.341ZM52.986 8.12L53.0593 8.05195C52.9309 7.91369 52.865 7.74048 52.865 7.525H52.765H52.665C52.665 7.78552 52.7464 8.00898 52.9127 8.18804L52.986 8.12ZM52.765 7.525H52.865C52.865 7.31174 52.935 7.1394 53.0737 7.00071L53.003 6.93L52.9323 6.85929C52.7536 7.03794 52.665 7.26226 52.665 7.525H52.765ZM53.003 6.93L53.0737 7.00071C53.2124 6.86202 53.3847 6.792 53.598 6.792V6.692V6.592C53.3353 6.592 53.1109 6.68064 52.9323 6.85929L53.003 6.93ZM53.598 6.692V6.792H56.692V6.692V6.592H53.598V6.692ZM56.692 6.692H56.792V6.199H56.692H56.592V6.692H56.692ZM56.692 6.199H56.792C56.792 5.93914 56.8742 5.73324 57.0347 5.57271L56.964 5.502L56.8933 5.43129C56.6912 5.63343 56.592 5.8922 56.592 6.199H56.692ZM56.964 5.502L57.0347 5.57271C57.2078 5.39962 57.42 5.313 57.678 5.313V5.213V5.113C57.3693 5.113 57.1055 5.21905 56.8933 5.43129L56.964 5.502ZM57.678 5.213V5.313C57.9379 5.313 58.1438 5.39518 58.3043 5.55571L58.375 5.485L58.4457 5.41429C58.2436 5.21215 57.9848 5.113 57.678 5.113V5.213ZM58.375 5.485L58.3043 5.55571C58.4648 5.71624 58.547 5.92214 58.547 6.182H58.647H58.747C58.747 5.8752 58.6479 5.61643 58.4457 5.41429L58.375 5.485ZM58.647 6.182H58.547V6.692H58.647H58.747V6.182H58.647ZM58.647 6.692V6.792H62.625V6.692V6.592H58.647V6.692ZM62.625 6.692H62.725V6.199H62.625H62.525V6.692H62.625ZM62.625 6.199H62.725C62.725 5.93914 62.8072 5.73324 62.9677 5.57271L62.897 5.502L62.8263 5.43129C62.6241 5.63343 62.525 5.8922 62.525 6.199H62.625ZM62.897 5.502L62.9677 5.57271C63.1408 5.39962 63.353 5.313 63.611 5.313V5.213V5.113C63.3023 5.113 63.0385 5.21905 62.8263 5.43129L62.897 5.502ZM63.611 5.213V5.313C63.8709 5.313 64.0768 5.39518 64.2373 5.55571L64.308 5.485L64.3787 5.41429C64.1766 5.21215 63.9178 5.113 63.611 5.113V5.213ZM64.308 5.485L64.2373 5.55571C64.3978 5.71624 64.48 5.92214 64.48 6.182H64.58H64.68C64.68 5.8752 64.5808 5.61643 64.3787 5.41429L64.308 5.485ZM64.58 6.182H64.48V6.692H64.58H64.68V6.182H64.58ZM59.123 9.718V9.818H67.453V9.718V9.618H59.123V9.718ZM67.453 9.718V9.818C67.6663 9.818 67.8386 9.88802 67.9773 10.0267L68.048 9.956L68.1187 9.88529C67.9401 9.70664 67.7157 9.618 67.453 9.618V9.718ZM68.048 9.956L67.9773 10.0267C68.116 10.1654 68.186 10.3377 68.186 10.551H68.286H68.386C68.386 10.2883 68.2974 10.0639 68.1187 9.88529L68.048 9.956ZM68.286 10.551H68.186C68.186 10.7643 68.116 10.9366 67.9773 11.0753L68.048 11.146L68.1187 11.2167C68.2974 11.0381 68.386 10.8137 68.386 10.551H68.286ZM68.048 11.146L67.9773 11.0753C67.8514 11.2012 67.6856 11.267 67.47 11.267V11.367V11.467C67.7304 11.467 67.9499 11.3855 68.1187 11.2167L68.048 11.146ZM67.47 11.367V11.267H58.307V11.367V11.467H67.47V11.367ZM58.307 11.367L58.2193 11.3189C57.5771 12.4907 56.834 13.5206 55.9905 14.4091L56.063 14.478L56.1355 14.5469C56.992 13.6447 57.7449 12.6006 58.3947 11.4151L58.307 11.367ZM56.063 14.478L56.0462 14.5766C56.2959 14.6191 56.4769 14.714 56.5998 14.8542C56.7231 14.9947 56.7971 15.191 56.8132 15.4531L56.913 15.447L57.0128 15.4409C56.9949 15.1477 56.9103 14.9048 56.7502 14.7223C56.5898 14.5395 56.3628 14.4276 56.0798 14.3794L56.063 14.478ZM56.913 15.447H56.813V19.918H56.913H57.013V15.447H56.913ZM56.913 19.918H56.813C56.813 20.1779 56.7308 20.3838 56.5703 20.5443L56.641 20.615L56.7117 20.6857C56.9138 20.4836 57.013 20.2248 57.013 19.918H56.913ZM56.641 20.615L56.5703 20.5443C56.4098 20.7048 56.2039 20.787 55.944 20.787V20.887V20.987C56.2508 20.987 56.5096 20.8878 56.7117 20.6857L56.641 20.615ZM55.944 20.887V20.787C55.6841 20.787 55.4782 20.7048 55.3177 20.5443L55.247 20.615L55.1763 20.6857C55.3784 20.8878 55.6372 20.987 55.944 20.987V20.887ZM55.247 20.615L55.3177 20.5443C55.1572 20.3838 55.075 20.1779 55.075 19.918H54.975H54.875C54.875 20.2248 54.9742 20.4836 55.1763 20.6857L55.247 20.615ZM54.975 19.918H55.075V15.566H54.975H54.875V19.918H54.975ZM54.975 15.566L54.907 15.4927C54.7496 15.6388 54.5014 15.8589 54.1615 16.1534L54.227 16.229L54.2925 16.3046C54.6326 16.0098 54.8831 15.7878 55.043 15.6393L54.975 15.566ZM54.227 16.229L54.1637 16.1516C53.9264 16.3458 53.7077 16.4279 53.5051 16.4181C53.3028 16.4084 53.0971 16.3061 52.8876 16.0912L52.816 16.161L52.7444 16.2308C52.9769 16.4692 53.2273 16.605 53.4954 16.6179C53.7632 16.6308 54.0289 16.5202 54.2903 16.3064L54.227 16.229ZM52.816 16.161L52.8925 16.0966C52.7274 15.9005 52.6506 15.6756 52.6609 15.417L52.561 15.413L52.4611 15.409C52.4488 15.7171 52.542 15.9908 52.7395 16.2254L52.816 16.161ZM52.561 15.413L52.6609 15.417C52.6711 15.1617 52.7714 14.9627 52.963 14.8115L52.901 14.733L52.839 14.6545C52.5999 14.8433 52.4735 15.0976 52.4611 15.409L52.561 15.413ZM52.901 14.733L52.9651 14.8097C54.2854 13.7057 55.3349 12.5769 56.112 11.4228L56.029 11.367L55.946 11.3112C55.1817 12.4464 54.146 13.5616 52.8369 14.6563L52.901 14.733ZM56.029 11.367V11.267H53.632V11.367V11.467H56.029V11.367ZM53.632 11.367V11.267C53.4165 11.267 53.2433 11.2011 53.105 11.0727L53.037 11.146L52.969 11.2193C53.148 11.3856 53.3715 11.467 53.632 11.467V11.367ZM53.037 11.146L53.1103 11.078C52.9819 10.9397 52.916 10.7665 52.916 10.551H52.816H52.716C52.716 10.8115 52.7974 11.035 52.9637 11.214L53.037 11.146ZM52.816 10.551H52.916C52.916 10.3377 52.986 10.1654 53.1247 10.0267L53.054 9.956L52.9833 9.88529C52.8046 10.0639 52.716 10.2883 52.716 10.551H52.816ZM53.054 9.956L53.1247 10.0267C53.2634 9.88802 53.4357 9.818 53.649 9.818V9.718V9.618C53.3863 9.618 53.1619 9.70664 52.9833 9.88529L53.054 9.956ZM53.649 9.718V9.818H56.981V9.718V9.618H53.649V9.718ZM56.981 9.718L57.069 9.76541C57.1491 9.61666 57.2687 9.38319 57.4274 9.06572L57.338 9.021L57.2486 8.97628C57.09 9.29347 56.9715 9.52467 56.893 9.67059L56.981 9.718ZM57.338 9.021L57.4311 9.05744C57.524 8.82013 57.6747 8.66702 57.8836 8.58745L57.848 8.494L57.8124 8.40055C57.5453 8.50232 57.356 8.70053 57.2449 8.98456L57.338 9.021ZM57.848 8.494L57.8874 8.58591C58.0967 8.49621 58.3294 8.49847 58.5929 8.60385L58.63 8.511L58.6671 8.41815C58.3639 8.29686 58.0753 8.28779 57.8086 8.40209L57.848 8.494ZM58.63 8.511L58.5821 8.59879C58.8175 8.72719 58.9636 8.88048 59.0347 9.05456C59.1057 9.22841 59.1077 9.43708 59.0277 9.6876L59.123 9.718L59.2183 9.7484C59.3083 9.46625 59.3131 9.20742 59.2198 8.97894C59.1266 8.75068 58.9412 8.56681 58.6779 8.42321L58.63 8.511Z" fill="#222222" mask="url(#path-2-outside-1_206_274)"/>
<defs>
<linearGradient id="paint0_linear_206_274" x1="-1.73109" y1="24.0718" x2="66" y2="24.0718" gradientUnits="userSpaceOnUse">
<stop stop-color="#B3F6FF"/>
<stop offset="0.5" stop-color="#FAEBFF"/>
<stop offset="1" stop-color="#FFCEFF"/>
</linearGradient>
</defs>
</svg>
