<svg width="17" height="16" viewBox="0 0 17 16" fill="none" xmlns="http://www.w3.org/2000/svg">
<g id="like">
<path id="Ellipse 761" d="M8.94745 15.5C13.0846 15.5 16.4372 12.1414 16.4372 8C16.4372 3.85855 13.0846 0.5 8.94745 0.5C4.81027 0.5 1.45766 3.85855 1.45766 8C1.45766 12.1414 4.81027 15.5 8.94745 15.5Z" fill="#5566FF" stroke="white"/>
<path id="Vector" d="M11.9665 6.69733C11.799 6.37961 11.5608 6.09386 11.2568 5.84981C10.6381 5.35196 9.81797 5.07861 8.94752 5.07861C8.0761 5.07861 7.256 5.35283 6.63826 5.84981C6.33423 6.09386 6.09604 6.37873 5.92854 6.69733C5.75426 7.02924 5.66614 7.38155 5.66614 7.74452C5.66614 8.1705 5.79298 8.59381 6.03213 8.97009C6.24127 9.29845 6.53755 9.59219 6.8929 9.82471V10.7077C6.8929 10.784 6.93745 10.8541 7.00909 10.8923C7.04492 10.9109 7.08558 10.9207 7.12527 10.9207C7.16496 10.9207 7.20564 10.911 7.24146 10.8923L8.26102 10.3527C8.48566 10.3918 8.71706 10.4113 8.94751 10.4113C9.81893 10.4113 10.639 10.1371 11.2568 9.64011C11.5608 9.39606 11.799 9.1112 11.9665 8.7926C12.1408 8.46069 12.2289 8.10837 12.2289 7.7454C12.2299 7.38155 12.1408 7.02923 11.9665 6.69733Z" fill="white"/>
</g>
</svg>
