<svg width="28" height="28" viewBox="0 0 28 28" fill="none" xmlns="http://www.w3.org/2000/svg">
  <rect width="28" height="28" rx="14" fill="white" fill-opacity="0.1" />
  <path
    d="M15.7271 10.9971C17.2623 11.9819 18.0299 12.4744 18.3031 13.0965C18.5564 13.6731 18.5564 14.3295 18.3031 14.9061C18.0299 15.5282 17.2623 16.0207 15.7271 17.0055C13.9629 18.1372 13.0809 18.7031 12.3517 18.6612C11.6775 18.6225 11.0562 18.283 10.6596 17.7363C10.2307 17.1452 10.2307 16.0972 10.2307 14.0013C10.2307 11.9054 10.2307 10.8574 10.6596 10.2663C11.0562 9.71965 11.6775 9.38009 12.3517 9.3414C13.0809 9.29955 13.9629 9.8654 15.7271 10.9971Z"
    fill="white" />
</svg>
