<svg width="12" height="12" viewBox="0 0 12 12" fill="none" xmlns="http://www.w3.org/2000/svg">
  <rect opacity="0.01" x="0.25" y="0.25" width="11.5" height="11.5" stroke="#9E9E9E" stroke-width="0.5" />
  <path fill-rule="evenodd" clip-rule="evenodd"
    d="M1.6255 3.67711C1.55651 2.98284 2.072 2.36764 2.76763 2.31406L5.63218 2.09342C6.30633 2.04149 6.89847 2.53766 6.96534 3.21049L7.37401 7.32289C7.443 8.01716 6.92752 8.63236 6.23188 8.68594L3.36733 8.90658C2.69318 8.95851 2.10104 8.46234 2.03418 7.78951L1.6255 3.67711Z"
    stroke="white" />
  <path opacity="0.7"
    d="M8.65846 3.51588L9.94337 3.89487C10.4739 4.03756 10.7887 4.58553 10.6463 5.11879L9.61522 8.98102C9.47285 9.51429 8.92733 9.83091 8.39675 9.68821L8.00615 9.58136"
    stroke="white" stroke-linecap="round" />
</svg>
