<svg xmlns="http://www.w3.org/2000/svg" width="12" height="12" viewBox="0 0 12 12" fill="none">
  <path fill-rule="evenodd" clip-rule="evenodd" d="M3.97626 1.22589C4.13248 1.12322 4.32636 1.09455 4.50555 1.14777C5.73899 1.51511 6.5435 2.50997 7.01727 3.56867C7.10181 3.75763 7.17726 3.9522 7.24384 4.14874C7.36699 3.75555 7.46987 3.39569 7.52411 3.13703L7.5495 3.05109C7.62108 2.8544 7.7859 2.70282 7.99286 2.65167C8.22947 2.59332 8.47926 2.67667 8.63446 2.86457C10.4551 5.06891 10.7696 6.92451 10.1452 8.36066C9.54726 9.7352 8.18216 10.4893 7.14618 10.7444C7.14296 10.7452 7.13964 10.7456 7.13641 10.7464C7.46251 10.5458 7.76903 10.2539 7.94305 9.85382C8.25315 9.14061 8.09631 8.21905 7.19208 7.12433C7.11499 7.03116 6.99114 6.98989 6.87372 7.01886C6.77107 7.04431 6.68952 7.11952 6.65399 7.2171L6.6413 7.26007C6.61436 7.38851 6.56278 7.56683 6.50165 7.76203C6.46861 7.66451 6.43129 7.5677 6.38934 7.47394C6.15406 6.94827 5.75471 6.45419 5.14227 6.27179C5.05331 6.24536 4.95715 6.25992 4.87958 6.31085C4.81164 6.35557 4.76393 6.42485 4.74579 6.50324L4.73993 6.53644C4.66102 7.20355 4.43922 7.50084 4.21649 7.79816C4.10122 7.95203 3.96588 8.12969 3.86591 8.35382C3.763 8.58468 3.70184 8.85331 3.70184 9.19953C3.70202 9.82202 3.99969 10.2956 4.4118 10.6126C4.12033 10.5166 3.83764 10.3948 3.57196 10.2474C2.47333 9.6376 1.60429 8.55504 1.60419 7.0423C1.60419 6.34483 1.72786 5.80418 1.93524 5.33917C2.13649 4.88803 2.40826 4.53175 2.64032 4.22199C3.08904 3.62301 3.53604 3.02496 3.69501 1.68097L3.70673 1.61261C3.74329 1.45485 3.83952 1.3159 3.97626 1.22589Z" fill="white"/>
</svg>
