<svg width="14" height="14" viewBox="0 0 14 14" fill="none" xmlns="http://www.w3.org/2000/svg">
<path d="M2.55031 2.55004C2.93679 2.16384 3.56335 2.16367 3.94972 2.55004L11.4497 10.05C11.8361 10.4365 11.8362 11.064 11.4497 11.4504C11.0633 11.8364 10.4366 11.8357 10.0503 11.4495L7.00051 8.39965L3.94972 11.4504C3.56325 11.8366 2.93669 11.8358 2.55031 11.4495C2.16406 11.063 2.16394 10.4364 2.55031 10.05L5.60012 6.99925L2.55031 3.94945C2.16393 3.56306 2.16406 2.93651 2.55031 2.55004ZM10.0503 2.55004C10.4367 2.16383 11.0633 2.16385 11.4497 2.55004C11.8362 2.9365 11.8362 3.56397 11.4497 3.95043L9.61183 5.78832C9.22536 6.17461 8.59883 6.17374 8.21242 5.78734C7.82622 5.40092 7.8262 4.77531 8.21242 4.3889L10.0503 2.55004Z" fill="black" fill-opacity="0.2"/>
</svg>
