<svg width="24" height="14" viewBox="0 0 24 14" fill="none" xmlns="http://www.w3.org/2000/svg">
  <g clip-path="url(#clip0_32528_7140)">
    <path
      d="M19.5853 0.708172C21.6564 0.708172 23.0438 2.3616 22.6841 4.4012L21.8159 9.32524C21.4562 11.3648 19.4858 13.0183 17.4147 13.0183H4.4147C2.34363 13.0183 0.956244 11.3648 1.31588 9.32524L2.18412 4.4012C2.54376 2.3616 4.51424 0.708172 6.5853 0.708172H19.5853Z"
      fill="#222222" stroke="white" stroke-width="1.5" />
    <path
      d="M10.0011 5.15966H11.5236L10.8203 9.14813C10.763 9.47311 10.6601 9.70208 10.5117 9.83503C10.3624 9.9729 10.1277 10.0418 9.80774 10.0418H8.89274L8.87297 9.30323H9.56297C9.74297 9.30323 9.86145 9.28354 9.91839 9.24415C9.98034 9.20475 10.0243 9.1112 10.0504 8.96348L10.1155 8.59417H8.6005L8.36086 9.95321H7.55836L7.798 8.59417H6.2005C6.10101 8.87484 5.97206 9.13828 5.81365 9.38448C5.6611 9.62576 5.45715 9.88919 5.20179 10.1748L4.56645 9.6947C4.82833 9.4288 5.02838 9.18752 5.16658 8.97086C5.30478 8.7542 5.41146 8.51785 5.48661 8.2618C5.56675 8.00575 5.64677 7.65122 5.72665 7.19821L5.93763 6.00167C5.82874 6.08045 5.77136 6.12231 5.76549 6.12723L5.29739 5.5068C5.75122 5.20151 6.19623 4.84698 6.63243 4.44321C7.07449 4.03451 7.44862 3.62828 7.75482 3.22451L8.54074 3.44609L8.24802 3.83017H10.888L10.7721 4.48752L10.0011 5.15966ZM9.6543 4.53184H7.6293C7.38589 4.77804 7.16899 4.98731 6.9786 5.15966H8.9361L9.6543 4.53184ZM6.65516 6.52608H8.16266L8.27987 5.86133H6.77237L6.65516 6.52608ZM8.96516 6.52608H10.4802L10.5974 5.86133H9.08237L8.96516 6.52608ZM7.92563 7.87034L8.04024 7.22037H6.53274L6.49888 7.4124C6.46154 7.62414 6.43213 7.77678 6.41063 7.87034H7.92563ZM8.84274 7.22037L8.72813 7.87034H10.2431L10.3577 7.22037H8.84274ZM18.7006 8.22487L18.5071 9.06688C18.4496 9.30816 18.37 9.49035 18.2683 9.61345C18.1707 9.74147 18.0326 9.83011 17.8539 9.87935C17.6793 9.93351 17.4421 9.96059 17.1421 9.96059H13.6246C13.2046 9.96059 12.9177 9.87196 12.7639 9.6947C12.6152 9.51743 12.5777 9.21953 12.6515 8.80098L13.1347 6.06075L13.0656 6.11246L12.59 5.49203C13.0764 5.17197 13.5285 4.8199 13.9462 4.43582C14.364 4.05175 14.7256 3.64551 15.0311 3.21712L15.8069 3.45348C15.7152 3.57658 15.6122 3.70706 15.4979 3.84494H18.1454L18.0295 4.5023L17.1098 5.33692H18.6473L18.2032 7.85557H13.6432L13.5143 8.58679C13.4839 8.75913 13.4788 8.88715 13.4991 8.97086C13.5193 9.05457 13.5714 9.11366 13.6553 9.14813C13.7442 9.1826 13.8837 9.19983 14.0737 9.19983H17.1112C17.2812 9.19983 17.4109 9.18752 17.5002 9.1629C17.5946 9.13828 17.6649 9.09396 17.7112 9.02995C17.7583 8.96101 17.7957 8.86253 17.8233 8.73451C17.893 8.42429 17.9413 8.19286 17.9682 8.04022L18.7006 8.22487ZM16.9678 4.56877H14.8603C14.5799 4.85437 14.3098 5.11042 14.0498 5.33692H16.0598L16.9678 4.56877ZM13.9558 6.08291L13.7683 7.14651H15.2233L15.4108 6.08291H13.9558ZM16.0258 7.14651H17.5183L17.7058 6.08291H16.2133L16.0258 7.14651Z"
      fill="white" />
  </g>
  <defs>
    <clipPath id="clip0_32528_7140">
      <rect width="24" height="14" fill="white" />
    </clipPath>
  </defs>
</svg>
