<svg xmlns="http://www.w3.org/2000/svg" viewBox="0 0 160 160"><g fill="none" stroke="#777166" stroke-width="4" stroke-linecap="round" stroke-linejoin="round"><path d="M80 78C68 45 37 35 30 58c-6 21 25 29 47 24" fill="#ece6d8"/><path d="M84 78c12-33 43-43 50-20 6 21-25 29-47 24" fill="#e1dac9"/><path d="M80 84c-26 8-36 34-17 42 18 8 23-20 21-39" fill="#ddd4c2"/><path d="M84 84c26 8 36 34 17 42-18 8-23-20-21-39" fill="#eee8dd"/><circle cx="82" cy="82" r="8" fill="#9b8f73"/><path d="M34 130c24-12 42-26 48-48M126 130c-22-12-39-26-44-48" opacity=".45"/></g></svg>