<svg xmlns="http://www.w3.org/2000/svg" viewBox="0 0 220 160"><g fill="none" stroke="#5f5b52" stroke-width="5" stroke-linecap="round" stroke-linejoin="round"><path d="M108 78C82 25 25 5 12 42c-10 30 37 51 88 43" fill="#eee9dc" opacity=".82"/><path d="M112 78c26-53 83-73 96-36 10 30-37 51-88 43" fill="#eee9dc" opacity=".82"/><path d="M105 86c-42 4-75 25-61 51 16 30 56-5 66-41" fill="#ddd6c5" opacity=".86"/><path d="M115 86c42 4 75 25 61 51-16 30-56-5-66-41" fill="#ddd6c5" opacity=".86"/><path d="M110 70c-8 20-8 40 0 62"/><path d="M72 45c14 14 25 24 37 34M149 45c-14 14-25 24-37 34M77 120c13-12 22-21 31-31M143 120c-13-12-22-21-31-31" stroke-width="2" opacity=".55"/></g></svg>