<?xml version="1.0" encoding="UTF-8" standalone="no"?>
<svg
   xmlns:dc="http://purl.org/dc/elements/1.1/"
   xmlns:cc="http://creativecommons.org/ns#"
   xmlns:rdf="http://www.w3.org/1999/02/22-rdf-syntax-ns#"
   xmlns:svg="http://www.w3.org/2000/svg"
   xmlns="http://www.w3.org/2000/svg"
   id="svg"
   version="1.1"
   width="400"
   height="558.203125"
   viewBox="0, 0, 400,558.203125">
  <metadata
     id="metadata840">
    <rdf:RDF>
      <cc:Work
         rdf:about="">
        <dc:format>image/svg+xml</dc:format>
        <dc:type
           rdf:resource="http://purl.org/dc/dcmitype/StillImage" />
        <dc:title></dc:title>
      </cc:Work>
    </rdf:RDF>
  </metadata>
  <defs
     id="defs838" />
  <g
     id="g1633">
    <path
       id="path0"
       d="m 196.565,19.661 c -1.929,1.575 -4.451,3.544 -5.603,4.374 -5.905,4.257 -9.212,7.981 -11.557,13.012 -1.219,2.616 -1.393,2.817 -1.992,2.29 -5.43,-4.775 -24.276,-7.448 -35.494,-5.033 -19.504,4.2 -36.819,17.401 -45.435,34.641 -3.115,6.234 -3.223,6.861 -1.384,7.997 1.732,1.071 1.27,1.568 4.525,-4.874 8.202,-16.236 20.191,-26.758 36.671,-32.184 13.4,-4.411 31.206,-3.221 41.142,2.751 1.737,1.044 3.194,1.854 3.237,1.8 0.043,-0.055 0.55,-1.532 1.127,-3.283 1.478,-4.485 4.842,-9.738 8.823,-13.775 3.464,-3.513 9.137,-8.627 9.57,-8.627 0.433,0 6.107,5.114 9.571,8.627 3.981,4.037 7.345,9.29 8.823,13.775 0.577,1.751 1.084,3.228 1.127,3.283 0.043,0.054 1.499,-0.756 3.237,-1.8 9.935,-5.972 27.742,-7.162 41.142,-2.751 16.48,5.426 28.469,15.948 36.671,32.184 3.255,6.442 2.793,5.945 4.525,4.874 1.839,-1.136 1.731,-1.763 -1.385,-7.997 -8.616,-17.24 -25.93,-30.441 -45.434,-34.641 -11.218,-2.415 -30.065,0.258 -35.495,5.033 -0.598,0.527 -0.772,0.326 -1.991,-2.29 -2.375,-5.095 -5.489,-8.577 -11.806,-13.201 -1.289,-0.944 -3.662,-2.798 -5.274,-4.12 -1.611,-1.322 -3.133,-2.522 -3.381,-2.667 -0.254,-0.148 -1.987,0.991 -3.96,2.602 m -0.74,7.033 c -3.442,3.6 -6.708,8.022 -7.539,10.207 -0.383,1.009 3.796,6.547 5.133,6.801 0.91694,0.174052 2.59607,-3.180042 3.70552,-5.364497 2.59265,-5.10485 2.45777,-11.058241 2.62561,-15.409636 0.005,-0.124358 -1.99813,1.749133 -3.92513,3.766133 m 5.17,0.454 c 0.302,5.296 0.936,8.001 2.729,11.637 1.328,2.694 3.145,5.342 3.388,4.939 0.063,-0.105 1.324,-1.444 2.803,-2.977 l 2.689,-2.785 -0.898,-1.856 c -1.269,-2.621 -4.915,-7.311 -8.177,-10.52 l -2.78,-2.734 0.246,4.296 m -1.71,12.066 c -0.483,0.91 -1.669,2.559 -2.635,3.663 l -1.757,2.009 2.553,3.74 c 1.405,2.057 2.556,3.955 2.559,4.217 0.002,0.263 0.426,-0.261 0.942,-1.163 0.516,-0.902 1.76,-2.791 2.764,-4.198 l 1.825,-2.559 -1.639,-1.856 c -0.902,-1.021 -2.111,-2.678 -2.687,-3.682 l -1.048,-1.826 -0.877,1.655 m -13.101,1.309 c -0.989,3.417 -1.137,6.701 -0.44,9.77 l 0.718,3.161 0.955,-1.825 c 0.526,-1.003 1.644,-2.747 2.485,-3.874 2.221,-2.979 2.223,-2.94 -0.258,-5.254 -2.807,-2.62 -3.208,-2.848 -3.46,-1.978 m 25.298,1.294 c -3.442,3.091 -3.381,2.689 -0.908,6.035 0.794,1.074 1.874,2.774 2.399,3.777 l 0.956,1.825 0.715,-3.147 c 0.636,-2.806 0.659,-3.492 0.211,-6.317 -0.727,-4.585 -0.704,-4.57 -3.373,-2.173 m -54.06,1.155 c -9.24,1.123 -17.32,7.166 -21.466,16.054 -3.998,8.568 -1.172,17.146 5.649,17.146 h 2.298 l -1.744,-1.106 c -10.644,-6.75 -4.197,-23.537 10.771,-28.046 6.951,-2.094 18.106,-0.028 22.412,4.15 10.771,10.452 -0.195,30.471 -16.691,30.471 -6.692,0 -29.77,7.916 -31.173,10.693 -0.34,0.671 -1.059,1.811 -1.599,2.531 -0.796,1.063 -0.843,1.238 -0.247,0.924 9.125,-4.805 23.863,-10.12 38.761,-13.978 10.382,-2.69 14.127,-5.154 16.986,-11.177 7.608,-16.028 -4.516,-30.027 -23.957,-27.662 m 78.051,0.002 c -15.765,1.91 -22.952,13.986 -16.462,27.66 2.859,6.023 6.604,8.487 16.987,11.177 14.897,3.858 29.636,9.173 38.76,13.978 0.596,0.314 0.549,0.139 -0.247,-0.924 -0.539,-0.72 -1.259,-1.86 -1.598,-2.531 -1.403,-2.777 -24.481,-10.693 -31.174,-10.693 -14.369,0 -25.219,-15.23 -19.246,-27.017 5.279,-10.418 25.398,-11.395 35.154,-1.707 7.49,7.438 7.759,17.599 0.585,22.149 l -1.744,1.106 h 2.298 c 6.82,0 9.646,-8.578 5.649,-17.146 C 259.16,47.719 247.885,41.47 235.473,42.974 M 133.594,45.99 c -12.425,5.706 -15.498,7.867 -21.969,15.449 -3.41,3.996 -3.365,3.875 -1.255,3.401 0.858,-0.193 3.314,-0.337 5.458,-0.32 4.38,0.034 7.531,-0.86 9.165,-2.598 l 0.902,-0.961 -1.131,-0.413 c -3.885,-1.418 -4.106,-1.949 -0.815,-1.963 3.825,-0.016 10.817,-4.334 8.375,-5.172 -0.301,-0.103 0.149,-0.808 1.174,-1.838 2.209,-2.221 3.465,-6.325 1.909,-6.238 -0.245,0.014 -1.061,0.308 -1.813,0.653 m 130.759,-0.189 c -0.417,1.108 0.918,4.144 2.539,5.774 1.025,1.03 1.475,1.735 1.174,1.838 -2.441,0.838 4.551,5.156 8.376,5.172 3.29,0.014 3.07,0.545 -0.815,1.963 l -1.131,0.413 0.902,0.961 c 1.633,1.738 4.785,2.632 9.164,2.598 2.144,-0.017 4.601,0.127 5.459,0.32 2.11,0.474 2.154,0.595 -1.255,-3.401 -6.229,-7.298 -11.127,-10.823 -20.582,-14.81 -3.526,-1.487 -3.579,-1.499 -3.831,-0.828 m -72.728,2.706 c -5.803,7.777 -5.457,12.122 1.573,19.762 1.546,1.68 3.332,3.876 3.969,4.88 l 1.157,1.825 0.25,-3.21 c 0.895,-11.503 -0.555,-19.251 -4.534,-24.226 l -0.876,-1.094 -1.539,2.063 m 14.132,-0.044 c -3.796,5.94 -4.82,11.996 -3.94,23.301 l 0.25,3.21 1.157,-1.825 c 0.637,-1.004 2.422,-3.2 3.968,-4.88 7.311,-7.945 7.451,-12.337 0.669,-20.978 l -0.747,-0.951 -1.357,2.123 m -51.493,4.245 c -4.982,0.97 -7.325,6.731 -4.735,11.643 l 0.873,1.656 -2.939,-0.249 c -4.459,-0.377 -6.21,2.455 -3.505,5.67 3.811,4.529 9.921,1.171 9.459,-5.198 -0.377,-5.183 1.227,-8.613 4.968,-10.62 l 2.234,-1.2 -1.065,-0.838 c -0.586,-0.46 -1.467,-0.838 -1.958,-0.838 -0.49,0 -1.126,-0.067 -1.412,-0.149 -0.286,-0.082 -1.15,-0.027 -1.92,0.123 m 88.608,0.03 c -3.077,0.554 -3.362,1.532 -0.841,2.885 3.714,1.993 5.319,5.437 4.943,10.607 -0.463,6.369 5.648,9.727 9.459,5.198 2.705,-3.215 0.954,-6.047 -3.506,-5.67 l -2.938,0.249 0.873,-1.656 c 3.291,-6.243 -1.238,-12.827 -7.99,-11.613 m -55.935,13.739 c -0.146,1.29 -0.426,2.769 -0.623,3.286 -0.35,0.923 -0.317,0.94 1.794,0.94 1.183,0 2.761,0.255 3.506,0.566 1.867,0.78 1.755,0.519 -1.529,-3.559 l -2.883,-3.579 -0.265,2.346 m 23.418,1.175 c -3.272,4.099 -3.395,4.376 -1.609,3.63 0.762,-0.319 2.368,-0.579 3.569,-0.579 1.46,0 2.098,-0.139 1.924,-0.42 -0.142,-0.231 -0.46,-1.688 -0.706,-3.236 l -0.447,-2.816 -2.731,3.421 M 172.191,65.6 c -3.46,2.721 -6.489,3.261 -8.949,1.595 -3.826,-2.593 -6.315,-1.13 -7.314,4.302 -0.854,4.643 1.929,7.757 6.11,6.839 2.555,-0.561 3.439,-3.364 1.613,-5.113 -1.686,-1.616 -1.521,-2.165 0.448,-1.487 3.616,1.246 7.682,-0.907 8.946,-4.737 0.635,-1.925 0.368,-2.361 -0.854,-1.399 m 54.762,-0.205 c 0,4.201 5.234,7.755 9.338,6.341 1.969,-0.678 2.135,-0.129 0.448,1.487 -1.826,1.749 -0.942,4.552 1.613,5.113 4.182,0.918 6.964,-2.196 6.11,-6.839 -0.998,-5.432 -3.487,-6.895 -7.314,-4.302 -2.444,1.656 -5.374,1.089 -9.316,-1.802 -0.817,-0.599 -0.879,-0.599 -0.879,0.002 M 71.094,65.518 c -0.888,0.337 -8.604,5.696 -8.439,5.861 0.079,0.079 1.296,-0.124 2.705,-0.45 3.559,-0.826 8.177,-1.115 11.3,-0.709 3.194,0.416 3.193,0.421 0.382,-2.579 -2.3,-2.455 -3.729,-2.965 -5.948,-2.123 m 252.305,2.069 c -2.867,3.06 -2.868,3.05 0.331,2.633 3.123,-0.406 7.741,-0.117 11.301,0.709 3.486,0.808 3.436,0.711 -1.311,-2.563 -3.467,-2.389 -4.482,-2.899 -6.089,-3.053 l -1.928,-0.186 -2.304,2.46 m -211.432,0.801 c -1.373,1.08 -1.462,3.53 -0.161,4.441 2.117,1.483 4.991,-0.16 4.991,-2.853 0,-0.962 -1.754,-2.398 -2.93,-2.398 -0.479,0 -1.334,0.364 -1.9,0.81 m 172.656,0 c -2.862,2.251 0.964,6.541 3.962,4.441 2.004,-1.403 0.493,-5.251 -2.062,-5.251 -0.479,0 -1.334,0.364 -1.9,0.81 m -158.73,1.661 c -2.419,0.884 -7.677,5.328 -7.048,5.957 0.102,0.103 1.629,-0.345 3.393,-0.996 3.662,-1.35 4.727,-1.428 7.711,-0.56 2.709,0.788 2.724,0.76 1.028,-1.874 -1.86,-2.888 -2.807,-3.358 -5.084,-2.527 m 145.754,-0.07 c -0.79,0.383 -3.8,4.639 -3.496,4.943 0.083,0.082 1.113,-0.13 2.29,-0.472 2.985,-0.868 4.049,-0.79 7.712,0.56 3.617,1.334 3.968,1.29 2.654,-0.332 -2.605,-3.219 -7.274,-5.614 -9.16,-4.699 M 69.434,72.9 c -1.228,0.367 -0.724,0.795 1.533,1.3 7.466,1.671 15.318,6.288 21.431,12.602 7.621,7.871 8.604,8.766 10.727,9.767 7.926,3.738 16.987,1.589 20.715,-4.911 1.683,-2.935 1.627,-5.332 -0.168,-7.127 -1.809,-1.808 -2.188,-1.698 -2.188,0.638 0,5.076 -3.982,8.856 -9.765,9.268 -5.036,0.359 -8.308,-1.477 -13.63,-7.647 C 90.004,77.414 82.619,73.131 74.023,72.831 71.875,72.756 69.81,72.787 69.434,72.9 m 116.2,0.364 c -1.169,0.819 -1.34,5.14 -0.185,4.661 1.761,-0.73 6.157,-0.663 8.493,0.13 2.794,0.948 2.805,0.942 1.826,-0.966 -1.901,-3.709 -7.359,-5.768 -10.134,-3.825 m 22.963,0.015 c -1.79,0.775 -3.027,1.962 -3.975,3.81 -0.978,1.908 -0.967,1.914 1.827,0.966 2.336,-0.793 6.732,-0.86 8.492,-0.13 1.156,0.479 0.985,-3.842 -0.184,-4.661 -1.108,-0.776 -4.356,-0.768 -6.16,0.015 m 114.255,-0.225 c -7.133,1.427 -13.749,5.849 -20.551,13.736 -5.321,6.17 -8.593,8.006 -13.629,7.647 -5.783,-0.412 -9.766,-4.192 -9.766,-9.268 0,-2.336 -0.379,-2.446 -2.187,-0.638 -1.795,1.795 -1.852,4.192 -0.169,7.127 3.729,6.5 12.79,8.649 20.716,4.911 2.122,-1.001 3.106,-1.896 10.726,-9.767 6.113,-6.314 13.966,-10.931 21.431,-12.602 2.362,-0.529 2.762,-0.916 1.339,-1.298 -1.202,-0.322 -6.001,-0.229 -7.91,0.152 M 46.158,75.828 c -5.723,1.812 -8.948,7.599 -5.845,10.489 1.126,1.05 1.424,1.001 1.7,-0.282 2.241,-10.416 12.297,-11.924 25.077,-3.761 2.437,1.557 2.532,1.925 0.586,2.284 -3.156,0.582 -11.51,4.551 -10.888,5.173 0.098,0.098 1.643,-0.145 3.433,-0.538 8.026,-1.766 23.647,-0.716 30.599,2.056 1.382,0.551 -2.409,-3.589 -5.203,-5.683 -3.036,-2.275 -9.384,-5.878 -10.356,-5.878 -0.367,0 -1.324,-0.428 -2.125,-0.951 -4.367,-2.85 -21.374,-4.684 -26.978,-2.909 M 338.63,75.795 c -6.332,0.922 -9.559,1.757 -11.376,2.942 -0.801,0.523 -1.757,0.951 -2.125,0.951 -0.972,0 -7.319,3.603 -10.355,5.878 -2.794,2.094 -6.585,6.234 -5.204,5.683 6.953,-2.772 22.574,-3.822 30.599,-2.056 1.791,0.393 3.336,0.636 3.433,0.538 0.622,-0.622 -7.731,-4.591 -10.887,-5.173 -1.946,-0.359 -1.852,-0.727 0.586,-2.284 12.779,-8.163 22.836,-6.655 25.077,3.761 0.642,2.987 3.336,-0.82 2.766,-3.909 -1.092,-5.917 -9.371,-8.246 -22.514,-6.331 m -235.756,3.312 c -0.988,2.573 0.648,8.153 2.892,9.864 3.481,2.655 11.422,0.781 11.422,-2.696 0,-1.098 -0.855,-0.883 -1.992,0.5 -1.159,1.409 -1.915,1.231 -1.915,-0.451 0,-2.025 -0.807,-4.954 -1.599,-5.805 -1.289,-1.383 -4.651,-0.835 -4.651,0.759 0,0.741 -0.616,0.289 -1.656,-1.215 -1.108,-1.601 -2.107,-1.983 -2.501,-0.956 m 192.16,0.93 c -1.056,1.527 -1.675,1.985 -1.675,1.241 0,-1.594 -3.362,-2.142 -4.65,-0.759 -0.793,0.851 -1.6,3.78 -1.6,5.805 0,1.682 -0.756,1.86 -1.914,0.451 -1.137,-1.383 -1.992,-1.598 -1.992,-0.5 0,3.477 7.941,5.351 11.422,2.696 2.076,-1.584 2.824,-3.466 2.83,-7.127 0.007,-3.812 -0.679,-4.324 -2.421,-1.807 m -104.409,4.191 c -50.1,3.607 -94.917,29.994 -123.321,72.608 -56.473,84.726 -43.046,215.007 28.594,277.453 73.542,64.104 182.607,48.966 237.189,-32.922 49.204,-73.82 46.421,-182.832 -6.477,-253.711 C 295.461,105.92 241.156,80.59 190.625,84.228 M 47.461,86.372 c -3.737,2.121 -0.921,6.83 2.902,4.853 1.182,-0.611 1.59,-1.309 1.59,-2.72 0,-1.736 -2.827,-3.078 -4.492,-2.133 m 302.93,-0.157 c -2.469,0.907 -2.679,3.813 -0.363,5.01 1.505,0.778 2.414,0.719 3.63,-0.238 2.561,-2.014 -0.12,-5.93 -3.267,-4.772 m -129.332,5.357 c 33.012,4.231 69.314,23.761 92.163,49.583 64.716,73.139 64.716,202.754 0,275.893 -22.971,25.959 -59.091,45.331 -92.552,49.635 -12.06098,1.83911 -29.06244,1.66569 -40.949,0 -33.461,-4.304 -69.582,-23.676 -92.552,-49.635 -72.781,-82.252 -62.062,-232.06 21.128,-295.29 23.42,-17.801 50.388,-28.422 78.422,-30.887 10.67478,-1.272112 21.03788,-0.932534 34.34,0.701 M 63.086,93.321 c -5.371,0.993 -7.915,1.701 -14.171,3.941 -7.024,2.515 -8.931,2.906 -12.364,2.534 -6.047,-0.656 -7.813,-0.503 -9.465,0.818 -3.05,2.439 -3.647,5.785 -1.528,8.563 1.415,1.856 1.685,1.73 1.484,-0.692 -0.266,-3.203 1.406,-6.269 2.475,-4.539 1.525,2.468 5.669,2.076 12.919,-1.22 18.165,-8.259 29.348,-9.581 47.564,-5.624 3.416,0.742 6.29,1.27 6.387,1.173 0.746,-0.746 -4.257,-2.53 -12.207,-4.354 -6.265,-1.436 -15.199,-1.691 -21.094,-0.6 m 258.594,-0.49 c -5.624,0.882 -17.102,4.054 -17.603,4.865 -0.494,0.799 0.199,0.734 6.314,-0.594 18.215,-3.957 29.398,-2.635 47.563,5.624 7.251,3.296 11.395,3.688 12.92,1.22 1.069,-1.73 2.741,1.336 2.475,4.539 -0.201,2.422 0.069,2.548 1.484,0.692 2.119,-2.778 1.522,-6.124 -1.529,-8.563 -1.651,-1.321 -3.194,-1.453 -9.632,-0.824 -3.524,0.344 -5.091,-0.001 -13.867,-3.054 -9.79,-3.404 -21.207,-4.99 -28.125,-3.905 M 62.045,99.04 c -21.549,3.357 -29.712,21.262 -27.685,60.726 0.502,9.765 0.719,10.979 2.386,13.32 1.898,2.665 2.054,1.518 1.753,-12.921 -0.646,-31.066 1.623,-41.881 10.74,-51.184 7.417,-7.57 26.101,-9.798 35.769,-4.266 3.53,2.019 6.498,0.045 4.295,-2.855 -2.015,-2.655 -17.822,-4.29 -27.258,-2.82 m 257.256,0.182 c -6.764,1.024 -8.713,1.99 -8.742,4.331 -0.029,2.37 1.899,2.835 4.823,1.162 9.669,-5.532 28.352,-3.304 35.77,4.266 9.117,9.303 11.386,20.118 10.739,51.184 -0.3,14.439 -0.145,15.586 1.753,12.921 1.667,-2.341 1.885,-3.555 2.386,-13.32 2.484,-48.357 -11.088,-65.941 -46.729,-60.544 m -211.206,3.212 c -6.016,2.699 -22.345,15.949 -31.596,25.639 -24.992,26.175 -46.59,73.166 -51.858,112.828 -8.527,64.189 4.24,123.239 36.894,170.648 11.222,16.293 30.934,35.397 44.391,43.024 3.18,1.802 3.13,1.788 6.285,1.723 l 2.251,-0.046 -4.399,-2.988 C 91.711,440.795 76.598,426.411 65.731,411.07 c -53.794,-75.947 -53.794,-187.99 0,-263.937 10.855,-15.325 25.984,-29.728 44.284,-42.159 l 4.351,-2.956 -2.381,-0.13 c -1.654,-0.09 -2.843,0.077 -3.89,0.546 m 179.991,-0.459 c -1.289,0.13 -2.143,0.267 -1.897,0.303 0.842,0.124 12.834,8.729 18.499,13.275 60.568,48.6 86.196,147.334 60.327,232.408 -14.38,47.289 -37.709,80.181 -74.687,105.301 l -4.399,2.988 2.25,0.046 c 3.156,0.065 3.106,0.079 6.285,-1.723 13.458,-7.627 33.169,-26.731 44.391,-43.024 32.655,-47.409 45.422,-106.459 36.895,-170.648 -6.087,-45.823 -30.864,-94.892 -61.685,-122.162 -14.331,-12.68 -21.383,-17.23 -25.979,-16.764 m -232.052,6.656 c -2.332,1.459 -5.112,4.068 -5.868,5.507 l -0.554,1.052 1.659,0.12 1.659,0.12 -0.058,1.793 c -0.032,0.986 -0.431,2.524 -0.887,3.418 -0.977,1.915 -0.511,2.132 1.571,0.731 2.181,-1.468 3.287,-5.046 2.371,-7.673 -0.432,-1.241 0.125,-1.78 0.589,-0.57 0.714,1.861 4.105,1.862 5.239,0.002 2.565,-4.206 -1.315,-7.258 -5.721,-4.5 m 282.815,-0.25 c -1.731,1.731 -0.752,5.722 1.51,6.154 1.212,0.232 3.191,-0.559 3.516,-1.406 0.464,-1.21 1.021,-0.671 0.588,0.57 -0.915,2.627 0.19,6.205 2.372,7.673 2.082,1.401 2.548,1.184 1.571,-0.731 -0.456,-0.894 -0.855,-2.432 -0.887,-3.418 l -0.058,-1.793 1.659,-0.12 1.658,-0.12 -0.553,-1.052 c -2.393,-4.551 -9.158,-7.975 -11.376,-5.757 M 29.853,136.035 c -2.173,2.564 -4.842,9.788 -4.217,11.416 0.665,1.733 4.391,0.831 4.088,-0.99 -0.418,-2.508 -0.067,-7.31 0.689,-9.449 0.923,-2.609 0.883,-2.679 -0.56,-0.977 m 340.1,0.905 c 0.781,2.21 1.138,6.973 0.714,9.521 -0.304,1.821 3.422,2.723 4.088,0.99 0.661,-1.724 -2.519,-9.922 -4.607,-11.878 l -1.014,-0.95 0.819,2.317 M 17.922,152.737 c -0.347,0.203 -0.847,0.888 -1.109,1.521 -1.151,2.779 1.937,4.762 4.079,2.62 2.276,-2.276 -0.215,-5.751 -2.97,-4.141 m 361.375,0.388 c -1.063,1.063 -0.982,2.569 0.202,3.753 2.145,2.145 5.23,0.159 4.076,-2.625 -0.821,-1.984 -2.88,-2.526 -4.278,-1.128 m -359.67,11.133 c -2.699,1.94 -2.303,13.293 0.515,14.805 2.582,1.386 3.837,2.425 5.27,4.364 2.749,3.721 3.571,1.112 2.574,-8.165 -0.954,-8.874 -4.617,-13.695 -8.359,-11.004 m 357.384,0.077 c -3.601,1.774 -6.691,15.278 -4.535,19.821 l 0.712,1.501 0.808,-0.997 c 0.445,-0.548 1.362,-1.683 2.039,-2.521 0.677,-0.839 2.07,-1.956 3.095,-2.484 l 1.865,-0.96 0.882,-3.508 c 2.134,-8.487 -0.001,-13.249 -4.866,-10.852 m -339.34,14.134 c -2.363,1.436 -4.913,4.841 -7.202,9.614 -8.882,18.518 -10.145,21.544 -8.397,20.12 1.122,-0.914 3.486,-4.758 6.101,-9.923 1.316,-2.599 4.325,-8.207 6.685,-12.461 4.534,-8.171 4.646,-8.465 2.813,-7.35 m 323.793,-0.163 c 0.137,0.358 1.983,3.76 4.102,7.559 2.119,3.8 5.017,9.204 6.439,12.01 6.744,13.301 9.523,14.617 3.337,1.58 -7.365,-15.521 -7.657,-16.072 -9.739,-18.35 -2.189,-2.395 -4.613,-4.034 -4.139,-2.799 m -349.535,3.311 c -0.158,0.255 -0.013,0.766 0.323,1.137 1.377,1.522 2.982,7.459 2.982,11.033 0,1.185 0.238,1.728 1.053,2.407 0.58,0.482 1.461,1.266 1.959,1.743 0.701,0.671 1.109,0.79 1.8,0.528 0.529,-0.202 1.165,-0.188 1.56,0.033 2.119,1.186 4.406,-7.126 2.81,-10.213 -2.1,-4.06 -11.122,-8.878 -12.487,-6.668 m 371.83,0.344 c -3.945,1.364 -8.303,5.635 -8.41,8.243 -0.171,4.158 1.899,9.154 3.436,8.294 0.394,-0.221 1.031,-0.235 1.56,-0.033 0.691,0.262 1.098,0.143 1.799,-0.528 0.498,-0.477 1.38,-1.261 1.959,-1.743 0.816,-0.679 1.053,-1.222 1.053,-2.407 0,-3.574 1.605,-9.511 2.983,-11.033 1.407,-1.555 -0.945,-1.98 -4.38,-0.793 M 17.443,212.824 c -1.376,1.521 -0.355,4.754 1.502,4.754 1.167,0 2.149,-1.351 2.149,-2.956 0,-2.176 -2.289,-3.303 -3.651,-1.798 m 362.5,0 c -1.376,1.521 -0.355,4.754 1.502,4.754 1.167,0 2.149,-1.351 2.149,-2.956 0,-2.176 -2.289,-3.303 -3.651,-1.798 M 17.188,279.102 V 339.5 l 1.464,-0.121 1.465,-0.121 v -60.156 -60.157 l -1.465,-0.121 -1.464,-0.121 v 60.399 m 363.151,-60.059 c -0.097,0.161 -0.151,27.275 -0.121,60.254 l 0.055,59.961 1.465,0.121 1.465,0.121 V 279.125 218.75 h -1.344 c -0.739,0 -1.423,0.132 -1.52,0.293 M 17.405,341.493 c -1.838,2.624 0.955,6.193 3.042,3.886 1.377,-1.521 0.356,-4.754 -1.502,-4.754 -0.52,0 -1.2,0.383 -1.54,0.868 m 362.5,0 c -1.838,2.624 0.955,6.193 3.042,3.886 1.377,-1.521 0.356,-4.754 -1.502,-4.754 -0.52,0 -1.2,0.383 -1.54,0.868 m -358.29,9.247 c 0.239,1.203 2.318,5.753 8.866,19.405 2.358,4.917 5.172,8.58 7.524,9.797 1.526,0.789 1.603,0.974 -3.18,-7.604 -2.119,-3.8 -5.017,-9.204 -6.44,-12.01 -4.083,-8.053 -7.395,-12.744 -6.77,-9.588 m 356.02,-0.002 c -1.37,1.629 -3.552,5.383 -6.155,10.59 -1.127,2.256 -3.786,7.21 -5.908,11.01 -5.073,9.083 -5.185,10.289 -0.496,5.33 2.448,-2.588 2.948,-3.461 7.61,-13.265 6.516,-13.702 7.676,-16.905 4.949,-13.665 m -359.494,9.563 c -0.442,0.457 -1.277,1.226 -1.855,1.708 -0.814,0.678 -1.052,1.223 -1.052,2.407 0,3.574 -1.605,9.511 -2.982,11.033 -1.006,1.111 -0.272,1.628 1.937,1.367 5.539,-0.656 10.905,-5.614 10.871,-10.044 -0.021,-2.649 -1.974,-7.245 -3.011,-7.084 -1.333,0.205 -1.526,0.205 -2.322,-0.009 -0.494,-0.133 -1.078,0.097 -1.586,0.622 m 358.571,1.288 c -2.505,5.665 -1.592,9.152 3.319,12.669 3.961,2.837 10.461,3.792 8.108,1.191 -1.378,-1.522 -2.983,-7.459 -2.983,-11.033 0,-1.185 -0.237,-1.728 -1.053,-2.407 -0.579,-0.482 -1.461,-1.266 -1.959,-1.743 -0.706,-0.676 -1.106,-0.791 -1.811,-0.523 -0.527,0.201 -1.137,0.198 -1.459,-0.006 -0.949,-0.6 -1.155,-0.424 -2.162,1.852 m -351.3,13.187 c -1.433,1.939 -2.688,2.979 -5.27,4.364 -1.888,1.013 -3.236,10.965 -1.802,13.316 4.297,7.047 11.31,-4.48 10.059,-16.533 -0.348,-3.348 -1.137,-3.651 -2.987,-1.147 m 347.12,-0.846 c -0.794,1.672 -0.803,2.531 -0.097,9.207 0.78,7.374 2.467,10.535 6,11.241 3.917,0.784 5.326,-3.868 3.442,-11.362 l -0.882,-3.508 -1.865,-0.96 c -1.025,-0.528 -2.418,-1.645 -3.095,-2.484 -0.677,-0.838 -1.594,-1.973 -2.039,-2.521 l -0.808,-0.997 -0.656,1.384 M 36.746,385.117 c -1.667,2.342 -1.884,3.556 -2.386,13.321 -2.04,39.719 6.143,57.448 28.042,60.749 9.5,1.432 24.89,-0.195 26.901,-2.843 2.204,-2.903 -0.764,-4.876 -4.295,-2.856 -9.668,5.532 -28.352,3.304 -35.769,-4.266 -9.117,-9.303 -11.386,-20.118 -10.74,-51.183 0.301,-14.44 0.145,-15.587 -1.753,-12.922 m 325.365,-0.548 c -0.388,0.467 -0.435,3.372 -0.22,13.579 0.653,30.92 -1.631,41.78 -10.739,51.074 -7.418,7.57 -26.101,9.798 -35.77,4.266 -2.954,-1.689 -4.855,-1.205 -4.823,1.23 0.031,2.309 2.021,3.245 9.117,4.289 31.107,4.577 45.345,-8.858 46.596,-43.968 0.657,-18.447 -1.434,-33.756 -4.161,-30.47 m -344.828,16.31 c -2.215,2.768 1.333,6.677 3.811,4.199 1.056,-1.056 0.984,-2.567 -0.178,-3.729 -1.04,-1.04 -2.976,-1.291 -3.633,-0.47 m 362.216,0.446 c -1.184,1.184 -1.265,2.69 -0.202,3.753 1.398,1.398 3.457,0.856 4.278,-1.128 1.154,-2.784 -1.931,-4.77 -4.076,-2.625 M 25.994,410.39 c -1.35,1.35 1.599,9.748 4.319,12.304 l 0.944,0.886 -0.789,-2.292 c -1.072,-3.117 -1.428,-7.225 -0.764,-8.827 0.855,-2.064 -2.079,-3.702 -3.71,-2.071 m 345.072,0.101 c -0.825,0.668 -0.855,0.821 -0.379,1.97 0.663,1.602 0.307,5.71 -0.765,8.827 l -0.788,2.292 0.943,-0.886 c 1.736,-1.631 4.048,-6.687 4.688,-10.253 0.435,-2.426 -1.713,-3.559 -3.699,-1.95 M 51.985,437.562 c 0.456,0.894 0.855,2.432 0.887,3.418 l 0.058,1.793 -1.659,0.12 -1.659,0.121 0.554,1.051 c 3.258,6.198 12.339,8.783 12.333,3.511 -0.005,-3.566 -4.804,-5.574 -5.983,-2.502 -0.464,1.21 -1.021,0.671 -0.589,-0.57 0.916,-2.627 -0.19,-6.204 -2.371,-7.673 -2.082,-1.401 -2.548,-1.184 -1.571,0.731 m 294.85,-0.731 c -2.182,1.469 -3.287,5.046 -2.372,7.673 0.433,1.241 -0.124,1.78 -0.588,0.57 -1.179,-3.072 -5.979,-1.064 -5.983,2.502 -0.006,5.272 9.074,2.687 12.333,-3.511 l 0.553,-1.051 -1.658,-0.121 -1.659,-0.12 0.058,-1.793 c 0.032,-0.986 0.431,-2.524 0.887,-3.418 0.977,-1.915 0.511,-2.132 -1.571,-0.731 M 25.558,449.026 c -2.119,2.778 -1.522,6.125 1.528,8.563 1.652,1.321 3.194,1.453 9.633,0.824 3.523,-0.344 5.091,0.002 13.867,3.054 15.305,5.324 26.551,5.483 41.88,0.591 3.281,-1.046 4.397,-1.653 3.921,-2.13 -0.097,-0.097 -2.971,0.431 -6.387,1.173 -18.216,3.957 -29.399,2.635 -47.564,-5.624 -7.25,-3.296 -11.394,-3.688 -12.919,-1.22 -1.069,1.73 -2.741,-1.335 -2.475,-4.538 0.201,-2.423 -0.069,-2.548 -1.484,-0.693 m 347.791,0.693 c 0.266,3.203 -1.406,6.268 -2.475,4.538 -1.525,-2.468 -5.669,-2.076 -12.92,1.22 -18.165,8.259 -29.348,9.581 -47.563,5.624 -3.416,-0.742 -6.29,-1.27 -6.387,-1.173 -0.477,0.477 0.64,1.084 3.921,2.13 15.329,4.892 26.574,4.733 41.88,-0.591 8.775,-3.052 10.343,-3.398 13.867,-3.054 6.438,0.629 7.981,0.497 9.632,-0.824 3.051,-2.438 3.648,-5.785 1.529,-8.563 -1.415,-1.855 -1.685,-1.73 -1.484,0.693 M 106.82,460.288 c -4.594,1.168 -5.376,1.771 -14.422,11.113 -6.113,6.314 -13.965,10.931 -21.431,12.602 -4.088,0.915 -1.681,1.815 3.815,1.427 8.107,-0.572 15.598,-5.077 23.307,-14.016 5.322,-6.171 8.594,-8.007 13.63,-7.648 5.783,0.412 9.765,4.192 9.765,9.268 0,2.336 0.379,2.447 2.188,0.638 6.136,-6.136 -6.351,-16.052 -16.852,-13.384 m 177.293,0.233 c -7.086,2.551 -11.012,9.533 -7.394,13.151 1.808,1.809 2.187,1.698 2.187,-0.638 0,-5.076 3.983,-8.856 9.766,-9.268 5.036,-0.359 8.308,1.477 13.629,7.648 7.71,8.939 15.201,13.444 23.307,14.016 5.497,0.388 7.903,-0.512 3.815,-1.427 -7.465,-1.671 -15.318,-6.288 -21.431,-12.602 -7.64,-7.891 -8.6,-8.764 -10.726,-9.759 -4.22,-1.975 -9.526,-2.427 -13.153,-1.121 m -158.234,2.817 c 0.54,0.721 1.259,1.86 1.599,2.531 1.403,2.777 24.481,10.694 31.173,10.694 14.37,0 25.219,15.229 19.246,27.017 -5.279,10.417 -25.397,11.394 -35.153,1.706 -7.491,-7.438 -7.759,-17.599 -0.585,-22.149 l 1.744,-1.106 h -2.298 c -6.821,0 -9.647,8.578 -5.649,17.146 4.824,10.342 14.016,16.188 25.372,16.139 17.932,-0.078 27.137,-12.817 20.051,-27.747 -2.859,-6.023 -6.604,-8.487 -16.986,-11.176 -14.898,-3.859 -29.636,-9.174 -38.761,-13.979 -0.596,-0.314 -0.549,-0.139 0.247,0.924 m 144.434,1.133 c -9.688,4.566 -20.737,8.405 -34.315,11.922 -10.383,2.689 -14.128,5.153 -16.987,11.176 -7.086,14.93 2.12,27.669 20.052,27.747 11.356,0.049 20.547,-5.797 25.372,-16.139 3.997,-8.568 1.171,-17.146 -5.649,-17.146 h -2.298 l 1.744,1.106 c 10.643,6.75 4.196,23.537 -10.771,28.046 -6.952,2.094 -18.107,0.029 -22.413,-4.15 -10.77,-10.452 0.196,-30.47 16.691,-30.47 6.693,0 29.771,-7.917 31.174,-10.694 0.339,-0.671 1.044,-1.792 1.567,-2.49 0.523,-0.698 0.897,-1.256 0.833,-1.239 -0.065,0.016 -2.315,1.065 -5,2.331 m -223.581,2.745 c -2.36,1.856 -0.182,5.605 2.822,4.856 2.851,-0.712 3.339,-3.786 0.809,-5.094 -1.505,-0.778 -2.415,-0.719 -3.631,0.238 m 303.463,-0.359 c -2.644,1.447 -2.27,4.488 0.642,5.215 1.183,0.295 3.232,-0.603 3.608,-1.582 1.021,-2.661 -1.729,-5.012 -4.25,-3.633 m -262.5,0.977 c -7.563,2.281 -20.066,2.79 -27.667,1.125 -1.681,-0.368 -3.138,-0.588 -3.237,-0.489 -0.624,0.624 7.721,4.592 10.885,5.175 1.946,0.359 1.851,0.727 -0.586,2.284 -12.78,8.163 -22.836,6.655 -25.077,-3.761 -0.276,-1.282 -0.574,-1.332 -1.7,-0.282 -3.15,2.935 0.133,8.703 5.981,10.509 5.672,1.752 22.48,-0.082 26.842,-2.929 0.801,-0.523 1.758,-0.95 2.125,-0.95 0.972,0 7.32,-3.604 10.356,-5.879 2.382,-1.784 6.317,-5.905 5.533,-5.793 -0.181,0.026 -1.736,0.471 -3.455,0.99 m 222.782,0.828 c 2.748,3.289 12.51,9.854 14.652,9.854 0.368,0 1.324,0.427 2.125,0.95 4.363,2.847 21.171,4.681 26.842,2.929 5.849,-1.806 9.132,-7.574 5.982,-10.509 -1.127,-1.05 -1.425,-1 -1.7,0.282 -2.241,10.416 -12.298,11.924 -25.077,3.761 -2.438,-1.557 -2.532,-1.925 -0.586,-2.284 3.156,-0.582 11.509,-4.551 10.887,-5.173 -0.097,-0.098 -1.642,0.145 -3.433,0.539 -8.025,1.765 -23.646,0.715 -30.599,-2.057 -0.536,-0.214 -0.251,0.322 0.907,1.708 m -203.766,-0.036 c -2.581,1.272 -3.977,4.15 -3.977,8.202 0,3.663 1.291,3.745 3.518,0.225 0.315,-0.498 0.491,-0.551 0.641,-0.191 1.822,4.347 6.388,0.784 6.388,-4.983 0,-1.682 0.756,-1.86 1.915,-0.451 1.124,1.368 1.992,1.6 1.992,0.534 0,-3.052 -6.715,-5.19 -10.477,-3.336 m 179.376,0.07 c -1.712,0.799 -2.884,2.126 -2.884,3.266 0,1.066 0.868,0.834 1.992,-0.534 1.158,-1.409 1.914,-1.231 1.914,0.451 0,5.767 4.567,9.33 6.388,4.983 0.151,-0.36 0.326,-0.307 0.642,0.191 2.394,3.784 3.663,3.494 3.447,-0.787 -0.348,-6.876 -5.592,-10.328 -11.499,-7.57 m -92.142,11.441 c -1.972,0.742 -6.869,0.825 -8.496,0.144 -1.156,-0.484 -0.984,3.839 0.185,4.658 2.754,1.929 8.232,-0.115 10.107,-3.771 1.121,-2.187 1.181,-2.152 -1.796,-1.031 m 9.961,-0.662 c 0,3.826 7.674,7.689 10.851,5.464 1.169,-0.819 1.34,-5.138 0.184,-4.664 -2.329,0.956 -7.185,0.569 -10.546,-0.839 -0.269,-0.112 -0.489,-0.095 -0.489,0.039 m -45.48,0.792 c -2.326,1.258 -3.096,3.217 -2.509,6.387 1.014,5.488 3.485,6.957 7.325,4.355 2.445,-1.657 5.374,-1.09 9.317,1.801 1.111,0.815 1.202,0.126 0.274,-2.095 -1.516,-3.629 -5.254,-5.447 -8.734,-4.248 -1.969,0.678 -2.134,0.129 -0.448,-1.486 2.953,-2.829 -1.418,-6.773 -5.225,-4.714 m 79.256,-0.208 c -2.085,0.845 -2.568,3.365 -0.943,4.922 1.687,1.615 1.521,2.164 -0.448,1.486 -3.48,-1.199 -7.217,0.619 -8.733,4.248 -0.928,2.221 -0.838,2.91 0.274,2.095 3.942,-2.891 6.872,-3.458 9.316,-1.801 3.841,2.602 6.312,1.133 7.326,-4.355 0.892,-4.826 -2.656,-8.271 -6.792,-6.595 m -142.699,1.259 c -1.702,1.09 -1.568,1.799 1.501,7.94 8.616,17.24 25.931,30.442 45.435,34.641 11.218,2.415 30.064,-0.257 35.494,-5.033 0.599,-0.526 0.773,-0.326 1.992,2.29 2.374,5.095 5.488,8.577 11.806,13.201 1.289,0.944 3.662,2.798 5.273,4.12 1.612,1.322 3.133,2.522 3.382,2.667 0.254,0.148 1.986,-0.991 3.959,-2.601 1.93,-1.576 4.451,-3.544 5.604,-4.375 5.905,-4.257 9.212,-7.981 11.557,-13.012 1.219,-2.616 1.393,-2.816 1.991,-2.29 5.43,4.776 24.277,7.448 35.495,5.033 19.504,-4.199 36.818,-17.401 45.434,-34.641 3.116,-6.234 3.224,-6.861 1.385,-7.997 -1.732,-1.071 -1.27,-1.568 -4.525,4.875 -8.202,16.236 -20.191,26.757 -36.671,32.183 -13.4,4.411 -31.207,3.221 -41.142,-2.751 -1.738,-1.044 -3.194,-1.854 -3.237,-1.8 -0.043,0.055 -0.55,1.532 -1.127,3.283 -2.097,6.364 -6.689,12.36 -15.143,19.772 -3.614,3.169 -2.887,3.169 -6.501,0 -8.454,-7.412 -13.047,-13.408 -15.143,-19.772 -0.577,-1.751 -1.084,-3.228 -1.127,-3.283 -0.043,-0.054 -1.5,0.756 -3.237,1.8 -9.936,5.972 -27.742,7.162 -41.142,2.751 -16.586,-5.46 -28.657,-16.118 -36.858,-32.543 -1.457,-2.919 -2.762,-5.304 -2.899,-5.301 -0.138,0.004 -0.838,0.383 -1.556,0.843 m 23.767,1.018 c 0,0.497 2.772,3.2 4.474,4.362 3.832,2.617 5.528,2.383 7.753,-1.071 1.696,-2.634 1.681,-2.662 -1.028,-1.874 -2.981,0.867 -4.049,0.79 -7.683,-0.55 -3.522,-1.298 -3.516,-1.297 -3.516,-0.867 m 159.375,0.867 c -3.402,1.308 -4.745,1.404 -7.684,0.55 -2.709,-0.788 -2.724,-0.76 -1.027,1.874 2.615,4.061 5.813,3.616 10.78,-1.498 2.362,-2.432 2.124,-2.538 -2.069,-0.926 m -80.659,1.399 c -0.426,0.797 -2.209,3.036 -3.962,4.976 -7.385,8.172 -7.764,12.231 -1.879,20.118 l 1.539,2.064 0.876,-1.095 c 4.012,-5.016 5.575,-13.817 4.449,-25.045 l -0.247,-2.467 -0.776,1.449 m 4.351,1.837 c -0.895,11.503 0.555,19.251 4.534,24.226 l 0.876,1.095 1.539,-2.064 c 5.802,-7.777 5.456,-12.122 -1.574,-19.762 -1.546,-1.68 -3.331,-3.876 -3.968,-4.88 l -1.157,-1.824 -0.25,3.209 m -90.011,-1.065 c -2.004,1.403 -0.494,5.251 2.061,5.251 1.176,0 2.93,-1.436 2.93,-2.398 0,-2.693 -2.874,-4.336 -4.991,-2.853 m 34.059,-0.074 c -5.011,2.267 -3.818,7.603 1.598,7.145 l 2.939,-0.248 -0.873,1.655 c -1.231,2.335 -1.249,6.557 -0.037,8.507 1.904,3.061 7.463,4.316 10.062,2.272 l 1.065,-0.838 -2.234,-1.199 c -3.761,-2.018 -5.31,-5.371 -4.989,-10.797 0.307,-5.185 -3.386,-8.371 -7.531,-6.497 m 104.143,0.15 c -2.422,1.217 -3.244,2.939 -3.027,6.347 0.345,5.411 -1.205,8.774 -4.975,10.797 l -2.235,1.199 1.066,0.838 c 2.599,2.044 8.157,0.789 10.061,-2.272 1.213,-1.95 1.195,-6.172 -0.036,-8.507 l -0.873,-1.655 2.938,0.248 c 3.635,0.307 4.495,-0.23 4.495,-2.804 0,-3.671 -3.976,-5.919 -7.414,-4.191 m 35.114,-0.184 c -1.726,1.326 -1.955,3.404 -0.499,4.549 2.121,1.669 4.83,0.367 4.83,-2.321 0,-2.29 -2.545,-3.599 -4.331,-2.228 m -93.52,1.686 c -0.645,0.282 -2.179,0.521 -3.409,0.53 -2.198,0.018 -2.23,0.034 -1.879,0.958 0.197,0.517 0.477,1.991 0.622,3.276 l 0.264,2.336 2.558,-3.178 c 3.383,-4.206 3.345,-4.154 3.169,-4.305 -0.085,-0.071 -0.681,0.101 -1.325,0.383 m 15.821,-0.311 c 0,0.15 1.298,1.884 2.883,3.852 l 2.882,3.579 0.266,-2.346 c 0.145,-1.29 0.426,-2.769 0.622,-3.286 0.351,-0.922 0.318,-0.94 -1.794,-0.94 -1.183,0 -2.76,-0.255 -3.505,-0.566 -0.746,-0.311 -1.355,-0.443 -1.354,-0.293 m -144.708,0.41 c 2.682,2.402 8.299,5.672 10.027,5.838 l 1.945,0.187 2.305,-2.46 c 2.866,-3.06 2.868,-3.05 -0.332,-2.633 -3.094,0.403 -7.769,0.116 -11.163,-0.684 -2.83,-0.667 -3.297,-0.709 -2.782,-0.248 m 272.051,0.264 c -3.107,0.766 -7.995,1.061 -11.036,0.667 -3.199,-0.415 -3.198,-0.426 -0.331,2.634 l 2.304,2.46 1.945,-0.187 c 1.61,-0.155 2.611,-0.646 5.801,-2.846 5.457,-3.764 5.449,-3.747 1.317,-2.728 m -225.785,6.264 c 6.999,9.091 13.125,13.805 23.58,18.145 3.556,1.476 3.997,1.272 3.171,-1.47 -0.531,-1.765 -1.168,-2.709 -2.917,-4.321 -0.669,-0.617 -0.825,-0.967 -0.491,-1.107 2.302,-0.962 -4.5,-5.192 -8.375,-5.208 -3.291,-0.014 -3.07,-0.544 0.815,-1.963 l 1.131,-0.413 -0.902,-0.961 c -1.652,-1.758 -4.689,-2.565 -10.128,-2.69 -2.697,-0.063 -5.256,-0.261 -5.685,-0.441 -0.723,-0.303 -0.738,-0.271 -0.199,0.429 m 180.863,-0.202 c -0.752,0.181 -3.125,0.316 -5.274,0.302 -4.387,-0.031 -7.539,0.864 -9.172,2.602 l -0.902,0.961 1.131,0.413 c 3.885,1.419 4.105,1.949 0.815,1.963 -3.875,0.016 -10.677,4.246 -8.376,5.208 0.334,0.14 0.179,0.49 -0.491,1.107 -1.748,1.612 -2.386,2.556 -2.917,4.321 -0.825,2.742 -0.385,2.946 3.172,1.47 9.33,-3.873 14.702,-7.662 20.498,-14.458 4.105,-4.813 3.975,-4.48 1.516,-3.889 m -104.097,14.519 c -0.637,2.806 -0.66,3.492 -0.211,6.317 0.727,4.585 0.703,4.57 3.373,2.173 3.441,-3.091 3.381,-2.689 0.908,-6.034 -0.794,-1.075 -1.874,-2.775 -2.4,-3.778 l -0.955,-1.825 -0.715,3.147 m 27.339,-1.548 c -0.43,0.892 -1.616,2.77 -2.637,4.172 -2.364,3.248 -2.455,2.73 1.033,5.864 2.671,2.401 2.645,2.418 3.377,-2.197 0.459,-2.889 0.435,-3.497 -0.242,-6.329 l -0.75,-3.134 -0.781,1.624 m -13.081,-0.988 c -0.003,0.262 -1.155,2.161 -2.56,4.219 l -2.555,3.742 1.622,1.836 c 0.892,1.009 2.093,2.657 2.669,3.661 l 1.047,1.826 0.878,-1.655 c 0.483,-0.91 1.677,-2.568 2.653,-3.684 l 1.775,-2.029 -1.825,-2.556 c -1.003,-1.406 -2.246,-3.295 -2.762,-4.197 -0.516,-0.902 -0.94,-1.426 -0.942,-1.163 m -9.524,12.048 -2.683,2.858 0.893,1.843 c 1.971,4.073 10.931,14.299 10.909,12.451 -0.095,-7.899 -1.479,-13.408 -4.523,-17.993 -1.7,-2.562 -1.339,-2.628 -4.596,0.841 m 14.832,-0.841 c -3.043,4.585 -4.428,10.094 -4.522,17.993 -0.023,1.848 8.937,-8.378 10.909,-12.451 l 0.892,-1.843 -2.683,-2.858 c -3.256,-3.469 -2.895,-3.403 -4.596,-0.841"
       stroke="none"
       fill="#000000"
       fill-rule="evenodd" />
  </g>
</svg>
