<?xml version="1.0" encoding="UTF-8" standalone="no"?>
<!-- Created with Inkscape (http://www.inkscape.org/) -->

<svg
   width="119.47936mm"
   height="142.28134mm"
   viewBox="0 0 119.47936 142.28134"
   version="1.1"
   id="svg5"
   xml:space="preserve"
   inkscape:version="1.2 (dc2aedaf03, 2022-05-15)"
   sodipodi:docname="Sirolina frame, 1901.svg"
   xmlns:inkscape="http://www.inkscape.org/namespaces/inkscape"
   xmlns:sodipodi="http://sodipodi.sourceforge.net/DTD/sodipodi-0.dtd"
   xmlns="http://www.w3.org/2000/svg"
   xmlns:svg="http://www.w3.org/2000/svg"><sodipodi:namedview
     id="namedview7"
     pagecolor="#ffffff"
     bordercolor="#000000"
     borderopacity="0.25"
     inkscape:showpageshadow="2"
     inkscape:pageopacity="0.0"
     inkscape:pagecheckerboard="0"
     inkscape:deskcolor="#d1d1d1"
     inkscape:document-units="mm"
     showgrid="false"
     inkscape:zoom="1.3656843"
     inkscape:cx="275.68597"
     inkscape:cy="283.37442"
     inkscape:window-width="1920"
     inkscape:window-height="1057"
     inkscape:window-x="-8"
     inkscape:window-y="-8"
     inkscape:window-maximized="1"
     inkscape:current-layer="layer1" /><defs
     id="defs2" /><g
     inkscape:label="Layer 1"
     inkscape:groupmode="layer"
     id="layer1"
     transform="translate(-96.243865,-85.005375)"><path
       style="fill:#000000;stroke-width:1"
       d="m 120.77483,227.24881 c -0.0622,-0.0558 -2.13722,-0.17299 -4.61107,-0.26036 -7.44604,-0.26296 -11.87357,-1.44114 -16.09236,-4.28224 l -1.363082,-0.91795 4.758972,-0.0223 c 4.59398,-0.0216 6.00799,-0.1325 9.12459,-0.71592 0.80037,-0.14983 2.40771,-0.4127 3.57188,-0.58416 1.16416,-0.17146 2.71197,-0.46839 3.43958,-0.65986 9.09813,-2.39412 22.01507,-4.07755 27.38437,-3.56894 3.759,0.35607 6.85793,1.77166 7.82732,3.57551 0.38827,0.72248 0.63103,0.91032 1.03623,0.80177 0.29104,-0.078 0.59138,-0.1434 0.66743,-0.14538 0.076,-0.002 0.36376,-0.42231 0.63935,-0.93406 0.96422,-1.79045 4.07561,-3.20761 7.82134,-3.56243 5.3693,-0.5086 18.28625,1.17483 27.38438,3.56895 0.7276,0.19146 2.27541,0.4884 3.43958,0.65986 1.16417,0.17146 2.77151,0.43433 3.57187,0.58416 3.11661,0.58342 4.53062,0.69436 9.1246,0.71591 l 4.75897,0.0223 -1.36308,0.91796 c -2.18617,1.47225 -3.07624,1.91147 -5.28214,2.60657 -4.14582,1.30638 -7.61362,1.75546 -13.71627,1.77625 -6.86388,0.0234 -9.82535,-0.41703 -20.48929,-3.04711 -7.05751,-1.74061 -8.85742,-2.05414 -11.10912,-1.9351 -1.7538,0.0927 -2.20904,0.22993 -3.59554,1.08374 -0.87313,0.53767 -1.75293,0.97789 -1.95511,0.97826 -0.20219,2.7e-4 -0.9761,-0.38126 -1.7198,-0.84808 -1.14551,-0.71903 -1.65908,-0.86455 -3.36021,-0.95212 -2.25673,-0.11617 -4.06193,0.19975 -11.19532,1.95927 -7.23558,1.78473 -11.917,2.68456 -14.97477,2.87835 -1.52797,0.0968 -2.96533,0.22841 -3.19414,0.29237 -0.22881,0.064 -0.46693,0.0706 -0.52916,0.0148 z m 33.47843,-9.28609 c -1.54883,-1.61046 -2.96006,-2.22796 -7.39784,-3.23698 -4.10835,-0.93412 -12.27673,-1.20553 -16.92946,-0.56251 -3.76882,0.52086 -7.01174,1.29016 -9.30353,2.20702 -0.90118,0.36053 -1.92815,0.65551 -2.28215,0.65551 -0.61089,0 -0.63732,-0.0658 -0.51947,-1.29221 0.10271,-1.06892 0.0264,-1.38998 -0.44172,-1.85808 -0.68614,-0.68614 -0.71961,-0.67384 2.88571,-1.06008 1.52797,-0.16369 3.90921,-0.53809 5.29166,-0.83201 5.23136,-1.11221 14.09915,-0.97433 19.57917,0.30442 5.20262,1.21401 7.85657,2.29342 9.37686,3.81371 0.50834,0.50834 0.98775,0.92425 1.06536,0.92425 0.63267,0 -0.62523,-2.53188 -1.67881,-3.37906 -2.70815,-2.17764 -7.75127,-3.71299 -14.57486,-4.43724 -6.58539,-0.69898 -10.21022,-0.40606 -14.53351,1.17443 -2.78125,1.01676 -3.38425,0.92371 -3.24836,-0.50124 0.0559,-0.58573 -0.0752,-1.37841 -0.30358,-1.83621 -0.48493,-0.97207 -0.32918,-1.09755 1.48606,-1.19725 0.75706,-0.0416 3.65111,-0.2295 6.43123,-0.4176 4.55539,-0.3082 5.43103,-0.29573 8.86354,0.12628 8.69156,1.06858 15.36859,3.53743 17.17021,6.34873 0.51368,0.80156 0.52018,0.80347 0.5128,0.15041 -0.012,-1.06609 -0.57921,-2.04889 -1.55988,-2.70303 -0.95981,-0.64022 -1.26401,-1.30723 -1.30777,-2.86746 -0.0326,-1.16307 1.18213,-2.44555 2.70534,-2.8562 1.22578,-0.33046 1.64382,-0.20256 2.75839,0.84395 0.67475,0.63353 0.85422,1.00984 0.83352,1.74766 -0.0438,1.56024 -0.34796,2.22725 -1.30777,2.86747 -0.98067,0.65414 -1.54783,1.63694 -1.55988,2.70302 -0.007,0.65307 -7.9e-4,0.65116 0.5128,-0.1504 1.80162,-2.8113 8.47865,-5.28016 17.17022,-6.34874 3.43251,-0.422 4.30814,-0.43448 8.86354,-0.12627 2.78012,0.1881 5.67417,0.37601 6.43122,0.4176 1.81524,0.0997 1.97099,0.22518 1.48606,1.19724 -0.22838,0.4578 -0.35943,1.25048 -0.30357,1.83622 0.13589,1.42495 -0.46712,1.51799 -3.24836,0.50124 -4.3233,-1.58049 -7.94813,-1.87341 -14.53351,-1.17444 -6.82359,0.72426 -11.86671,2.25961 -14.57487,4.43724 -1.05357,0.84718 -2.31148,3.37906 -1.67881,3.37906 0.0776,0 0.55703,-0.41591 1.06536,-0.92425 1.52029,-1.52029 4.17425,-2.59969 9.37686,-3.81371 5.48002,-1.27875 14.34782,-1.41662 19.57917,-0.30441 1.38245,0.29391 3.7637,0.66832 5.29167,0.83201 3.60532,0.38623 3.57184,0.37394 2.88571,1.06007 -0.46811,0.4681 -0.54443,0.78917 -0.44172,1.85809 0.11785,1.22645 0.0914,1.2922 -0.51948,1.2922 -0.354,0 -1.38096,-0.29497 -2.28214,-0.6555 -2.29179,-0.91686 -5.53471,-1.68616 -9.30354,-2.20702 -4.65272,-0.64302 -12.82111,-0.37161 -16.92946,0.56251 -4.49168,1.02128 -5.8131,1.61007 -7.62115,3.39581 -0.86317,0.85252 -1.64465,1.53703 -1.73663,1.52113 -0.092,-0.0159 -0.76725,-0.65282 -1.50063,-1.41538 z m -50.08951,-0.29456 c -1.5909,-0.42797 -2.55588,-1.02185 -4.227558,-2.60174 -2.333066,-2.20496 -2.833338,-4.07762 -3.217357,-12.04345 -0.246561,-5.11447 -0.221392,-6.08821 0.257546,-9.96419 0.697254,-5.64278 1.117464,-7.37522 4.101859,-16.91115 0.50097,-1.60073 1.27822,-4.33016 1.72722,-6.0654 0.44901,-1.73524 0.8643,-3.23253 0.92288,-3.32731 0.0586,-0.0948 0.48619,-1.59206 0.95026,-3.3273 0.46406,-1.73524 1.25374,-4.64327 1.75483,-6.46228 0.50109,-1.81901 1.07312,-4.14073 1.27116,-5.15937 0.19805,-1.01865 0.61008,-2.98318 0.91562,-4.36563 0.91596,-4.14428 1.01775,-4.7834 1.60894,-10.10294 0.47952,-4.3148 0.54402,-6.01699 0.41416,-10.93143 -0.0846,-3.20146 -0.31907,-6.83287 -0.52106,-8.0698 -0.20199,-1.23692 -0.32939,-2.29344 -0.28311,-2.34782 0.1096,-0.12877 1.25895,2.40925 1.78212,3.93532 0.2245,0.65485 0.83945,2.38125 1.36657,3.83646 0.52712,1.45521 1.32016,3.7174 1.76231,5.02709 0.44214,1.30968 0.89647,2.50031 1.00961,2.64583 0.22355,0.28755 0.56087,2.84149 0.68143,5.15937 0.0416,0.80037 0.24787,2.58631 0.45832,3.96875 0.45772,3.00673 0.41742,5.56477 -0.21883,13.89063 -0.21382,2.798 -1.14093,8.43561 -1.82746,11.1125 -0.3359,1.30969 -1.3491,5.41734 -2.25157,9.12812 -0.90248,3.71079 -1.80223,7.28266 -1.99946,7.9375 -1.50766,5.00584 -2.46694,7.99562 -3.4806,10.84792 -4.7938,13.48912 -4.83344,18.40332 -0.16668,20.66246 0.97501,0.472 1.66906,0.59566 3.24044,0.57738 1.73367,-0.0202 4.87272,-0.60908 5.24826,-0.98461 0.25365,-0.25366 1.64713,0.67442 1.67666,1.11667 0.11231,1.68168 -0.30182,2.08343 -2.37516,2.30413 -0.82047,0.0873 -2.07098,0.33237 -2.77891,0.54451 -1.64229,0.49213 -5.92235,0.47555 -7.80244,-0.0302 z m 95.74063,-0.25005 c -0.65484,-0.20281 -1.86192,-0.44049 -2.68239,-0.52818 -2.07355,-0.22162 -2.48746,-0.62326 -2.37516,-2.30477 0.0295,-0.44226 1.42301,-1.37033 1.67667,-1.11668 0.37553,0.37554 3.51458,0.96445 5.24826,0.98462 1.57137,0.0183 2.26542,-0.10539 3.24044,-0.57738 4.66676,-2.25914 4.62712,-7.17334 -0.16668,-20.66246 -1.01366,-2.85231 -1.97295,-5.84209 -3.48061,-10.84792 -0.19723,-0.65484 -1.09698,-4.22672 -1.99945,-7.9375 -0.90247,-3.71078 -1.91568,-7.81844 -2.25157,-9.12812 -0.68653,-2.6769 -1.61364,-8.31451 -1.82746,-11.1125 -0.63625,-8.32586 -0.67655,-10.8839 -0.21884,-13.89063 0.21045,-1.38245 0.4167,-3.16838 0.45833,-3.96875 0.12055,-2.31788 0.45787,-4.87183 0.68143,-5.15937 0.11314,-0.14552 0.56746,-1.33615 1.00961,-2.64584 0.44215,-1.30968 1.23518,-3.57187 1.7623,-5.02708 0.52712,-1.45521 1.14208,-3.18162 1.36657,-3.83646 0.52317,-1.52607 1.67252,-4.06409 1.78212,-3.93532 0.0463,0.0544 -0.0811,1.11089 -0.2831,2.34782 -0.20199,1.23693 -0.43647,4.86833 -0.52106,8.06979 -0.12986,4.91444 -0.0654,6.61663 0.41416,10.93144 0.59119,5.31954 0.69297,5.95865 1.60893,10.10294 0.30555,1.38245 0.71758,3.34698 0.91562,4.36562 0.19805,1.01865 0.77007,3.34037 1.27116,5.15938 0.5011,1.81901 1.29077,4.72703 1.75484,6.46227 0.46407,1.73524 0.89168,3.23253 0.95026,3.32731 0.0586,0.0948 0.47387,1.59207 0.92287,3.32731 0.44901,1.73524 1.22626,4.46467 1.72723,6.0654 2.98439,9.53592 3.4046,11.26837 4.10185,16.91115 0.47894,3.87598 0.50411,4.84972 0.25755,9.96419 -0.38402,7.96583 -0.88429,9.83848 -3.21736,12.04345 -1.70363,1.61009 -2.63382,2.17014 -4.34445,2.6157 -1.91769,0.4995 -6.17011,0.49981 -7.78207,5.3e-4 z m -92.39586,-5.66774 c -2.49243,-1.97358 -2.79704,-5.03736 -1.02719,-10.33139 0.86084,-2.57496 3.03611,-8.44341 3.60888,-9.73605 0.21175,-0.47788 0.385,-1.00016 0.385,-1.16062 0,-0.16046 0.64844,-2.32931 1.44098,-4.81967 2.20953,-6.94294 4.647,-16.08724 4.6451,-17.42636 -2.7e-4,-0.25466 0.14817,-0.46259 0.33007,-0.46207 0.52363,0.002 1.99303,6.12159 2.71135,11.29279 0.5017,3.61181 0.58079,11.05122 0.14997,14.10626 -0.61298,4.3467 -1.59614,7.70081 -3.11698,10.63385 -0.96501,1.86108 -0.894,1.81446 -3.38236,2.22093 -2.05548,0.33576 -3.38545,2.3531 -2.42093,3.67216 0.50913,0.69627 1.77117,0.42987 4.90622,-1.03561 1.41642,-0.66211 2.90087,-1.20383 3.29879,-1.20383 1.00149,0 2.02113,1.15099 2.02113,2.28149 0,1.69648 -1.31033,2.0465 -8.86354,2.36768 -3.79358,0.16132 -4.00043,0.14368 -4.68649,-0.39956 z m 87.34278,-0.15798 c -3.06944,-0.33117 -3.94275,-0.79071 -3.94275,-2.07472 0,-1.13051 1.01964,-2.2815 2.02113,-2.2815 0.39791,0 1.88236,0.54173 3.29878,1.20383 3.13506,1.46549 4.3971,1.73188 4.90622,1.03562 0.96452,-1.31906 -0.36544,-3.3364 -2.42092,-3.67216 -2.48837,-0.40648 -2.41735,-0.35985 -3.38237,-2.22094 -1.52084,-2.93303 -2.50399,-6.28714 -3.11697,-10.63385 -0.43083,-3.05503 -0.35174,-10.49444 0.14997,-14.10625 0.71831,-5.1712 2.18772,-11.29128 2.71135,-11.29279 0.1819,-5.3e-4 0.33043,0.2074 0.33007,0.46207 -0.002,1.33912 2.43556,10.48342 4.6451,17.42636 0.79253,2.49035 1.44097,4.65921 1.44097,4.81967 0,0.16046 0.17325,0.68273 0.385,1.16061 0.57277,1.29265 2.74804,7.1611 3.60888,9.73605 1.79114,5.35769 1.39551,8.76077 -1.21752,10.47289 -0.71476,0.46834 -4.89635,0.45284 -9.41694,-0.0349 z m -91.59667,-54.77657 c -2.7055,-8.40217 -5.175313,-19.04633 -6.012449,-25.91194 -0.159692,-1.30968 -0.414553,-3.15515 -0.566357,-4.10104 -0.462797,-2.88367 -0.576105,-8.1534 -0.230405,-10.71562 0.176705,-1.30969 0.367814,-2.95128 0.424685,-3.64798 0.05687,-0.6967 0.232808,-1.50853 0.390972,-1.80407 0.283125,-0.52902 0.297156,-0.52699 0.90747,0.13155 0.694364,0.74923 1.672397,1.07688 2.654264,0.88918 0.79096,-0.1512 0.85427,0.41053 0.23105,2.05007 -0.95663,2.51663 -1.1987,3.87441 -1.323954,7.42601 -0.07219,2.04702 -0.0068,4.6664 0.14532,5.82084 1.134704,8.61136 2.146054,13.84322 3.602364,18.63544 0.50856,1.67349 1.29072,4.4511 1.73815,6.17247 l 0.8135,3.12976 -0.58394,2.42649 c -0.32116,1.33457 -0.67796,2.59847 -0.79289,2.80867 -0.13705,0.25068 -0.618,-0.88816 -1.39778,-3.30983 z m 103.70297,1.93546 c -1.05835,-3.74394 -1.06669,-4.05529 -0.19674,-7.34219 0.44293,-1.67349 1.22112,-4.41193 1.72931,-6.08542 1.45625,-4.79546 2.46745,-10.02748 3.6017,-18.63544 0.15212,-1.15443 0.21751,-3.77381 0.14532,-5.82083 -0.12526,-3.5516 -0.36733,-4.90938 -1.32395,-7.42602 -0.62323,-1.63954 -0.55992,-2.20126 0.23104,-2.05006 0.98187,0.18769 1.9599,-0.13995 2.65427,-0.88918 0.61031,-0.65854 0.62434,-0.66057 0.90747,-0.13155 0.15816,0.29553 0.3341,1.10736 0.39097,1.80406 0.0569,0.6967 0.24798,2.3383 0.42468,3.64798 0.34571,2.56222 0.2324,7.83196 -0.2304,10.71563 -0.1518,0.94588 -0.40666,2.79135 -0.56636,4.10104 -0.58638,4.80908 -2.05947,11.89781 -3.90321,18.78288 -0.98489,3.67786 -3.19731,10.71816 -3.36818,10.71816 -0.0568,0 -0.27995,-0.62508 -0.49592,-1.38906 z M 106.15808,145.6544 c -1.12818,-4.00276 -2.17789,-8.15878 -2.67796,-10.60264 -0.19883,-0.97164 -0.60456,-2.95725 -0.90163,-4.41246 -0.68021,-3.332 -1.64216,-10.78156 -1.6691,-12.92578 -0.0135,-1.07745 0.16773,-2.09646 0.5371,-3.01942 0.30664,-0.76621 0.59665,-2.04454 0.64446,-2.84074 0.19775,-3.29318 0.55793,-1.57793 0.83351,3.96927 0.21998,4.42827 1.98914,15.83495 2.83152,18.25625 0.15188,0.43657 0.32446,1.16548 0.38352,1.61981 0.0591,0.45433 0.5642,2.65698 1.12253,4.89479 l 1.01514,4.06874 -0.42233,2.18247 c -0.23229,1.20036 -0.49515,2.18262 -0.58414,2.18281 -0.089,1.9e-4 -0.58968,-1.51771 -1.11262,-3.3731 z m 97.95418,0.92571 -0.42233,-2.18248 1.01514,-4.06873 c 0.55833,-2.23781 1.06346,-4.44047 1.12252,-4.8948 0.0591,-0.45433 0.23165,-1.18324 0.38353,-1.6198 0.84237,-2.4213 2.61153,-13.82799 2.83152,-18.25625 0.27557,-5.5472 0.63576,-7.26245 0.83351,-3.96927 0.0478,0.79619 0.33781,2.07453 0.64445,2.84074 0.36937,0.92296 0.55063,1.94197 0.5371,3.01942 -0.0269,2.14422 -0.98889,9.59377 -1.66909,12.92578 -0.29707,1.4552 -0.70281,3.44081 -0.90163,4.41246 -0.85945,4.20009 -3.51102,13.97632 -3.79058,13.97574 -0.089,-1.9e-4 -0.35186,-0.98245 -0.58414,-2.18281 z m -95.46014,-10.05383 c -2.41003,-10.25378 -3.62711,-17.92261 -4.13472,-26.05283 l -0.16879,-2.70334 0.88049,-0.53681 c 1.37234,-0.83668 1.54161,-0.72902 1.54468,0.98256 0.006,3.28129 1.18782,13.89358 1.83436,16.47031 0.1278,0.50933 0.30909,1.59474 0.40288,2.41204 0.0938,0.8173 0.34213,2.12699 0.55188,2.91042 0.3198,1.19444 0.33032,1.94771 0.0652,4.66557 -0.17391,1.78263 -0.39119,3.24114 -0.48283,3.24114 -0.0916,0 -0.31354,-0.62508 -0.49311,-1.38906 z m 93.68692,-2.11667 c -0.26516,-2.71785 -0.25464,-3.47112 0.0651,-4.66557 0.20975,-0.78343 0.4581,-2.09311 0.55188,-2.91041 0.0938,-0.8173 0.27508,-1.90272 0.40288,-2.41204 0.64655,-2.57673 1.82848,-13.18903 1.83437,-16.47031 0.003,-1.71158 0.17233,-1.81925 1.54467,-0.98257 l 0.88049,0.53682 -0.16878,2.70334 c -0.45581,7.30051 -1.38219,13.58039 -3.287,22.28251 -0.91186,4.16582 -1.17007,5.15938 -1.34083,5.15938 -0.0916,0 -0.30892,-1.45852 -0.48283,-3.24115 z m -71.10591,-16.19118 c -3.84435,-0.78819 -4.56886,-1.03518 -7.4396,-2.5362 -2.46531,-1.28902 -4.93263,-2.9105 -8.02665,-5.27495 -5.99029,-4.57777 -7.53158,-5.19398 -10.26034,-4.10215 -1.24367,0.49762 -3.36322,2.66603 -3.93664,4.0274 -0.24011,0.57002 -0.54382,0.85989 -0.90096,0.85989 -0.773387,0 -2.099977,-0.7425 -2.099977,-1.17537 0,-0.20241 -0.142588,-0.41556 -0.316863,-0.47365 -1.247163,-0.41572 3.59942,-5.45586 6.76806,-7.03836 2.7729,-1.38485 6.89091,-1.65209 10.87901,-0.70599 1.6582,0.39337 5.22556,2.06274 7.9375,3.7144 10.13352,6.17165 20.50015,8.3827 27.19129,5.7995 0.54865,-0.21181 1.32256,-0.38362 1.7198,-0.38181 0.6949,0.003 0.66714,0.0562 -0.73296,1.39995 -4.13767,3.97115 -10.60416,6.5788 -16.13959,6.50837 -0.94588,-0.012 -3.03482,-0.2915 -4.64208,-0.62103 z m 41.24727,0.0928 c -4.36121,-0.72869 -9.39524,-3.23795 -12.5281,-6.24474 -1.40011,-1.34376 -1.42786,-1.39677 -0.73296,-1.39994 0.39724,-0.002 1.17114,0.17 1.71979,0.38181 6.69114,2.58319 17.05777,0.37214 27.19129,-5.7995 2.71195,-1.65166 6.2793,-3.32103 7.9375,-3.7144 3.98811,-0.9461 8.10612,-0.67886 10.87901,0.70599 3.16864,1.58249 8.01523,6.62264 6.76806,7.03836 -0.17427,0.0581 -0.31686,0.27123 -0.31686,0.47365 0,0.43287 -1.32659,1.17537 -2.09998,1.17537 -0.35714,0 -0.66085,-0.28987 -0.90095,-0.85989 -0.57343,-1.36138 -2.69297,-3.52978 -3.93665,-4.0274 -2.72876,-1.09184 -4.27004,-0.47562 -10.26034,4.10215 -4.2399,3.24013 -8.4911,5.8129 -11.16599,6.7575 -2.01095,0.71015 -7.60818,1.7015 -9.42673,1.66963 -0.97051,-0.017 -2.3777,-0.13338 -3.12709,-0.25859 z m -36.67276,-10.57821 c -4.2805,-0.48214 -8.78408,-2.25376 -11.38362,-4.47811 -0.83905,-0.71795 -2.04092,-2.59736 -2.04525,-3.19824 -0.002,-0.205504 -0.47006,-0.569874 -1.04129,-0.809734 -0.86148,-0.36172 -1.06913,-0.59881 -1.2176,-1.39023 -0.22144,-1.18035 0.35075,-2.1643 1.55239,-2.66956 0.71829,-0.302017 0.93783,-0.293759 1.53273,0.05766 0.65063,0.38433 0.78586,0.365395 2.14727,-0.30068 1.40474,-0.687275 1.52652,-0.701728 3.67282,-0.435896 1.22972,0.152308 3.65599,0.762368 5.43945,1.367686 5.32345,1.80683 9.14084,4.189734 12.76119,7.965814 l 1.9578,2.04202 -0.76718,0.30429 c -1.18895,0.47158 -2.92739,0.88098 -6.19114,1.45803 -1.34172,0.23722 -4.68168,0.28247 -6.41757,0.087 z m 3.48511,-0.33196 c -0.0606,-0.048 -0.67823,-0.60115 -1.37243,-1.22931 -0.6942,-0.62817 -1.32407,-1.08023 -1.39972,-1.00458 -0.26198,0.26198 1.82501,2.32108 2.35253,2.32108 0.29142,0 0.48025,-0.0392 0.41962,-0.0872 z m 1.60955,-0.45627 c -0.36381,-0.29243 -0.99694,-0.71373 -1.40697,-0.93621 -0.71868,-0.38996 -0.73529,-0.38543 -0.46159,0.12596 0.15614,0.29177 0.40427,0.60488 0.55138,0.6958 0.14711,0.0909 0.19898,0.27614 0.11525,0.41161 -0.084,0.13588 0.29959,0.24366 0.85558,0.24041 l 1.0078,-0.006 z m -5.82084,0.0414 c 0,-0.42064 -2.32904,-2.44229 -2.49824,-2.16852 -0.0983,0.15914 -0.0784,0.28934 0.0443,0.28934 0.12274,0 0.4496,0.38695 0.72636,0.85989 0.49687,0.84906 0.49675,0.85508 -0.009,0.4773 -0.28177,-0.21043 -0.95879,-0.80014 -1.50449,-1.31047 -1.22009,-1.14099 -1.26928,-0.90774 -0.13229,0.62728 0.54269,0.73267 1.10389,1.19217 1.52135,1.24564 1.28853,0.16506 1.85208,0.15883 1.85208,-0.0205 z m 7.93185,0.0391 c -0.008,-0.2938 -2.11101,-1.72999 -2.11101,-1.44191 0,0.50279 1.11422,1.64034 1.6067,1.64034 0.28048,0 0.50742,-0.0893 0.50431,-0.19843 z m 1.91048,-0.39688 c -0.35542,-0.42491 -1.90483,-1.33842 -1.90483,-1.12306 0,0.49721 1.01157,1.43829 1.55375,1.44548 0.47373,0.006 0.55985,-0.0728 0.35108,-0.32242 z m -9.44545,-0.99219 c -0.56839,-0.58208 -1.13834,-1.05833 -1.26656,-1.05833 -0.12821,0 0.14408,0.47625 0.6051,1.05833 0.46102,0.58209 1.03097,1.05834 1.26655,1.05834 0.29389,0 0.10394,-0.33222 -0.60509,-1.05834 z m -4.63293,0.59532 c -0.002,-0.10914 -0.59681,-0.82209 -1.32292,-1.58433 -0.72611,-0.76225 -1.32019,-1.27423 -1.32019,-1.13775 0,0.48173 1.60656,2.62123 2.05701,2.73938 0.25109,0.0659 0.48629,0.13356 0.52267,0.15044 0.0364,0.0169 0.0649,-0.0586 0.0634,-0.16774 z m -2.61218,-1.32292 c -0.13874,-0.25466 -0.48402,-0.70865 -0.76727,-1.00886 -0.28325,-0.3002 -0.67012,-0.83567 -0.85971,-1.18992 -0.19126,-0.35738 -0.39149,-0.50371 -0.44982,-0.32873 -0.0578,0.17345 0.0258,0.56009 0.18593,0.8592 0.22347,0.41755 0.2121,0.54409 -0.049,0.54496 -0.27054,9e-4 1.83937,1.58108 2.11667,1.58524 0.0415,6.3e-4 -0.0381,-0.20723 -0.17681,-0.46189 z m 15.57948,-1.75376 c 0,-0.20059 -0.62507,-0.8434 -1.38906,-1.42847 -3.79524,-2.906464 -11.33218,-5.536674 -13.12147,-4.579074 -0.77212,0.41322 -0.75212,1.61167 0.0393,2.35516 1.17938,1.107974 4.60021,2.494744 9.17957,3.721314 0.50932,0.13643 1.9083,0.25878 3.10885,0.27191 1.68984,0.0185 2.18281,-0.0585 2.18281,-0.34084 z m 27.48722,4.48212 c -0.0566,-0.0556 -0.63862,-0.16187 -1.29347,-0.23612 -1.88029,-0.2132 -5.1737,-0.9486 -6.23601,-1.39246 l -0.97082,-0.40564 1.94977,-2.03379 c 3.61173,-3.767374 7.4335,-6.152034 12.75315,-7.957576 1.78346,-0.605322 4.20973,-1.215383 5.43945,-1.36769 2.1463,-0.265832 2.26808,-0.251379 3.67282,0.435896 1.36141,0.666075 1.49665,0.685012 2.14727,0.30068 1.46971,-0.868178 3.42711,0.788986 3.08512,2.611906 -0.14742,0.78585 -0.35915,1.03105 -1.2004,1.39023 -0.72184,0.30819 -1.06178,0.63787 -1.15905,1.124074 -0.18519,0.92571 -1.70081,2.83619 -2.67685,3.37425 -0.43469,0.23963 -0.91094,0.58095 -1.05833,0.75848 -0.46532,0.56048 -4.15229,2.11107 -6.35341,2.67198 -1.84653,0.47056 -7.81485,1.00538 -8.09924,0.72578 z m 1.00741,-0.58183 c -0.0927,-0.0927 0.0741,-0.50943 0.37079,-0.92604 0.29665,-0.41661 0.46143,-0.75747 0.36617,-0.75747 -0.19422,0 -2.50867,1.62803 -2.50867,1.76464 0,0.0481 0.43656,0.0874 0.97014,0.0874 0.53357,0 0.89428,-0.0758 0.80157,-0.16857 z m 2.3978,-1.0882 c 1.20753,-1.4662 0.80205,-1.41748 -0.84977,0.10209 -1.07766,0.9914 -1.20084,1.18929 -0.69339,1.11398 0.33939,-0.0504 1.03381,-0.5976 1.54316,-1.21607 z m -4.21059,0.13924 c 0.29703,-0.46912 0.49164,-0.90135 0.43248,-0.96051 -0.1355,-0.1355 -1.93395,1.34656 -1.9598,1.61502 -0.0542,0.56331 1.05804,0.0867 1.52732,-0.65451 z m 9.06139,0.16934 c 0.63696,-0.57644 1.61522,-2.22681 1.31995,-2.22681 -0.12388,0 -0.41271,0.28613 -0.64184,0.63583 -0.22914,0.3497 -0.8049,0.91231 -1.27948,1.25024 l -0.86288,0.61442 0.5876,-0.95074 c 0.89379,-1.44618 0.70988,-1.51536 -0.60303,-0.22683 -0.65485,0.64268 -1.19063,1.25481 -1.19063,1.3603 0,0.36359 2.17501,-0.008 2.67031,-0.45641 z m -11.18229,-0.1359 c 0.50321,-0.80576 0.1951,-0.91068 -0.7332,-0.24967 -0.96677,0.6884 -0.99727,0.8046 -0.21117,0.8046 0.32879,0 0.75376,-0.24972 0.94437,-0.55493 z m 8.65347,-0.67128 c 0.40341,-0.5289 0.6259,-0.91203 0.49443,-0.85141 -1.2281,0.56626 -1.66843,0.89196 -1.77935,1.31612 -0.21627,0.82701 0.49622,0.56933 1.28492,-0.46471 z m 5.14668,0.16787 c 0.22934,0 1.591,-2.18922 1.591,-2.55795 0,-0.11812 -0.31719,0.14121 -0.70486,0.57628 -0.38768,0.43508 -1.01276,1.13684 -1.38907,1.55947 -0.53457,0.60038 -0.57821,0.73057 -0.19954,0.59531 0.26657,-0.0952 0.58267,-0.17311 0.70247,-0.17311 z m 3.26498,-1.83672 c 0.24142,-0.29674 0.2369,-0.33737 -0.0203,-0.18282 -0.47654,0.28629 -0.40728,-0.24736 0.0976,-0.75228 0.23561,-0.23561 0.37744,-0.47931 0.31518,-0.54157 -0.10986,-0.10986 -1.74142,1.7482 -2.18787,2.49159 -0.2758,0.45925 1.33847,-0.45329 1.79539,-1.01492 z m -9.74761,-1.45148 c 4.93221,-1.48198 7.54446,-3.000864 7.54446,-4.386684 0,-1.6265 -2.15626,-1.69506 -6.44602,-0.20497 -4.00712,1.39192 -8.63523,4.159964 -8.63523,5.164684 0,0.6542 4.62195,0.30279 7.53679,-0.57303 z m -75.67702,0.75856 c -0.258163,-2.755 -0.05813,-4.089924 0.90647,-6.049304 1.00518,-2.041817 2.35698,-3.4728 4.23837,-4.486648 1.26455,-0.681444 1.67139,-0.762361 3.82858,-0.761469 2.78359,0.0012 6.96782,0.704044 8.48265,1.424968 0.57304,0.272714 1.22788,0.496507 1.45521,0.497319 0.22733,8.2e-4 0.86994,0.128267 1.42802,0.283234 l 1.01469,0.281758 -0.96066,0.841246 c -0.74861,0.655562 -0.98085,1.074852 -1.05217,1.899582 -0.0814,0.94115 -0.16035,1.04797 -0.7132,0.96474 -0.34192,-0.0515 -0.92037,-0.30382 -1.28543,-0.56077 -2.15097,-1.5139 -5.6245,-2.652932 -8.09026,-2.652932 -4.31046,0 -6.72871,2.582992 -6.72871,7.187116 0,0.79281 -0.20831,1.24403 -0.95683,2.07254 -0.52625,0.5825 -1.05187,1.0591 -1.16805,1.0591 -0.11617,0 -0.29558,-0.90022 -0.39868,-2.00048 z m 110.37206,0.6768 c -0.74851,-0.82852 -0.95683,-1.27974 -0.95683,-2.07254 0,-4.604124 -2.41824,-7.18712 -6.7287,-7.18712 -2.46577,0 -5.93929,1.139026 -8.09026,2.652936 -0.36507,0.25694 -0.94351,0.50929 -1.28544,0.56076 -0.55284,0.0832 -0.63181,-0.0236 -0.7132,-0.96474 -0.0713,-0.82473 -0.30355,-1.244017 -1.05217,-1.899576 l -0.96066,-0.841245 1.0147,-0.281758 c 0.55808,-0.154968 1.20069,-0.282423 1.42801,-0.283234 0.22733,-8.21e-4 0.88217,-0.224605 1.45521,-0.497319 1.51483,-0.720924 5.69906,-1.423817 8.48265,-1.424968 2.1572,-9e-4 2.56403,0.08002 3.82859,0.761469 0.77819,0.419357 1.86413,1.222486 2.41319,1.784733 1.2446,1.274494 2.60919,4.001218 2.78558,5.566148 0.1637,1.452334 -0.16215,5.185544 -0.45262,5.185544 -0.11617,0 -0.64179,-0.47659 -1.16805,-1.05909 z M 104.5081,101.6448 c -0.20521,-0.33204 0.15767,-3.967934 0.45299,-4.538704 0.24198,-0.4677 1.54546,-1.25951 2.07339,-1.25951 0.17786,0 0.23816,0.332 0.15618,0.8599 -0.0734,0.47294 -0.20577,1.6486 -0.29406,2.61257 -0.15985,1.745084 -0.16505,1.754444 -1.1994,2.160754 -0.59454,0.23354 -1.10312,0.3041 -1.1891,0.16499 z m 101.69808,-0.44493 c -0.9577,-0.37781 -0.97697,-0.41418 -1.13523,-2.141214 -0.0885,-0.96627 -0.22108,-2.14381 -0.29452,-2.61676 -0.082,-0.52789 -0.0217,-0.859892 0.15619,-0.859892 0.5271,0 1.83119,0.791462 2.0753,1.259512 0.33357,0.63956 0.65813,4.478904 0.3909,4.624064 -0.12012,0.0652 -0.65681,-0.0543 -1.19264,-0.26571 z m -66.49451,-6.591053 c -3.07895,-0.263233 -12.43904,-1.746526 -16.52091,-2.618071 -1.16347,-0.248419 -3.01645,-0.952662 -4.5299,-1.721633 -1.40859,-0.715691 -2.93099,-1.37524 -3.38311,-1.465665 -0.90246,-0.180491 -2.70727,0.528497 -4.18957,1.645791 -0.63113,0.475723 -1.17826,0.634848 -2.18281,0.634848 -0.73732,0 -1.33737,-0.0893 -1.33346,-0.198438 0.0122,-0.341069 1.39527,-1.796815 2.65897,-2.798768 2.8497,-2.259454 5.40658,-2.826493 12.70142,-2.816801 7.03072,0.0093 9.55592,0.294424 12.94291,1.461191 1.52797,0.526363 4.32594,1.409674 6.21771,1.962914 1.89177,0.553239 4.39208,1.379704 5.55625,1.836587 1.16417,0.456884 3.21839,1.035007 4.56493,1.284719 1.34655,0.249712 2.40902,0.574254 2.36106,0.721205 -0.10714,0.328301 -3.11982,1.338928 -5.55422,1.863208 -1.65825,0.357124 -6.34537,0.46231 -9.30927,0.208913 z m 23.01875,-0.478906 c -2.42336,-0.578564 -5.24101,-1.559108 -5.33849,-1.857799 -0.048,-0.14695 1.01452,-0.471493 2.36106,-0.721204 1.34655,-0.249712 3.40077,-0.827835 4.56493,-1.284719 1.16417,-0.456884 3.66448,-1.283348 5.55625,-1.836588 1.89177,-0.55324 4.68974,-1.43655 6.21771,-1.962913 3.38699,-1.166767 5.91219,-1.45185 12.94291,-1.461191 7.29484,-0.0097 9.85172,0.557347 12.70143,2.816801 1.2637,1.001953 2.64673,2.457699 2.65896,2.798768 0.004,0.109141 -0.59614,0.198438 -1.33345,0.198438 -1.00456,0 -1.55168,-0.159125 -2.18281,-0.634848 -1.4823,-1.117294 -3.28712,-1.826282 -4.18957,-1.645791 -0.45213,0.09042 -1.97452,0.749973 -3.38311,1.465665 -3.0491,1.549222 -5.90266,2.200036 -16.94978,3.865767 -3.96908,0.598475 -11.59789,0.743825 -13.62604,0.259614 z"
       id="path248" /></g></svg>
