<?xml version="1.0" encoding="UTF-8" standalone="no"?>
<svg
   viewBox="0 0 1000 217.57323"
   fill="none"
   class="d-none"
   version="1.1"
   id="svg1"
   sodipodi:docname="Candy 2024.svg"
   width="1000"
   height="217.57323"
   inkscape:version="1.3.2 (091e20e, 2023-11-25, custom)"
   xmlns:inkscape="http://www.inkscape.org/namespaces/inkscape"
   xmlns:sodipodi="http://sodipodi.sourceforge.net/DTD/sodipodi-0.dtd"
   xmlns="http://www.w3.org/2000/svg"
   xmlns:svg="http://www.w3.org/2000/svg">
  <defs
     id="defs1" />
  <sodipodi:namedview
     id="namedview1"
     pagecolor="#ffffff"
     bordercolor="#000000"
     borderopacity="0.25"
     inkscape:showpageshadow="2"
     inkscape:pageopacity="0.0"
     inkscape:pagecheckerboard="0"
     inkscape:deskcolor="#d1d1d1"
     inkscape:zoom="0.716"
     inkscape:cx="500"
     inkscape:cy="108.24022"
     inkscape:window-width="1366"
     inkscape:window-height="705"
     inkscape:window-x="-8"
     inkscape:window-y="-8"
     inkscape:window-maximized="1"
     inkscape:current-layer="svg1" />
  <path
     d="m 109.6569,33.23431 a 76.740586,76.740586 0 0 1 63.22176,33.096234 l 2.03347,2.958159 23.51465,-23.493724 -1.55649,-2.07113 C 176.00418,15.933054 144.0795,0 109.28452,0 49.025105,0 0,48.803347 0,108.79079 c 0,59.98745 49.025105,108.78243 109.2887,108.78243 32.16737,0 62.56067,-14.02929 83.38912,-38.49372 l 1.7908,-2.09205 -23.15063,-23.13808 -2.09205,2.56904 c -14.61088,17.94561 -36.31799,28.24268 -59.56904,28.24268 -42.16736,0 -76.4728,-33.97071 -76.4728,-75.7113 0,-41.740585 34.309624,-75.71548 76.4728,-75.71548 z M 317.86611,4.3096234 h -5.76569 c -10.34728,0 -19.00419,6.1255226 -23.15063,15.5983266 L 203.63598,215.08368 H 239.5523 L 307.43096,61.259414 375.31381,215.08368 h 35.52301 L 318.53138,4.7447699 A 0.71129707,0.71129707 0 0 0 317.87866,4.3096234 M 573.9205,155.60669 468.31799,4.8075314 H 437.09623 V 214.87448 h 32.80754 V 64.472803 L 575.50628,214.87448 h 31.22175 V 4.8075314 H 573.9205 V 155.60251 Z m 236.97071,-45.72803 c 0,-28.974894 -10.35983,-54.016735 -30.79916,-74.435145 C 759.65272,15.025105 734.58577,4.6736402 705.58577,4.6736402 H 644.88285 V 37.280335 h 60.70292 c 19.99582,0 37.27615,7.167364 51.34728,21.317991 14.13808,14.037657 21.318,31.301256 21.318,51.280334 0,19.98326 -7.17992,37.15481 -21.33055,51.29707 -14.05021,14.03766 -31.33054,21.16318 -51.34309,21.16318 h -60.72385 v 32.61506 h 60.72385 c 29,0 54.06694,-10.35983 74.50627,-30.77405 20.43096,-20.41841 30.79917,-45.4226 30.79917,-74.30126 m 72.64853,104.84519 c 0,0.39749 0.31799,0.72385 0.72385,0.72385 h 5.94561 a 26.025105,26.025105 0 0 0 26.03347,-26.00837 l 0.0251,-52.57741 L 1000,4.4769874 H 961.4728 L 899.8159,101.51464 838.31381,4.4769874 H 799.59414 L 883.53138,136.86611 v 77.86192 -0.008 z"
     id="path1"
     style="fill:#414047;fill-opacity:1;stroke-width:4.1841" />
</svg>
