<svg version="1.1" id="Layer_1" xmlns="http://www.w3.org/2000/svg" xmlns:xlink="http://www.w3.org/1999/xlink" x="0px" y="0px"
	 width="100%" viewBox="0 0 438 725" enable-background="new 0 0 438 725" xml:space="preserve">
<path fill="#FEFEFE" opacity="1.000000" stroke="none" 
	d="
M1.000000,209.000000 
	C1.000000,139.333344 1.000000,70.166702 1.000000,1.000037 
	C146.999954,1.000025 292.999908,1.000025 438.999878,1.000012 
	C438.999939,242.666565 438.999939,484.333130 438.999969,725.999756 
	C293.000153,725.999878 147.000290,725.999878 1.000216,725.999939 
	C1.000000,553.833313 1.000000,381.666656 1.000000,209.000000 
M151.144745,65.642815 
	C129.131744,85.417213 109.484489,107.330605 91.761650,131.012238 
	C53.061447,182.724304 32.540802,240.063263 32.985928,305.431458 
	C33.875507,436.068878 33.188248,566.716980 33.171261,697.360718 
	C33.171120,698.446594 33.435421,699.532532 33.558365,700.480469 
	C157.969711,700.480469 282.011993,700.480469 406.526947,700.480469 
	C406.526947,698.232788 406.527222,696.420959 406.526917,694.609131 
	C406.504852,560.299927 406.561035,425.990662 406.404572,291.681641 
	C406.366302,258.830383 399.733307,227.179352 386.514954,197.072403 
	C367.390106,153.512390 339.541992,115.955383 306.170715,82.371727 
	C282.265381,58.314274 256.424255,36.637333 227.107208,19.275618 
	C221.639969,16.037897 217.449768,16.264524 212.152054,19.460423 
	C190.378052,32.595779 170.717117,48.462799 151.144745,65.642815 
z"/>
<path fill="#050505" opacity="1.000000" stroke="none" 
	d="
M151.403534,65.402298 
	C170.717117,48.462799 190.378052,32.595779 212.152054,19.460423 
	C217.449768,16.264524 221.639969,16.037897 227.107208,19.275618 
	C256.424255,36.637333 282.265381,58.314274 306.170715,82.371727 
	C339.541992,115.955383 367.390106,153.512390 386.514954,197.072403 
	C399.733307,227.179352 406.366302,258.830383 406.404572,291.681641 
	C406.561035,425.990662 406.504852,560.299927 406.526917,694.609131 
	C406.527222,696.420959 406.526947,698.232788 406.526947,700.480469 
	C282.011993,700.480469 157.969711,700.480469 33.558365,700.480469 
	C33.435421,699.532532 33.171120,698.446594 33.171261,697.360718 
	C33.188248,566.716980 33.875507,436.068878 32.985928,305.431458 
	C32.540802,240.063263 53.061447,182.724304 91.761650,131.012238 
	C109.484489,107.330605 129.131744,85.417213 151.403534,65.402298 
M64.760345,215.637924 
	C54.708836,242.133865 50.821419,269.685822 50.817932,297.874634 
	C50.802204,425.024323 50.822346,552.174011 50.844196,679.323669 
	C50.844440,680.745667 51.039997,682.167603 51.138176,683.505127 
	C163.966415,683.505127 276.368469,683.505127 389.034729,683.505127 
	C389.034729,681.487244 389.035095,679.837463 389.034698,678.187744 
	C389.018188,610.363464 389.016083,542.539185 388.980743,474.714874 
	C388.947662,411.224426 388.980774,347.733582 388.704681,284.244080 
	C388.668060,275.825256 386.979828,267.413605 386.169159,258.157227 
	C383.719177,240.246353 378.960510,222.938049 371.605865,206.456894 
	C339.471161,134.445496 287.953369,79.407249 222.490524,36.599361 
	C219.830292,34.859760 218.311539,35.904480 216.348007,37.171783 
	C169.709549,67.273140 130.388397,104.963882 99.086571,150.841537 
	C85.384018,170.924759 73.132843,191.857956 64.760345,215.637924 
z"/>
<path fill="#FBFBFA" opacity="1.000000" stroke="none" 
	d="
M386.056519,258.998657 
	C386.979828,267.413605 388.668060,275.825256 388.704681,284.244080 
	C388.980774,347.733582 388.947662,411.224426 388.980743,474.714874 
	C389.016083,542.539185 389.018188,610.363464 389.034698,678.187744 
	C389.035095,679.837463 389.034729,681.487244 389.034729,683.505127 
	C276.368469,683.505127 163.966415,683.505127 51.138176,683.505127 
	C51.039997,682.167603 50.844440,680.745667 50.844196,679.323669 
	C50.822346,552.174011 50.802204,425.024323 50.817932,297.874634 
	C50.821419,269.685822 54.708836,242.133865 65.341270,215.321716 
	C68.793983,215.311386 71.910622,215.219681 70.351868,219.843994 
	C70.089874,220.621246 71.692062,222.026855 72.367043,223.532974 
	C64.049019,248.657944 60.898243,274.107697 60.931850,300.122437 
	C61.090939,423.271942 61.081734,546.421692 61.146206,669.571350 
	C61.146862,670.823547 61.332291,672.075623 61.427711,673.280396 
	C167.369324,673.280396 272.922394,673.280396 378.739227,673.280396 
	C378.739227,671.170776 378.739197,669.516724 378.739227,667.862671 
	C378.739594,641.866272 378.927124,615.868286 378.707794,589.873718 
	C377.788361,480.918243 380.960266,371.942780 377.459290,262.959412 
	C380.555878,261.610687 383.306213,260.304657 386.056519,258.998657 
z"/>
<path fill="#F7F7F5" opacity="1.000000" stroke="none" 
	d="
M72.432884,223.142136 
	C71.692062,222.026855 70.089874,220.621246 70.351868,219.843994 
	C71.910622,215.219681 68.793983,215.311386 65.534225,215.004990 
	C73.132843,191.857956 85.384018,170.924759 99.086571,150.841537 
	C130.388397,104.963882 169.709549,67.273140 216.348007,37.171783 
	C218.311539,35.904480 219.830292,34.859760 222.490524,36.599361 
	C287.953369,79.407249 339.471161,134.445496 371.605865,206.456894 
	C378.960510,222.938049 383.719177,240.246353 386.112854,258.577942 
	C383.306213,260.304657 380.555878,261.610687 377.322388,262.570953 
	C374.032928,243.369476 369.065399,225.117599 361.291168,207.690796 
	C339.750580,159.405380 307.851013,118.784271 268.361053,84.085266 
	C253.042862,70.625465 236.446320,58.620522 220.437958,45.957447 
	C153.601395,91.680580 101.533905,147.815979 72.432884,223.142136 
z"/>
<path fill="#040404" opacity="1.000000" stroke="none" 
	d="
M72.367043,223.532974 
	C101.533905,147.815979 153.601395,91.680580 220.437958,45.957447 
	C236.446320,58.620522 253.042862,70.625465 268.361053,84.085266 
	C307.851013,118.784271 339.750580,159.405380 361.291168,207.690796 
	C369.065399,225.117599 374.032928,243.369476 376.976166,262.613647 
	C380.960266,371.942780 377.788361,480.918243 378.707794,589.873718 
	C378.927124,615.868286 378.739594,641.866272 378.739227,667.862671 
	C378.739197,669.516724 378.739227,671.170776 378.739227,673.280396 
	C272.922394,673.280396 167.369324,673.280396 61.427711,673.280396 
	C61.332291,672.075623 61.146862,670.823547 61.146206,669.571350 
	C61.081734,546.421692 61.090939,423.271942 60.931850,300.122437 
	C60.898243,274.107697 64.049019,248.657944 72.367043,223.532974 
M284.622681,593.500305 
	C284.609985,573.673035 284.592804,553.845703 284.585419,534.018433 
	C284.561646,470.037140 284.550110,406.055847 284.511444,342.074554 
	C284.505127,331.637665 280.293335,325.695374 270.511322,322.058167 
	C269.748535,321.774567 268.988678,321.483093 267.982147,321.102539 
	C271.389832,309.517395 266.542603,301.433929 257.181580,295.044922 
	C247.513382,301.418854 243.698959,309.934570 247.064270,321.024414 
	C235.299133,325.819641 231.139267,331.323364 231.138062,341.792358 
	C231.126190,444.762299 231.120667,547.732239 231.113388,650.702148 
	C231.113266,652.468079 231.113403,654.234009 231.113403,655.830994 
	C249.332260,655.830994 266.916809,655.830994 284.623016,655.830994 
	C284.623016,635.152588 284.623016,614.826477 284.622681,593.500305 
M180.499969,656.142090 
	C189.763763,656.142090 199.027542,656.142090 208.380325,656.142090 
	C208.380325,654.153015 208.379700,652.822266 208.380432,651.491455 
	C208.437592,549.371582 208.402740,447.251404 208.676071,345.132080 
	C208.707962,333.219360 205.218842,324.665985 192.782272,321.327484 
	C196.451721,309.668640 191.897873,301.425446 182.534271,295.012177 
	C172.475067,301.071503 168.656891,309.785156 171.423172,321.000031 
	C158.353561,326.141205 155.127731,330.952576 155.130676,344.517853 
	C155.152664,446.138611 155.162674,547.759399 155.176392,649.380127 
	C155.176682,651.499878 155.176437,653.619568 155.176437,656.142761 
	C163.588303,656.142761 171.544144,656.142761 180.499969,656.142090 
M361.015076,511.500000 
	C361.007812,454.854431 361.006836,398.208832 360.987396,341.563263 
	C360.984009,331.695709 356.731293,325.568207 347.642151,322.132721 
	C346.776062,321.805298 345.944031,321.387787 345.153839,321.037628 
	C347.836090,309.561981 344.558502,301.718964 334.450562,295.168915 
	C324.986694,301.304016 320.728027,309.656616 323.851288,321.160583 
	C311.380676,324.726501 307.411621,333.157013 307.442444,345.394684 
	C307.676575,438.358612 307.552124,531.323425 307.539886,624.287964 
	C307.538513,634.748718 307.539703,645.209534 307.539703,655.921265 
	C325.476593,655.921265 343.041931,655.921265 361.014587,655.921265 
	C361.014587,608.036255 361.014587,560.268127 361.015076,511.500000 
M132.117645,346.540955 
	C132.113571,345.208282 132.112732,343.875549 132.104919,342.542908 
	C132.040665,331.568634 128.385193,326.187592 118.152267,321.961243 
	C117.433121,321.664246 116.766594,321.239868 116.152878,320.915558 
	C118.537880,309.191498 115.099678,301.367371 105.018059,295.378845 
	C95.573776,301.396667 91.810272,309.822845 94.623787,321.003052 
	C84.216766,324.278015 78.475754,330.653534 78.489876,341.845551 
	C78.620262,445.140411 78.636620,548.435364 78.699509,651.730347 
	C78.700378,653.147339 78.873886,654.564148 78.953476,655.777710 
	C96.943451,655.777710 114.496170,655.777710 132.118805,655.777710 
	C132.118805,552.779785 132.118805,450.154602 132.117645,346.540955 
M154.720001,159.521896 
	C155.125153,203.292191 199.283783,235.081223 240.050018,220.949478 
	C270.021912,210.559631 289.085785,181.208496 284.752228,152.125031 
	C279.788544,118.813072 249.715576,94.239754 215.961975,95.915001 
	C183.362137,97.532990 156.510178,125.015869 154.720001,159.521896 
M272.491669,284.989471 
	C280.129425,293.192230 287.767151,301.394989 295.865173,310.092010 
	C301.809082,303.358887 306.927185,296.529907 313.102600,290.850586 
	C319.514709,284.953522 326.949829,280.168823 333.937561,274.897644 
	C341.036041,279.961853 348.240021,284.887665 355.171082,290.171478 
	C357.354675,291.836121 358.806702,294.460419 360.996216,297.137848 
	C360.996216,295.647552 361.071930,294.974701 360.982056,294.324768 
	C360.708832,292.348572 360.452728,290.364410 360.047302,288.412964 
	C353.078125,254.869370 334.566132,230.919647 302.087646,218.466385 
	C297.617584,216.752426 293.573273,216.956055 289.087219,218.504959 
	C257.240784,229.500793 233.858917,260.329132 229.770676,297.757782 
	C231.125320,296.170868 231.984009,295.028656 232.979965,294.022247 
	C236.946487,290.014008 240.465973,285.333099 245.040283,282.199432 
	C259.229706,272.478882 255.518402,273.092834 269.225098,282.341187 
	C270.186829,282.990112 271.042328,283.796509 272.491669,284.989471 
M103.501663,241.012970 
	C88.798668,257.302185 77.142014,283.942261 79.520660,296.205414 
	C85.534760,287.337524 93.638191,281.093597 102.842445,276.285187 
	C104.358955,275.492950 107.310715,275.485474 108.551453,276.455444 
	C115.192680,281.647369 121.758614,286.995270 127.849800,292.813538 
	C133.409668,298.124298 138.330841,304.103699 142.133133,308.258331 
	C147.132736,304.179230 152.707047,301.089325 156.223770,296.442291 
	C162.505768,288.141144 170.077835,281.745911 178.805527,276.369232 
	C181.293488,274.836517 183.196075,274.938324 185.636520,276.316925 
	C194.769623,281.476196 202.817200,287.828674 209.313004,296.522247 
	C208.384811,289.511108 207.252197,282.630615 204.997971,276.139618 
	C195.038696,247.462067 176.906479,226.661041 147.022430,217.708954 
	C144.957382,217.090363 142.406311,217.152054 140.310623,217.729614 
	C125.960503,221.684387 114.142197,229.784912 103.501663,241.012970 
M337.830078,198.687057 
	C327.589081,179.300934 316.064575,160.783707 301.493134,143.685059 
	C301.940094,150.641098 302.623932,156.760345 302.605652,162.877487 
	C302.596283,166.007355 303.373077,168.026474 305.766754,170.075089 
	C319.426514,181.765869 331.479645,194.950943 341.651215,209.823792 
	C342.046692,209.638000 342.442200,209.452209 342.837677,209.266418 
	C341.263428,205.970520 339.689178,202.674622 337.830078,198.687057 
M117.939209,185.444092 
	C121.954346,181.462448 125.599815,176.988739 130.078491,173.624100 
	C135.636536,169.448593 138.101501,164.659012 137.355087,157.667374 
	C136.922577,153.616028 137.838318,149.420746 138.245773,143.974197 
	C121.352333,164.865204 107.975594,186.021072 97.907288,209.342911 
	C104.421227,201.547623 110.935165,193.752319 117.939209,185.444092 
M230.885010,243.967163 
	C231.326233,243.058838 231.767441,242.150497 232.158356,241.345734 
	C223.741287,241.345734 215.696884,241.345734 207.815048,241.345734 
	C211.767120,248.849823 215.747253,256.407166 219.683609,263.881409 
	C223.188248,257.564117 226.787109,251.076935 230.885010,243.967163 
M221.474625,78.508430 
	C226.249908,78.932396 231.025208,79.356369 236.935654,79.881126 
	C230.611816,75.351822 225.262604,71.520569 219.791183,67.601776 
	C214.380219,71.619911 209.239761,75.437187 203.416077,79.761810 
	C209.903259,79.281494 215.197205,78.889519 221.474625,78.508430 
M137.708649,190.105286 
	C133.770111,194.197693 129.831573,198.290115 125.243279,203.057663 
	C133.358841,201.228683 140.316330,199.660690 147.180511,198.113739 
	C145.736191,195.022430 143.792328,190.861923 141.709473,186.403946 
	C140.389969,187.607300 139.304825,188.596939 137.708649,190.105286 
M310.718536,198.778091 
	C306.578735,194.812408 302.438934,190.846741 298.172455,186.759735 
	C296.366150,190.740524 294.567352,194.704803 293.230927,197.650070 
	C300.615082,199.667221 307.671112,201.594742 315.220428,203.657013 
	C313.650757,201.960983 312.422058,200.633347 310.718536,198.778091 
z"/>
<path fill="#FCFCFB" opacity="1.000000" stroke="none" 
	d="
M284.622864,594.000366 
	C284.623016,614.826477 284.623016,635.152588 284.623016,655.830994 
	C266.916809,655.830994 249.332260,655.830994 231.113403,655.830994 
	C231.113403,654.234009 231.113266,652.468079 231.113388,650.702148 
	C231.120667,547.732239 231.126190,444.762299 231.138062,341.792358 
	C231.139267,331.323364 235.299133,325.819641 247.064270,321.024414 
	C243.698959,309.934570 247.513382,301.418854 257.181580,295.044922 
	C266.542603,301.433929 271.389832,309.517395 267.982147,321.102539 
	C268.988678,321.483093 269.748535,321.774567 270.511322,322.058167 
	C280.293335,325.695374 284.505127,331.637665 284.511444,342.074554 
	C284.550110,406.055847 284.561646,470.037140 284.585419,534.018433 
	C284.592804,553.845703 284.609985,573.673035 284.622864,594.000366 
z"/>
<path fill="#FDFDFD" opacity="1.000000" stroke="none" 
	d="
M179.999969,656.142456 
	C171.544144,656.142761 163.588303,656.142761 155.176437,656.142761 
	C155.176437,653.619568 155.176682,651.499878 155.176392,649.380127 
	C155.162674,547.759399 155.152664,446.138611 155.130676,344.517853 
	C155.127731,330.952576 158.353561,326.141205 171.423172,321.000031 
	C168.656891,309.785156 172.475067,301.071503 182.534271,295.012177 
	C191.897873,301.425446 196.451721,309.668640 192.782272,321.327484 
	C205.218842,324.665985 208.707962,333.219360 208.676071,345.132080 
	C208.402740,447.251404 208.437592,549.371582 208.380432,651.491455 
	C208.379700,652.822266 208.380325,654.153015 208.380325,656.142090 
	C199.027542,656.142090 189.763763,656.142090 179.999969,656.142456 
z"/>
<path fill="#FDFDFD" opacity="1.000000" stroke="none" 
	d="
M361.014832,512.000000 
	C361.014587,560.268127 361.014587,608.036255 361.014587,655.921265 
	C343.041931,655.921265 325.476593,655.921265 307.539703,655.921265 
	C307.539703,645.209534 307.538513,634.748718 307.539886,624.287964 
	C307.552124,531.323425 307.676575,438.358612 307.442444,345.394684 
	C307.411621,333.157013 311.380676,324.726501 323.851288,321.160583 
	C320.728027,309.656616 324.986694,301.304016 334.450562,295.168915 
	C344.558502,301.718964 347.836090,309.561981 345.153839,321.037628 
	C345.944031,321.387787 346.776062,321.805298 347.642151,322.132721 
	C356.731293,325.568207 360.984009,331.695709 360.987396,341.563263 
	C361.006836,398.208832 361.007812,454.854431 361.014832,512.000000 
z"/>
<path fill="#FFFFFE" opacity="1.000000" stroke="none" 
	d="
M132.118225,347.035217 
	C132.118805,450.154602 132.118805,552.779785 132.118805,655.777710 
	C114.496170,655.777710 96.943451,655.777710 78.953476,655.777710 
	C78.873886,654.564148 78.700378,653.147339 78.699509,651.730347 
	C78.636620,548.435364 78.620262,445.140411 78.489876,341.845551 
	C78.475754,330.653534 84.216766,324.278015 94.623787,321.003052 
	C91.810272,309.822845 95.573776,301.396667 105.018059,295.378845 
	C115.099678,301.367371 118.537880,309.191498 116.152878,320.915558 
	C116.766594,321.239868 117.433121,321.664246 118.152267,321.961243 
	C128.385193,326.187592 132.040665,331.568634 132.104919,342.542908 
	C132.112732,343.875549 132.113571,345.208282 132.118225,347.035217 
z"/>
<path fill="#F8F8F7" opacity="1.000000" stroke="none" 
	d="
M154.739075,159.039383 
	C156.510178,125.015869 183.362137,97.532990 215.961975,95.915001 
	C249.715576,94.239754 279.788544,118.813072 284.752228,152.125031 
	C289.085785,181.208496 270.021912,210.559631 240.050018,220.949478 
	C199.283783,235.081223 155.125153,203.292191 154.739075,159.039383 
M272.771698,141.749084 
	C265.661438,134.769058 257.051239,132.220551 247.290268,133.297440 
	C245.327026,111.287590 236.606979,100.895752 220.059464,100.707779 
	C213.131805,100.629089 206.935898,102.673782 201.698486,107.281532 
	C193.886063,114.154732 192.140778,123.230042 192.924347,133.033890 
	C172.410187,133.210464 160.307526,142.806198 159.914291,158.861893 
	C159.477112,176.711655 170.201355,185.988876 192.502167,187.052719 
	C193.570923,207.963257 202.163849,218.618500 218.609818,219.341019 
	C225.515518,219.644394 231.815445,217.837402 237.185883,213.380661 
	C245.644440,206.361221 247.577042,196.801773 247.009476,186.431625 
	C260.620789,187.927856 271.650177,183.065521 276.791809,172.981094 
	C282.339935,162.099426 281.023254,151.756363 272.771698,141.749084 
z"/>
<path fill="#F6F6F5" opacity="1.000000" stroke="none" 
	d="
M272.219421,284.759583 
	C271.042328,283.796509 270.186829,282.990112 269.225098,282.341187 
	C255.518402,273.092834 259.229706,272.478882 245.040283,282.199432 
	C240.465973,285.333099 236.946487,290.014008 232.979965,294.022247 
	C231.984009,295.028656 231.125320,296.170868 229.770676,297.757782 
	C233.858917,260.329132 257.240784,229.500793 289.087219,218.504959 
	C293.573273,216.956055 297.617584,216.752426 302.087646,218.466385 
	C334.566132,230.919647 353.078125,254.869370 360.047302,288.412964 
	C360.452728,290.364410 360.708832,292.348572 360.982056,294.324768 
	C361.071930,294.974701 360.996216,295.647552 360.996216,297.137848 
	C358.806702,294.460419 357.354675,291.836121 355.171082,290.171478 
	C348.240021,284.887665 341.036041,279.961853 333.937561,274.897644 
	C326.949829,280.168823 319.514709,284.953522 313.102600,290.850586 
	C306.927185,296.529907 301.809082,303.358887 295.865173,310.092010 
	C287.767151,301.394989 280.129425,293.192230 272.219421,284.759583 
M307.724030,293.194244 
	C309.675385,288.096802 311.626740,282.999359 313.734192,277.494141 
	C324.661102,278.302368 333.268707,272.279144 334.030701,262.216461 
	C334.854401,251.339523 327.854034,245.287827 312.703491,243.779373 
	C312.061707,230.327866 306.108704,222.970383 295.727783,222.798615 
	C285.400452,222.627747 279.847900,229.387619 278.458466,243.822845 
	C264.539307,244.470993 256.728058,250.357681 257.335693,260.804474 
	C257.566162,264.766357 259.667511,269.151978 262.194702,272.326630 
	C266.293396,277.475403 272.600769,278.118011 279.280792,277.379944 
	C278.226318,286.143738 280.785583,293.074280 288.719452,296.778931 
	C295.335693,299.868317 301.696838,298.716095 307.724030,293.194244 
z"/>
<path fill="#F7F6F5" opacity="1.000000" stroke="none" 
	d="
M103.749634,240.758026 
	C114.142197,229.784912 125.960503,221.684387 140.310623,217.729614 
	C142.406311,217.152054 144.957382,217.090363 147.022430,217.708954 
	C176.906479,226.661041 195.038696,247.462067 204.997971,276.139618 
	C207.252197,282.630615 208.384811,289.511108 209.313004,296.522247 
	C202.817200,287.828674 194.769623,281.476196 185.636520,276.316925 
	C183.196075,274.938324 181.293488,274.836517 178.805527,276.369232 
	C170.077835,281.745911 162.505768,288.141144 156.223770,296.442291 
	C152.707047,301.089325 147.132736,304.179230 142.133133,308.258331 
	C138.330841,304.103699 133.409668,298.124298 127.849800,292.813538 
	C121.758614,286.995270 115.192680,281.647369 108.551453,276.455444 
	C107.310715,275.485474 104.358955,275.492950 102.842445,276.285187 
	C93.638191,281.093597 85.534760,287.337524 79.520660,296.205414 
	C77.142014,283.942261 88.798668,257.302185 103.749634,240.758026 
M180.887527,254.033951 
	C176.737442,245.503006 169.309235,243.313416 160.606033,243.987610 
	C161.076584,231.802612 154.976151,223.301056 145.014893,223.186707 
	C141.016357,223.140823 136.478790,224.758087 133.089890,226.989975 
	C127.288071,230.811020 126.605713,237.368362 126.926285,243.818649 
	C113.113327,244.349670 105.412933,250.163864 105.726128,260.582092 
	C105.841507,264.420288 107.631622,268.738953 109.964760,271.862152 
	C114.024750,277.296967 120.444427,278.250000 126.904373,277.794647 
	C127.673920,290.815948 133.314865,298.268921 143.007141,298.164368 
	C146.730194,298.124207 150.960648,296.685272 154.026199,294.545807 
	C159.812332,290.507629 160.943558,284.004486 160.104675,277.284454 
	C177.084229,277.129700 185.019485,268.392822 180.887527,254.033951 
z"/>
<path fill="#F3F3F2" opacity="1.000000" stroke="none" 
	d="
M337.972534,199.032898 
	C339.689178,202.674622 341.263428,205.970520 342.837677,209.266418 
	C342.442200,209.452209 342.046692,209.638000 341.651215,209.823792 
	C331.479645,194.950943 319.426514,181.765869 305.766754,170.075089 
	C303.373077,168.026474 302.596283,166.007355 302.605652,162.877487 
	C302.623932,156.760345 301.940094,150.641098 301.493134,143.685059 
	C316.064575,160.783707 327.589081,179.300934 337.972534,199.032898 
z"/>
<path fill="#F4F4F2" opacity="1.000000" stroke="none" 
	d="
M117.694153,185.700562 
	C110.935165,193.752319 104.421227,201.547623 97.907288,209.342911 
	C107.975594,186.021072 121.352333,164.865204 138.245773,143.974197 
	C137.838318,149.420746 136.922577,153.616028 137.355087,157.667374 
	C138.101501,164.659012 135.636536,169.448593 130.078491,173.624100 
	C125.599815,176.988739 121.954346,181.462448 117.694153,185.700562 
z"/>
<path fill="#F3F2F2" opacity="1.000000" stroke="none" 
	d="
M230.635498,244.278458 
	C226.787109,251.076935 223.188248,257.564117 219.683609,263.881409 
	C215.747253,256.407166 211.767120,248.849823 207.815048,241.345734 
	C215.696884,241.345734 223.741287,241.345734 232.158356,241.345734 
	C231.767441,242.150497 231.326233,243.058838 230.635498,244.278458 
z"/>
<path fill="#EDEDEB" opacity="1.000000" stroke="none" 
	d="
M220.982895,78.502991 
	C215.197205,78.889519 209.903259,79.281494 203.416077,79.761810 
	C209.239761,75.437187 214.380219,71.619911 219.791183,67.601776 
	C225.262604,71.520569 230.611816,75.351822 236.935654,79.881126 
	C231.025208,79.356369 226.249908,78.932396 220.982895,78.502991 
z"/>
<path fill="#F0F0EF" opacity="1.000000" stroke="none" 
	d="
M137.964172,189.845932 
	C139.304825,188.596939 140.389969,187.607300 141.709473,186.403946 
	C143.792328,190.861923 145.736191,195.022430 147.180511,198.113739 
	C140.316330,199.660690 133.358841,201.228683 125.243279,203.057663 
	C129.831573,198.290115 133.770111,194.197693 137.964172,189.845932 
z"/>
<path fill="#EFEFEE" opacity="1.000000" stroke="none" 
	d="
M310.955933,199.041901 
	C312.422058,200.633347 313.650757,201.960983 315.220428,203.657013 
	C307.671112,201.594742 300.615082,199.667221 293.230927,197.650070 
	C294.567352,194.704803 296.366150,190.740524 298.172455,186.759735 
	C302.438934,190.846741 306.578735,194.812408 310.955933,199.041901 
z"/>
<path fill="#020202" opacity="1.000000" stroke="none" 
	d="
M273.012878,142.015839 
	C281.023254,151.756363 282.339935,162.099426 276.791809,172.981094 
	C271.650177,183.065521 260.620789,187.927856 247.009476,186.431625 
	C247.577042,196.801773 245.644440,206.361221 237.185883,213.380661 
	C231.815445,217.837402 225.515518,219.644394 218.609818,219.341019 
	C202.163849,218.618500 193.570923,207.963257 192.502167,187.052719 
	C170.201355,185.988876 159.477112,176.711655 159.914291,158.861893 
	C160.307526,142.806198 172.410187,133.210464 192.924347,133.033890 
	C192.140778,123.230042 193.886063,114.154732 201.698486,107.281532 
	C206.935898,102.673782 213.131805,100.629089 220.059464,100.707779 
	C236.606979,100.895752 245.327026,111.287590 247.290268,133.297440 
	C257.051239,132.220551 265.661438,134.769058 273.012878,142.015839 
z"/>
<path fill="#030303" opacity="1.000000" stroke="none" 
	d="
M307.466187,293.465210 
	C301.696838,298.716095 295.335693,299.868317 288.719452,296.778931 
	C280.785583,293.074280 278.226318,286.143738 279.280792,277.379944 
	C272.600769,278.118011 266.293396,277.475403 262.194702,272.326630 
	C259.667511,269.151978 257.566162,264.766357 257.335693,260.804474 
	C256.728058,250.357681 264.539307,244.470993 278.458466,243.822845 
	C279.847900,229.387619 285.400452,222.627747 295.727783,222.798615 
	C306.108704,222.970383 312.061707,230.327866 312.703491,243.779373 
	C327.854034,245.287827 334.854401,251.339523 334.030701,262.216461 
	C333.268707,272.279144 324.661102,278.302368 313.734192,277.494141 
	C311.626740,282.999359 309.675385,288.096802 307.466187,293.465210 
z"/>
<path fill="#030303" opacity="1.000000" stroke="none" 
	d="
M180.998840,254.416779 
	C185.019485,268.392822 177.084229,277.129700 160.104675,277.284454 
	C160.943558,284.004486 159.812332,290.507629 154.026199,294.545807 
	C150.960648,296.685272 146.730194,298.124207 143.007141,298.164368 
	C133.314865,298.268921 127.673920,290.815948 126.904373,277.794647 
	C120.444427,278.250000 114.024750,277.296967 109.964760,271.862152 
	C107.631622,268.738953 105.841507,264.420288 105.726128,260.582092 
	C105.412933,250.163864 113.113327,244.349670 126.926285,243.818649 
	C126.605713,237.368362 127.288071,230.811020 133.089890,226.989975 
	C136.478790,224.758087 141.016357,223.140823 145.014893,223.186707 
	C154.976151,223.301056 161.076584,231.802612 160.606033,243.987610 
	C169.309235,243.313416 176.737442,245.503006 180.998840,254.416779 
z"/>
</svg>